<mxfile host="Electron" agent="Mozilla/5.0 (Windows NT 10.0; Win64; x64) AppleWebKit/537.36 (KHTML, like Gecko) draw.io/26.2.15 Chrome/134.0.6998.205 Electron/35.2.1 Safari/537.36" version="26.2.15">
  <diagram name="第 1 页" id="whgD8BjdVs42x2o3Yajm">
    <mxGraphModel dx="9741" dy="7151" grid="1" gridSize="10" guides="1" tooltips="1" connect="1" arrows="1" fold="1" page="1" pageScale="1" pageWidth="827" pageHeight="1169" math="0" shadow="0">
      <root>
        <mxCell id="0" />
        <mxCell id="1" parent="0" />
        <mxCell id="4YbMYwuu7XEmXsVKCc5W-10" value="" style="endArrow=classic;html=1;rounded=5;strokeWidth=10;" parent="1" edge="1">
          <mxGeometry width="50" height="50" relative="1" as="geometry">
            <mxPoint x="-1473" y="-1150" as="sourcePoint" />
            <mxPoint x="3430" y="-440" as="targetPoint" />
          </mxGeometry>
        </mxCell>
        <mxCell id="4YbMYwuu7XEmXsVKCc5W-11" value="&lt;font style=&quot;font-size: 90px;&quot;&gt;750-1500ms&lt;/font&gt;" style="text;html=1;align=center;verticalAlign=middle;resizable=0;points=[];autosize=1;strokeColor=none;fillColor=none;" parent="1" vertex="1">
          <mxGeometry y="-2260" width="520" height="120" as="geometry" />
        </mxCell>
        <mxCell id="4YbMYwuu7XEmXsVKCc5W-12" value="&lt;span style=&quot;color: rgb(0, 0, 0); font-family: Helvetica; font-size: 90px; font-style: normal; font-variant-ligatures: normal; font-variant-caps: normal; font-weight: 400; letter-spacing: normal; orphans: 2; text-align: center; text-indent: 0px; text-transform: none; widows: 2; word-spacing: 0px; -webkit-text-stroke-width: 0px; white-space: nowrap; background-color: rgb(236, 236, 236); text-decoration-thickness: initial; text-decoration-style: initial; text-decoration-color: initial; display: inline !important; float: none;&quot;&gt;500ms&lt;/span&gt;" style="text;whiteSpace=wrap;html=1;" parent="1" vertex="1">
          <mxGeometry x="1690" y="-1970" width="530" height="130" as="geometry" />
        </mxCell>
        <mxCell id="4YbMYwuu7XEmXsVKCc5W-13" value="&lt;span style=&quot;color: rgb(0, 0, 0); font-family: Helvetica; font-size: 90px; font-style: normal; font-variant-ligatures: normal; font-variant-caps: normal; font-weight: 400; letter-spacing: normal; orphans: 2; text-align: center; text-indent: 0px; text-transform: none; widows: 2; word-spacing: 0px; -webkit-text-stroke-width: 0px; white-space: nowrap; background-color: rgb(236, 236, 236); text-decoration-thickness: initial; text-decoration-style: initial; text-decoration-color: initial; display: inline !important; float: none;&quot;&gt;500ms&lt;/span&gt;" style="text;whiteSpace=wrap;html=1;" parent="1" vertex="1">
          <mxGeometry x="3220" y="-1660" width="300" height="160" as="geometry" />
        </mxCell>
        <mxCell id="4YbMYwuu7XEmXsVKCc5W-14" value="&lt;span style=&quot;color: rgb(0, 0, 0); font-family: Helvetica; font-size: 90px; font-style: normal; font-variant-ligatures: normal; font-variant-caps: normal; font-weight: 400; letter-spacing: normal; orphans: 2; text-align: center; text-indent: 0px; text-transform: none; widows: 2; word-spacing: 0px; -webkit-text-stroke-width: 0px; white-space: nowrap; background-color: rgb(236, 236, 236); text-decoration-thickness: initial; text-decoration-style: initial; text-decoration-color: initial; display: inline !important; float: none;&quot;&gt;500ms&lt;/span&gt;" style="text;whiteSpace=wrap;html=1;" parent="1" vertex="1">
          <mxGeometry x="167" y="-610" width="300" height="130" as="geometry" />
        </mxCell>
        <mxCell id="4YbMYwuu7XEmXsVKCc5W-15" value="&lt;span style=&quot;color: rgb(0, 0, 0); font-family: Helvetica; font-size: 90px; font-style: normal; font-variant-ligatures: normal; font-variant-caps: normal; font-weight: 400; letter-spacing: normal; orphans: 2; text-align: center; text-indent: 0px; text-transform: none; widows: 2; word-spacing: 0px; -webkit-text-stroke-width: 0px; white-space: nowrap; background-color: rgb(236, 236, 236); text-decoration-thickness: initial; text-decoration-style: initial; text-decoration-color: initial; display: inline !important; float: none;&quot;&gt;500ms&lt;/span&gt;" style="text;whiteSpace=wrap;html=1;" parent="1" vertex="1">
          <mxGeometry x="3197" y="10" width="300" height="130" as="geometry" />
        </mxCell>
        <mxCell id="4YbMYwuu7XEmXsVKCc5W-17" value="&lt;font style=&quot;font-size: 90px;&quot;&gt;不限制时间&lt;/font&gt;" style="text;whiteSpace=wrap;html=1;" parent="1" vertex="1">
          <mxGeometry x="1687" y="-320" width="590" height="130" as="geometry" />
        </mxCell>
        <mxCell id="4YbMYwuu7XEmXsVKCc5W-18" value="" style="endArrow=classic;html=1;rounded=5;strokeWidth=10;" parent="1" edge="1">
          <mxGeometry width="50" height="50" relative="1" as="geometry">
            <mxPoint x="-1540" y="540" as="sourcePoint" />
            <mxPoint x="3363" y="1250" as="targetPoint" />
          </mxGeometry>
        </mxCell>
        <mxCell id="4YbMYwuu7XEmXsVKCc5W-19" value="" style="shape=image;verticalLabelPosition=bottom;labelBackgroundColor=default;verticalAlign=top;aspect=fixed;imageAspect=0;image=data:image/png,iVBORw0KGgoAAAANSUhEUgAABjsAAAOCCAYAAAAhvWDQAAAAAXNSR0IArs4c6QAAAARnQU1BAACxjwv8YQUAAAAJcEhZcwAADsMAAA7DAcdvqGQAAFcVSURBVHhe7N17mNZ1nfj/1z0nmAGG80FFERUUBFJAPGSKrZqaZ01Kc81jZpbllh2u/WW17e53tzbNSs3M3S07eSUaHioURVNDOYMIIiEICHKQM4zMwP37Y2c+zn3PDCdBecPjcV2f6+J+fz73zSBzkM/zfr/fuVtvvTUfAAAAAAAAiSopHgAAAAAAAEiJ2AEAAAAAACRN7AAAAAAAAJImdgAAAAAAAEkTOwAAAAAAgKSJHQAAAAAAQNLEDgAAAAAAIGliBwAAAAAAkDSxAwAAAAAASJrYAQAAAAAAJE3sAAAAAAAAkiZ2AAAAAAAASRM7AAAAAACApIkdAAAAAABA0sQOAAAAAAAgaWIHAAAAAACQNLEDAAAAAABImtgBAAAAAAAkTewAAAAAAACSJnYAAAAAAABJEzsAAAAAAICkiR0AAAAAAEDSxA4AAAAAACBpYgcAAAAAAJA0sQMAAAAAAEia2AEAAAAAACRN7AAAAAAAAJImdgAAAAAAAEkTOwAAAAAAgKSJHQAAAAAAQNLEDgAAAAAAIGliBwAAAAAAkDSxAwAAAAAASJrYAQAAAAAAJE3sAAAAAAAAkiZ2AAAAAAAASRM7AAAAAACApIkdAAAAAABA0sQOAAAAAAAgaWIHAAAAAACQNLEDAAAAAABImtgBAAAAAAAkTewAAAAAAACSJnYAAAAAAABJEzsAAAAAAICkiR0AAAAAAEDSxA4AAAAAACBpYgcAAAAAAJA0sQMAAAAAAEia2AEAAAAAACRN7AAAAAAAAJImdgAAAAAAAEkTOwAAAAAAgKSJHQAAAAAAQNLEDgAAAAAAIGliBwAAAAAAkDSxAwAAAAAASJrYAQAAAAAAJE3sAAAAAAAAkiZ2AAAAAAAASRM7AAAAAACApIkdAAAAAABA0sQOAAAAAAAgaWIHAAAAAACQNLEDAAAAAABImtgBAAAAAAAkTewAAAAAAACSJnYAAAAAAABJEzsAAAAAAICkiR0AAAAAAEDSxA4AAAAAACBpYgcAAAAAAJA0sQMAAAAAAEia2AEAAAAAACRN7AAAAAAAAJImdgAAAAAAAEkTOwAAAAAAgKSJHQAAAAAAQNLEDgAAAAAAIGliBwAAAAAAkDSxAwAAAAAASJrYAQAAAAAAJE3sAAAAAAAAkiZ2AAAAAAAASRM7AAAAAACApIkdAAAAAABA0sQOAAAAAAAgaWIHAAAAAACQNLEDAAAAAABImtgBAAAAAAAkTewAAAAAAACSJnYAAAAAAABJEzsAAAAAAICkiR0AAAAAAEDSxA4AAAAAACBpYgcAAAAAAJA0sQMAAAAAAEia2AEAAAAAACRN7AAAAAAAAJImdgAAAAAAAEkTOwAAAAAAgKSJHQAAAAAAQNLEDgAAAAAAIGliBwAAAAAAkDSxAwAAAAAASJrYAQAAAAAAJE3sAAAAAAAAkiZ2AAAAAAAASRM7AAAAAACApIkdAAAAAABA0sQOAAAAAAAgaWIHAAAAAACQNLEDAAAAAABImtgBAAAAAAAkTewAAAAAAACSJnYAAAAAAABJEzsAAAAAAICkiR0AAAAAAEDSxA4AAAAAACBpYgcAAAAAAJA0sQMAAAAAAEia2AEAAAAAACRN7AAAAAAAAJImdgAAAAAAAEkTOwAAAAAAgKSJHQAAAAAAQNLEDgAAAAAAIGliBwAAAAAAkDSxAwAAAAAASJrYAQAAAAAAJE3sAAAAAAAAkiZ2AAAAAAAASRM7AAAAAACApIkdAAAAAABA0sQOAAAAAAAgaWIHAAAAAACQNLEDAAAAAABImtgBAAAAAAAkTewAAAAAAACSJnYAAAAAAABJEzsAAAAAAICkiR0AAAAAAEDSxA4AAAAAACBpYgcAAAAAAJA0sQMAAAAAAEia2AEAAAAAACRN7AAAAAAAAJImdgAAAAAAAEkTOwAAAAAAgKSJHQAAAAAAQNLEDgAAAAAAIGliBwAAAAAAkDSxAwAAAAAASJrYAQAAAAAAJE3sAAAAAAAAkiZ2AAAAAAAASRM7AAAAAACApIkdAAAAAABA0sQOAAAAAAAgaWIHAAAAAACQNLEDAAAAAABImtgBAAAAAAAkTewAAAAAAACSJnYAAAAAAABJEzsAAAAAAICkiR0AAAAAAEDSxA4AAAAAACBpYgcAAAAAAJA0sQMAAAAAAEia2AEAAAAAACRN7AAAAAAAAJImdgAAAAAAAEkTOwAAAAAAgKSJHQAAAAAAQNLEDgAAAAAAIGliBwAAAAAAkDSxAwAAAAAASJrYAQAAAAAAJE3sAAAAAAAAkiZ2AAAAAAAASRM7AAAAAACApIkdAAAAAABA0sQOAAAAAAAgaWIHAAAAAACQNLEDAAAAAABImtgBAAAAAAAkTewAAAAAAACSJnYAAAAAAABJEzsAAAAAAICkiR0AAAAAAEDSxA4AAAAAACBpYgcAAAAAAJA0sQMAAAAAAEia2AEAAAAAACRN7AAAAAAAAJImdgAAAAAAAEkTOwAAAAAAgKSJHQAAAAAAQNLEDgAAAAAAIGliBwAAAAAAkDSxAwAAAAAASJrYAQAAAAAAJE3sAAAAAAAAkiZ2AAAAAAAASRM7AAAAAACApIkdAAAAAABA0sQOAAAAAAAgaWIHAAAAAACQNLEDAAAAAABImtgBAAAAAAAkTewAAAAAAACSJnYAAAAAAABJEzsAAAAAAICkiR0AAAAAAEDSxA4AAAAAACBpYgcAAAAAAJA0sQMAAAAAAEia2AEAAAAAACRN7AAAAAAAAJImdgAAAAAAAEkTOwAAAAAAgKSJHQAAAAAAQNLEDgAAAAAAIGliBwAAAAAAkDSxAwAAAAAASJrYAQAAAAAAJE3sAAAAAAAAkiZ2AAAAAAAASRM7AAAAAACApIkdAAAAAABA0sQOAAAAAAAgaWIHAAAAAACQNLEDAAAAAABImtgBAAAAAAAkTewAAAAAAACSJnYAAAAAAABJEzsAAAAAAICkiR0AAAAAAEDSxA4AAAAAACBpYgcAAAAAAJA0sQMAAAAAAEia2AEAAAAAACRN7AAAAAAAAJImdgAAAAAAAEkTOwAAAAAAgKSJHQAAAAAAQNLEDgAAAAAAIGliBwAAAAAAkDSxAwAAAAAASJrYAQAAAAAAJE3sAAAAAAAAkiZ2AAAAAAAASRM7AAAAAACApIkdAAAAAABA0sQOAAAAAAAgaWIHAAAAAACQNLEDAAAAAABImtgBAAAAAAAkTewAAAAAAACSJnYAAAAAAABJEzsAAAAAAICkiR0AAAAAAEDSxA4AAAAAACBpYgcAAAAAAJA0sQMAAAAAAEia2AEAAAAAACRN7AAAAAAAAJImdgAAAAAAAEkTOwAAAAAAgKSJHQAAAAAAQNLEDgAAAAAAIGliBwAAAAAAkDSxAwAAAAAASJrYAQAAAAAAJE3sAAAAAAAAkiZ2AAAAAAAASRM7AAAAAACApIkdAAAAAABA0sQOAAAAAAAgaWIHAAAAAACQNLEDAAAAAABImtgBAAAAAAAkTewAAAAAAACSJnYAAAAAAABJEzsAAAAAAICkiR0AAAAAAEDSxA4AAAAAACBpYgcAAAAAAJA0sQMAAAAAAEia2AEAAAAAACRN7AAAAAAAAJImdgAAAAAAAEkTOwAAAAAAgKSJHQAAAAAAQNLEDgAAAAAAIGliBwAAAAAAkDSxAwAAAAAASJrYAQAAAAAAJE3sAAAAAAAAkiZ2AAAAAAAASRM7AAAAAACApIkdAAAAAABA0sQOAAAAAAAgaWIHAAAAAACQNLEDAAAAAABImtgBAAAAAAAkTewAAAAAAACSJnYAAAAAAABJEzsAAAAAAICkiR0AAAAAAEDSxA4AAAAAACBpYgcAAAAAAJA0sQMAAAAAAEia2AEAAAAAACRN7AAAAAAAAJImdgAAAAAAAEkTOwAAAAAAgKSJHQAAAAAAQNLEDgAAAAAAIGliBwAAAAAAkDSxAwAAAAAASJrYAQAAAAAAJE3sAAAAAAAAkiZ2AAAAAAAASRM7AAAAAACApIkdAAAAAABA0sQOAAAAAAAgaWIHAAAAAACQNLEDAAAAAABImtgBAAAAAAAkTewAAAAAAACSJnYAAAAAAABJEzsAAAAAAICkiR0AAAAAAEDSxA4AAAAAACBpYgcAAAAAAJA0sQMAAAAAAEia2AEAAAAAACRN7AAAAAAAAJImdgAAAAAAAEkTOwAAAAAAgKSJHQAAAAAAQNLEDgAAAAAAIGliBwAAAAAAkDSxAwAAAAAASJrYAQAAAAAAJE3sAAAAAAAAkiZ2AAAAAAAASRM7AAAAAACApIkdAAAAAABA0sQOAAAAAAAgaWIHAAAAAACQNLEDAAAAAABImtgBAAAAAAAkTewAAAAAAACSJnYAAAAAAABJEzsAAAAAAICkiR0AAAAAAEDSxA4AAAAAACBpYgcAAAAAAJA0sQMAAAAAAEia2AEAAAAAACRN7AAAAAAAAJImdgAAAAAAAEkTOwAAAAAAgKSJHQAAAAAAQNLEDgAAAAAAIGliBwAAAAAAkDSxAwAAAAAASJrYAQAAAAAAJE3sAAAAAAAAkiZ2AAAAAAAASRM7AAAAAACApIkdAAAAAABA0sQOAAAAAAAgaWIHAAAAAACQNLEDAAAAAABImtgBAAAAAAAkTewAAAAAAACSJnYAAAAAAABJEzsAAAAAAICkiR0AAAAAAEDSxA4AAAAAACBpYgcAAAAAAJA0sQMAAAAAAEia2AEAAAAAACRN7AAAAAAAAJImdgAAAAAAAEkTOwAAAAAAgKSJHQAAAAAAQNLEDgAAAAAAIGliBwAAAAAAkDSxAwAAAAAASJrYAQAAAAAAJE3sAAAAAAAAkiZ2AAAAAAAASRM7AAAAAACApIkdAAAAAABA0sQOAAAAAAAgaWIHAAAAAACQNLEDAAAAAABImtgBAAAAAAAkTewAAAAAAACSJnYAAAAAAABJEzsAAAAAAICkiR0AAAAAAEDSxA4AAAAAACBpYgcAAAAAAJA0sQMAAAAAAEia2AEAAAAAACRN7AAAAAAAAJImdgAAAAAAAEkTOwAAAAAAgKSJHQAAAAAAQNLEDgAAAAAAIGliBwAAAAAAkDSxAwAAAAAASJrYAQAAAAAAJE3sAAAAAAAAkiZ2AAAAwHZo27ZtnHbaafHJT36y+BQAAB+w0uHDh3+7eBAAYHc466yz4sQTT4wOHTrEggULIp/PF1/SRNeuXeP000+P3r17x5w5c4pPA8D7IpfLxec+97no27dvdOnSJZYtWxbLli0rvuwD0apVqygpKYktW7YUnwIA2GeIHQDA++acc86J7t27R7t27WLcuHHFp5to06ZN3HjjjbH//vvH/vvvHzNnzoz169cXXwbvmy5dusQtt9wSw4cPj7lz58bq1auLLwH2Yps3b46+fftGRETPnj1j/Pjx2xXud8SgQYPic5/7XAwfPjxmz54da9euLb6kiZNOOilGjBgRnTt3jsWLF8c777xTfMkOO++88+KEE06IVq1axaJFi4pP75Bhw4bFtddeG0OHDo0XXnih+DQAwC5hGSsA4H3RvXv3qK6ujoiImTNnFp9u1vr16+Oll16KiIiSkpL4h3/4h+JL3rPjjz8+PvGJT0RJyY7/b1G3bt3i2muvjYMOOqj4FOwxTjnllLjsssti0KBBUVZWVnDukEMOiWuuuSbatm1bMA40b9KkSfH2229HRET79u1j6NChxZe870pKSuLoo4+OioqK6N+/f9TU1BRfslP69OkTvXr1is6dOxefAgDYI+VuvfXWXfs2FACAZnzkIx/JYsXPf/7z7X6XaGVlZdx0003RunXriIi477774o033ii+bKd8+MMfjtNOOy0iImbMmBEPPvjgdi8BUl1dHddcc01UV1dHPp+PP/zhDzFjxoziy/YaZ511VgwbNqxg7H//93/j9ddfLxjbUblcLm688caCm2lvvPFG3HfffQXX7Sm6dOkSN954Y8RWPheb+2+1MyZNmhSjRo0qHt4hpaWlcfPNN0ebNm1i3bp1cfvtt0ddXV1ERPTr1y9GjBgRERFz5syJX//617v8Hep7km7dusUNN9xQPLxT1q1bFz/4wQ+Kh9933/zmN6OioqJ4eKumTJkSDz/8cEREDB06NM4+++ziS7bpe9/7XvZ5tC866qij4vzzz4/a2tp4+umnd/lMhUGDBsWFF14YERH33HNPvPnmm8WXFDjiiCOyPURefPHF+NOf/lR8yQ7r2rVrfP7zn4+IiF/+8pcxd+7c4kt2yLBhw+Kss87aY752AIC9k9gBALwvrrrqqjjooINizZo1cdttt0U+n49vf3vXr6b50ksvxeOPP1483KyKioq48sorY7/99ouIiOnTp8fIkSO3ecO3Xbt2ccUVV0SXLl0iIuLll1+OkSNHbncoSVFzN/BfeeWVeOCBBwrGdtRhhx0Wn/70pwvGxI7/Uxw7ysvL4/zzz48ZM2bEK6+8UnBtSxrfNH3qqafi2Wefzc6VlpbG9ddfH127do2IiMceeyzGjx+fnd/b7MrYMWHChHj00UeLh993Ysd7861vfWunZvXtCt/97ndb/Jmxo7Hjuuuui/333z/y+Xz85Cc/iRUrVhRfssMa3gywcePG+P73v9/kY73llluiqqqqYCwi4rnnnosJEybEl770peJTW7VmzZr44Q9/WDwMALBDxA4AYLerrq6OL3/5y5HL5eJvf/tb/OUvf4mI+MBjR9SHi6uvvjo6dOgQERGTJ0+OP/7xj8WXZVq3bh3XXHNNFjqmTZsWDz/8cJMbQXub5m7gb9myJW6//fZYs2ZNwfiOuOyyy6JPnz4FY6nHjgMPPDALCO/F8uXLs9dv3bp1fOYzn4kePXpEbW1t/Pd///c2b4BGRFx99dVx4IEHxqZNm+K2226LjRs3Fpzv2bNnXH311ZHL5WLTpk1x5513xqpVqwqu2VvsqtixatWquOuuu3bJngjv1YABA7b7Zv0555wT5eXlBbGjc+fOccABBxRf2qwBAwZke1WIHe/droodffv2jUsvvbR4eLv95je/idmzZxcPx2c/+9nYb7/9Cj5fGttW7PjiF79YMJ7L5SKXy0XU/+woHhc7AIBdQewAAHa7xktY3XnnnbF06dKIRrHj2Wef3e53qrfkggsuiO7du+9w7Ij65TquuuqqqK2tjYcffniby3UMHz48hg8fHlOmTIk//vGP25wJsjdoHDvq6uqyvR+eeeaZePrpp4uu3j6dOnWKL3zhC5HL5QpeM/XYsbtcfPHFMWDAgIj6d0H//Oc/3+rGxb169Yorr7wyYhtL23z84x+PY445JvL5fDzyyCMxadKk4kv2CrlcLsrLy4uHt2n48OFxwgknZI93xZI+H4Svf/3r0bp16xZvXm/LqaeeGieeeGLEXhg7NmzY8J5/Bm2Pfv36RZs2bSJ2UezI5XJx3XXXZbMTd0ZzsaNTp05NYkVjDzzwQCxatCiLF507d47LL788IiIeeuihmDp1atEzWl7GquHPKnYAALuC2AEA7HY33nhjdOnSJd5888245557svGG2PHoo4/GhAkTGj1jx11zzTXRs2fPZmNH//7945JLLikYe7/84Ac/iHXr1hUPJ6dx7Fi4cGH07Nkzon7vgttuuy02b95c9IxtO/PMM+PYY4+NiIgFCxbEgQceGCF2tKiioiKuueaa6NatW0REvPnmm3Hfffe1eNP5yiuvjF69esWWLVvixz/+caxcubL4koj6WSOf+tSnYsyYMe/rnycFPXr0iGuvvTZKS0sj9qDlq3aG2NFUQ+xYsmRJ3H333cWnd7mGn1Oxi2LHkCFD4pxzzomIiLVr17YYNBtr1apVnH322VFaWhr5fD7uueeeWLx4ccE1jf+um/PAAw8UxKHzzz8/jjrqqFi1alXccccdzf65xA4A4P0gdgAAu9UBBxwQ1157bUQzewKIHeloHDumTp0aRxxxRLRq1SoiIh588MGYPn160TO2rqKiIv7pn/4pWrVqFfl8PiZMmBDHHHNMxB4UOwYMGBAXX3xx8XCL3o+bdZ06dYrrrrsuWrduHVH/d/HQQw8VXxaHHHJI/OM//mPx8HuyatWquP3224uH91qlpaVx7bXXRo8ePSIiYvXq1XHnnXfuEctX7Qyxo6ntiR3l5eVx1llnxcaNG+OJJ55ocSbfueeeG/l8PsaMGRMbNmwoPh3RQuxobt+irWn4GVdVVRVf+MIXorKyMjv3+9//PmbOnFlwfbGGMBERMXHixHjkkUcKzpeVlcXNN98cVVVVMW7cuJg1a1bB+YiIZcuWxfr16yMiokOHDvHFL34xSkpKmvyMb0zsAADeD2IHALBbnXPOOTFkyJDYsmVL/Od//mfU1NRk596v2FFdXZ3dYNoerVq1ivPOOy8iItavXx+PPfZY8SXbbfbs2XvFTcHGsePll1+OLVu2xKBBgyJ2Mk403PiKiPj73/8ey5Yti+OOOy5iJ19vd9gTY0dExOGHHx6f+tSnssd/+ctf4m9/+1v2OJfLxdVXX71Dn/PbY1+LHaecckqcfPLJ2eNf/epX8fe//73gmj1B8ce5LcWx44QTTojTTz+94Jpt2VdiR9euXeMTn/hENpuqpT2dTjzxxDj11FMjIqKmpiaefvrpGD9+fJMZDrsydjREi7q6upg5c2YMHDhwm/vJHH300dnPtlWrVsXdd99d8DM5Gs0Weeedd+K2225rcr5Yw8/4tWvXxo9+9KO49NJL45BDDim+bIfccccd8fbbbxcPAwBsk9gBAOw2bdq0iS9/+ctRVlYWdXV18b3vfa/g/J6wQXlzBg8eHOeee25ERIwbNy7+/Oc/F1+yz2kcO1555ZUYN25cXHXVVdn5u+++O5YsWdLoGS3L5XLx+c9/Ptvk/be//W307ds3hgwZErEHxY7mIln//v2zfTOeeuqpWL58eXautrY2XnvttUZX7z4f+9jH4vjjj4+o3+z3/vvvz/aRaPz5GxExevToFmcXtW7dOotOc+bMiWnTphVfktm0aVOz7/LeGxUvX9XcO+D3FJdeemm2cfj2KI4djfeC2V57e+zI5XIxdOjQOO2006KioiKifsm+hx56qNng1alTp/j4xz8ehx56aDa2dOnSeOyxx2L+/PnZWHOxo7q6Og477LDsmoiIPn36RL9+/SLq97RatWpVdm7ZsmXRtm3bGDFiREREPPHEEzF+/Pj4/Oc/H+3bt49p06bFyJEjs+sb9O7dOz796U9HaWlp1NXVxX333ddkeazS0tL4whe+EB06dIi//e1v8Ze//KXgfLHq6uq46aaborS0NIuul19+efTu3bv40m1uUN54/Cc/+YnYAQDslNLhw4fv+rsMAAARcdJJJ2U3PbZs2RLPPvtswfnhw4cXPN4VFi1a9J5vOJ9xxhnRoUOHiPpZJy3dKN6X9OnTJw444ICIiFi+fHm88MILcfjhh0e7du0i6m9YFW9y25LDDjssm8WxcuXKePzxx6Nfv34FywVNnjy56Fnvv3feeSeWLVtWcAwZMiQ6deoUERFPP/10zJkzJzv3ft6cmzdvXhx22GFRXV0dq1atiokTJ8aGDRuiqqoqPvnJTxZsxP3YY4/FvHnz4q233mpyrF69Ott8e/bs2fH88883uabhaBx29malpaVx2WWXRXV1dUT95+Pvfve7ndqX5v1w+umnR6tWrWL27NnxzDPPxMyZM5s9DjvssCgtLY0lS5YURKtTTz01Kisr4/XXX4+nn366yfMajtLS0ujcuXNE/Q344lkLKXrmmWdi7NixBTMLO3ToECNGjIhhw4ZlsWvOnDlx//33x1tvvdXo2e/auHFjTJs2LVasWBEHHXRQVFRURJs2beLoo4+Ojh07xsKFC2PTpk0xadKkGDt2bIwdOzZbDuudd96JxYsXFxwDBgyIrl27RtTP3Jo9e3Z2Lp/Px2WXXRbl5eWxaNGiGDVqVNTV1cXq1atjwIAB0b1796itrY0FCxZkH9/BBx8cl156aZSXl0c+n49Ro0bFnDlzsvMNhg0bFgMHDozNmzfHH/7whxZniDT46Ec/GgceeGCsX78+Ro4cGVu2bIlp06bFM8880+TYuHFj9OnTJ9atWxf//u//no2vXLky+vXrF2vWrIn/9//+X3YtAMDOMLMDANgtKioq4stf/nK2nvjWZnY8++yzBZud7owLLrggunfv3uLMjo9+9KNx0kknFQ/vNgsXLox77723eDhZjWd2zJo1K373u9/FUUcdFeeff35E/ayG//qv/9rmkidR9E700aNHxwsvvBAXXnjhe1oW6/1QXl4eX/va16KsrCziA9igvFjHjh3j7LPPjpEjR2br5zdej7/B1paEadu2bXzlK1+JMIspM3z48IIQu6cuXxVFf38jR47c6syc5lRWVsbXvva1iGb2VNrXlJSUxLHHHhunnHJKNpujtrY2xowZEy+++GKLe3UUa926dZx++ukxePDgbKympiZGjx4dkydP3ubr5HK5uOWWW7Kfnffcc0+sWLEiCw/HHXdcnHHGGbFp06a4++67C762G76P5vP5eOyxx2LChAnRv3//uOCCC7IAWrzsXWMNn/vvvPNOtidTsYZZMG3bto2bbropysvLY8yYMfHXv/61+NIC9uwAAN4PZnYAALvFcccdF4cffnj2eGszO6ZPnx6zZ8+OdevW7fQxYcKEGDt2bIuzOnr37h29evUqHt5t1qxZE5MmTSoeTlbxzI6XX345li9fHkOGDImKioooLS2N9evXx8KFC4ufWqBTp05x5plnRi6Xi9ra2njooYeirq4u+vXrF927d4/Yg2Z2FOvbt28WZKJ+/f6amprsHf+dOnWKr33ta9kNw111zJo1K9Y1M7uopqYmpk2bFrW1tRH1e3mcdtppxZfFiy++2OI7pSsqKrKZHQsXLmz23d77kh49esQFF1wQJSUlEfXLV40bN674sj1Gr169ss/JJ554osW/55b06tUrPvShD0XUL8vW3OfZvqB3795x6aWXxqBBg7LZHAsXLoxf//rX2z1jrUFdXV28+uqrMX/+/OjVq1dUVlZGWVlZHH744XHwwQfHggULtvr3dMABB8Sxxx6bPS4rK4vjjz8+Xn755di8eXMsXLgwcrlcTJ8+PV5//fWC57722mtx8MEHR4cOHaJv377Rs2fPOPHEE7M/05NPPhkvvPBCwXMamz9/frRr1y7eeOONOOigg4pPR9Qv5zVhwoQYPnx4HHzwwVFTUxMPPvjgNmc+HXDAAdGnT5/YtGlTwcfQvXv36NevX7zzzjstRhgAgO0ldgAAu1xVVVVccsklUVZWFlu2bIlcLrfV2DF79uwma4fvamvXro05c+bE9OnTWzxmzJgRhx9+eJSWlkY+n4+RI0fGlClTmly3Pcerr74aq1evLv4wktVc7NiyZUtUVlZmEalTp07x0ksvFT2z0MknnxwHHnhgRP3eATNmzIiISCJ2nH766dkyPhERr7/+eowYMSI2bNgQb731VlRWVhbcpNxVJkyYsM2b0O3bt49Pf/rTUV5enu2t0bCpstixfVJbvioiYuDAgdG7d+/YsGFDPPnkk8Wnt2nAgAFxyCGHxDvvvLPN/Rn2Rt26dYtzzjknTj311GjTpk1E/WyOp556Kh555JFsxtTOWLVqVUyaNCkqKytj//33j1wuFx06dIghQ4ZEXV1di2H4uOOOKwgNPXr0iOrq6thvv/1ixowZkc/nY968ec3ukbRly5Z49dVXo3///lFZWRmdOnWKXC4X+Xw+Hn300XjxxReLn9LE7NmzY/ny5fHqq69G+/bto2PHjjF//vx4+OGHY8qUKfHKK69EbW1tXHTRRVFaWhrPP/98k+8bbdu2jW9+85sF0bZPnz4R9d9zGo837E0idgAAu4JlrACAXe7ss8+OoUOHRj6fj8mTJ8fgwYObLGNVUlIS3/rWtyIi4pFHHomJEyc2eoUPxuGHHx6f+tSnIiLi73//e/zqV78qvmSf1dwyVlG/Qe2XvvSl7J3w999/f5MbXw0qKiri5ptvjtatW0dExF133ZWtgb+nL2PVrl27+PKXvxwrV67Mgsfbb78dnTp1is2bN8evfvWrWLx4cRx55JHFT23iox/9aLRt2zZWrFgRzz//fPHpJmbOnNlirIj6r6XPfOYz2Q3SUaNGRadOneLEE08svnSnbdq0Kf7t3/6teHiv0nDztcGevHxVg09+8pNxxBFHFA9vVePvbSNGjMhuNu+of/mXf9mjQ9DWVFdXx6mnnhoDBw7MNseO+pkRjz32WMGG4LvCoYceGuedd14W0iIiFixYEL/5zW8KvrZzuVx8+ctfLrhuxowZ2feVqVOnxkMPPZSdK1ZeXh4f/vCH48QTT8yW22swZ86cGDt2bIuRpTkNm9e/8sor8cADD2Tj3bp1ixtuuKHg2gYPPPBAvPHGG3HzzTcXjDe3EXnjcctYAQC7gpkdAMAu1fBO2VwuF1OnTo3FixdHnz59mszsKC0tzfbQmDVrVvTo0SOuv/76Jkv47MwxYcKE2LRpU6OPavuceeaZ2ebTY8aMiWXLlhVfss9qbmZH1L8bt1u3btksglatWmXnig0ePDj69+8fUb/BduMb/Xv6zI4Pf/jD0bt375g4cWI2k2XUqFFx0EEHRWVlZRx++OExffr0mDt3bpPNhouPwYMHR1VVVSxdujT+9Kc/NTlffNTV1RV/OAVat24dRx11VFRXV8fs2bNj9OjRccghh7S4DM3O2Lx58zbX5E9Z9+7d48ILL8yi3aRJk/bo5asanHbaaVk83F7Lli3LvkY/9rGPtbg3w9bk8/l4+umni4eTMnTo0OjYsWNE/SyMUaNGxVNPPbVd+w7tqJUrV8aUKVOiU6dO2cbjc+fObfK9snfv3nHsscdGPp/PwsDDDz8cuVwu9ttvv+jRo0eUlJQ0Wb6qpKQkBg0aFJdcckkcccQR2efxokWLom3btpHL5aJTp04xePDgOPTQQyOfz8fbb7+9zVjVv3//6NatWyxbtiybhRcR0aZNmzjmmGMKrm0wY8aMWLRo0XZvUP7222/HEUccETU1NUl8zQEAezaxAwDYpQYMGBB9+/aNTZs2xe9///vo0qVLs7GjrKwsPvKRj0RExCuvvBK5XG6H36HckhdeeGGHY0f37t3jYx/7WEREbNiwIR555JFtbiS7L2kpdkRErF+/Po4++uiIiOjcuXNMnTq12RuGF1xwQbZUzOjRowti0p4cO1q3bh0XX3xxlJSUxJgxY7KNh1966aV4+eWX40Mf+lBUVFTEwQcfHNOmTdvmDcRhw4ZFVVVVrFq1KqZMmVJ8eofV1dXF9OnTo2vXrvHoo4/Gpk2bCmLH6NGjY+rUqTFz5swmx+uvv54tL9Pwzu/ia2bOnBmzZs2KpUuXFv3Oe4eSkpLklq+K+nfEr1+/vsnfVUvHIYccEmVlZbFkyZLse+6OPH/mzJnRtm3baN++fdTW1iYdvzZv3hwzZ86MXr16xfjx42PkyJHZLLPdpa6uLmbMmJEtSffQQw81+Rlz+umnR9euXeONN96IDh06RNTvGzN58uRsL44OHTrE5MmTY/PmzVFaWhqDBg2Kiy++OIYMGZKFr7fffjtGjhwZTzzxRMycOTM6duyYhfz27dvHEUccEccff3wceOCBUVlZGVu2bIkNGzY0+Xhaih01NTUxefLkGDduXHYcddRRUVZWFlOmTCnYNL1BS3t2LF26NJ555hmhAwDYJSxjBQDsUm3bto2bb745Ro8eHePGjYthw4bFWWed1WQZqzZt2sRXv/rViPplLyoqKuL888+P9evXFywfddVVV0VFRUU89NBD2c2ok08+Ofr16xdTp07N1vju2rVrXHTRRRER8YMf/CC7ofSVr3wl2rZtm73eB+Hxxx/P9rLo379/XHLJJcWXNDF37tz45S9/WTD2QT03trKMVYPrr78+evToERERzz//fDzxxBMF5w899NC4/PLLI+o3b7/99tsLljLZk5exOuWUU+Lkk0+OWbNmxZNPPhk33nhjRETcd9998cYbb8QxxxwTH//4xyOfz8dvf/vbbW5ofOONN0aXLl1i3rx58T//8z/Fp7fbIYccEscff3w899xzMX/+/IJzp556araM1R133NHszceo/3r9yle+EhER48aNiz//+c/Fl7TovXxOfVDPbc7JJ58cp5xySvZ4a0uxpewb3/hGtGrVKqZMmRIPP/xw8ent0rDs1fr16+P73/9+wbn38vfyQT13T9KpU6f4whe+EPl8Pp544oksvt9zzz3x5ptvRps2beKiiy6KUaNGRUTEUUcdFUOHDi34+bZu3bp47rnnYsKECU1mhB100EFx0kknxWGHHVYw3qDhe/onP/nJ4lNNLF26NO68887scWlpafzzP/9z5HK5+MUvfhELFiwouD7qI+9ZZ50V69atix/84AfFpwEAdon/m98KALCLrFu3Lp555pltblRdUVGR/bq2tjb79ebNm2PJkiXZ0XBDfMWKFdlYwxrn69evz8ZWrFiRvQbvv8Yb3x599NFN1otvvHH3+PHjC0LHnqy6ujqOO+64iPqljZozfvz4mDhxYjz44INZ6Nhvv/3i+uuvj6FDh27XMkHV1dVxxhlnxIUXXlh8qkUDBw6MPn36xJVXXhkDBw4sPs126N69e7acXtT/HacWOo455pi44YYb4uSTT44uXboUn840fE02/n5bUVERn/3sZ2PEiBExaNCgbS6JVV5eHlH0GnuLSy65JL797W/vtmNbQeb444+PXC4X8+bNa3Zj9PXr18fTTz8dF1xwQdx0000xfPjwLHSsW7cunnzyybjjjjti3LhxTUJH1Efk+++/P+6+++6YOHFiwezH1atXx6uvvlpw/Y5oWCorImLjxo3N/rc866yzsmuLz33729+Ob37zm0WvCgCw4yxjBQDscvPnz8+Ww2hYuqJ4GasOHTrE0KFDIyJiwoQJUVlZGUcccUS888472WyNiMg2Wp00aVKsWbMmon4j8f322y8WLFiQbSDcrl27GDJkSETRMlbLly+PmTNnxowZM5o95s+fH4ceemjkcrnI5/MxZsyYmDBhQpPr3svxxhtvZIGmtLQ0tmzZEosWLdrq8cYbb8SiRYuy/w4f5HNjG8tYNYwNHTo0ysvLo7y8PN5+++1YsmRJRER07NgxzjrrrMjlclFXVxcPPfRQk5ule+oyVuedd17st99+sWbNmnj88cejsrIym+EyefLkWL16dUREzJ49u2CZp9NPPz0OPfTQ6Nu3bxbqGjS3jNUVV1yR/TeYPXt2rF27Nru+OWVlZXHeeedFWVlZ1NbWxiOPPFKw7FLjZaxefPHFFjc4r6ioiBNOOCEiIhYuXLhDN/rfy+fUB/XcxoqXr1qzZk389re/3eOXr2qssrIyzj333OjatWv07t07hg0bFocffniUl5fHypUrs6+zkpKSbPbK/Pnzs++bH/rQh+Loo4+Obt26Rb9+/eL444+PAw44IHK5XKxatarJf4shQ4ZEhw4dYu3atTF+/PiCc+/l7+WDem5jRx55ZLafxu5QvBRUYx07doxzzz03SkpK4qmnnopcLpdtHD9x4sTs+0FpaWmcdtpp2Z4cS5cujTFjxsQf//jHmDdvXpO/r+asW7cuZs+eHS+99FIsX748SktLY+7cuTF37tzYsGFDvPbaazFlypSYMmVKtG/fPjp27Bjz58+Phx9+OBvP5/MxfPjwWLp0aaxduza6dOkSQ4YMyWalHHHEEdGlS5fI5/PZEfVLr0X9BuWNz+Xz+airq4vnnnuu6KMFANgxlrECAHarlpaxarys0U9/+tM44IAD4vzzz481a9bED3/4w+y6r3/969G6deu49957Y+HChRERce6558bgwYPjhRdeiNGjR0dExP777x/XXXddRNEyVltTXl4en/nMZ7Kb+H/5y18KQgvv2tYyVlG0dNKiRYvi5z//eUT9JsjHH398RESLS+jsictY9enTJy677LKIiPjzn/8c48aNiy5dujRZxqpYdXV13HTTTVFaWhqrV6+OO+64o+AmZHPLWA0YMCAuvvjiiPq9M+6///7s+ub069cvRowYERER06ZNi5EjRxacfz+WsUrd3rJ8VS6Xi169esVRRx0VRx55ZDb7YsWKFXHXXXdFXV1dtGrVKr7xjW9ERMTYsWNj7Nix2fMrKyvjyCOPjEGDBhVsav/3v/+9YEnBiIjrrrsu9t9//4Kv773FkCFDYr/99isebtbgwYOjpKQkNm/evN1hdvHixTFx4sTi4Yj6WSX9+/ePjRs3xn/9139F//79s1leDctYNTjnnHOivLw8Jk6c2GT5ul3t4osvjgEDBsQrr7wSDzzwQDZ+6aWXRt++feOll16Kxx9/PI466qg4//zzY9WqVXH77bcXvEYDy1gBAO8HMzsAgN2qpZkdvXr1yjYkHzt2bHTu3Hm3zOxoSUlJSVx88cVxyCGHRAgd27StmR1Rf3P12GOPjVwuF9XV1TFz5syoqamJCy64ILsBO2rUqGZnLeyJMzsOOeSQ6Nu3b2zYsCFGjhwZW7ZsiaqqqmZndjQ2fPjw7Kbx2LFjm6xf39zMjmXLlsWRRx4Zbdq0iU6dOsXcuXObfe0Gp512WrZk0ejRo2PlypUF5xvP7Dj22GNj+PDhzR4NszoiInr27NnkfOPj2WefbbKBcaq6d+8eF154YfYO+cmTJyf99b9q1aqYNWtWTJgwITZu3Bjt27ePBx98MPueWVVVlf1dv/baawWfk3V1dfHmm2/G5MmTY/r06VFbWxtVVVXxhz/8IWpqaiLq91iqra2N448/PqqqqmLFihUxderU7DX2BosXL47Zs2dv1/GRj3wkSkpKYtOmTXHfffc1Od/csXjx4uLfMqL+Z+Hpp58eUf+za+7cudG9e/dmZ3ZE/SyymTNnRqtWreKrX/1qk6/THTl69uwZ06ZNy167WEsblDec69ixY7z00ktxzDHHxH777Rfz589v9mdDbGWDcgCAXcmeHQDAB6J9+/YR9TfaNmzYkI1XV1cXrOPdsIb8Nddck40NHjw4IiJOOOGEbKxhVsf2KCsryzbabfCxj32syRriO3tszwave6PVq1fHrFmzssdHH3109OnTJ6qqqiIiYsGCBQXvUN7Tvfzyy1FXVxdjx45tsuxWS6qqqrLotn79+hbfyV0sn8/HX//61+xx4xkHxdq0aZNtMrx69eqYO3du8SVsRUlJSZx//vlRWloaUb981V/+8pfiy5K0cePGeP755+MnP/lJLF68OAuPjfeN2VoIXrFiRTz55JPxk5/8JNq0aROnn356fOlLX4qTTz45IiJ7na29BjumTZs2EfX/TceNG1d8eo80c+bM2LBhQ/b9rlevXhH1s/IAAD5IYgcA8IFoWBu9peV1dpdWrVrFpZdeGocffnhE/ZJM7DqNNyo/4ogjsqWpImKbm9bvaWpqamLs2LExYcKE4lMtOv7446OioiKi/l3a2xtJoj6urFixIiIievfuHQcffHDxJRERMWjQoOxG/bRp07Y522L06NExcuTIZo/HH388u27OnDlNzjc+tvX7pOLEE08sWK5o1KhR2QyG1OVyuejRo0cce+yxMWLEiLjlllvijDPOKIgd77zzTsFzGpSUlGSzDL70pS/FtddeGyeccEJ06NAh+zxueJ2WXoMdN3v27KipqYnnn3++xb11tmXOnDnx5JNPbvfxXmNVXV1d9n3xIx/5SHTq1Cmifj+YQYMGNXkDwLe3Y4Pyb3/729G/f/+C3wcAYEeJHQDAB6LhZmPjTZ0jItauXRv/+Z//mR0NN9Xuv//+bKxh2Y3x48dnY7/85S8LXqc53bp1i2uvvTZbumrq1Knx4IMPxm9+85utHs8880z2GlOmTGlyvvhovFzXvmb+/PnZZtwdOnTIbl6tW7cuXnnllaKr93zPPfdcbNmypXi4WW3atIljjz02IiI2bNjQZAPnbdmyZUvB7I7hw4cXnG/QMHMk6j8ft2XWrFkxbdq0Zo/GfyfLly9vcr7xsTfEjm7dumWzFKJ++aoU9+loUFlZGYceemicfPLJ8elPfzq+/vWvx/XXXx9nnnlm9OvXLyorK6OmpiYqKyuz5zS+0V1ZWRkDBw6Miy66KL761a/GlVdemQWOBosXL4558+ZFSUlJFvLEjl2nrq4u/vrXv8bzzz9ffGq7zZs3L5577rntPnY2dlRWVsbZZ58dUb/HzzvvvJPNTFmzZk0sWrQo8vl8bNmypcnR+PtH8bnmrgEA2BliBwDwvmvXrl107tw5IiLbdLxBPp+PDRs2ZEfDzY+amppsrK6uLiIiamtrs7FtvTN74MCBcc0112T7HIwfPz4efvjhqK2tbbK2evGxaNGi7HWWL1/e5HzxkdJSTbtDczM4JkyYULBJ997o5JNPzm4G7+wNxenTp2fr8x988MEFG0ZH/YyPhs/hBQsWZDNB2Lbi5avWrVsXY8aMibKysh0+Gvb6+KBUVVXFF7/4xfja174Wl19+eZxyyilx2GGHFczgWLVqVUydOjWmTZtWEDsaQsXAgQPjq1/9alx00UUxcODA7Jp8Ph9vvPFG/PnPf47bbrstfvazn8Vrr71W8Brb+n7Ljnn++eezn2t7qg4dOsRVV10VQ4YMiYqKitiwYUNBnJ01a1bk8/mYPn16fPe7321y/OlPf4qo/7orPtdwzJw5s9HvCACw4z7Y/0sHAPZJDUtIRf07Unentm3bxiWXXBIXXXRRVFRURD6fjzFjxsRjjz3mXaS7yfTp0wv2Ydm8efN2712Rqk6dOmUzLtauXbvDszoabN68uWApsMazECIihg4dmv16e2Z18K4TTzwx9t9//+xx27Zt4ytf+Ur88z//8w4fDRtKf1BqamoKZl9ERKxcuTImTZoUDz30UNx2221x++23x0MPPRTz5s2Ljh07Ztc1LJVUU1OTRZt8Ph8LFiyIP/3pT/HDH/4w7rvvvhg3blysXr06e151dXX268Zf3+y9ysrKIuqXnbzuuuuy5ScbPvdWrlyZXTtw4MDo3r179hgA4IMgdgAA77uBAwdG1C978dZbbxWf3mUGDhwYn//857OllGpqauJ3v/tdwbtR2fVqa2tj0qRJ2eNXXnklm62wtzrjjDOyGQPb2tB8W7MCJk6cmM0KOfTQQ7Mb9NXV1dGvX7+I+qVvZsyYUfA8Wta1a9cm4ShlW7ZsiSVLlsTLL78co0aNittvvz1+9KMfxahRo2Lq1KkFkSKXy0Xfvn2zxw3nli9fHosXL44nnngibr/99vjFL34RL774Yotfq3369Ml+vWrVqoJz7H1yuVy23GTXrl2jqqoqampq4je/+U0sXbo0crlcnHTSSdn1lZWVcfnllxcERQCA99vW/6UFALCL7bffftGrV6+I+hkAu3N2RW1tbbRu3Tqift35n//85/Hqq68WX8ZuMH78+Gyvi+aWtdqbHHTQQdnN5GXLlsXkyZOLL8mUlZVFu3btIurfTd+cjRs3FszaaNgHZNiwYVkomTVrlqWEdsABBxyQxai9xT333BN/+MMfYtKkSVFaWhq9evWKzp07R2VlZZSVlUVpaWl06dIlzjvvvOjZs2dE/ffBhpkdK1eujJ/97Gfx/PPPx+rVq7P9P7p16xZt2rSJioqKKCkpiXbt2sWwYcOyG9ubN2+O+fPnF3ws7H2OOeaYaN++ffZ4yZIl2ZJmERGDBw+O7t27Rz6fjz//+c9RV1cXbdu2jauvvjpOPvnkbFYIAMD7KXfrrbc2/68sAIBdYNiwYXHWWWdFXV1dfO9734sRI0ZEv379Ip/Px09/+tNYvnx5REQcddRRcf7558eaNWvihz/8Yfb8r3/969G6deu49957s/09zj333Bg8eHC88MILMXr06Ij6G85XXXVVRER8//vfj/Xr10dExGmnnRZbtmyJsWPH7vSeEX379o1LL700IiKefPLJeO6554ovYR/RpUuXuPHGGyMi4r777os33ngjIiIOPPDAGD58eIwbNy67GVisdevWccopp2TxYvr06fHggw8WXxZRvyzWJZdcEi+99FJMmzYtNm/eHDfddFO2fMz999+/1Y21Tz311DjxxBOLh9+z3/3udzFr1qziYT5g/fv3j0suuaR4uInf//73Le6LUFVVFbfcckvxcBMvvvhitv9Cynr06BHXX3998fD75u67744lS5YUD0dExKBBg+LCCy+MqI9aze0D1a1bt7jhhhsiduLn0le+8pVo27ZtzJkzJ+6///7i0xERccIJJ2TLtU2fPj1GjRqVzVhr165d3HDDDVFZWRkTJ06MRx55JA4++OAYMWJEtrfLxo0bY+rUqTFnzpxYtmxZwWyjluRyuSgvL4+I2Kk9jwAAxA4AYLdqHDt+/etfxxVXXBFR/8703/3ud9l1OxM7XnrppSx2nH766TFs2LDI5/Pxr//6ry1u9lpSUhLf+ta3iod3m4bIw96hpdhRrLq6Om6++ebi4QJ//OMftzoLpFirVq1iyJAh0b9///jFL37R4syQEDv2OZ06dYovfvGLxcOZurq6GD169DZnWf3TP/1TNvOoOVOnTo1Ro0btdDjek+xNsWNnbS12RESceeaZsW7duoKlH0tKSuKKK66IXr16RU1NTfz4xz/O3lxQXV0dZ599dsGyaQ22bNkSmzZtik2bNkU+n8++f5WWlmZHRUVF5HK5+O1vf2sWJgCwU8QOAGC3ahw77rrrrrjiiiuiXbt2cc8998TixYuz61qKHVtzww03RLdu3QrGlixZEnfffXfBWGNiB+/F9saOaPTu6ebMnTs37r///mypr12tcex45JFHWtyHYUe9+eabsW7duuJhPmAlJSVx0kknRXl5eZSWlkZJSUnkcrnYtGlTLF++PGbPnp3dkN6ao48+Ojp37hxlZWVRUlISJSUlUVdXF6tXr46///3vsXTp0uKnJKu6urpgz4n327PPPhtr1qwpHo7Yg2JHsVwuF+edd14cddRRERHx8MMPFyy51+DAAw+MoUOHRt++fbOZHttr1apV8aMf/WirMRcAoCViBwCwWxUvY9W1a9c4+uijsxkZDXYmdnziE5+II488Mnv81ltvxcMPP1wQUYrlcrlsk+f3Qz6fb3HZGNKzI7HjuOOOi86dO0cul4tcLhf5fD7eeeedWLhwYbz66qu7LXREUey444474u233y6+BNhD7WjsmDNnTsybN6/4khaddNJJUVFRscOxo23btnHddddFdXX1di1nlsvlomPHjtGhQ4do3bp1tG7dOioqKrI9ZRq+L+bz+di8eXPU1dXFkiVL7AkDAOw0sQMASFa7du2iqqoqNm/eHOvXr8823gWAVO1o7Ngde3a0pFOnTnHqqafGH/7wh90abAEAdobYAQAAAAAAJK2keAAAAAAAACAlYgcAAAAAAJA0sQMAAAAAAEia2AEAAAAAACRN7AAAAAAAAJImdgAAAAAAAEkTOwAAAAAAgKSJHQAAAAAAQNLEDgAAAAAAIGliBwAAAAAAkDSxAwAAAAAASJrYAQAAAAAAJE3sAAAAAAAAkiZ2AAAAAAAASRM7AAAAAACApIkdAAAAAABA0sQOAAAAAAAgaWIHAAAAAACQNLEDAAAAAABImtgBAAAAAAAkTewAAAAAAACSJnYAAAAAAABJEzsAAAAAAICkiR0AAAAAAEDSxA4AAAAAACBpYgcAAAAAAJA0sQMAAAAAAEia2AEAAAAAACRN7AAAAAAAAJImdgAAAAAAAEkTOwAAAAAAgKSJHQAAAAAAQNLEDgAAAAAAIGliBwAAAAAAkDSxAwAAAAAASJrYAQAAAAAAJE3sAAAAAAAAkiZ2AAAAAAAASRM7AAAAAACApIkdAAAAAABA0sQOAAAAAAAgaWIHAAAAAACQNLEDAAAAAABImtgBAAAAAAAkTewAAAAAAACSJnYAAAAAAABJEzsAAAAAAICkiR0AAAAAAEDSxA4AAAAAACBpYgcAAAAAAJA0sQMAAAAAAEia2AEAAAAAACRN7AAAAAAAAJImdgAAAAAAAEkTOwAAAAAAgKSJHQAAAAAAQNLEDgAAAAAAIGliBwAAAAAAkDSxAwAAAAAASJrYAQAAAAAAJE3sAAAAAAAAkiZ2AAAAAAAASRM7AAAAAACApIkdAAAAAABA0sQOAAAAAAAgaWIHAAAAAACQNLEDAAAAAABImtgBAAAAAAAkTewAAAAAAACSJnYAAAAAAABJEzsAAAAAAICkiR0AAAAAAEDSxA4AAAAAACBpYgcAAAAAAJA0sQMAAAAAAEia2AEAAAAAACRN7AAAAAAAAJImdgAAAAAAAEkTOwAAAAAAgKSJHQAAAAAAQNLEDgAAAAAAIGliBwAAAAAAkDSxAwAAAAAASJrYAQAAAAAAJE3sAAAAAAAAkiZ2AAAAAAAASRM7AAAAAACApIkdAAAAAABA0sQOAAAAAAAgaWIHAAAAAACQNLEDAAAAAABImtgBAAAAAAAkTewAAAAAAACSJnYAAAAAAABJEzsAAAAAAICkiR0AAAAAAEDSxA4AAAAAACBpYgcAAAAAAJA0sQMAAAAAAEia2AEAAAAAACRN7AAAAAAAAJImdgAAAAAAAEkTOwAAAAAAgKSJHQAAAAAAQNLEDgAAAAAAIGliBwAAAAAAkDSxAwAAAAAASJrYAQAAAAAAJE3sAAAAAAAAkiZ2AAAAAAAASRM7AAAAAACApIkdAAAAAABA0sQOAAAAAAAgaWIHAAAAAACQNLEDAAAAAABImtgBAAAAAAAkTewAAAAAAACSJnYAAAAAAABJEzsAAAAAAICkiR0AAAAAAEDSxA4AAAAAACBpYgcAAAAAAJA0sQMAAAAAAEia2AEAAAAAACRN7AAAAAAAAJImdgAAAAAAAEkTOwAAAAAAgKSJHQAAAAAAQNLEDgAAAAAAIGliBwAAAAAAkDSxAwAAAAAASJrYAQAAAAAAJE3sAAAAAAAAkiZ2AAAAAAAASRM7AAAAAACApIkdAAAAAABA0sQOAAAAAAAgaWIHAAAAAACQNLEDAAAAAABImtgBAAAAAAAkTewAAAAAAACSJnYAAAAAAABJEzsAAAAAAICkiR0AAAAAAEDSxA4AAAAAACBpYgcAAAAAAJA0sQMAAAAAAEia2AEAAAAAACRN7AAAAAAAAJImdgAAAAAAAEkTOwAAAAAAgKSJHQAAAAAAQNLEDgAAAAAAIGliBwAAAAAAkDSxAwAAAAAASJrYAQAAAAAAJE3sAAAAAAAAkiZ2AAAAAAAASRM7AAAAAACApIkdAAAAAABA0sQOAAAAAAAgaWIHAAAAAACQNLEDAAAAAABImtgBAAAAAAAkTewAAAAAAACSJnYAAAAAAABJEzsAAAAAAICkiR0AAAAAAEDSxA4AAAAAACBpYgcAAAAAAJA0sQMAAAAAAEia2AEAAAAAACRN7AAAAAAAAJImdgAAAAAAAEkTOwAAAAAAgKSJHQAAAAAAQNLEDgAAAAAAIGliBwAAAAAAkDSxAwAAAAAASJrYAQAAAAAAJE3sAAAAAAAAkiZ2AAAAAAAASRM7AAAAAACApIkdAAAAAABA0sQOAAAAAAAgaWIHAAAAAACQNLEDAAAAAABImtgBAAAAAAAkTewAAAAAAACSJnYAAAAAAABJEzsAAAAAAICkiR0AAAAAAEDSxA4AAAAAACBpYgcAAAAAAJA0sQMAAAAAAEia2AEAAAAAACRN7AAAAAAAAJImdgAAAAAAAEkTOwAAAAAAgKSJHQAAAAAAQNLEDgAAAAAAIGliBwAAAAAAkDSxAwAAAAAASJrYAQAAAAAAJE3sAAAAAAAAkiZ2AAAAAAAASRM7AAAAAACApIkdAAAAAABA0sQOAAAAAAAgaWIHAAAAAACQNLEDAAAAAABImtgBAAAAAAAkTewAAAAAAACSJnYAAAAAAABJEzsAAAAAAICkiR0AAAAAAEDSxA4AAAAAACBpYgcAAAAAAJA0sQMAAAAAAEia2AEAAAAAACRN7AAAAAAAAJImdgAAAAAAAEkTOwAAAAAAgKSJHQAAAAAAQNLEDgAAAAAAIGliBwAAAAAAkDSxAwAAAAAASJrYAQAAAAAAJE3sAAAAAAAAkiZ2AAAAAAAASRM7AAAAAACApIkdAAAAAABA0sQOAAAAAAAgaWIHAAAAAACQNLEDAAAAAABImtgBAAAAAAAkTewAAAAAAACSJnYAAAAAAABJEzsAAAAAAICkiR0AAAAAAEDSxA4AAAAAACBpYgcAAAAAAJA0sQMAAAAAAEia2AEAAAAAACRN7AAAAAAAAJImdgAAAAAAAEkTOwAAAAAAgKSJHQAAAAAAQNLEDgAAAAAAIGliBwAAAAAAkDSxAwAAAAAASJrYAQAAAAAAJE3sAAAAAAAAkiZ2AAAAAAAASRM7AAAAAACApIkdAAAAAABA0sQOAAAAAAAgaWIHAAAAAACQNLEDAAAAAABImtgBAAAAAAAkTewAAAAAAACSJnYAAAAAAABJEzsAAAAAAICkiR0AAAAAAEDSxA4AAAAAACBpYgcAAAAAAJA0sQMAAAAAAEia2AEAAAAAACRN7AAAAAAAAJImdgAAAAAAAEkTOwAAAAAAgKSJHQAAAAAAQNLEDgAAAAAAIGliBwAAAAAAkDSxAwAAAAAASJrYAQAAAAAAJE3sAAAAAAAAkiZ2AAAAAAAASRM7AAAAAACApIkdAAAAAABA0sQOAAAAAAAgaWIHAAAAAACQNLEDAAAAAABImtgBAAAAAAAkTewAAAAAAACSJnYAAAAAAABJEzsAAAAAAICkiR0AAAAAAEDSxA4AAAAAACBpYgcAAAAAAJA0sQMAAAAAAEia2AEAAAAAACRN7AAAAAAAAJImdgAAAAAAAEkTOwAAAAAAgKSJHQAAAAAAQNLEDgAAAAAAIGliBwAAAAAAkDSxAwAAAAAASJrYAQAAAAAAJE3sAAAAAAAAkiZ2AAAAAAAASRM7AAAAAACApIkdAAAAAABA0sQOAAAAAAAgaWIHAAAAAACQNLEDAAAAAABImtgBAAAAAAAkTewAAAAAAACSJnYAAAAAAABJEzsAAAAAAICkiR0AAAAAAEDSxA4AAAAAACBpYgcAAAAAAJA0sQMAAAAAAEia2AEAAAAAACRN7AAAAAAAAJKWu/XWW/PFgwAAADtj8+bNsXzp0nj68T/FlQtrik836797VsZHzzojOnfrFqWlpcWnAQAAtknsAAAA3pMZz/0tPjRmUpRHrvjUTqmNfDxz6lHx4Q9/uPgUAABAs8QOAABgh/3pT3+Kc1+aG2W7KHC0pC7y8cixh8YZZ5xRfAoAACAjdgAAANtl48aNsfqH90Xvut0bOFryelk+2t98VVRWVhafAgAA9nFiBwAAsFWrV6+OLj/6dZTtxL8cnjqofRx42snRs2fPgvGFCxfGgieeiY++sbpgfHvU5SJWfOnTUV1dXXwKAADYR4kdAABAi1p/584WF6r6ZaeI8z57TbT/93uLT8Wab14b5eXlxcPNqquri3b/ek/xcKz+xjXx0J33xGdWlxSfioiIfETU3HpD8TAAALAPEjsAAIAmZv3bj+Po2tLi4Xg9aqPkc5+Kbt26xaZNm5qEjufPOS4GDx5cMLa9pkyZEsf/8YWCsVVfvzpatWoVS5Ysid4/G1lwrsHkis1xxDe+UDwMAADsQ8QOAAAg89hjj8XFE+YXD0dExNKbL4927dpljyu/c2fB+R2ZzdGS2traqP63nxeMbWw0e2Pt2rXR7Ye/KjjfYOSw3nHmmWcWDwMAAPsAsQMAAIh8Ph9V372reDg2R8Ta+tkVjRWHjg3f+lzkci0teLVjmvtYGgePiIiampqo/o/7ounck137sQAAAGkoHT58+LeLBwEAgH3HhAkT4rB7/1g8HC9ecGJ0GXF2lJWVFYwvWrgwOk1+NXu84POXRJs2bQquaTBv3ryo++n90fnpCVH+zPjsWPL8i7H0oG7RoUOH4qdELpeLtwYeEtUvzcjG5vfZv2BD8rKystg8/JiY2LEies5akI1HRJQ/MyFebFcS+++/f8E4AACw9zKzAwAA9mGb/u1n0b52c8HYD0pWxef/v28WjDXWeFbHTztsjqtuan6/jPLv3hll2/jXRl0uovZbzW8y/t93/CRuWPnu5uTFszsaK/vunVFe9HutLi+Nim9+tnAQAADYK737LwcAAGCfsWnTpqj8zp1NQseSL1221dCxePHigsfNhY4tW7ZE5Xe2HToiIsry/xdPtmzZUnwqrvzijQWP33zzzYLHjdV964ZYfNOlBWPtazdH5XfujE2bNhWMAwAAex+xAwAA9jHz5s2L9v9+b8HYo7n1sfHWG6J9+/YF48U2/veD2a9/2bn5f060+Ze7i4e2qaXn3N/t3SW0Nv7Pu793czp06BAbb70hHs2tLxhv/+/3xrx58wrGAACAvUvz/zoBAAD2Sr/+9a+j3/8+XjD2+En94h++9dWCsZYcWfvuPyHOu+6qgnMREQvv/W3x0HZr7rnnXnNl9usBtc1tR97UP3zrq/HYR44oGOv3v4/Hr3/964IxAABg7yF2AADAPmLG3f8b18xZXTC24qufiVNOOaVgrCV1dXUFjysqKgoeR0T0WbSyeGi7Nffc8vLygsfFH0NLPvrRj8aKr36mYOyaOatjxs9+WTAGAADsHcQOAADYB8z9jztj6FuFyztt+NbnoqqqqmBsaxYuXFg8VGDRokXFQztsW6+xrY+hsaqqqtjwrc8VjA1dsi5e/8+7CsYAAID0iR0AALCXe/k/fhJH1rz7eFlsjo233hC5XK7xZdtUu3RF9usJ7ZouKbV0+ivFQzusudeYUP3uvh2NP4btkcvlYuOtN8TKeHcj9v4b8/Hyf/604DoAACBtYgcAAOzljqkp/N/+trd+oeDx9lq7/N3QUNam6YyQt+a+903Am3uN8ka/V+OPYUe0LvozH7Nxx0IPAACwZxM7AABgLze+9ZaCx+u+8+OCx9urXZfO2a/r1m8oOBcR0f2Qg4uHdlhzr1Hb6Pdq/DHsiJqiP/P4ynzBYwAAIG1iBwAA7OUGfO3GeKXy3ZkMXaM0Kr9zZ+TzO3bDv7zbu6Fh6Np3l4Vq0G1g/+KhHdbcawxd8+6m5I0/hu2Rz+ej8jt3Rsd4d9mtVypzMeCWzxdcBwAApE3sAACAfUDvWz4XE3q0LRir+u5dsWFD0xkaLTnwwAOLhwoccMABxUM7bFuv0bNnz+KhFm3YsCGqvlu4GfmEHm2j9y2Fm5YDAADpEzsAAGAfceRn/zHuPax9wVjn7/9PPP300wVjLSktLdyUfNOmTQWPIyJeO6Bj8dB2a+65tbW1BY/Lyt7drHxrnnrqqej8/f8pGLv3sPZx5Gf/sWAMAADYO4gdAACwD7nsssti5hVnFYyd9ezMGPPd7xeMtWRGxbv7f/zxnvsKzkVE9LzmU8VD26255476+X9nv365vOnSWc0Z893vx8f/OqtgbOYVZ8Vll11WMAYAAOw9xA4AANjHHHzwwbH6G9cUjJ2dbxOV37kzVq1aVTBerOrKi7Nf/+OKwo3PG6z//64vHtqmlp7z6WXv7tdR+ZmLCs4VW7lyZVR+5844O9+mYHz1N66Jgw9uuvE5AACw9xA7AABgH1RRUREbb70hVpcXLk21349+E2XfvbNgrLEePXoUPL7vRz8ueBwRUVJSEhtvvSHq3t0TvUV1uYiNt94QJSVN/2lS/Nr7779/wePGyr57Z+x/x28LxlaXl8bGW2+IioqKgnEAAGDvUzp8+PBvFw8CAAD7htKPDI1xbXPR67VF745FRPkz42Nix4omcSMi4o2+B0SnSf+3TNSwmpJYMqB3VFVVFV8WW04+JuYc3DVqZrwa7bcUlo8FZVvizcs/HtXnnVYw3mD58uVx6l9nZo//fs150a66uuCaiIgpU6ZE75+NjMJkE/Hc2cfGgSPOKRoFAAD2Vrlbb701XzwIAADsW/L5fFR9967i4dgcEWu+dlW0bt26YLzyO4WzPzZ863ORy23HVI7t0NzHsvHWGwoe19TURPV/3NckcsQu/lgAAIA0iB0AAEDm8ccfj4vGzysejoiIpTdfHu3atcseFweP1d+45j0vGVVbWxvV//bzgrHGoWPt2rXR7Ye/KjjfYOSw3nHmmWcWDwMAAPsAsQMAAGhi1r//OI7e1HTexOtRGyWf+1R069YtNm3aFO3//d6C83/9+LAYOnRowdj2mjBhQnzksZcKxhoCypIlS6L3z0YWnGswuWJzHPGNLxQPAwAA+xCxAwAAaFHr79wZLS0I9ctOEed99pomwSMiYs03r43y8vLi4WbV1dVFu3+9p3g4Vn/jmnj4rp/HFaua/wjyEVFTtLwVAACwbxI7AACArVq1alV0veM3UbYT/3J46sDq6HnayXHggQcWjC9YsCAWPvFMfHTBmoLx7VGXi1j2xUujQ4cOxacAAIB9lNgBAABslw0bNsSaH94XvTeXFJ96X7xetiWqv3xVVFVVFZ8CAAD2cWIHAACwwx599NG4YOL8KGtxkatdoy7y8dCQXnH22WcXnwIAAMiIHQAAwHvy8rPPx1FPT4nyXRQ+aiMfU045Kgac9OHiUwAAAM0SOwAAgF1m8+bNsfytpTHmscfj6jffKT7drPsOaBUf/fhZ0aVbtygtLS0+DQAAsE1iBwAAAAAAkLQPZmdBAAAAAACAXUTsAAAAAAAAkiZ2AAAAAAAASRM7AAAAAACApIkdAAAAAABA0sQOAAAAAAAgaWIHAAAAAACQNLEDAAAAAABImtgBAAAAAAAkTewAAAAAAACSJnYAAAAAAABJEzsAAAAAAICkiR0AAAAAAEDSxA4AAAAAACBpYgcAAAAAAJA0sQMAAAAAAEia2AEAAAAAACRN7AAAAAAAAJImdgAAAAAAAEkTOwAAAAAAgKSJHQAAAAAAQNLEDgAAAAAAIGliBwAAAAAAkDSxAwAAAAAASJrYAQAAAAAAJE3sAAAAAAAAkiZ2AAAAAAAASRM7AAAAAACApIkdAAAAAABA0sQOAAAAAAAgaWIHAAAAAACQNLEDAAAAAABImtgBAAAAAAAkTewAAAAAAACSJnYAAAAAAABJEzsAAAAAAICkiR0AAAAAAEDSxA4AAAAAACBpYgcAAAAAAJA0sQMAAAAAAEia2AEAAAAAACRN7AAAAAAAAJImdgAAAAAAAEkTOwAAAAAAgKSJHQAAAAAAQNLEDgAAAAAAIGliBwAAAAAAkDSxAwAAAAAASJrYAQAA/P/t2QEJAAAAgKD/r9sR6A0BAADWZAcAAAAAALAmOwAAAAAAgDXZAQAAAAAArMkOAAAAAABgTXYAAAAAAABrsgMAAAAAAFiTHQAAAAAAwJrsAAAAAAAA1mQHAAAAAACwJjsAAAAAAIA12QEAAAAAAKzJDgAAAAAAYE12AAAAAAAAa7IDAAAAAABYkx0AAAAAAMCa7AAAAAAAANZkBwAAAAAAsCY7AAAAAACANdkBAAAAAACsyQ4AAAAAAGBNdgAAAAAAAGuyAwAAAAAAWJMdAAAAAADAmuwAAAAAAADWZAcAAAAAALAmOwAAAAAAgDXZAQAAAAAArMkOAAAAAABgTXYAAAAAAABrsgMAAAAAAFiTHQAAAAAAwJrsAAAAAAAA1mQHAAAAAACwJjsAAAAAAIA12QEAAAAAAKzJDgAAAAAAYE12AAAAAAAAa7IDAAAAAABYkx0AAAAAAMBa2TORN5uVOSsAAAAASUVORK5CYII=;" parent="1" vertex="1">
          <mxGeometry x="-44" y="-440" width="1595" height="898" as="geometry" />
        </mxCell>
        <mxCell id="KLeHGzE6UOqmSRrc-cGL-1" value="" style="shape=image;verticalLabelPosition=bottom;labelBackgroundColor=default;verticalAlign=top;aspect=fixed;imageAspect=0;image=data:image/png,iVBORw0KGgoAAAANSUhEUgAABjwAAAOBCAYAAABF9QkHAAAAAXNSR0IArs4c6QAAAARnQU1BAACxjwv8YQUAAAAJcEhZcwAADsMAAA7DAcdvqGQAACguSURBVHhe7d1rkF91fcfx7ya7gV3IhYtbGpJKrHZUcKo2YDtUBdQZbso4OnUUL4CxlHitM2hhxixJRxik44yiQSADiqKPirWF8MABBi9tlaiZKQiOVqIJECIMWSLZdC/ZPrDJ7jnZJbvJ2vaz+3rNMPP/fX//c/bwjD/vOed09PX1jRYAAAAAAECwee0BAAAAAABAGsEDAAAAAACIJ3gAAAAAAADxBA8AAAAAACCe4AEAAAAAAMQTPAAAAAAAgHiCBwAAAAAAEE/wAAAAAAAA4gkeAAAAAABAPMEDAAAAAACIJ3gAAAAAAADxBA8AAAAAACCe4AEAAAAAAMQTPAAAAAAAgHiCBwAAAAAAEE/wAAAAAAAA4gkeAAAAAABAPMEDAAAAAACIJ3gAAAAAAADxBA8AAAAAACCe4AEAAAAAAMQTPAAAAAAAgHiCBwAAAAAAEE/wAAAAAAAA4gkeAAAAAABAPMEDAAAAAACIJ3gAAAAAAADxBA8AAAAAACCe4AEAAAAAAMQTPAAAAAAAgHiCBwAAAAAAEE/wAAAAAAAA4gkeAAAAAABAPMEDAAAAAACIJ3gAAAAAAADxBA8AAAAAACCe4AEAAAAAAMQTPAAAAAAAgHiCBwAAAAAAEE/wAAAAAAAA4gkeAAAAAABAPMEDAAAAAACIJ3gAAAAAAADxBA8AAAAAACCe4AEAAAAAAMQTPAAAAAAAgHiCBwAAAAAAEE/wAAAAAAAA4gkeAAAAAABAPMEDAAAAAACIJ3gAAAAAAADxBA8AAAAAACCe4AEAAAAAAMQTPAAAAAAAgHiCBwAAAAAAEE/wAAAAAAAA4gkeAAAAAABAPMEDAAAAAACIJ3gAAAAAAADxBA8AAAAAACCe4AEAAAAAAMQTPAAAAAAAgHiCBwAAAAAAEE/wAAAAAAAA4gkeAAAAAABAPMEDAAAAAACIJ3gAAAAAAADxBA8AAAAAACCe4AEAAAAAAMQTPAAAAAAAgHiCBwAAAAAAEE/wAAAAAAAA4gkeAAAAAABAPMEDAAAAAACIJ3gAAAAAAADxBA8AAAAAACCe4AEAAAAAAMQTPAAAAAAAgHiCBwAAAAAAEE/wAAAAAAAA4gkeAAAAAABAPMEDAAAAAACIJ3gAAAAAAADxBA8AAAAAACCe4AEAAAAAAMQTPAAAAAAAgHiCBwAAAAAAEE/wAAAAAAAA4gkeAAAAAABAPMEDAAAAAACIJ3gAAAAAAADxBA8AAAAAACCe4AEAAAAAAMQTPAAAAAAAgHiCBwAAAAAAEE/wAAAAAAAA4gkeAAAAAABAPMEDAAAAAACIJ3gAAAAAAADxBA8AAAAAACCe4AEAAAAAAMQTPAAAAAAAgHiCBwAAAAAAEE/wAAAAAAAA4gkeAAAAAABAPMEDAAAAAACIJ3gAAAAAAADxBA8AAAAAACCe4AEAAAAAAMQTPAAAAAAAgHiCBwAAAAAAEE/wAAAAAAAA4gkeAAAAAABAPMEDAAAAAACIJ3gAAAAAAADxBA8AAAAAACCe4AEAAAAAAMQTPAAAAAAAgHiCBwAAAAAAEE/wAAAAAAAA4gkeAAAAAABAPMEDAAAAAACIJ3gAAAAAAADxBA8AAAAAACCe4AEAAAAAAMQTPAAAAAAAgHiCBwAAAAAAEE/wAAAAAAAA4gkeAAAAAABAPMEDAAAAAACIJ3gAAAAAAADxBA8AAAAAACCe4AEAAAAAAMQTPAAAAAAAgHiCBwAAAAAAEE/wAAAAAAAA4gkeAAAAAABAPMEDAAAAAACIJ3gAAAAAAADxBA8AAAAAACCe4AEAAAAAAMQTPAAAAAAAgHiCBwAAAAAAEE/wAAAAAAAA4gkeAAAAAABAPMEDAAAAAACIJ3gAAAAAAADxBA8AAAAAACCe4AEAAAAAAMQTPAAAAAAAgHiCBwAAAAAAEE/wAAAAAAAA4gkeAAAAAABAPMEDAAAAAACIJ3gAAAAAAADxBA8AAAAAACCe4AEAAAAAAMQTPAAAAAAAgHiCBwAAAAAAEE/wAAAAAAAA4gkeAAAAAABAPMEDAAAAAACIJ3gAAAAAAADxBA8AAAAAACCe4AEAAAAAAMQTPAAAAAAAgHiCBwAAAAAAEE/wAAAAAAAA4gkeAAAAAABAPMEDAAAAAACIJ3gAAAAAAADxBA8AAAAAACCe4AEAAAAAAMQTPAAAAAAAgHiCBwAAAAAAEE/wAAAAAAAA4gkeAAAAAABAPMEDAAAAAACIJ3gAAAAAAADxBA8AAAAAACCe4AEAAAAAAMQTPAAAAAAAgHiCBwAAAAAAEE/wAAAAAAAA4gkeAAAAAABAPMEDAAAAAACIJ3gAAAAAAADxBA8AAAAAACCe4AEAAAAAAMQTPAAAAAAAgHiCBwAAAAAAEE/wAAAAAAAA4gkeAAAAAABAPMEDAAAAAACIJ3gAAAAAAADxBA8AAAAAACCe4AEAAAAAAMQTPAAAAAAAgHiCBwAAAAAAEE/wAAAAAAAA4gkeAAAAAABAPMEDAAAAAACIJ3gAAAAAAADxBA8AAAAAACCe4AEAAAAAAMQTPAAAAAAAgHiCBwAAAAAAEE/wAAAAAAAA4gkeAAAAAABAPMEDAAAAAACIJ3gAAAAAAADxBA8AAAAAACCe4AEAAAAAAMQTPAAAAAAAgHiCBwAAAAAAEE/wAAAAAAAA4gkeAAAAAABAPMEDAAAAAACIJ3gAAAAAAADxBA8AAAAAACCe4AEAAAAAAMQTPAAAAAAAgHiCBwAAAAAAEE/wAAAAAAAA4gkeAAAAAABAPMEDAAAAAACIJ3gAAAAAAADxBA8AAAAAACCe4AEAAAAAAMQTPAAAAAAAgHiCBwAAAAAAEE/wAAAAAAAA4gkeAAAAAABAPMEDAAAAAACIJ3gAAAAAAADxBA8AAAAAACCe4AEAAAAAAMQTPAAAAAAAgHiCBwAAAAAAEE/wAAAAAAAA4gkeAAAAAABAPMEDAAAAAACIJ3gAAAAAAADxBA8AAAAAACCe4AEAAAAAAMQTPAAAAAAAgHiCBwAAAAAAEE/wAAAAAAAA4gkeAAAAAABAPMEDAAAAAACIJ3gAAAAAAADxBA8AAAAAACCe4AEAAAAAAMQTPAAAAAAAgHiCBwAAAAAAEE/wAAAAAAAA4gkeAAAAAABAPMEDAAAAAACIJ3gAAAAAAADxBA8AAAAAACCe4AEAAAAAAMQTPAAAAAAAgHiCBwAAAAAAEE/wAAAAAAAA4gkeAAAAAABAPMEDAAAAAACIJ3gAAAAAAADxBA8AAAAAACCe4AEAAAAAAMQTPAAAAAAAgHiCBwAAAAAAEE/wAAAAAAAA4gkeAAAAAABAPMEDAAAAAACIJ3gAAAAAAADxBA8AAAAAACCe4AEAAAAAAMQTPAAAAAAAgHiCBwAAAAAAEE/wAAAAAAAA4gkeAAAAAABAPMEDAAAAAACIJ3gAAAAAAADxBA8AAAAAACCe4AEAAAAAAMQTPAAAAAAAgHiCBwAAAAAAEE/wAAAAAAAA4gkeAAAAAABAPMEDAAAAAACIJ3gAAAAAAADxBA8AAAAAACCe4AEAAAAAAMQTPAAAAAAAgHiCBwAAAAAAEE/wAAAAAAAA4gkeAAAAAABAPMEDAAAAAACIJ3gAAAAAAADxBA8AAAAAACCe4AEAAAAAAMQTPAAAAAAAgHiCBwAAAAAAEE/wAAAAAAAA4gkeAAAAAABAPMEDAAAAAACIJ3gAAAAAAADxBA8AAAAAACCe4AEAAAAAAMQTPAAAAAAAgHiCBwAAAAAAEE/wAAAAAAAA4gkeAAAAAABAPMEDAAAAAACIJ3gAAAAAAADxBA8AAAAAACCe4AEAAAAAAMQTPAAAAAAAgHiCBwAAAAAAEE/wAAAAAAAA4gkeAAAAAABAPMEDAAAAAACIJ3gAAAAAAADxBA8AAAAAACCe4AEAAAAAAMQTPAAAAAAAgHiCBwAAAAAAEE/wAAAAAAAA4gkeAAAAAABAPMEDAAAAAACIJ3gAAAAAAADxBA8AAAAAACCe4AEAAAAAAMQTPAAAAAAAgHiCBwAAAAAAEE/wAAAAAAAA4gkeAAAAAABAPMEDAAAAAACIJ3gAAAAAAADxBA8AAAAAACCe4AEAAAAAAMQTPAAAAAAAgHiCBwAAAAAAEE/wAAAAAAAA4gkeAAAAAABAPMEDAAAAAACIJ3gAAAAAAADxBA8AAAAAACCe4AEAAAAAAMQTPAAAAAAAgHiCBwAAAAAAEE/wAAAAAAAA4gkeAAAAAABAPMEDAAAAAACIJ3gAAAAAAADxBA8AAAAAACCe4AEAAAAAAMQTPAAAAAAAgHiCBwAAAAAAEE/wAAAAAAAA4gkeAAAAAABAPMEDAAAAAACIJ3gAAAAAAADxBA8AAAAAACCe4AEAAAAAAMQTPAAAAAAAgHiCBwAAAAAAEE/wAAAAAAAA4gkeAAAAAABAPMEDAAAAAACIJ3gAAAAAAADxBA8AAAAAACCe4AEAAAAAAMQTPAAAAAAAgHiCBwAAAAAAEE/wAAAAAAAA4gkeAAAAAABAPMEDAAAAAACIJ3gAAAAAAADxBA8AAAAAACCe4AEAAAAAAMQTPAAAAAAAgHiCBwAAAAAAEE/wAAAAAAAA4gkeAAAAAABAPMEDAAAAAACIJ3gAAAAAAADxBA8AAAAAACCe4AEAAAAAAMQTPAAAAAAAgHiCBwAAAAAAEE/wAAAAAAAA4gkeAAAAAABAPMEDAAAAAACIJ3gAAAAAAADxBA8AAAAAACCe4AEAAAAAAMQTPAAAAAAAgHiCBwAAAAAAEE/wAAAAAAAA4gkeAAAAAABAPMEDAAAAAACIJ3gAAAAAAADxBA8AAAAAACCe4AEAAAAAAMQTPAAAAAAAgHiCBwAAAAAAEE/wAAAAAAAA4gkeAAAAAABAPMEDAAAAAACIJ3gAAAAAAADxBA8AAAAAACCe4AEAAAAAAMQTPAAAAAAAgHiCBwAAAAAAEE/wAAAAAAAA4gkeAAAAAABAPMEDAAAAAACIJ3gAAAAAAADxBA8AAAAAACCe4AEAAAAAAMQTPAAAAAAAgHiCBwAAAAAAEE/wAAAAAAAA4gkeAAAAAABAPMEDAAAAAACIJ3gAAAAAAADxBA8AAAAAACCe4AEAAAAAAMQTPAAAAAAAgHiCBwAAAAAAEE/wAAAAAAAA4gkeAAAAAABAPMEDAAAAAACIJ3gAAAAAAADxBA8AAAAAACCe4AEAAAAAAMQTPAAAAAAAgHiCBwAAAAAAEK+jr69vtD0EAACYSVddddXzrgEAAA6X4AEAAPxeTDVqTPV7AAAAz8cjrQAAgBk3nYgxne8CAABMRvAAAABm1KEEjEM5BgAAYDzBAwAAmDGHEy4O51gAAADBAwAAmBEzESxm4hwAAMDcJHgAAAAAAADxBA8AAAAAACCe4AEAABy2mXwU1UyeCwAAmDsEDwAAAAAAIJ7gAQAAAAAAxBM8AAAAAACAeIIHAABw2GbyvRszeS4AAGDuEDwAAAAAAIB4ggcAAAAAABBP8AAAAGbETDyKaibOAQAAzE2CBwAAMGMOJ1gczrEAAACCBwAAMKMOJVwcyjEAAADjCR4AAMCMm07AmM53AQAAJtPR19c32h4CAADMpHbUaK8BAAAOl+ABAAAAAADE80grAAAAAAAgnuABAAAAAADEEzwAAAAAAIB4ggcAAAAAABBP8AAAAAAAAOIJHgAAAAAAQDzBAwAAAAAAiCd4AAAAAAAA8QQPAAAAAAAgnuABAAAAAADEEzwAAAAAAIB4ggcAAAAAABBP8AAAAAAAAOIJHgAAAAAAQDzBAwAAAAAAiCd4AAAAAAAA8QQPAAAAAAAgnuABAAAAAADEEzwAAAAAAIB4ggcAAAAAABBP8AAAAAAAAOIJHgAAAAAAQDzBAwAAAAAAiCd4AAAAAAAA8QQPAAAAAAAgnuABAAAAAADEEzwAAAAAAIB4ggcAAAAAABBP8AAAAAAAAOIJHgAAAAAAQDzBAwAAAAAAiCd4AAAAAAAA8QQPAAAAAAAgnuABAAAAAADEEzwAAAAAAIB4ggcAAAAAABBP8AAAAAAAAOIJHgAAAAAAQDzBAwAAAAAAiCd4AAAAAAAA8QQPAAAAAAAgnuABAAAAAADEEzwAAAAAAIB4ggcAAAAAABBP8AAAAAAAAOIJHgAAAAAAQDzBAwAAAAAAiCd4AAAAAAAA8QQPAAAAAAAgnuABAAAAAADEEzwAAAAAAIB4ggcAAAAAABBP8AAAAAAAAOIJHgAAAAAAQDzBAwAAAAAAiCd4AAAAAAAA8QQPAAAAAAAgnuABAAAAAADEEzwAAAAAAIB4ggcAAAAAABBP8AAAAAAAAOIJHgAAAAAAQDzBAwAAAAAAiCd4AAAAAAAA8QQPAAAAAAAgnuABAAAAAADEEzwAAAAAAIB4ggcAAAAAABBP8AAAAAAAAOIJHgAAAAAAQDzBAwAAAAAAiCd4AAAAAAAA8QQPAAAAAAAgnuABAAAAAADEEzwAAAAAAIB4ggcAAAAAABBP8AAAAAAAAOIJHgAAAAAAQDzBAwAAAAAAiCd4AAAAAAAA8QQPAAAAAAAgnuABAAAAAADEEzwAAAAAAIB4ggcAAAAAABBP8AAAAAAAAOIJHgAAAAAAQDzBAwAAAAAAiCd4AAAAAAAA8QQPAAAAAAAgnuABAAAAAADEEzwAAAAAAIB4ggcAAAAAABBP8AAAAAAAAOIJHgAAAAAAQDzBAwAAAAAAiCd4AAAAAAAA8QQPAAAAAAAgnuABAAAAAADEEzwAAAAAAIB4ggcAAAAAABBP8AAAAAAAAOIJHgAAAAAAQDzBAwAAAAAAiCd4AAAAAAAA8QQPAAAAAAAgnuABAAAAAADEEzwAAAAAAIB4ggcAAAAAABBP8AAAAAAAAOIJHgAAAAAAQDzBAwAAAAAAiCd4AAAAAAAA8QQPAAAAAAAgnuABAAAAAADEEzwAAAAAAIB4ggcAAAAAABBP8AAAAAAAAOIJHgAAAAAAQDzBAwAAAAAAiCd4AAAAAAAA8QQPAAAAAAAgnuABAAAAAADEEzwAAAAAAIB4ggcAAAAAABBP8AAAAAAAAOIJHgAAAAAAQDzBAwAAAAAAiCd4AAAAAAAA8QQPAAAAAAAgnuABAAAAAADEEzwAAAAAAIB4ggcAAAAAABBP8AAAAAAAAOIJHgAAAAAAQDzBAwAAAAAAiCd4AAAAAAAA8QQPAAAAAAAgnuABAAAAAADEEzwAAAAAAIB4ggcAAAAAABBP8AAAAAAAAOIJHgAAAAAAQDzBAwAAAAAAiCd4AAAAAAAA8QQPAAAAAAAgnuABAAAAAADEEzwAAAAAAIB4ggcAAAAAABBP8AAAAAAAAOIJHgAAAAAAQDzBAwAAAAAAiCd4AAAAAAAA8QQPAAAAAAAgnuABAAAAAADEEzwAAAAAAIB4ggcAAAAAABBP8AAAAAAAAOIJHgAAAAAAQDzBAwAAAAAAiCd4AAAAAAAA8QQPAAAAAAAgnuABAAAAAADEEzwAAAAAAIB4ggcAAAAAABBP8AAAAAAAAOIJHgAAAAAAQDzBAwAAAAAAiCd4AAAAAAAA8QQPAAAAAAAgnuABAAAAAADEEzwAAAAAAIB4ggcAAAAAABBP8AAAAAAAAOIJHgAAAAAAQDzBAwAAAAAAiCd4AAAAAAAA8QQPAAAAAAAgnuABAAAAAADEEzwAAAAAAIB4ggcAAAAAABBP8AAAAAAAAOIJHgAAAAAAQDzBAwAAAAAAiCd4AAAAAAAA8QQPAAAAAAAgnuABAAAAAADEEzwAAAAAAIB4ggcAAAAAABBP8AAAAAAAAOIJHgAAAAAAQDzBAwAAAAAAiCd4AAAAAAAA8QQPAAAAAAAgnuABAAAAAADEEzwAAAAAAIB4ggcAAAAAABBP8AAAAAAAAOIJHgAAAAAAQDzBAwAAAAAAiCd4AAAAAAAA8QQPAAAAAAAgnuABAAAAAADEEzwAAAAAAIB4ggcAAAAAABBP8AAAAAAAAOIJHgAAAAAAQDzBAwAAAAAAiCd4AAAAAAAA8QQPAAAAAAAgnuABAAAAAADEEzwAAAAAAIB4ggcAAAAAABBP8AAAAAAAAOIJHgAAAAAAQDzBAwAAAAAAiCd4AAAAAAAA8QQPAAAAAAAgnuABAAAAAADEEzwAAAAAAIB4ggcAAAAAABBP8AAAAAAAAOIJHgAAAAAAQDzBAwAAAAAAiCd4AAAAAAAA8QQPAAAAAAAgnuABAAAAAADEEzwAAAAAAIB4ggcAAAAAABBP8AAAAAAAAOIJHgAAAAAAQDzBAwAAAAAAiCd4AAAAAAAA8QQPAAAAAAAgnuABAAAAAADEEzwAAAAAAIB4ggcAAAAAABBP8AAAAAAAAOIJHgAAAAAAQDzBAwAAAAAAiCd4AAAAAAAA8QQPAAAAAAAgnuABAAAAAADEEzwAAAAAAIB4ggcAAAAAABBP8AAAAAAAAOIJHgAAAAAAQDzBAwAAAAAAiCd4AAAAAAAA8QQPAAAAAAAgnuABAAAAAADEEzwAAAAAAIB4ggcAAAAAABBP8AAAAAAAAOIJHgAAAAAAQDzBAwAAAAAAiCd4AAAAAAAA8QQPAAAAAAAgnuABAAAAAADEEzwAAAAAAIB4ggcAAAAAABBP8AAAAAAAAOIJHgAAAAAAQDzBAwAAAAAAiCd4AAAAAAAA8QQPAAAAAAAgnuABAAAAAADEEzwAAAAAAIB4ggcAAAAAABBP8AAAAAAAAOIJHgAAAAAAQDzBAwAAAAAAiCd4AAAAAAAA8QQPAAAAAAAgnuABAAAAAADEEzwAAAAAAIB4ggcAAAAAABBP8AAAAAAAAOIJHgAAAAAAQDzBAwAAAAAAiCd4AAAAAAAA8QQPAAAAAAAgnuABAAAAAADEEzwAAAAAAIB4ggcAAAAAABBP8AAAAAAAAOIJHgAAAAAAQDzBAwAAAAAAiCd4AAAAAAAA8QQPAAAAAAAgnuABAAAAAADEEzwAAAAAAIB4ggcAAAAAABBP8AAAAAAAAOIJHgAAAAAAQDzBAwAAAAAAiCd4AAAAAAAA8QQPAAAAAAAgnuABAAAAAADEEzwAAAAAAIB4ggcAAAAAABBP8AAAAAAAAOIJHgAAAAAAQDzBAwAAAAAAiCd4AAAAAAAA8QQPAAAAAAAgnuABAAAAAADEEzwAAAAAAIB4ggcAAAAAABBP8AAAAAAAAOIJHgAAAAAAQDzBAwAAAAAAiCd4AAAAAAAA8QQPAAAAAAAgXkdfX99oewgAAHAoRkZG6qkdO+q+jXfXxdv2tLcndOuy7jrr3LPruN7emj9/fnsbAABgSgQPAADgsDz0vX+rP73nx9VVHe2tQzJUo3X/G19Zp59+ensLAABgUoIHAAAwbXfffXe95Ye/rM4ZihyTGa7R+pfX/HGdffbZ7S0AAIAGwQMAAJiSgYGB6v/sLbVi+PcbOSbzaOdoLf74JdXd3d3eAgAAEDwAAIDn19/fX8d/7vbqPIRfDvf+0eJa/qbX17Jlyxrzbdu21dZv319n/bq/MZ+K4Y6qpz/27lq0aFF7CwAAmMMEDwAAYFJHrl0/6UOrbju26oJLV9Xiaza0t+rZKz9QXV1d7fGEhoeHa+Gnb2qPq/+KVfXN9TfVRf3z2ltVVTVaVXv6VrfHAADAHCV4AAAAB3jk6uvrVUPz2+N6tIZq3mXvrN7e3hocHDwgdnz/zX9er371qxuzqdq8eXP9xbf+tTHb+XfvryOOOKK2b99eK268o7G3z08WjNRLr/hwewwAAMwxggcAALDfXXfdVW/f9Kv2uKqqdnz8PbVw4cL96+616xv707mrYzJDQ0O16OqbG7OBcXdx7Nq1q3o/+9XG/j53nLaizjnnnPYYAACYIwQPAACgRkdHq2fdDe1xjVTVrv+5y2K8duzYveay6uiY7OFX0zPRtYyPHlVVe/bsqUXX3lIH3oMys9cCAADkmH/GGWdc1R4CAABzx6ZNm+rFG77VHtcP3vqXdfw7zq/Ozs7G/LFt2+rYn/xs/3rrB/+qjjrqqMZ39tmyZUsNf/Frddx9m6rr/gf2/7P9+z+oHX/UW0uWLGkfUh0dHfXkK15Ui3740P7Zr16ytPGS8s7Ozho549T60TELatkjW/fPq6q67t9UP1g4r5YuXdqYAwAAs5s7PAAAYA4bvPrGWjw00pj9w7yd9cFPXdmYjTf+7o4vLhmpSz468fszutatr86D/NoY7qgaWjPxi8dv/fwXavUzYy8sb9/lMV7nuvXV1fpb/V3za8GVlzaHAADArDX26wEAAJgzBgcHq3vt+gNix/aPXfi8seOJJ55orCeKHXv37q3utQePHVVVnaO/Cyh79+5tb9XFH/lQY/3444831uMNr1ldT3z0XY3Z4qGR6l67vgYHBxtzAABgdhI8AABgjtmyZUstvmZDY3Znx3M10Le6Fi9e3Ji3Ddz6j/s/33bcxD8njvr7L7VHBzXZMV/rHXuc1sCXx/72RJYsWVIDfavrzo7nGvPF12yoLVu2NGYAAMDsM/EvFAAAYFa6/fbb62Vf2diYbXzdy+oNay5vzCZz8tDYT4gL/vqSxl5V1bYN32iPpmyiY9+y6uL9n08ZmugV5Qd6w5rL667XvrQxe9lXNtbtt9/emAEAALOL4AEAAHPEQ1/6Sq36RX9j9vTlF9WZZ57ZmE1meHi4sV6wYEFjXVX1kseeaY+mbKJju7q6Guv2NUzmrLPOqqcvv6gxW/WL/nroxtsaMwAAYPYQPAAAYA745bXra+WTzUc97V5zWfX09DRmz2fbtm3tUcNjjz3WHk3bwc5xsGsYr6enp3avuawxW7n9t/XoZ25ozAAAgNlB8AAAgFnuwWu/UCfvGVv/pkZqoG91dXR0jP/aQQ3teHr/500LD3y81I7/+Gl7NG0TnWPTorH3eIy/hqno6Oiogb7V9UyNvZz95QOj9eBnvtj4HgAAkE/wAACAWe7UPc3/7D+678ON9VTtemosNnQedeCdIU/+8vBfDD7RObrG/a3x1zAdR7b+nU8dmF7sAQAA/v8TPAAAYJZ74Mi9jfVv117fWE/VwuOP2/95+Lndjb2qqj940Unt0bRNdI6hcX9r/DVMx57Wv/MD3aONNQAAkE/wAACAWe6UT36ofto9dkfDC2p+da9dX6Oj0/uf/l29Y7Fh5a6xR0Tt0/uKl7dH0zbROVY+O/ai8vHXMBWjo6PVvXZ9HVNjj+D6aXdHnfKJDza+BwAA5BM8AABgDljxictq0wlHN2Y9626o3bsPvFNjMsuXL2+PGk488cT2aNoOdo5ly5a1R5PavXt39axrvqB80wlH14pPNF9kDgAAzA6CBwAAzBEnX/re2vDixY3Zcdd9ue67777GbDLz5zdfVD44ONhYV1X9/MRj2qMpm+jYoaGhxrqzc+wF5s/n3nvvreOu+3JjtuHFi+vkS9/bmAEAALOH4AEAAHPIhRdeWA+/79zG7NzvPFz3rLuuMZvMQwvG3gfyrZtuaexVVS1b9c72aMomOvafb751/+cHuw58jNZE7ll3XZ333Ucas4ffd25deOGFjRkAADC7CB4AADDHnHTSSdV/xarG7PzRo6p77frauXNnY97Wc/Hb939+79PNl6Hv89yn/qY9OqjJjnn3b8be39F90dsae23PPPNMda9dX+ePHtWY91+xqk466cCXoQMAALOL4AEAAHPQggULaqBvdfV3NR9T9Yef+3p1rlvfmI13wgknNNa3fO76xrqqat68eTXQt7qGx96TPqnhjqqBvtU1b96BP03a5166dGljPV7nuvW19PPfaMz6u+bXQN/qWrBgQWMOAADMTvPPOOOMq9pDAABgbpj/2pX170d31At//tjYrKq67n+gfnTMggMCR1XVr//kxDr2x797ZNRpe+bV9lNWVE9PT/trtff1p9YvTnpB7XnoZ7V4b7N+bO3cW4+/57xadMGbGvN9nnrqqXrjdx/ev/7PVRfUwkWLGt+pqtq8eXOtuPGOamabqu+d/5pa/o43t6YAAMBs1tHX1zfaHgIAAHPL6Oho9ay7oT2ukap69pOX1JFHHtmYd69t3gWye81l1dExhVs6pmCiaxnoW91Y79mzpxZde8sBoaNm+FoAAIAcggcAALDfxo0b620PbGmPq6pqx8ffUwsXLty/bkeP/itWHfbjo4aGhmrR1Tc3ZuNjx65du6r3s19t7O9zx2kr6pxzzmmPAQCAOULwAAAADvDINdfXqwYPvH/i0RqqeZe9s3p7e2twcLAWX7Ohsf/d806rlStXNmZTtWnTpnrtXT9szPZFlO3bt9eKG+9o7O3zkwUj9dIrPtweAwAAc4zgAQAATOrItetrsodD3XZs1QWXrjogelRVPXvlB6qrq6s9ntDw8HAt/PRN7XH1X7Gq/umGm+t9Oye+gtGq2tN61BUAADB3CR4AAMDz2rlzZ73g81+vzkP45XDv8kW17E2vr+XLlzfmW7durW3fvr/O2vpsYz4Vwx1Vv/nIu2rJkiXtLQAAYA4TPAAAgCnZvXt3PfvZW2rFyLz21v+KRzv31qK/vaR6enraWwAAAIIHAAAwfXfeeWe99Ue/qs5JH3g1M4ZrtL75Zy+s888/v70FAADQIHgAAACH5cHvfL9eed/m6pqh+DFUo7X5zFfWKa87vb0FAAAwKcEDAACYMSMjI/XUkzvqnrs21vsf/6/29oRuOfGIOuu8c+v43t6aP39+exsAAGBKBA8AAAAAACDe/83bBgEAAAAAAGaQ4AEAAAAAAMQTPAAAAAAAgHiCBwAAAAAAEE/wAAAAAAAA4gkeAAAAAABAPMEDAAAAAACIJ3gAAAAAAADxBA8AAAAAACCe4AEAAAAAAMQTPAAAAAAAgHiCBwAAAAAAEE/wAAAAAAAA4gkeAAAAAABAPMEDAAAAAACIJ3gAAAAAAADxBA8AAAAAACCe4AEAAAAAAMQTPAAAAAAAgHiCBwAAAAAAEE/wAAAAAAAA4gkeAAAAAABAPMEDAAAAAACIJ3gAAAAAAADxBA8AAAAAACCe4AEAAAAAAMQTPAAAAAAAgHiCBwAAAAAAEE/wAAAAAAAA4gkeAAAAAABAPMEDAAAAAACIJ3gAAAAAAADxBA8AAAAAACCe4AEAAAAAAMQTPAAAAAAAgHiCBwAAAAAAEE/wAAAAAAAA4gkeAAAAAABAPMEDAAAAAACIJ3gAAAAAAADxBA8AAAAAACCe4AEAAAAAAMQTPAAAAAAAgHiCBwAAAAAAEE/wAAAAAAAA4gkeAAAAAABAPMEDAAAAAACIJ3gAAAAAAADxBA8AAAAAACCe4AEAAAAAAMQTPAAAAAAAgHiCBwAAAAAAEE/wAAAAAAAA4gkeAAAAAABAPMEDAAAAAACIJ3gAAAAAAADxBA8AAAAAACCe4AEAAAAAAMQTPAAAAAAAgHiCBwAAAAAAEE/wAAAAAAAA4gkeAAAAAABAPMEDAAAAAACIJ3gAAAAAAADxBA8AAAAAACCe4AEAAAAAAMQTPAAAAAAAgHiCBwAAAAAAEE/wAAAAAAAA4gkeAAAAAABAPMEDAAAAAACIJ3gAAAAAAADxBA8AAAAAACCe4AEAAAAAAMQTPAAAAAAAgHiCBwAAAAAAEE/wAAAAAAAA4gkeAAAAAABAPMEDAAAAAACIJ3gAAAAAAADxBA8AAAAAACCe4AEAAAAAAMQTPAAAAAAAgHiCBwAAAAAAEE/wAAAAAAAA4gkeAAAAAABAPMEDAAAAAACI998gaBQn9GVR4gAAAABJRU5ErkJggg==;" vertex="1" parent="1">
          <mxGeometry x="-1640" y="-2338" width="1596" height="897" as="geometry" />
        </mxCell>
        <mxCell id="KLeHGzE6UOqmSRrc-cGL-2" value="" style="shape=image;verticalLabelPosition=bottom;labelBackgroundColor=default;verticalAlign=top;aspect=fixed;imageAspect=0;image=data:image/png,iVBORw0KGgoAAAANSUhEUgAABj4AAAOBCAYAAABBANk6AAAAAXNSR0IArs4c6QAAAARnQU1BAACxjwv8YQUAAAAJcEhZcwAADsMAAA7DAcdvqGQAAJjVSURBVHhe7N2xlezKkh7cus8AaiNSHpkG0IBxgBbQAjrAsWAsoAXjAA2gAZRJlSI1GvDuL5A5f7xvIhMJVFV3NXrvtXIBGZlARzSOFHnPPX/85//8n/98AAAAAAAA3MBfMgAAAAAAAPBTOfgAAAAAAABuw8EHAAAAAABwGw4+AAAAAACA23DwAQAAAAAA3IaDDwAAAAAA4DYcfAAAAAAAALfh4AMAAAAAALgNBx8AAAAAAMBtOPgAAAAAAABuw8EHAAAAAABwGw4+AAAAAACA23DwAQAAAAAA3IaDDwAAAAAA4DYcfAAAAAAAALfh4AMAAAAAALgNBx8AAAAAAMBtOPgAAAAAAABuw8EHAAAAAABwGw4+AAAAAACA23DwAQAAAAAA3IaDDwAAAAAA4DYcfAAAAAAAALfh4AMAAAAAALgNBx8AAAAAAMBtOPgAAAAAAABuw8EHAAAAAABwGw4+AAAAAACA23DwAQAAAAAA3IaDDwAAAAAA4DYcfAAAAAAAALfh4AMAAAAAALgNBx8AAAAAAMBtOPgAAAAAAABuw8EHAAAAAABwGw4+AAAAAACA23DwAQAAAAAA3IaDDwAAAAAA4DYcfAAAAAAAALfh4AMAAAAAALgNBx8AAAAAAMBtOPgAAAAAAABuw8EHAAAAAABwGw4+AAAAAACA23DwAQAAAAAA3IaDDwAAAAAA4DYcfAAAAAAAALfh4AMAAAAAALgNBx8AAAAAAMBtOPgAAAAAAABuw8EHAAAAAABwGw4+AAAAAACA23DwAQAAAAAA3IaDDwAAAAAA4DYcfAAAAAAAALfh4AMAAAAAALgNBx8AAAAAAMBtOPgAAAAAAABuw8EHAAAAAABwGw4+AAAAAACA23DwAQAAAAAA3IaDDwAAAAAA4DYcfAAAAAAAALfh4AMAAAAAALgNBx8AAAAAAMBtOPgAAAAAAABuw8EHAAAAAABwGw4+AAAAAACA23DwAQAAAAAA3IaDDwAAAAAA4DYcfAAAAAAAALfh4AMAAAAAALgNBx8AAAAAAMBtOPgAAAAAAABuw8EHAAAAAABwGw4+AAAAAACA23DwAQAAAAAA3IaDDwAAAAAA4DYcfAAAAAAAALfh4AMAAAAAALgNBx8AAAAAAMBtOPgAAAAAAABuw8EHAAAAAABwGw4+AAAAAACA23DwAQAAAAAA3IaDDwAAAAAA4DYcfAAAAAAAALfh4AMAAAAAALgNBx8AAAAAAMBtOPgAAAAAAABuw8EHAAAAAABwGw4+AAAAAACA23DwAQAAAAAA3IaDDwAAAAAA4DYcfAAAAAAAALfh4AMAAAAAALgNBx8AAAAAAMBtOPgAAAAAAABuw8EHAAAAAABwGw4+AAAAAACA23DwAQAAAAAA3IaDDwAAAAAA4DYcfAAAAAAAALfh4AMAAAAAALgNBx8AAAAAAMBtOPgAAAAAAABuw8EHAAAAAABwGw4+AAAAAACA23DwAQAAAAAA3IaDDwAAAAAA4DYcfAAAAAAAALfh4AMAAAAAALgNBx8AAAAAAMBtOPgAAAAAAABuw8EHAAAAAABwGw4+AAAAAACA23DwAQAAAAAA3IaDDwAAAAAA4DYcfAAAAAAAALfh4AMAAAAAALgNBx8AAAAAAMBtOPgAAAAAAABuw8EHAAAAAABwGw4+AAAAAACA23DwAQAAAAAA3IaDDwAAAAAA4DYcfAAAAAAAALfh4AMAAAAAALgNBx8AAAAAAMBtOPgAAAAAAABuw8EHAAAAAABwGw4+AAAAAACA23DwAQAAAAAA3IaDDwAAAAAA4DYcfAAAAAAAALfh4AMAAAAAALgNBx8AAAAAAMBtOPgAAAAAAABuw8EHAAAAAABwGw4+AAAAAACA23DwAQAAAAAA3IaDDwAAAAAA4DYcfAAAAAAAALfh4AMAAAAAALgNBx8AAAAAAMBtOPgAAAAAAABuw8EHAAAAAABwGw4+AAAAAACA23DwAQAAAAAA3IaDDwAAAAAA4DYcfAAAAAAAALfh4AMAAAAAALgNBx8AAAAAAMBtOPgAAAAAAABuw8EHAAAAAABwGw4+AAAAAACA23DwAQAAAAAA3IaDDwAAAAAA4DYcfAAAAAAAALfh4AMAAAAAALgNBx8AAAAAAMBtOPgAAAAAAABuw8EHAAAAAABwGw4+AAAAAACA23DwAQAAAAAA3IaDDwAAAAAA4DYcfAAAAAAAALfh4AMAAAAAALgNBx8AAAAAAMBtOPgAAAAAAABuw8EHAAAAAABwGw4+AAAAAACA23DwAQAAAAAA3IaDDwAAAAAA4DYcfAAAAAAAALfh4AMAAAAAALgNBx8AAAAAAMBtOPgAAAAAAABuw8EHAAAAAABwGw4+AAAAAACA23DwAQAAAAAA3IaDDwAAAAAA4DYcfAAAAAAAALfh4AMAAAAAALgNBx8AAAAAAMBtOPgAAAAAAABuw8EHAAAAAABwGw4+AAAAAACA23DwAQAAAAAA3IaDDwAAAAAA4DYcfAAAAAAAALfh4AMAAAAAALgNBx8AAAAAAMBtOPgAAAAAAABuw8EHAAAAAABwGw4+AAAAAACA23DwAQAAAAAA3IaDDwAAAAAA4DYcfAAAAAAAALfh4AMAAAAAALgNBx8AAAAAAMBtOPgAAAAAAABuw8EHAAAAAABwGw4+AAAAAACA23DwAQAAAAAA3IaDDwAAAAAA4DYcfAAAAAAAALfh4AMAAAAAALgNBx8AAAAAAMBtOPgAAAAAAABuw8EHAAAAAABwGw4+AAAAAACA23DwAQAAAAAA3IaDDwAAAAAA4DYcfAAAAAAAALfh4AMAAAAAALgNBx8AAAAAAMBtOPgAAAAAAABuw8EHAAAAAABwGw4+AAAAAACA23DwAQAAAAAA3IaDDwAAAAAA4DYcfAAAAAAAALfh4AMAAAAAALgNBx8AAAAAAMBtOPgAAAAAAABuw8EHAAAAAABwGw4+AAAAAACA23DwAQAAAAAA3IaDDwAAAAAA4DYcfAAAAAAAALfh4AMAAAAAALgNBx8AAAAAAMBtOPgAAAAAAABuw8EHAAAAAABwGw4+AAAAAACA23DwAQAAAAAA3IaDDwAAAAAA4DYcfAAAAAAAALfh4AMAAAAAALgNBx8AAAAAAMBtOPgAAAAAAABuw8EHAAAAAABwGw4+AAAAAACA23DwAQAAAAAA3IaDDwAAAAAA4DYcfAAAAAAAALfh4AMAAAAAALgNBx8AAAAAAMBtOPgAAAAAAABuw8EHAAAAAABwGw4+AAAAAACA23DwAQAAAAAA3IaDDwAAAAAA4DYcfAAAwEV//vnnU2PHH3/88dKxkvm9Yqxkbq8YK5nbs2NH5nd2AAAA5zn4AADgV3h1Q3m38X03Zxv/s3273+CV3+wnekXdVw5sAADgJ3PwAQDArc2a5l3sN3im7myav7OR3n23nJ/xrjw/XVf3O78bAAB8AgcfAADc1lGj/Gj93Y6az1+Z31Euq/XV2hWruldrj431Vzqq+ytz6Rzld7QOAAA/lYMPAAA46bc1jD+t3u8+UPhqv61eAAB4loMPAABuabdZvLvvk43/LdR31vKqw5HvruEu/xuo3Rp29wEAwE/i4AMAAH6wPCjI+bPONMbP7O2cyf3M3h2Ze84BAICfw8EHAAC3c7Ypfnb/p5jlPYuf9enN/3fXOYt/urN5n90PAACfzsEHAACc8Oom8dX3HTX9j9bf5V31vMtRvkfrM6+u59XvAwCAO3PwAQDArfyGBvFujbv7fqvdQ43dfT/Zb6gRAIDfw8EHAAB84CHBd+fzykZ4vuuVtb3yXVdkbd/t0/IBAIDv4OADAIDb+O4m+Fc4W2O3v4u90tnm+3fk08VWzu7/iX5DjQAA/A4OPgAAAAAAgNtw8AEAAP/Pq//mwav/C/pX5zdknjmv/vzzz78Z7/THH3/8zZjJtZy/yqvrfXWer84PAAB+KgcfAACwaaexnIcCX3FAcOQVDfZZHV3sFbqcjw5Adr0r5121jp2DnWFnDwAA4OADAICb+ISm8Kqhvlr76braulin+25d7C5Wta3WvsrudwMAgE/m4AMAAL7ZTrP5O5viO/nt7NmxU+fOnnfZqfM78wMAABx8AADwjWb/+6SfaKeOnT1X7PzvklZrVeaY80+R9eR8ZlXP+PO42vOMnRx39vwER38eAQDgnRx8AADwLWpz+Z3N5rOuNGu/K/euudzFvsqzv4fvzDtz72Jf5crv4btyTfnn70otAADwLAcfAAB8uVmTdhY/8pOaq1dq7OrrYq92Jdev9F2/gy525CtyfZUr9T0WNc7iAADwLg4+AAD4UlebqpzzXc3m+n2PvvUn/M2Aoxx5je/6vgAA/E4OPgAA+DI7TeadPZ/kSr5Hzxw1iY/Wh919Z/xZ/h2Mozqe9Uf5t0veVcuOo31H61dyv/LMd9rJd2cPAAC8goMPAADYcNTc/gmOGs9Hf1tjN/YKXa5HsW69eleuX+moRgAAwMEHAABf5EzT+cze7/QdeX5X43tV62rtilWNq7V3enWNO76r1rPO5HlmLwAAXOXgAwCAH+2nNlJ3G+nP1vfs84/NXI/+tsjKmb+18djcc+Rsjmn3+Vfk+h126wMAgE/k4AMAgLe70kS98szdzZrof1z4dzBWe3/a7/5Vtfx58G+XzOK/2ep3P3PlGQAAOMPBBwAAhJ3G7KoJXhvoq32vkLnmfBbbdSb/1d6xtspltZbO7E1dnhnL+avVw6pVLau14d25AgDAT+PgAwCA28sm804z+aquCd3FXmFWxyz+CruHOmNttmfkuMr1O7/ZYxF/VldLF3uV/GbvqgsAAD6Fgw8AAN7qu5uss4byLP6MVa2rtR2Zb87TbH0W72TOOZ/FXqHLM2M5X5nlOYsPuZ7zs1Y5r9aumuU7i3+Vd9QKAACDgw8AAD7Wu5uzr2y+7uSae+o81x6L/Gbxd+ryG47q2FFrWtW3WnuXWU1dfFVHzjs7e3Z1+b3SK3MFAIBXcvABAMCPddR4PVq/6t0N5VdZNeHTqCmvef8JurryOvPJdc0c1XTVUf1H6wAA8KkcfAAA8Dbf2TjdbRbv7ls5U+eZvZ1X5PsOz9Y13LW+M3Wd2Tuzm+/uvnd4RZ0AANBx8AEAAB9u1SD+4+Afbs95Omp85/qfG/9A9mqts8rxal1H65ljrevV9QEAAF/LwQcAALdz1PROZ/dX39kEn+U9iz8ra80Dgm59JfOs8yuHHVfN8pzFv8IztZ7N++x+AAD4dA4+AAD4aD+5KTvLfRY/kgcD7zLyWx1qVKu1K1a1db+D1f5n7f4OVmb5zeI/wU/OHQCA+3PwAQDAW1xtEn+is83vP8vfhKj3ndXaM64cEMxymcU7Z/ZWR7lVs72z+FC/ScZebZXLH+Vvs9T7le573sGdagEA4HM4+AAA4Fa+spHaNc272Kvt1ri77xWy7pzPZI45f6fdHHf3PaOru4u9y1fUCAAAX8XBBwAAvKjJvGoer9ZW6t8MmBl/a2C156zZ347IsSP37eZZ68r6dn4vZ+3U1f1ezljlu1rbdTUvAAC4EwcfAADwAjsN5zxEWJk1wbP5n/ty3lntmeW1E5/t2ZW1dc7GH5t55Z48AMn1YRYfdmqqdvYAAABrDj4AALiNVzaNX/mur9Y1299ZTzb/c34kc8v5K43cdg41foJX5v7KdwEAwHdy8AEAwN/4o/lbBGd9RQP1bI6jrrPPzVxtnJ/Zu3JUx9H6ju6QYMwzNjPbt5tf981eeZgzy284Wt91Jte698xzK+Obna3n7P4rnq3xSl0AANybgw8AAB6PpsH8bDPyk2QtWWuNv8orm7HZ6O/y7GK7Ms+cD1lTdz979khXW97Pasx4zs/o8s/auj1XrGq6ossrv9mI3UX+GbxTbQAAXOfgAwCAqVc2ZZ/xTDPzlTV0eWQsm685r2bxM2rzPBvpR4cJO0aOs1xn8cfB2uMgl9laV9OO/CZdrMaPct8xy7H7Trk357PYVc/U98o8nvFMDQAA3JuDDwAAlo3M1don6fLsYtXR+itlk33HUX6z9Vl8JXPK+crsIGFHHgBk7EjuzfmOWa6z+HC0PnQ1foWj/Lr1LvaJVnmu1gAA+B0cfAAA/HJf2Yi9i1ljdRY/Up+bfY88FJjtS2ea7pn/7ECjjs4sPjPL64/y77J0deRzOU9Zx478Hcye2/mGR2bPzeLMzb4TAAC/g4MPAAAO/cTG627Ou/s6ZxvpO3uuyjpyvmuVY7eWBwLdnh15mNHl38WG1dpK5pvzV9rJse7Z2T+zW8fuvk/yE3MGAOBrOfgAAPjFnmmszuw2Jf/c+JsD9I3wjNV4rnX3R+r32DnQWK1dscp19jvY1dU27mutudbtpzf+HOafx5XdfWf4RgAAv5eDDwAAvlzXkOxiu7JpmvMjV5voQ+Y+GufZQB9r9fqMWa4Zz/mOWZN/VtdYe0aXZ9dAn93vyjxzPsziZ4z8Ms9aV7d2Vn6jM3J/zs/ocu9iAADwTg4+AAB+qbPNyLP7r3im4fopuhq62Bldo/87vkc3H7Fcu6rWlzUezd+hq+/ZWru8u9hP8xU1nP3dn90PAMA9OPgAAOBLfWcj8pWN2a6OLjbM1mbxM8YhwTsOSLrG/5FxIDJGp+Z8Jsd31nWU8xmz/Gbxx2Sti131irquemUdAABwxMEHAABfZqfxurNnpWuw1ub62UZ7yvxyvuPKMzXn2X03f7XuUKNer9T2aL5RjT37zXZk3nU+u991Jfd8Judn5LfqauhiZ+zkt7MHAABewcEHAMAv9JsakLNaM57zs3Yaxzt7HotcMp7zYcRzfecAYTTGu2Z/l/9qbci1VQ6z3Gdro6Zuf5U1jVi9poznfJjF01GOj809K5lLzodZ/I5+U60AAPxfDj4AANj2TFP2TPPxzN5nnKnnTE6jyd4126vV2iy33eZ/3ue8k/nUea59l1UdOR+yjpznWsZyXzWLPxb5POKbrfalM3tXub3SmZzO7E1fVQ8AAD+fgw8AAG4jm6o5f7WuKd41Z4/WZ3aa4rl+NJ+Z5ZXxejgwqz+fOZJ1jvt6MJB15HyYxVPmeDRPZ+vs6qu69W7fK2X+OQcAgJ/KwQcAAC/zHY3TdzeHO7M6Z/FHs5bzlazxqDF+tH5Wd8DRrdX1bm8nG/6r3FdrV6zqeizWc76Suea8mq3N4u90psZX+Y46AQC4JwcfAAC/zHc0F680UfOZnB/ZrXN333erhwJjnmtnalntHYcY3UHGai3N4sMsh1Vtq7XOUQ7VUW259sl289zdN+TvOuc7rjzzrLN1AgDwszn4AADgx3lX47Rrrh+pBwIZz0b5bO8ZmdtsnvGVLsc6n+Wd85Wx90xeubfWNlvL+yO7teX8jO6bjBoy127vkVkNr/Ku9wIAwLs4+AAA4JQzDdnv0uU4azSPtR2rA4KhHhTU2CsdNcdnDfbZ/h2z2mvTvY5cT0c55np3f9bZHGttr5Q1rL7Nldq7fLu669qn+wk5AgDwORx8AADwVl/VsFw1hXMt58/aqfHVTfRsiHfN85wfydy6RnmtY1VTF+t0OY5YrSn3vbPeGs89V83q6OzsOSNryHm1WnulV9cIAACVgw8AgF/kNzYbZzXP4mdkkzjnO7LR3hlN/i7njB012GfxKnMa912eXewVujy72ma/lzTLc1Zbzkcsfzed3ZxSPpPzK2a5zuJ39htrBgD4rRx8AADwsa40Ks80i8/sHWY55UFB1yTP+9m7qsyxNtVzbciDgVcYuXa1dbH6zEzmWccq9go7eWZ93dpKzXvMc221p5rFV3ZyHM7sHa7kBAAAX8HBBwAA36Zrlr/Smcbsmb1V5p7zWSx1e1Y51YOAroHe7VmpTf4aq9+ny3EnlvPMJedHsa7eurayqqfWO9tTdWtHP/8x2ZOxnO/qcpo5s/eM7vsAAMBXcvABAMDbrBqruZbzHa9orF55x5Vc6zM7z1/J63HiAOBI5lgPAvJwoMZz/5E8vOjmNZ515fysWtcVO89lTWddeWYnryNX3pG55rxarQEAwDMcfAAA8OVmDdVZ/EjXQJ3Funh1tD50Tf7MP+ez2I56ADByrNcuno7WZ3UMXfzPgwOPnA+ZQ53PvlMXe7ywrlFL7q/x2TuOdLllrKsj98wc5TXLfTe2Y5brLA4AAO/i4AMA4Jf4lObj1abqjlmN2Uif7Tur1pL32TzP+zO6fLsmecbrmFnlVJv9tZ6MjXjer979mNSQ91lDF+us1roaMtdZfBbbkbWNaxfP+2fkt5nlP4u/wqtqedY7awQA4HM4+AAA4KO8ojG502TdbTAf5ZPrOZ/Fdq1ym9XQPVMb7StnG/61kb5qqh+pBwB5GFD3pFfXNbtPq7UjXa4Zy3lare/WMOzsObLKBwAAvpqDDwAATuuanDvN05096cozVZfrzJm9nVWu2Ywe44xxIFDzrPNubUfmMeY1z1Wss1qrVjnWerPGjOVzO7pvkvd1vlvTkHmO2MxqbceZ/M7s7VzJdeeZbs+zuQIA8Ps4+AAA4C0+oVnZNVGro/XhqJZcr43ybm01f5S8Vg3zbKhXdS3vZzKPnK9iWWu3byVzndW2E8t5VfPr7lO3VuerejOPbj6rNefpaH3o8qqO1r/Cbi0AAHCGgw8AAD7OlYbsaKC+q5E6muB15Hq97q7tWNW0aqCfNaurxle/g7F+RZd7V1vOc+8zjmobVmsrtYY0W8vfQa6/Sv2+Z70rJwAAuMrBBwAAX+JKQ/UZ2YydNY9nDecdZ2o6s3dmVkNV66n7Zvs7syZ4jef9USx1taxi4z7f0cVXuhxrPO3UcsaZXM/sHbp6VjXk/N2u1AQAAGc5+AAA+AXu3GzcqW1nz1Vd83zVaK77ZvNq1dzPw4HZ3pzvmNVSc+3y3ol1+RzFao2rWndkPl2t3b4a69aGzCnnIzarpcbeYZX7sLPnp7pzbQAA/F8OPgAAuLVZA3kWv2rVEM/Geo3N1PzyvmuW1/W6L83inS7H7nAgY1fV2rKOLucu1pnllnXkWt1T12f3nayjxqrV2jNm+c3iAABwBw4+AAB4u1mTNRvK1Sy+crZ5fHb/M7p6uthK5plN9a6e3JPxqjb5R25drO6v1xrv9qfMu8brtcbzmS5W1RyyrtyTeWf+OT/S5dPFXm2W/8zZ/dWsntn3eCyeAQCAV3HwAQDAy+00ULPxvPPMWVcbrKum7ZBN8hHLtTN15d6aQ96PeeaZ81ks5c9exXJkvDPis1xGTbWuHGk3lrocM5Z1ZTzvH5s/e+hqq8/n2kzmd8bV51Yy56P8H5t7AADgDAcfAAAf7qih/GrZuHyHV9Rypbm600xerQ2Z/6oZnrH8lt3+KvPp6s66cv6M+udv5Nrdz+qYxWe5Ze7d/Ttqm83r3irnqeaX+Xa5r9Zz3lnlU+ta7RtWdV+xk/8zdut6hVf++QMA4H0cfAAAfLBs5uX81VbN16vO5Hxm78zIe7eW1b6cPxY5Zjybsd18V9ZUG6+Z42qea0PmVccsls+t9q2MWmpNdW21r4vlc9VR7t08fw/d3pXMazUfsU4XzzxW9VXdvtX+XV2OM2f2rnS1vEvmnHMAAD6Hgw8AgA81a+LN4s/qmnhd7FlX8r/yzDCrIeM57xzl0TWRj57ZNfLrGud1ZLzO8/nU5ZqxP+Nwo47Uxaoul6wna6n7Uhcb6rfJ+26eNdU9r1Bz3fk2j431R5NfzodZfMdOHunKM0e6GrrYK8zyn8UBAPheDj4AAPio5l3XbN5xpYYrz1SrBnk1W+/2rnTN8pzP4mdkXbP57D7rynnm9MfBQU3ez+ZnZE61hi6e9ztqXrP7LvZMXdXZfB8nn8mcP8WZGgAAuCcHHwAAH+iocXe0Xj3bkHz2+epM3s+ojfEamzWTu9iRrKU2/Md9F+uezVjNNXOu81zPZ2Z1dfFZbhmv67P7Os/4UHPu4rP7vM7Wq1kO45vUkfE6P3ruMfn5Nbe872Lds2d09Xa51vq+wpVaZp7N+czzR3kfrQMA8PUcfAAA/HI/uWmXued8yHjOd3QN4063dhTr1lM2xbuGeVdXXevWZ2qTvF5nI9frczOz/DPnbr3u29XlPFuv81w/UnPq8tuNDUfvO5I553zIeM5/kp+cOwAAz3PwAQDwYT6xYdc1W7tYyqbxrjN7Z47yyyb6Vdksz/hOrDrKJ5v9uX+s574dI5f8bllj3ucz3Xwmc8zvUuuY1ZbP7Opqq2u5byXXM5fM+SiW8bNm3yUdre84k2v33Va6/LrYd9upBQCAr+PgAwDgF3tHs+5MU3KnoXxW1pTzZ2VDvFvr9hzFVrpGeI1ls7y7r/OVmlv9Pjmf7c09O2qOs1y7tZyvdLnW+dHa0MVmutx2YznPtWdlDTl/Vv02O87s3fXqmgAA+DkcfAAA/FA/valX8z/TTE5nGqbZjM37M++a5dvFu9iOzGnMM9Zd876bPya/+9V87M+R++reTtYxYnUtR+5bzTP2mOSX93kd91lLzs/ocutij0W8kznl/Zl8z+yt8nd/Jv9P9NPzBwD4rRx8AAB8kKvNxp/m1XVmc3LM63XVjF2tHVk1xWu8m1816qmji9fYkS6/ozH2ra55/5j8vlfXo5H7jmT+XU05rprl19WQ8TNWv+9cq3Xmejd/1tlafqrfUicAwE/g4AMAgC3PNPV2G6nZoH2nK/VkozhznDXJM5bzzqwZ3uU9W8t31PvcW3XfodY27lfzM0YuWcdsXp/J+5TfZHY/5rm/W1u9o5P55XzEMp615vqOnfyesfsdqt19nXfXAwDAPTj4AAD4pZ5pPu6YNShn8Znd/VnPbrO4W+9iZ3VN8iu6XEaTfIy6L+NpFk8192z013jWmGsZrz+/y7/Gs6a63sVXZt8ha8j8s46hi52RNT6jy6WLVVlvxo+czXu2fxZ/ld16AAC4FwcfAAAf4kqD7sozn+6ZmlZN1K7RvNpf1ZyyYVyb47lWn+n21PmRzL/Oayyv3fpM5pR576zVPWNfJ7/Daqz25NpKl3vGc72L7cicurzr3tmevOb9Sn6Ho/xXa0d2c/pJrtR05RkAAF7PwQcAAF/mmcbqrq5BnM3InF/V1ZON8k7Gcz7s5l+b5flMXmcyh1rHuM5GXc/7I5lz3ndjrNfrkPPU1TWuWVM+k/OMD5lDzoeunlx/hcyzyz/3vMOr6gEAgCMOPgAAfqFXNyBXTdPV2rvs1Ff31Ab0jqwpG+ZdQ7muH8nc6n1tlOc847m2o6uj1pe11n2z+6y7y2t13426r8Z2zOqardV5viPvV7rc633Wl+s7VnnO7Ox5tVVNq7UrvqM+AAC+l4MPAAC2vaMhmY3ald19j0lzvdM1oDv5s2tDfBbv9nSxHV2e2SjvrnnfvafLqX6bXM+12b5dXY45Vvu69zwW9dR53ZdrGc/7HZlTxrr13NPFO2fy7Go7svrZVfdtXuFMrgAA/G4OPgAAPsC7Gnqvbjw+I2tcza80ZY/UZuysqXxklc9Ro7xbr7FUc6v5Zg2zeK5XOU+Z62w+G2NfvabMM2voRu6r85XMoc5nddX1jOd6J3OcxWbrndVa56i2Z61q2Z1/p1f+LqpPqhEA4Ldy8AEAwJd7dcNxNIyz4dg1Zo8c7e2a3rPYaj118VpT5pU112uO7vl0lOuop4vVvV1sJnOexeo8Y3l/ps4cs/XV82n282e5dnmvYjNdLjNZa43P6nrGUe4AAPBqDj4AAHiZZxumZ5/PRviIrebDLD6s1mueXc7derdvVzbKd+ez52e6pn5thq9GfT7vV2o+mefRqHvzXWmWZ12r60fzq7pcu7yP1oejXGbrGe/mGTuyynPHs88DAMDg4AMA4If76ubkjlWDuItdsaqjNsMzths/ko3wOrr1vHbrK5lfNsazhi62o+aSdZ0Z+XyVudX52VHfeUaX2yxW5bwzcsk8u2ved7Ezuhp24jOrtTO6OvL38U5n6/iKnAAAeB8HHwAA/Iuu+foKZ5qOY28+k/MzspZXNly7vGos6+n2z+R3yO+zGmN/PlffNZNN8nrNtRrPvTtmudb1zD/3HtVS72e57o58164u91yruthZWWfGr8i8unqOnNl7ZPZ9AAD43Rx8AAB8s09p1r2yGfluu7mu9nVrV5q4QzZf87675n2VjfGa2+y+xjJe1Vg2jjP/br4aY+8ZXe6rkXtzXuOPST5dXV18dV/3p/rza455zfv63K7MvVvrrNaq3X2f4FNyvfIdAQB4HQcfAABMvbp5l03J0UTOeDpaX8kG9DM11Xxr3plfnc/WMl7Ncuxq6Zrn3XqNH8n8d8Zqb33nKr+jtRxDvZ9Z5Vjj3Z58R5rFH1FvF8/7Os96c98Zu7XsOMpjlm/On/VMDQAA3JuDDwAATjUkz+xdyaZlzs/KBnHmWefjfra3M8uva5bnPNfy2ZXMMeddLOd1367Me1Vbxq7InOt8FutqXMncMuecd7Gcr2Rumfestu7ZYRavMsesp6p7d+tayfxyftWZvM7sBQDgnhx8AACw9GzjsmtCdrFq1ajtzHI8aiJXZ/amzDHnNXamuZy5dE3y2ajPZKzTNb93Yrmee8a86uqoa7PRrc9iM5lbxmZj7KtyPpO5pozlfMcsx87R3lm8qjke5dutd7EzdnIEAOD3cvABAPCLdM3GLvYK2ZjMeWdnz1mzBu0zdc+a4qsx9tR31OdWZo3zEV+N1MU6meuZMXtPlXlk3kdj9p6ZLo/Muxt1b31mpebY5Zq15Oj2XNXVkPevspNn7sn5q3T1dTEAAO7JwQcAAF/q2eZjNkpzPpMN5c4sftQw7mJVbZbnfap51uu470a3P/d0e4fM7VVjR+b37BjvrEYumV/Ns7t2o3tnvVY1n+5+pluvsW79McnhsfFnrpP7cn7WLGcAAHgHBx8AABz6rqbllWZrNsFHrNPtvSob5HXUPd19N380ze4xz5xrvF67vTtqk/zsyOdXMt/6PXZHfX5XzXXMu2vunT1XZS51nvez8az8HilrWO1deUWuV1zJFQCA38XBBwDAN7pjA+9MTV3DNednZCN2NV+tzcwaxl3ONT7bs2uWdzbMu9Ht7dRcx7WrYTZW7+mMPPI67lcj98zeU81yPRp1b3d/Vubc5dvVO+JHMrdV3kfzMzK3zP3Imb0/xR1rAgD4KRx8AAD8Yl/VmBsN1VkTtmu4drG00xSuTeZxne3d1eVWm+Wz2nK9e89jUtfI++pIXazmtbrfGfm+avzset0ddX93n/Jnj9gzI99b76vMseaX992euv6MLu9Zzjt1VV1uWVved8+8w07+AADck4MPAIAb+NQG35m8zuw9a9Zo7RrNXazKxnA2lY/u67P1mrqGcZ3vjPpsF+tkfeN6ZuR76jx/dua3O/Jd+d4q6+hiR6N7X95XXY5jXtdW92fqyzy62DCLv8Iqz3Rm71f61LwAANjn4AMAgC/36sZrNoi7xnG3L+9zf5U5r+ar+64hnfOh1pB1dfExr89nrJN51fnZ0T3fOarl7MjnV2qeXWxVS8Y7+fO7vHbud+bVqq68H/Osq9v3rFXOAADwDg4+AAB+iWw+5vzI2f1pp5naNW7P6HIcsXrt9p2RTeKa92pc1eU+7rt5jnxHlXllzlfHGZnv1ZHvrEZO9TobuV7n9R1XZM456p76zDO63LsautiOmveRnT0rZ3PM/TkHAOCeHHwAAPClvqPxOGu2ZrM511LmXufdWjaZR6yOXV0jPBvlOZ/t37HKOUfuq/P6rqHLc1bDatR37ejyyTxz3u3flflmzjVWn+nuu/mjySdr6czi79TlDgAA7+LgAwDgpr6z0bjbKF41Z490TeS6Nmsqz/bPZH6rZvioZ7bWmcUfTR11nuNofeyZqbl39eyM+kx9b6fmc6aGHN0zK5lzjqM9uT4zy6PmXGNZz2p/N69qXplz1dVR99frWUffoqvxO1ytDwCAz+bgAwCAv3HUsHy8qFHZNVvz/orMrWsc556zumZyd92JzWSO47tcGd07ZjLXsyOfXcl8Mu/dMZ6d6fLJvM+MfPdK1rYTm61dVXMc95l3zs+qOc7urzrKrfsuAAD8bg4+AAC+ySc26p5pWO7Us9rTrb2qoTmrJeO12Xxk1Uxerc1iVX6HLq8azzHbM5P5jN/71XFF5np2jHfUa2eWa8a7PbmvxjpdPjuxbu1I5jRinVn8jPp7z/jMam3Y2VPtfIfvdLYeAABew8EHAMAv1DXjdmO7Vg3JnHd29gyzhnHmX2Oz61kjz3o9Gvl8F380OY38s47ZSDWW65l/F/vzzz8ff/3rX/9VPd2+HFXmmTln7I8//nj85S9/affV/TU21J+deYzYbHTr+WzKHLv4bIx99XpWzTuvmW/G8pkdO3nmnjrPtTO6PHdjAADcm4MPAAC2PdOk3DFrUM7iM11jtYvN5mk0iI8axbnWxXNtRzbG8353jGdmuvyfGTsyxyujvmtm5JM5Ho36TN7vyBxHrFur8Xqte/OZTuZX57WOjO2a/fxZ/FXO5gkAwO/l4AMAgLc3LB+ThuvMzp5H0xjOWK6ls/EhG+E1lo3xbj3XOl092fw+M6qcV5ln1nU0xjP1Wu/rzx739Xpm5DMzNY8xvzrynTWWak6Z52wt149qeyxyOBPv6un2dY7yezTf+p128wYA4L4cfAAAsPRMo/KoAdk1lF8lG8arxvJVtVmcjeNa22ztSDa/Z/Ws1laxKvN8Zox31GuqtY3rM6O+o5P57cRWa2N+JPOrsdVajV2ROWbuNfZqWdvM0frKO/IGAOA+HHwAAPAtZo3LWXymNk+7hnHXgM35iHXxI9lIHtdsKmcjOuMzmVNtKnd11njOZ7o8x303dv6dj/qu+s5H851mOY+R/75HV9fsvjPLucZW8bG2kjnU+mqs1pFrZ3V5jnjOs856zfsds3xncQAAeCcHHwAAv8Cq+bhaO6trlu42U1drr5K1Xmk410Z4bRh396v93XWmNsjPjO7ZHZnzGHngkfMc412dWX515IFHzuvYMcvvylgZ+XTXLuc67+5zf6fmVGurcv4Oqzyz5tTFrlrVuloDAOAeHHwAAPwyr2wuXn3XqxuPs4ZqNpFrLOM7ury7hvO47xrls6b0UPPLPPN+NnJ/lfGaz5mxOvSo71vp8s2xOuyYjfG+YZZLl+9s7OzvdPl0+XZ7Uheb6fLs4rk/71/hTN7VK/N45bsAAPh8Dj4AADh0tXE57DYdV/tWa48mx6Mm8rOyUTwbuac+e1TTkLXUZvrZsSvrWB101DGePeNMPd1ByK7MdWfU5+p7dtS6xrXmm3V0NZ2pb9eqlpynVT6rtWp338xRjgAA4OADAICXOmpK5nrORyybzdWscZqN5lSbyt397LnHpFnc5Zixbt5dj2SOmXvume0f6jzryXyPxs6hSJX55egON7rRvW/Mh/zZY5751TzzPvfvyFy6fGfzjOXemcxxdp+y1jSL5+8911bzdLQOAABnOPgAAPjFvrLZ2DVPjxquz9ppHne/g1kz9zHJNRvONZbrua/uT9lYrvOdUZ/J+7TK9ero3p8/P3N+ZnTvH2pO3f3uyGdS9/Mzz5pr3Z/rVRd7RC0ZX93PnnuF1bfoYu/yrvoAAPh8Dj4AAL7B2Ybc2f3fbSff3FMbsl18V9d0fUezdTSOM+8az/VaS67V66PJOevZHXV/966qyy/Hmb/dUe87mdNqrP4WSPe+KnMa88x7Nbp35Xz8/HrN/HIt6+jWX62rJ+s6knll/hlf2dnzSc7me3Y/AADPc/ABAPDhrjYmr3pVs3WV72pt16oxPIvV/av7mdm3qPGuUX40X6l5nxn12fquI7WGZ8d4XydzfMU4UnPJHK+MlZpP5jebj1jWMotXWcvsvst7FpvtP2uV92pt16vy3LHzLQAA+H4OPgAAPlg283L+atmM7dYyvpL55jwdrc9k4zjjaVVnp+aV92Oezdej+crsd13rvDK6dw5dLbOx+7c+8jpkLplnjtXf9hijvqdTc3lmzN65I/Nbzbu17n6m5tTlN6uni+86yivXc74y+10f1flKmW/OAQD4HA4+AABu4mzT76uadmfzelZtHHexVd2rtTRruNbmcY66t8ZWRs51zOKrsZL51/vZ+Otf//ovo6ux3neyjnr/x/877Bgja+nqmt13spajMXvmSNZWY92oz3X3R1Y5ZS01nrGvcKauZ5yt66vyAgDgvRx8AAB8qLMNux2rpl631sWu6Bqt4363iXxGl3c2k7PZ3Knrmfe45n3Wk3vqdSVzy/zHdTWqGsu1IWvI2vKQYzbqMyuZ09GohyCzZzqrnDL3HPX5vO/mnZrvuNZcuxryvu4djn521jFiqYs9I2sZse7+GV3eXWxYrV31qloAAHgtBx8AAD/MO5p332FVx06zdkfXgE07e4ZZTuM+Y9089+a+KhvfNdcrI9/12Mi95n008tldmd/uyGfHvF5rXuP6zMh3dTK/Gstcc16vq/uZzLWzs2clc1rltVr7Se5SBwDAb+HgAwCAL2nqHTVZu2by0TMrWVM2nnN9mMWHzC+byBnrGsxdrTM132dGfdfMTh1XR5W5PTvqO1dGHpnb2VHftVJzy3g3urX6zMosn5pvzT/Xr+jyO8rzaP0VnqkJAIB7cPABAPCBPqlx945G5avrmzWLx1qaNWln8dTlP2uK14bzbM+RbDCvRrevvqOrLXOpOebY+d9drd6ZP7/mtRqzf+tj9c4q88p8M9aNfNeOVX2zPamLVVnbUbyLzWp9haP8r3h1js94R30AADzHwQcAwA90pun3SU25o7yP1jtdfbWRnNfc38V21KZyzfsoPruvsZHTM2O8Z3WtMu/VOHP4Me5T5rkas0OPHONdqeYzuz47hi6P1f1sfxfflTllbHatutiRo1yP1r/Smfo+KW8AAPY4+AAA+IU+pZHXNY5fJWs8O99R8661dKPu6Z4/UpvhOR/3R+NI5rYas8OP+mz33sdBkz/HzqFH996ZzHc26t58dlfmNuaZf47u+V2Z39n5K3S1fKd31AgAwGdz8AEA8Mt9dXOyNpV3rPbt5N41YMc840eOmuN5zWcyVuedroGcsTrPMdbz2ZWscTVmhx9/Nr+HzlENO4cedazUvMa8xruR6/muWX01l8yty3fc12ve5zM7ag0Zz1hntWc3l6ztq6xyBwDg/hx8AAB8mE9u2J1tXu42WB9R9+4zVdcgrvnmWsZTxrqcupzrNZ/JWK4/mp87ZH27oz47M/JajdUhR47xznpNNbdx3Rm7hyEzmeOV0eniNY8urxrLa97PYt3P7fLs8h/3O/WtHOXc6X4fR67k9lXO1gIAwHs5+AAA4NDZpl42ULv5TG3GPmOV82i65p4u9jjIJZvGZ8Z4vlMb4XnfzXdHvrNTczsaRwciK5lbHWcOOMa1U/PI3HZGPte9s1NzuzpmurWaU8YyXq3WdoxcupyGupa15XzHszkDAHB/Dj4AALjkbLPy1bJ5OlMbq0f7dtRmcjZgu2b4bO+OWY2jpt1R5byqeWadf24cctTRvXPIvDLf2ZgdhnTvTJlD5ns0uvfkO3dk3iNWrzXe7V9Z5TTWsqb0bI2v9N0/HwCAn8nBBwDAD3W2Idg1TmexLr5rlVeuZQM216+o+a+ay3mtuthjkt+ooTaVa3y2t1uf6RrgGVvFc08nv0PWMcZf//rXywcgj+ab7Iy//OUv7aFHfUd950zmlmO2p4vvyHwzt6wjn0ld7LH4c7m6Zqx7x1n5HTLfnFertSOz/HdjK8/kBQDA93HwAQDAv8jG5VeZNSNn8WqW8yr/2mSu1zO6ZuuIzUanW6tN46ypG91ale+o6s/OfK+M7r0rmduzo3vvo6kz17KGjM3qy/gjvl/KfHN0e8+qudVrp6sp72dmuc3i73A2ZwAAfgcHHwAAX+zOzbmd2mbN2Jyf1TVbs6G8aiSv1lI2W8c4Wu/21n0p87466jvqe4cup8w3x9Hf+pi9d8h8ZqP7mx45Zu8dunwy37OjvrfKnz1i3ajr3d5ufaXmljLv2d4udkbmOuYZ7+zs+anuXBsAwCdy8AEA8EGebTrumDXgZvG7yEbyrCGb82xyd9+oNpKzuZz76n2udzKfEVuNbs+OWQ1HY3YIUt9b1Xwyzz82DztqXTk/0uWZsRypi6XMKfOb1ZD7xnp3HTKfrCvjdzWrbxZ/pfwmAAB8HwcfAABMvauRt2pCZqN2RzaXu4Zy7qvzjB+ZNcUznqPuOaPW9IqxkjmvRh541OfzPtVcuvs/Th6AjOdnMvdnxxmz+rqRz2R8x8gv86zxvK9787kjRzmu1p5xNk8AAH4PBx8AAGzJpuyurrFazRqued89n3ms5uM+95zR5fBo8jtzP3tnNr1znrHZmMm1roarYzy/o6vv7KjvqvPHQR6Zdze6vd08jTwyv537rGGYxXfUvDO2O380+e3cV+P52XpnlTMAAHQcfAAA/FI7TcozuoZkxmbzjB95Nt/aeK3XnfeuGt91vntfrzP5rTL/2cj17n2PprH8yrGS+T476nurmkfmlvmu1rv3dcbPr9cz93We71rJvDN21dnnZzkfzWexs858KwAA7snBBwAA32K3Ibm7r2sar+7rM882W7O5XJvlOXbMcsz7q+PIbi3dmD1fZR7jPvM8Gvn8SuZ5dtR3jPv67h2Z/6yWnXpWZjnO6sh9O3Zz3N0HAACv5OADAIClq43LWQP1bPxI5pdN5O7+yNHeVdM46+jm3b7OyKNej0bu35V51Xkdf/3rX//Vv+2Roz5f3/9ovslObX/5y1+W/95HPr+r5jquRyP3H5nl1c1rLGtb2clj6L5J3nfzXbNcz8aPXM0PAIDfwcEHAAAf62xzc7eJmk3mqot3eWTTeDZyvepiM7UJXsdqrRs7Mt9xf3TgkWNH5rca9fAjn92R+XVj7Ov217UjXV6Zb9aX62NP6mKzvGruR3b3DV0eAADwCRx8AAB8iLNNx8fFZz7BKu/V2syqAds1mmdrVc6zAV5jqTbJ6546756rMudZ7qtR35PPdTK/1Tg6BKnv62SOs7H6mx7d6HR5ZI6rUZ/JeL43dfl185T15DND/vysq8Zna2m1NpN5Vau1T3Yl7yvPAADweg4+AAB+ubONup39u43TbMDuNpNXaoM4G8czY221p8r8Rh3ZXO6unfw9DF0+ta6sdXetyrxna7OxOgCp76lqHpnfGLsHHmm1lvnVPDPWraUuNvvZw1jrrrPccz5T852pa12tV2Qt43437519Z/M7ux8AgHtx8AEAwNsdNVZXazPZLM15J5vMz8gm86yhnPMuXmVe2RA/O7p3zmSOZ0eaxR+Lb5D5nx07Rk6Z/9nRvXOo+WSOXbw+112vqrlmjp3ck/Mdq5yzXgAAeAcHHwAAPG23OVr3HT1ztN7pGqrZXM4mc/fMrmwod03xWR2z+GNSx6NpoGeszmf3dd7JGur87NiRNZ0Z+Xynq6POZ/fdfFbTLP5Y/J5rPGvI6xWZb1dP6mJHjnLMOnfs7gMAgBkHHwAA/I2uiZzzM7KZmvNhFl+Z5ZWN5JRrOV+ZNY5rY7nuy2fyuZmaU5df1ljnXTyfTZlX5nw08pnunSlz7OY7o3tnlXlkjjkyfvTsji7nvK/X7rkdmVPOq1mNwyy+Mssz4zk/I/Na1QAAwO/k4AMA4BeZNVeHGp/t+TSZZ86r1dqw2pPN1Wwc12uO1XMr+U3Oju49M5lXd78zxv58x1Bzq9fd0b2jzldqLpn3zujeMzPLK+updeR6Pjezk89qT67l/FPtfJMRn60DAHA/Dj4AAG4oG6Q5f6czjchXWdWXTeS6N5vL3Z5dXXN8xI/WM5ZqDVlLjp14fe9j8j1qvkej7s9n6/sek99/l1/mvxppxPLnd/k9E5/p8sp8j9bPqHnWWM5rfFXDau2KWU01PtvzDllfzgEA+PkcfAAA/GJnm41n9x/pmrCrJuRqLXPLebVam8kcs5FcZV3d+o5ZIzyb5PWazeTcu1Lz7urtxmz9jMwz6+nG7NkjszyzntybZvFO5tXVl+u5p66dtcoz13JerX525ph5v8Iqt87Z/QAA3IeDDwCAGzvTeOz2drF3ysZz3h+pzeJ6zfXuPvfOzHKbNclrTXW921t1+dU8M9aN1MWGrGVcz4x8Nt9b1TryembUZ/M+dblkDd3o9tXnZzLHnHd7Z7Xk/plVfplrra1bX+ly283xVbp8u9jMmb0AAPwsDj4AAPgyqyZsZ2fPkWwodw3bZ2SjucZmDeWc76j5Zz27o+7vZM5Xxni2uw41l7xeGfXZTua2O3L/mJ+VeWXO3XrGrqi5zup5xk6Odc/OfgAAeAUHHwAAH+AVTchPkzUdNY5n8cfBWtpprl5txmYjuZvXeHefteQ81SZ4d53F6tpZWcvZMd6xY5b32XHFKu9ZLNdmMqfMtbvPWrr5rprfUa6PzT3DKo/ZWq21i9/JHWsCAPhpHHwAAPB2Z5qqw5Vnqmwaj1h3X2NdPHM5mmdstj7b0zWJR251rRtptj7uRx7j52eu3Xo3cq3OO7Nacr5ay/d16/XndzlXud7Vku+r18fkm6XckzJ2NH8sftddvnWesbO6XI5ceQYAAM5w8AEAwJc3Ip9ttnZmzeRshHe1drGZzL1rjOfo1rt37OpqWo18dqbLNeerkXt3ZJ6Z+2zk3jGfyXwy9xy554zM4yj3HLN37OryXdU0u3+VM7m/wjtqAADgZ3HwAQDAW62akNmAvWLVLD7yzLOz3J+JVTWvbtR9q70Zr+/uHDXIj0aV85R5ZO7d6PaO+cyspsw94/X5btR3z3R5nYl18ZVZDTueeTYd5b5aAwCAZzn4AABgaaex/KxXN1xnai2rfY/mPTWvvO+a4bNYPr+SOdTYqCG/T9bWvePIqr5uzPbVeJV555jFc9T3nVVzynxrLONVF+tkTfX+KFafz/vHRg5HNQyrtR1Zx7vs1AIAAA4+AAB4ma9uRq4arLNG7OqZYWfPTPc7qLG87/anrKM2x3PUZ3L/SuYy5jnG2mzPzFhb5ZG11Pxn6/V9Oe9kHTXnrCXryutK5jK7X8V27eSTdY7r6tnV2js88zsAAIDKwQcAwC/1zibjTsN0tWe1tqNrMr+i3mweZyM8G8q5J5/fkflnQ73GctTn6r6UeR3V0418PuOdLt8u3o2xr+6vz6fM56i2qsbyeiTzypwzltd8/lld/ru1zKzyWq0NO3uuerY2AAB+JgcfAAC/zDubjCmbjjmvVmuvlo3lbDivZJ5dIzllk3m2dxYfsgne5Z/zfG5X1jXyzniuHdUw09Uz4rme8bOyhsx9Vs9RbbNcZjV1ZnXlvNPlX+NfYZVnruX8nb7ydwAAwPdz8AEA8ANkA7aaxT/Nq5uwXdO0i1Vd47yudfHOqobadD5qPnexIXPN+zpGvHt+tt7pcq7zjHWj29OZ1bAa3bPdfKXL8Wi9qy3vO10+Xc5Hua/WhprTLJ5rqVvvYlfUun+CWZ5H3woAgM/g4AMA4MO9qvE4c5cmXjZWa4PyXc3KbCrPvtWsKT1kvOY6u69GfTnqWu5LmUOtp9bXjXwuZaz7+RnLWnLUPflcyly7+xydGp/dPyY5PJo/o6mr79W62sd9vf50767jHd8GAIDXcfABAMDf6JrJz8om5KppXK3WqlW+q7VnzBrFo5lcR+7v4ivZDO9Gro15fceuzO/MyOePZL5nRj6/o+aV+Xbz2dqRzK/OM97VkPtfbVXDaq1a5VbXcl/On7X7TQAA+D0cfAAA8G1qMznlWrdn5qixmk3lo/1HjnI8Wq9WueTabnM512axbCDXed7nNWMZT39Es79+i/wus7V8flZTyhyvrKXV2pD1pKP1XfktjnI7Wq8yxy7X1RoAAHwFBx8AAB8sG5I5f7VsJH+1VaP8FWpzPK+7Zo3xrsnc1ZPzoYvXfDNW88/7nNdnd2Te3X1ex30+uyPzHrHu2t2fqave1xq6ebfWPV/Ncsl45r1T5xk1/3Ht8n2VrOer1JreWd+j+QY5BwDgczj4AADgWzzTpNxtCNdm8mrfcLQnm8l5X2MZz2e6PTNd/iNWa8z1ep/rVc1llufuqM/u6PI8M/I9GU9HeY55V1ON71jlmXtS90y3r9rJq+a/2r/6HZ1xlDMAALyDgw8AgC/0TAPxWc80IK88+521Pk40i4ejfVlPNoZnDfHdRnPq8uka6Rmv67O9MzXPzLWro9uf9ytdnnmf18y/29/JXDLPHN3ejI+1Xas6aryu5b6cp918dr/Rux3V03km52eefdaVWgEAuMbBBwAAb7XbaNzdt5JN45mdRvlVswb6rNGc85nMtTbJaz2r2rq11c/fqaNbSxnvcntEPHPNtVprp6sx88i1vM/a6/4jmdtRHbn/FVZ1p67WK3br2N0HAABXOPgAAODx+LBG5JUGbDaUO7XBPNtTjT2zfLJZvNq3slrPnGdN8q7+ur97pjPLpR4EzEbuG/NOl2POZ6Mzi6dZznU9dfu7fcNRLrP1Gt+pdZXDsJPzUf1HZnl+hyv5AwBwPw4+AAC+2W9q1K2ar++0asxmgznnO7Ipnmt5P/bn3rTKY+RZ8837q2p+XW15rc/NjLVVXrmWtWSdWf8V+U3qfY11VmuPyHPM61qVtZ2ReeY8rdbe5UpdP9lvqhUA4BM5+AAA+FDf0ZxMV5p3n5D3sGo0X7XbEM89q/07jhrjz9aa+db40fXo2Zkuz1FfrXd1rWa/myNH36nW162fkd/pKOedPWcc1fpdrtT3CflfyRsAgPdz8AEA8MN8QrPvilnD9Zl6Vk3HVYP8XWa1nK13lnPGsyne3XdjRzb7Z2Osd/t2dLnt1nClnm7U9dyb7+jM4lXNc5bzLP4OtdaZ1dqRWb1fWeMr/dS8AQB+KwcfAAC/2Hc383aar4+N9bN11Mb5s45yq+tHeztdc38W6+7P6hr+K0ffcBaf5Xjl23S/jzNW36j7fXSxHWe+0dH6jqNvM3O0/yi3K9/wHY7qAADgvhx8AADwa9QGeTZld5rn2UitjeW8XzXHZ/Fqlks2z2d5r9bSLJ+spRtjX+4/I3Ot16PRmcWrVa7dWrfvsYhXs3y6WvI+969kziM2WwMAgLty8AEA8AsdNVB/slfX9qpmcb6nNqR3ZKM/6+ya6HVtNR92Gv1pVkdttOda1+Tv1nasfidD/vxuXkeu5b4dszpyftWr3jPs1vUT3bk2AAB6Dj4AAHibsw3Hs/vTqtmcsXfo8s9m+ey+M8t5Fl/ZfabLd8zHfR3vNL5bHTWe+3ZcyXn2zCw+ZI71vsu3i71a993q933G2fzP7gcAgF0OPgAAeLuuodrFHov4FTuN1VkTeqU2jzPfOs+1V+ga6CM2u6/7Z7pcd2rJ38Vs35Gj3IesP3WxIXOb5T7ud+p/xqqWnd/FTOY+s7Nn1yzHLt7FAADglRx8AABwyk9rWn5Vvtkk75rKXWxHV0PGZk301b6VLtd6MFCvq/sds3xr8z/Xhi7WyZxm+a72rWI7ulz/aP72yle4WsN3+Wn5AgDwvRx8AADwZc3WM/6cHB68wk69O3u6A4CZVXN9pTb9VwcAK93+LtYZ3yFrrdeuni7W6fLoas3fQ/dcp8uji610tZ55R811J++seWUnj509V5z5Dl/pXfUCAPBzOPgAAOAjPNuszAZszmexs67keeWZHXkI8KpG9JXm/qPZXw8KUpdrzo+cOSA4kocaq9yfdSXfK8+krp6M5fysV+QJAADPcvABAMCP9kyj9cyzOw3hbk/Gcj6LzcxyzngeLOT6FauDgbp2RXeIMWro1q7KnDPfnA+zeKfLM2M5n8XSzp7hTM7pmWcBAOC7OfgAAOBXeWUTvZOHAzOrtR2r/PPwYFfNOevI+MrOnmonx/rdusOQGttRc1zlu1rbscqpq+PVznw3AAC4CwcfAABse1dz9m5mTeZZ/Bnf/U3qocjKP/3TPz3+8R//8fGf/tN/evzH//gfc/lvnD3EeIedms6a1TSL87fe8U0AALgnBx8AAJz20xq178z3K/6L+vxbAavrO2sdZrVm/L/+1//6+Od//ufHf/kv/+Vv4o/H4/Ef/sN/ePzDP/zD49//+3//L7FZ7rP4K9UDnN3rO+Q3fYd35v8OPy1fAAC+n4MPAIAP9EmNvt0G7Cfl3Dmq490N52d/P8/kdbW2zDkPB+p67v1v/+2//c185d/9u3/3L/c1x3qQ0x3q5PzIKw4unnn2cSHnXbu1Ha1/t93fzyfVsZszAABfx8EHAAAvt2pKrtZ+qqOaZuuz+BXZfO0OCnZlXjlf+fPPPx///b//9wwf+vu///sMTWVdOd/1Z/O/6cr5M2Z5zeLD0fpPtKpptQYAAFc4+AAA4OO8svn8Ls/k2D3bxVYN4atrV3X5PZr4//yf//Nv5mf823/7b//lflbDLP6MrKE6u9bl18V2PfPsV/kJOQIA8Ls4+AAA4FY+rQnbNcer2fqsjln8XWb5VWPP//pf/yuXTvu7v/u7rRp39rzS7Pcwix/ld7T+1WZ1AADAT+TgAwCAL9M1V7vYV3plA/q7a+Fnu9Ofxa6WLgYAAO/g4AMAgNvRYP3/veN38dVN9TvU8Mn8LgAAuBsHHwAAcNFXNIzf0fTfcba2//2//3eGLvs3/+bfZGjqp/x+rviu2gAA4Kdz8AEAwG19d+P4K5rj/Fz+fAIAwHs4+AAA4La+u7H73Y1tPps/nwAA8B4OPgAA4KKvaBx/V3P8K2p7hTv/fr6rNgAA+OkcfAAAcDsaxv+/d/wuuqb/3/3d32Xosv/zf/7P38y/qobfyu8CAIC7cfABAMCX6RqsXewrvbKp/t218LPd6c9iV0sXAwCAd3DwAQDArXxac/WoAT1bn9Uxi7/LLL9qZ88ZOzXu7HmlWY2z+FF+R+tfbVYHAAD8RA4+AAD4OD+hCftMjt2zXWzVHL+6dlWX3yPi//bf/tu/Wbvif//v//14LGqYxZ8xq+1xYa3Lr4vteubZr/ITcgQA4Hdx8AEAwMt1DeFhtfZTHdU0W5/Fr8jm859//vmvYrsyr5yv/P3f/32Gtv2v//W/MtTKunK+648//vhXteX8GbO8ZvHhaP0nWtW0WgMAgCscfAAAfKBXNl+ftduU/KScO0d1jPWjfVc9+/t5Jq+rtWXO9aAgDw3q/b/7d//uX+53/Y//8T8ej8jxz3J4U+/r+hk196ueefZxIeddu7UdrX+33d/PJ9WxmzMAAF/HwQcAAKf9tEbfO/PdbTg/Iw8uVtd31jrMaq3xf//v//3frK389//+3x+PxXeaxV8pD3V2ru+Q3/Qd3pn/O/y0fAEA+H4OPgAA2PbOZuydzBq1s/gzvvub1AOD9A//8A+P//Af/sPjP/7H/5hLj3/+539+/Nf/+l8f/+2//bdc+rIDnJVZTc+Y1TSL87fe8U0AALgnBx8AAPwq7/4v6uvfClg1aldrO1b517XVvlRzzjoyvtLt+U//6T89/vEf//HxT//0T4//8l/+y9+s7eRYv1s9GMn4rppjl++wWtuxyqmr49XOfDcAALgLBx8AAPxozzSMzzy70zju9mQs57PYzCznjOdBQK5fMTsMybUrugOAUUO3dlXmnPnmfJjFO12eGcv5LJZ29gxnck7PPAsAAN/NwQcAAB/h2UZrNoRzPouddSXPK8/s6A4GXlnj2bxzf3ewMHS55vxIrftZNddxP8v9WVfyvfJM6urJWM7PekWeAADwLAcfAAB8ZLPyuxvPO3vOHBDUPTv7h+5QYye3qtvfxTp5CNBdu3q6WKfLo6s1fw/dc50ujy620tV65h011528s+aVnTx29lxx5jt8pXfVCwDAz+HgAwCAUz6x0bnyVfnWZuuzhwGpqyFjs+b6at9Kl2s2/bPm7n7HLN88AOhy72KdzGmW72rfKrajy/XPN/wvyXZcreG7/LR8AQD4Xg4+AAB4u65p2cUei/gVO03kbDzv+GPxX/6vmuivkE3ymv/svu6f6XLdqSV/F7N9R45yH7L+1MWGzG2W+7jfqf8Zq1p2fhczmfvMzp5dsxy7eBcDAIBXcvABAMDbnG2snt2farM44xl7hy7/bELP7juznGfxld1nunzHfNzX8U7ju9VR47lvx5WcZ8/M4kPmWO+7fLvYq3XfrX7fZ5zN/+x+AADY5eADAOAXunPD8dW1PdsMHvI9Z5vN2SzPOsd67htrq/lQc9nNa1ZHbbDn2vj5q1wzPrP6nQz587t5HbmW+3bM6sj5Va96z7Bb109059oAAOg5+AAA4NeojfZsHHdN+JQN1NrYz/tVk3wWr2a5ZKN/lvdqLc3yyVq6Mfbl/jMy13o9Gp1ZvFrl2q11+x6LeDXLp6sl73P/SuY8YrM1AAC4KwcfAAC/2FEj9d1qU3blaP1sHbPG8hVHue00z1e6Bv8s1t2fdbZBfvQNZ/FZjle+Tff7OGP1jbrfRxfbceYbHa3vOPo2M0f7j3K78g3f4agOAADuy8EHAMAP81ObebPm8jP1rBqr39F8ndVytt5ZzhkfDf9aa953Y0dt7o/7boz1bt+OLrfdGq7U0426nnvzHZ1ZvKp5znKexd+h1jqzWjsyq/cra3yln5o3AMBv5eADAOBDPdN0fJUrzb5PyHt4R8N11hSvuj2r/TuOmv3P1pr51vjR9ejZmS7PUV+td3WtZr+bI0ffqdbXrZ+R3+ko5509ZxzV+l2u1PcJ+V/JGwCA93PwAQDwzT6hefdVZg3yd1s1J7OpnPMdq8Z412ge+3NvWuVRG+JjX95fVfPrastrfW5mrK3yyrWsJevM+q/Ib1Lva6yzWns0hxY1z8w5azsj88x5Wq29y5W6frLfVCsAwCdy8AEAwOPxYY26K43ZVVN5mDWhZ8aeWT7ZYF7tW1mtZ86zBnJXf93fPdOZ5TJqXY3cN+adLsecz0ZnFk+znOt66vZ3+4ajXGbrNb5T6yqHYSfno/qPzPL8DlfyBwDgfhx8AADwVruNyN19K6tmcTX27Ow9qzbJu4Zy1pnzmcy1HgTUela1dWurn79TR7eWMt7l9mga/9113NdaO12NmUeu5X3WXvcfydyO6sj9r7CqO3W1XrFbx+4+AAC4wsEHAMAXekVj8apnGo1Xnv3OWh+TRvPK0b6sp85nTfK6Nu53dfnMmuTZQK+1d3tnap6Za1dHtz/vV7o88z6vmX+3v5O5ZJ45ur0ZH2u7VnXUeF3LfTlPu/nsfqN3O6qn80zOzzz7rCu1AgBwjYMPAAC+xTMNyFVjuDpqNKejPV2zuKuja5LnM92emS7/bJJ36/U+16uayyzP3VGf3dHleWbkezKejvIc866mGt+xyjP3pO6Zbl+1k1fNf7V/9Ts64yhnAAB4BwcfAAAfLBuOOX+1rtn6lc40la+oTea87po1hLtmcldPzocu3jXFR6zmn/c5r8/uyLy7+7yO+3x2R+Y9Yt21uz9TV72vNXTzbq17vprlkvHMe6fOM2r+49rl+ypZz1epNb2zvkfzDXIOAMDncPABAMC3yebsaq3bM3PUkMwm89H+I0c5Hq1Xq1xybdUYX63NYtkcr/O8z2vGMp6yUV6/RX6X2Vo+P6spZY5X1tJqbch60tH6rvwWR7kdrVeZY5frag0AAL6Cgw8AAP7GrIH8jGysrprL1WqtWuW7WnvGrKn8R/kbAmPk/i6+Ur/JuM+Ra2Ne37Er8zsz8vkjme+Zkc/vqHllvt18tnYk86vzjHc15P5XW9WwWqtWudW13JfzZ+1+EwAAfg8HHwAAH+7dDb1XNyG/SzaKazO5ayy/QjbDZ9+q7utkfNY0ntUw6stR13JfyhxqPbW+buRzKWPdz89Y1pKj7snnUuba3efo1Pjs/jHJ4dH8GU1dfa/W1T7u6/Wne3cd7/g2AAC8joMPAIAfYLcZ+8le3VjtGo9drFo1lWfxzqqG8a3qGPHUxYbMNe/rGPHu+dl6p8u5zjPWjW5PZ1bDanTPdvOVLsej9a62vO90+XQ5H+W+WhtqTrN4rqVuvYtdUev+CWZ5Hn0rAAA+g4MPAIBf5iubdtk0zXm1Wnu1rvlc4yuZ56zhXNW1VQN6Fh9qfjX3o3p26kpZ18g747l2VMNMV8+I53rGz8oaMvdZPUe1zXKZ1dSZ1ZXzTpd/jX+FVZ65lvN3+srfAQAA38/BBwDAL/XOpuNOk3G1Z7W2o2syv6LebIJnY7lrPGesPr8j888meo3lqM/VfSnzOqqnG/l8xjtdvl28G2Nf3V+fT5nPUW1VjeX1SOaVOWcsr/n8s7r8d2uZWeW1Wht29lz1bG0AAPxMDj4AAHiZr24yrhqmXUM572d29sx0v4NZk7lrsneyjlFbN+ozuX8lcxnzHGNttmdmrK3yyFpq/rP1+r6cd7KOmnPWknXldSVzmd2vYrt28sk6x3X17GrtHZ75HQAAQOXgAwCApWw+v8NuI3bHKs9ay2rfo3lP1zge93UcxfL5lcyhxkYN+X2ytu4dR1b1dWO2r8arzDvHLJ6jvu+smlPmW2MZr7pYJ2uq90ex+nzePzZyOKphWK3tyDreZacWAABw8AEAwFutGpS1KXvVMw3XZ56d5f5MrJo1w2vOdX22N+P13Z3aWM4aa2w2qpynzCNz70a3d8xnZjVl7hmvz3ejvnumy+tMrIuvzGrY8cyz6Sj31RoAADzLwQcAAF/ehHy2qdrJpni9P2qQd7GZzD2bxd3o1rt37OpqWo18dqbLNeerkXt3ZJ6Z+2zk3jGfyXwy9xy554zM4yj3HLN37OryXdU0u3+VM7m/wjtqAADgZ3HwAQDA211pRF55pqpN5Brr7musi2cuR/OMzdZne7rmd9cY70aarY/7bIRnrt16N3KtzjuzWnK+Wsv3dev153c5V7ne1ZLvq9fH5Jul3JMydjR/LH7XXb51nrGzulyOXHkGAADOcPABAPABnm0+fqKsqWsSV7P442At7TRVjxrPM9lE7uY13t1nLTlPtXneXWexunZW1nJ2jHfsmOV9dlyxynsWy7WZzClz7e6zlm6+q+Z3lOtjc8+wymO2Vmvt4ndyx5oAAH4aBx8AAHyZdzZjZ7KhfLWRPNM1wUcsG+Z1/ayaf9azO+r+TuZ8ZYxnu+tQc8nrlVGf7WRuuyP3j/lZmVfm3K1n7Iqa66yeZ+zkWPfs7AcAgFdw8AEAcGNnGo3d3i72Tl1z+UyDtjaU6zXXu/vcOzPLbdZQnjWcu71Vl1/NM2PdSF1syFrG9czIZ/O9Va0jr2dGfTbvU5dL1tCNbl99fiZzzHm3d1ZL7p9Z5Ze51tq69ZUut90cX6XLt4vNnNkLAMDP4uADAOAXO9uoPLv/yNlG8motc8t5tVqbyRxrszjzyrq69R3ZCM94Npxzf93XvSfVvLt6uzFbPyPzzHq6MXv2yCzPrCf3plm8k3l19eV67qlrZ63yzLWcV6ufnTlm3q+wyq1zdj8AAPfh4AMA4Iay4Zjzd8pmcmcWv2pVXzZhuwZtneeeXbMm+Ziv1jOWag1ZS46deH3vY/I9ar5Ho+7PZ+v7HpPff5df5r8aacTy53f5PROf6fLKfI/Wz6h51ljOa3xVw2rtillNNT7b8w5ZX84BAPj5HHwAAPwis6br8F2NyGdknjmvVmvDak82SLOJ3DWXuybzLN7Jb3J2dO+Zyby6+50x9uc7hppbve6O7h11vlJzybx3RveemVleWU+tI9fzuZmdfFZ7ci3nn2rnm4z4bB0AgPtx8AEAwN8423A9ks3GnA+z+Mosr1njeMi1nK90TfARz2ved8/N1Jy6/LLGOu/i+WzKvDLno5HPdO9MmWM33xndO6vMI3PMkfGjZ3d0Oed9vXbP7ciccl7Nahxm8ZVZnhnP+RmZ16oGAAB+JwcfAAA8bbfpmA3ZlaP1TtdMzcZx3XOmodwZOdZrNmFndczij0kdj4Pmec5n93XeyRrq/OzYkTWdGfl8p6ujzmf33XxW0yz+WPyeazxryOsVmW9XT+piR45yzDp37O4DAIAZBx8AALzdrNE6rNZmsjma805tKO/sX6mN5Hod97XmOu/iVeZVm+JXRvfOmczx7Eiz+GPxDTL/s2PHyCnzPzu6dw41n8yxi9fnuutVNdfMsZN7cr5jlXPWCwAA7+DgAwDglzvbhNzZv9sszQbymQbtTNdgHvGZs03mzK9riM+unfw9DF0+ta6sdXetyrxna7Pxl7/85V/F8n357ppH5jfGX//6138V60ZarWV+Nc+MdWupi81+9jDWuuss95zP1Hxn6lpX6xVZy7jfzXtn39n8zu4HAOBeHHwAAHyIK426K898glXeq7WZVeO0NmCzGZtrVc67BnHOa7yud/PuuSpznuW+GvU9+Vwn81uN1YHHH1FvJ3Ocjd0DkDE6XR6Z42rUZzKe701dft08ZT35zJA/P+uq8dlaWq3NZF7Vau2TXcn7yjMAALyegw8AAD7W2QbsbtOxayAPXbzLo2sqdyPXqy42U5vk2QSfrXVjR+Y77o8OO3LsyPxWox6C5LM7Mr9ujH3d/rp2pMsr8836cn3sSV1sllfN/cjuvqHLAwAAPoGDDwAAlq42N2dN1LPxI5nfrGmc+1aO9mZjvMazjm7e7euMPOr1aOT+XZlXndfxl7/85fAApD5f3/9ovslObX/961+Xf/Mjn99Vcx3Xo5H7j8zy6uY1lrWt7OQxdN8k77v5rlmuZ+NHruYHAMDv4OADAIBvsdu43N23ahp39/WZq83XoTbF67wbO2Y55v3VcWS3lm7Mnq8yj3GfeR6NfH4l8zw76jvGfX33jsx/VstOPSuzHGd15L4duznu7gMAgFdy8AEA8Etls/VZXcM0Y7N5xo88m29tLtfrznuzYZxN41w/uq/XmfxWmf9s5Hr3vkf8/FrXK8ZK5vvsqO+tah6ZW+a7Wu/e1xk/v17P3Nd5vmsl887YVWefn+V8NJ/FzjrzrQAAuCcHHwAAbMmm7K6ucVzNmpR53z2feazms2bsGV0Ojya/M/ezd3aN7zrP2GzM5FpXw9Uxnt/R1Xd21HfV+eMgj8y7G93ebp5GHpnfzn3WMMziO2reGdudP5r8du6r8fxsvbPKGQAAOg4+AACYOtOcPGPVvFw1k2ey4Vobq3lfzeJHatM7m7KrUfecUWt6xVjJnFcj/62P+nzep5pLd/9n/GPmO2Mlc392nDGrrxv5TMZ3jPwyzxrP+7o3nztylONq7Rln8wQA4Pdw8AEA8EG+opE3a0LO4nfRNZUz3s2zidx9o9o8zoZy7qv3ud7JfEZsNbo9O2Y1HI08AKnvGO+paj6Z558nDzzyHTu6PDOWI3WxlDllfrMact9Y765D5pN1ZfyuZvXN4q+U3wQAgO/j4AMA4It9RQPuu+zUVhuyXfyqrumYjeRZU/lxsJaykbxqLtf1bm/dlzLvq6O+o7536HLKfHPMDjvqu+p9ynxmY+cQZPbeocsn8z076nur/Nkj1o263u3t1ldqbinznu3tYmdkrmOe8c7Onp/qzrUBAHwiBx8AAPyLK83WV5g1W2fxapbzKv9sxq72znSN49pQ7kanW6uN76ypG91ale+o6s/OfK+M7r0rmduzo3vvo6kz17KGjM3qy/gjvl/KfHN0e8+qudVrp6sp72dmuc3i73A2ZwAAfgcHHwAAP9TZJl/XjJzFuviuVV65lk3jXL+i5l/ryFheqy72mOQ3asgmc9aWe7v1mVFT1pZjFs89nfwOWccYf/nLXw7/tkcd+f6aQ+Y2G3/961/bv/lR31HfOZO55Zjt6eI7Mt/MLevIZ1IXeyz+XK6uGevecVZ+h8w359Vq7cgs/93YyjN5AQDwfRx8AABwyXc3BLPJOtM1lzurtWrVAJ81l7u9O2Y1jpp2R5XzquaZdf6x8b+3qqN755B5Zb6z0R1+jPfU+07mkPkeje49+c4dmfeI1WuNd/tXVjmNtawpPVvjK333zwcA4Gdy8AEAwKHdpuuQjdVuPlObs89Y5TxrJnexx0Euo7YrYzzfqc3wvO/muyPf2am5HY2jw5CVzK2O2SFHjvGemZpH5rYz8rnunZ2a29Ux063VnDKW8Wq1tmPk0uU01LWsLec7ns0ZAID7c/ABAPBhPrmpd6VBuVtP3bf7TNU1jbsGa9bQxUa86nLqcq7XfCZjuf5ofu6Q9e2O+uzMyGs1jg446hjvrNdUcxvXnXHmQKSTOV4ZnS5e8+jyqrG85v0s1v3cLs8u/3G/U9/KUc6d7vdx5EpuX+VsLQAAvJeDDwCAX+6rG3a12bpjtW8n967B2jWZd3QN4ryv13wmY3XeGblnY7nG6jzHWM9nV7LG1Vgdhox3rRzVsHvIMcZKzWvMa7wbuZ7vmtVXc8ncunzHfb3mfT6zo9aQ8Yx1Vnt2c8navsoqdwAA7s/BBwDAL/TVTciZowbyM7LGs/Mds2Z4N+qe7vkj2fheNcdn40jmthqzQ4/6bPfeR/yuj+rYOfzo3juT+c5G3ZvP7srcxjzzz9E9vyvzOzt/ha6W7/SOGgEA+GwOPgAAfqAzjbxPaT4+NvI+Wu909dUGc15zfxfbsWqOr+Kz+xqrjeOrY7xnda0y79WYHXrUUd/VyTxXY+fw48/N2mbXZ8fQ5bG6n+3v4rsyp4zNrlUXO3KU69H6VzpT3yflDQDAHgcfAAAf6ExT7t3e0fR7dX2jUVwbxnUtzZrKs3jq8u8ayzVeR+45UvPJWnN0++o7utoyl5pjjjOHHt078+fXvFZjdvixemeVeWW+GetGvmvHqr7ZntTFqqztKN7FZrW+wlH+V7w6x2e8oz4AAJ7j4AMAgC9p3B01Krsm7dEzK1lTNpxzfZjFh8wvm8UZ6xrJXa0z2RS/Ouq7ZnbquDqqzO3ZUd+5MvLI3M6O+q6VmlvGu9Gt1WdWZvnUfGv+uX5Fl99Rnkfrr/BMTQAA3IODDwCAH+YuTb1VHdmgXe1d6RrIaWfPMMupa4Z3NdRYvc7qy2ZyzfXKyHc9NnKveR+NfHZX5rc78tkxr9ea17g+M/JdncyvxjLXnNfr6n4mc+3s7FnJnFZ5rdZ+krvUAQDwWzj4AAD4UFebkiur5l231sWuqLXk/TMN2Jku765Z2+2r6nrmPa55n/Xknnpdydwy/3FdjarGcm3IGrK2nf/NVT6zkjkdjfq/u5o901nllLnnqM/nfTfv1HzHteba1ZD3de9w9LOzjhFLXewZWcuIdffP6PLuYsNq7apX1QIAwGs5+AAAuImzTb2vatidzetZq2ZxNmPTai3Nmsm12Zyj7q2xldpErvln7GisZP71fjb+8pe//Mvoaqz3nayj3v/5/w45xshaurpm952s5WjMnjmStdVYN+pz3f2RVU5ZS41n7CucqesZZ+v6qrwAAHgvBx8AAB8sm3Y5f7VVwzUbuDsy35yno/WZrnlc42lVZ6drFI/72jierXXzldnvutZ5ZXTvHLpaZiMPO7ox3lOvQ+aSeeY4OvzI93RqLs+M2Tt3ZH6rebfW3c/UnLr8ZvV08V1HeeV6zldmv+ujOl8p8805AACfw8EHAMCHmzX83iUbrlet8l2t7Rp5drnOYnX/6n5m9i1qPBvHO/OVmveZUZ+t7zpSa3h2jPd1MsdXjCM1l8zxylip+WR+s/mIZS2zeJW1zO67vGex2f6zVnmv1na9Ks8dO98CAIDv5+ADAOAbnG3Snd3/3XbyzT21QdvFd3WNyXc0KbMxXK85ajyfz2eHzDnr2R11f/euqssvx+7f9sj3dTKn1Vj9rY/ufVXmNOaZ92p078r5+Pn1mvnlWtbRrb9aV0/WdSTzyvwzvrKz55OczffsfgAAnufgAwDgF/vKhlzXWL3adN3VNZRX9zXWxR+TXGcN8lpfjtTFRh61hjOjPpP3aZXr1dG9P39+5vzM6N4/1Jy6+92Rz6Tu52eeNde6P9erLvaIWjK+up899wqrb9HF3uVd9QEA8PkcfAAA8FJHzcZcz/mIrRqzs+bpquH6WBwCrBrOw27zOGPdvLseyRwz99wz2z/UedaT+R6NM38L5LHIc4zV3+6oo3vfmA/5s8c886t55n3u35G5dPnO5hnLvTOZ4+w+Za1pFs/fe66t5uloHQAAznDwAQDAoWebkrPGaVrtW609mhx3m8VX1XxqwzlH7qnPHtU0ZC21IX527Mo6dg43ztY1nKmnOxTZlbnujPpcfc+OWte41nyzjq6mM/XtWtWS87TKZ7VW7e6bOcoRAAAcfAAA/DLPNh2rq+96deNy1iiuTeR67eI7urxnTeSugV73dO96TJrhNT7bs9pfZbzmc2asDkLq+1a6fHN0Bx1HY7xvmOXS5TsbO/s7XT5dvt2e1MVmujy7eO7P+1c4k3f1yjxe+S4AAD6fgw8AgF9g1XhcrZ3VNRd3G6qrtVfJWmdN6ZXaSO6ayF1DudvfXWeyUb47umd3ZM5j5GFHznOMd3Vm+dWRhx45r2PHLL8rY2Xk0127nOu8u8/9nZpTra3K+Tus8syaUxe7alXrag0AgHtw8AEAwLeYNR9n8ZmumZqxbKjmfMS6+JFZwzkb5Feb0ZlTbYR3ddZ4zme6PMd9N2YHHvWZ+q76zkfznWY5j7Fz4DG778xyrrFVfKytZA61vhqrdeTaWV2eI57zrLNe837HLN9ZHAAA3snBBwAAS880Lo+ap7Om8it0jfGuyfyK+moNGVutHak5rupZra1iVeb5zBjvqNdUaxvXZ0Z9Ryfz24mt1sb8SOZXY6u1Grsic8zca+zVsraZo/WVd+QNAMB9OPgAAOCpBuSubMSu7Ox5RN6rZnEXe1yID13zuzaWs7mc67nW6eqpDeWzo8p5lXlmXUdjPFOv9b7+7HFfr2dGPjNT8xjzqyPfWWOp5pR5ztZy/ai2xyKHM/Gunm5f5yi/R/Ot32k3bwAA7svBBwAA297dtJw1LGfxmWwqz2KzedptfudaF8+1HdkQz/vdMZ6Z6fJ/ZuzIHK+M+q6ZkU/meDTqM3m/I3McsW6txuu17s1nOplfndc6MrZr9vNn8Vc5mycAAL+Xgw8AgF+oa1DuxnatGqs57+zsGVaN4qrGZtezspE8GuOrkc938UeT08g/65iNVGO5nvl3sT82/32PblSZZ+acsT+bf+dj7Kv7a2yoPzvzGLHZ6Nbz2ZQ5dvHZGPvq9ayad14z34zlMzt28sw9dZ5rZ3R57sYAALg3Bx8AAN/kE5txzzQkd+pZ7enWsjF71ayWjNcG9JFVw3i1NotV+R26vGo8x2zPTOYzfu9XxxWZ69kx3lGvnVmuGe/25L4a63T57MS6tSOZ04h1ZvEz6u894zOrtWFnT7XzHb7T2XoAAHgNBx8AAPyNWUOzOlrfMWtYPtu8zNyeaSbPjBxrs7m77sRmMsfxXa6M7h0zmevZkc+uZD6Z9+4Yz850+WTeZ0a+eyVr24nN1q6qOY77zDvnZ9UcZ/dXHeXWfRcAAH43Bx8AADf1iobjVV2jtfNMwzKbwtlsrY3jjI/7Gp/J/LrGcY1lTd3+ahZ/NHXUeY6j9bFnpube1bMz6jP1vZ2az5kacnTPrGTOOY725PrMLI+ac41lPav93byqeWXOVVdH3V+vZx19i67G73C1PgAAPpuDDwAAvtR3NBpnjdVZs7mbP5rcu4ZxnWfzuDaas+F8pGsU12vWstq/Y5VzjtxX5/VdQ5fnrIbVqO/a0eWTeea8278r882ca6w+091380eTT9bSmcXfqcsdAADexcEHAMAvkY3HnB85uz/tNFu7RvMZXY47zeazshGezebZuKrLfdx38xz5jirzypyvjjMy36sj31mNnOp1NnK9zus7rsicc9Q99ZlndLl3NXSxHTXvIzt7Vs7mmPtzDgDAPTn4AADgy726+ZhN4mwkz/blfe6vMufVfHVfm9DdnqrWkHV18TGvz2esk3nV+dnRPd85quXsyOdXap5dbFVLxjv587u8du535tWqrrwf86yr2/esVc4AAPAODj4AAG7g1Y3KVzmT15m9Z80ar9mMnsWqbBDXpvHOfX22XtNRM3xn1Ge7WCfrG9czI99T5/mzM7/dke/K91ZZRxc7Gt378r7qchzzura6P1Nf5tHFhln8FVZ5pjN7v9Kn5gUAwD4HHwAAv9hXNfhGo3XWMO4asV0s7TSGazN5XGd7d3W51Sb5rLZc797zmNRVm+FXRupiNa/V/c7I91XjZ9fr7qj7u/uUP3vEnhn53npfZY41v7zv9tT1Z3R5z3Leqavqcsva8r575h128gcA4J4cfAAAfKM7NubO1FQbsjV2VTZUV/PV2kw2hetINT7bs2uWd22Wz0a3t1NzHdeuhtlYvacz8sjruF+N3DN7TzXL9WjUvd39WZlzl29X74gfydxWeR/Nz8jcMvcjZ/b+FHesCQDgp3DwAQDAoe9q4F1pxJ5pGHd7r8qG+dnmec4fkXfNM3Ou8Xrt9u4YuWQdOyOfX8l86/fYHfX5XTXXMe+uuXf2XJW51Hnez8az8nukrGG1d+UVuV5xJVcAAH4XBx8AAHypZ5uW2WzN+Uxtks+emcWzUZy6WFUby3mfap71Ou670e3PPd3eIXN71diR+T07xjurkUvmV/Psrt3o3lmvVc2nu5/p1musW39Mcnhs/Jnr5L6cnzXLGQAA3sHBBwDAL9I1H7vYK2SjNOednT1nzRrGz9TdNcMzlmPsqe+oz61k4zzjq5G6WCdzPTNm76kyj8z7aMzeM9PlkXl3o+6tz6zUHLtcs5Yc3Z6ruhry/lV28sw9OX+Vrr4uBgDAPTn4AABg6dnGZNds7GLV2QbtLMfaRD5yZm/KHHNeYzuN8yFzmTXFu1GfyVhn5FXz24nleu4Z86qro67NRrc+i81kbhmbjbGvyvlM5poylvMdsxw7R3tn8armeJRvt97FztjJEQCA38vBBwAAp5qQZ/auZOMy52dl8zvz7Bq1s72dWX61iZxN8m50z65kjjnvYjmv+3Zl3qvaMnZF5lzns1hX40rmljnnvIvlfCVzy7xntXXPDrN4lTlmPVXdu1vXSuaX86vO5HVmLwAA9+TgAwCAqVc1LYdsSO42W4/WV2oNtbF8RTaIR16ZX53P1jJezXLsaslmed53e45k/jtjtbe+c5Xf0VqOod7PrHKs8W5PviPN4o+ot4vnfZ1nvbnvjN1adhzlMcs35896pgYAAO7NwQcAwDf7lObdq5uS77Sb62pft1Ybzmdlozzvu2veVzWH2kRe3ddYxqsaq3lnzrP5aoy9Z3S5r0buzXmNPyb5dHV18dV93Z/qz6855jXv63O7MvdurbNaq3b3fYJPyfXKdwQA4HUcfAAA8C9mjeNnnWlGzpq4OT8ja8kG9DO6vLrGeF535HfI77MaY38+V98188fBYUBdq/Hcu2OWa13P/HPvUS31fpbr7sh37epyz7Wqi52VdWb8isyrq+fImb1HZt8HAIDfzcEHAMAPd7bZ98qm48ys4TqLXbGqo2uGz5rks/iR2mjtmq95n9dufSXzq/Ouhi62o+aSdZ0Z+XyVudX52VHfeUaX2yxW5bwzcsk8u2ved7Ezuhp24jOrtTO6OvL38U5n6/iKnAAAeB8HHwAAvMzZ5mI6+3zXGD6aD7P4sFpfNcYzNu67fbuyEb47nz0/U3PN+6NRn8/7lZpP5nk06t58V5rlWdfq+tH8qi7XLu+j9eEol9l6xrt5xo6s8tzx7PMAADA4+AAA4MudbageyWZ4jdfrjqO9NfeuEZ7N8tl66uKrpn7WXK85uufTUa6jni5W93axmcx5FqvzjOX9mTpzzNZXz6fZz5/l2uW9is10ucxkrTU+q+sZR7kDAMCrOfgAAPgAr240Dp/UcMwaV/NZY/YZo8k8azbvWOVTG8azWnJ91WTumt5dDbN4rlc5T5nrbD4bY1+9pswza+hG7qvzlcyhzmd11fWM53onc5zFZuud1VrnqLZnrWrZnX+nV/4uqk+qEQDgt3LwAQDAtlc39M42Y3f3PSZN2c6qaVvlz+6a4Bnv9nSxHV2eo1GeteZ6t7fu63Kq3ybXc222b1eXY47Vvu49j0U9dV735VrG835H5pSxbj33dPHOmTy72o6sfnbVfZtXOJMrAAC/m4MPAIBf6Csbkqu1d9mpLxvRO88MWdNOo7yuH8nc6n1tiOc847m2o6uj1pe11n2z+6y7y2t13426r8Z2zOqardV5viPvV7rc633Wl+s7VnnO7Ox5tVVNq7UrvqM+AAC+l4MPAAC+zFc0IGcN5SrnV3X1zBrlVcZzPuzmXxvm+UxeZzKHWse4zkZdz/sjmXPed2Os1+uQ89TVNa5ZUz6T84wPmUPOh66eXH+FzLPLP/e8w6vqAQCAIw4+AAA+xJXG45VnPt0zNa0aq9k4H7EdXYO4XuvI/as9dX4k86/zbJ53e2p8JnPKvHfW6p6xr5PfYTVWe3Jtpcs947nexXZkTl3ede9sT17zfiW/w1H+q7Ujuzn9JFdquvIMAACv5+ADAOCXeneDbtZEncVndvdnPV3DuNOtd7GzdhrNO7pcanM868x4msVTNv1n8awx1zJef36Xf41nTXW9i6/MvkPWkPlnHUMXOyNrfEaXSxerst6MHzmb92z/LP4qu/UAAHAvDj4AANjyTINyt/lY9+0+c9WVerJZnDnuNslz3slG/6pRPlvLd9T73Ft136HWNu5X8zNGLlnHbF6fyfuU32R2P+a5v1tbvaOT+eV8xDKeteb6jp38nrH7HardfZ131wMAwD04+AAA+CC/pan36jqzkZqN4mwqz/bn/Y5ZMzzj3fyqUU8dXbzGjnT5HY2xb3XN+8fk9726Ho3cdyTz72rKcdUsv66GjJ+x+n3nWq0z17v5s87W8lP9ljoBAH4CBx8AAD/Uq5uTX23WjD3rTLMxG8p5f+Zds3y7eBfbkTl1TfFxn9e87+aPye9+NR/7c+S+ureTdYxYXcuR+1bzjD0m+eV9Xsd91pLzM7rcuthjEe9kTnl/Jt8ze6v83Z/J/xP99PwBAH4rBx8AAL/YO5p6ZxqmZ5uxO7KmnD8rm8ndWrfnKLaSzeSMjfucz9ZWam71++R8tjf37Kg5znLt1nK+0uVa50drQxeb6XLbjeU8156VNeT8WfXb7Dizd9erawIA4Odw8AEA8GE+sVnXNSW7WKq1nKnrzN6Zo/xmzeazslme8Z1YdZRPNpRz/1jPfTtGLvndssa8z2e6+UzmmN+l1jGrLZ/Z1dVW13LfSq5nLpnzUSzjZ82+Szpa33Em1+67rXT5dbHvtlMLAABfx8EHAMAv95Mbdpl7zoeM53xHNsJnurWjWLeeshle56tmeV3r1mdqs79eZyPX63Mzs/wz52697tvV5Txbr/NcP1Jz6vLbjQ1H7zuSOed8yHjOf5KfnDsAAM9z8AEA8IGOmnZH69WVRmn17PPVmbyfkQ3ycT9rlHexI1lL1zDvYt2zGau5Zs51nuv5zKyuLj7LLeN1fXZf5xkfas5dfHaf19l6NcthfJM6Ml7nR889Jj+/5pb3Xax79oyu3i7XWt9XuFLLzLM5n3n+KO+jdQAAvp6DDwAAPqpx1zVmd1yp4coz1aqZXM3Wu70rNd/MvTbPu/gZWddsPrvPunKeOY2Gf61hdT+bn5E51Rq6eN7vqHnN7rvYM3VVZ/N9nHwmc/4UZ2oAAOCeHHwAAHyoWfNuFn9W17jsYs+6kv+VZ4ZZDRnPeecoj655fvTMrpFfNptzZLzO8/nU5ZqxP5q/7TBG6mJVl0vWk7XUfamLDfXb5H03z5rqnleoue58m8fG+qPJL+fDLL5jJ4905ZkjXQ1d7BVm+c/iAAB8LwcfAAAfLJt4OX+1rhn7rDM5n9k70zWRV7Ws9uX8scgx413jPOe7sqY/FwcZq3muDZlXHbNYPrfatzJqqTXVtdW+LpbPVUe5d/P8PXR7VzKv1XzEOl0881jVV3X7Vvt3dTnOnNm70tXyLplzzgEA+BwOPgAAPtxovL67qTd0zdhXe0Ut2UA+Muo6qm+1NmT+R83XXM/5SubT1Z115fwZ9c/fyLW7n9Uxi89yy9y7+3fUNpvXvVXOU80v8+1yX63nvLPKp9a12jes6r5iJ/9n7Nb1Cq/88wcAwPs4+AAA4OV2mpDZXN155qyrzcmdxmbXSB73ZxvNQ+6dNcNrfplnzmexlD97FcuR8c6Iz3LJhnKdz77Hbix1OWYs68p43j82f/bQ1Vafz7WZzO+Mq8+tZM5H+T829wAAwBkOPgAAeLtZg3XVtJ3FV7oG8srZ/c/o6uliK5lnzb82nLvG805DenyP+l26WN1frzXe7U+Zd43Xa43nM12sqjlkXbkn8878c36ky6eLvdos/5mz+6tZPbPv8Vg8AwAAr+LgAwCAW5s1WWfxq1bN42ys19hMzS/va1M566jxXFvFO12O3eFAxq6qtWUdXc5drDPLLevItbqnrs/uO1lHjVWrtWfM8pvFAQDgDhx8AAD8Aq9upn6Sndp29lzVNc9rs7xrMGcs59WqIZ5N9dnenO+Y1VJz7fLeiXX5HMVqjatad2Q+Xa3dvhrr1obMKecjNqulxt5hlfuws+enunNtAAD8Xw4+AAD4El/dbMzGcddorvty/44zNZ3ZOzOrocrm+ZX6Zs39PCCo90ex1NWyio37fEcXX+lyrPG0U8sZZ3I9s3fo6lnVkPN3u1ITAACc5eADAICPc6UZe6UJfkY2jzPHruG8s7ZjVVN3WHDVrK4aX/0OxvoVXe5dbTnPvc84qm1Yra3UGtJsLX8Huf4q9fue9a6cAADgKgcfAAC8xZUG6qsdNWSP1oejWnJ91UA/mj8mTfDMddUEr2t5P5N55HwVy1q7fSuZ66y2nVjOq5pfd5+6tTpf1Zt5dPNZrTlPR+tDl1d1tP4VdmsBAIAzHHwAAHBa16zcaaLu7ElXnqm6XGfO7O2scs2GeddUP9I1yuu8W9uRedSGfubaxTqrtWqVY603a8xYPrej+yZ5X+e7NQ2Z54jNrNZ2nMnvzN7OlVx3nun2PJsrAAC/j4MPAAA+yiuanF3zNO02o4/yyfWcz2K7VrnNauieGbFurarN/zSL1We6PTvqAUG9zz3p1XXN7tNq7UiXa8ZynlbruzUMO3uOrPIBAICv5uADAOCX+JTG5CuarDOzGrORPtt31qzBnIcB3Z4zunxnDf8ar2NmldOoI+vJ2Ijn/erdj0kNeZ81dLHOaq2rIXOdxWexHVnbuHbxvH9GfptZ/rP4K7yqlme9s0YAAD6Hgw8AAL7crPk4ix/pmqqzWBevjtaHbCZnrJvPYjtqs782zXOtxtPR+qyOoYtnIz335HzIHOp89p262OOFdY1acn+Nz95xpMstY10duWfmKK9Z7ruxHbNcZ3EAAHgXBx8AALzNqoGaaznf8YqG6pV3XMm1PrPz/JW8HpPm+RWZ45jXA4CsKec7ssnfzWs868r5WbWuK3aey5rOuvLMTl5Hrrwjc815tVoDAIBnOPgAAODbdA30VzrTWD2zt8rccz6LpW7PKqd6EJCHA7M9K90BQH6fLsedWM4zl5wfxbp669rKqp5a72xP1a0d/fzHZE/Gcr6ry2nmzN4zuu8DAABfycEHAAAf60pj9kyz9czeYZZTjXcN9NmeI5ljbSjn2tAdCDyrHgRkbV2sPjOTeWbDfBZ7hZ08s75ubaXmPea5ttpTzeIrOzkOZ/YOV3ICAICv4OADAOAX+Y2NylnNs/gZ2SzO+Y6uqZ66Bnld6+YZH2bxKnOqBwCpi71Cl2dX2+z3kmZ5zmrL+Yjl76azm1PKZ3J+xSzXWfzOfmPNAAC/lYMPAADe6quajasmca7l/Fk7Nc4a7Fd1zf+sK+dHMreuyV/rWNXUxTpdjiNWa8p976y3xnPPVbM6Ojt7zsgacl6t1l7p1TUCAEDl4AMAgFN+QsOyy3E0ymdrO3Ya4tk4H7FXOmqi13ite7Z/x6z2cV8PDbr1dJRjrnf3Z53Nsdb2SlnD6ttcqb3Lt6u7rn26n5AjAACfw8EHAAA/zm4D+Kyu6X5k1hzvGs2zvWdkbrN5xle6HOt8lnfOV8beM3nl3lrbbC3vj+zWlvMzum8yashcu71HZjW8yrveCwAA7+LgAwDglznTUH2VK43TfCbnR3br3N333bJJnve5fmS1dxx21N95ba7P1tIsPsxyWNW2Wusc5VAd1ZZrn2w3z919Q/6uc77jyjPPOlsnAAA/m4MPAABe5juai5/URJ3FH81azleyxu4QoDpaP2vk2uVc1/KQYEd3kJHxuj5bu2JV12OxnvOVzDXn1WxtFn+nMzW+ynfUCQDAPTn4AADgNrJxmvNX6xrjXcP4aH2mHgTM5PrRfGaWV8bHAccYuafGd2Wd9YCjjirnwyyeMsejeTpbZ1df1a13+14p8885AAD8VA4+AADY9kwj9kxT9czeZ5yp50xO9WBg9dxqbZZb1xTvDgfyPuedzKfOc+27rOrI+ZB15DzXMpb7qln8scjnEd9stS+d2bvK7ZXO5HRmb/qqegAA+PkcfAAA/ELPNB9/mlmtGc/5WTtN2Z09j0UuGc/5MOK5vtNkP9v8X60NubbKYZb7bG3U1O2vsqYRq9eU8ZwPs3g6yvGxuWclc8n5MIvf0W+qFQCA/8vBBwAAX2anAbmzZ6VrHNfG+E6TfCXzy/mOK89ks7+77+avNg4QxhixunZFfqMae/ab7ci863x2v+tK7vlMzs/Ib9XV0MXO2MlvZw8AALyCgw8AAL7Usw3WZ7yy8drV0cWG2dosfkZ3OJCHCFfVhvmu0VyfNdkfTxxqvLOuo5zPmOU3iz8ma13sqlfUddUr6wAAgCMOPgAAfqmzjciz+6/4zsbsq3Q1dLEz3nGgsSPz7ubdAcIzan1Z49H8Hbr6nq21y7uL/TRfUcPZ3/3Z/QAA3IODDwAAvlzXjOxiu7LhmvMj3cHCGZn7OBCoBwN1rV6fMcs14znfMWv0z+oaa8/o8hwHILNv1D1zJPPM+TCLnzHyyzxrXd3aWfmNzsj9OT+jy72LAQDAOzn4AAD4xd7RkNxtmtYG+u4zv1HX5M9Yjedad3+ka6KvvtFq7YpVrrPfwa6utnFfa821bj+98ecw/zyu7O47wzcCAPi9HHwAAHDoHU3Jd9vNeXdf52wjfGfPVVlHznetcuzW8lCg27MjDzS6/LvYsFpbyXxz/ko7OdY9O/tnduvY3fdJfmLOAAB8LQcfAAC/3DPN1d9q1nidxY/U52bfIw8EZvvSmUZ65t8dZvyx8Td1ZvGZWV5/Tv7mwOx3kPOUdezI38HsuZ1veGT23CzO3Ow7AQDwOzj4AABg2VhdrX2SLs8uVh2tv9KVpvtRfrP1WXwlc8r5SncosPv8zoHGSu7N+Y5ZrrP4cLQ+dDV+haP8uvUu9olWea7WAAD4HRx8AAAw9ZVN2pVnGpmvrKHLI2N/NP8+RO4ZZvEz/tz4Nz662K6R4yzXWfxxsPY4yGW21tW0I79JF6vxo9x3zHLsvlPuzfksdtUz9b0yj2c8UwMAAPfm4AMAgMejab5+SnPzFbKWrLXGX+VVzfNH0+zv8uxiuzLPnA9ZU3c/e/ZIV1vez2rMeM7P6PLP2ro9V6xquqLLK7/ZiN1F/hm8U20AAFzn4AMAgL/ximbsVzQfz+Y46jr73Ew2XHed2btyVMfR+o5Zo/9Mg3m2bze/7puNecavmOU3HK3vOpNr3XvmuZXxzc7Wc3b/Fc/WeKUuAADuzcEHAAC38WwDtXrlu75a1zh/Zz3ZdM75kcwt56/UHeaczfeTvDL3V74LAAC+k4MPAAB4gZ2m8Zlm+6z5n4cauS/nndWeWV478dmeXVlb52z8sZlX7vlj8b/1qmbxYaemamcPAACw5uADAABe1HBeNcFXaysjr1V+4wBkteeskW82/3PsyH27eda6sr6d38tZO3V1v5czVvmu1nZdzQsAAO7EwQcAALfyiubxrq7J3MVebbfG3X2vkHXnfCZzzPk77ea4u+8ZXd1d7F2+okYAAPgqDj4AAHiLOzVSay07ddW/NVDvO6u1Z1z52xGzXGbxzpm91VFu1WzvLD7Ub5KxV1vl8mf52yv1fqX7nndwp1oAAPgcDj4AAPho72pMf4VZ7rP4ka9qfp89IFitXbGqrfsdrPY/a/d3sDLLbxb/CX5y7gAA3J+DDwAAbudsU/bs/upqM/wVZnnP4s/KWv84+AfAc54yzzzUWK2/0izPWfwrPFPr2bzP7gcAgE/n4AMAAD7cqgk+DgjqyPWVo6Z3ro/DjoxXq7XOKserdR2tZ461rlfXBwAAfC0HHwAAvM13NoiPGt/D7r6VM3We2dt5Rb7v8Gxdw13rO1PXmb0zu/nu7nuHV9QJAAAdBx8AAPxYR43To/WrvrNZfEat/+h3MWrKa95/gq6uvM58cl0zRzVddVT/0ToAAHwqBx8AAHysdzdeX9lQ3sk19xw14Wf5zeLv1OU3HNWxozvM6KzW3mVWUxdf1ZHzzs6eXV1+r/TKXAEA4JUcfAAA8Fbvbr4emTVnZ/FnrGpdre3IfHOeZuuzeCdzzvks9gpdnhnL+cosz1l8yPWcn7XKebV21SzfWfyrvKNWAAAYHHwAAHB7fx78A+Cv1DWUu9grzOqYxV/hj5P/APhsz8hxlet3frPHIv6srpYu9ir5zd5VFwAAfAoHHwAAEHaa0Kvm8Vc2mTPXnM9iu87kv9o71la5rNbSmb2pyzNjOX+13UOd1drw7lwBAOCncfABAMDbXWnMXnnm7mZN8J0Gelrt/Wm/+1fVcnRYNYv/Zqvf/cyVZwAA4AwHHwAA/Gg/tYm620R/tr5nn39s5lr37Oyvao47+e7sOXI2x7T7/Cty/Q679QEAwCdy8AEAwJc400g9s/c7fUee39VIX9W6WrtiVeNq7Z1eXeOO76r1rDN5ntkLAABXOfgAAIAN39H4frWjpvPR39rYjb1Cl+tRrFuv3pXrVzqqEQAAcPABAMAX2mk87+z5JFfyPXrmqLl9tD7s7jvjjy/+h9vreLXd/I/2Ha1fyf3KM99pJ9+dPQAA8AoOPgAA+FJHTWJe47uazPX7Hn3rM39b412OcuQ1vuv7AgDwOzn4AADgy82azbP4kZ/UVL1SY1dfF3u1K7l+pe/6HXSxI1+R66tcqe+xqHEWBwCAd3HwAQDAt8i/GXC12fpqV5q035X7n83/AqqLfZVnfw/fmXfm3sW+ypXfw3flmvLP35VaAADgWQ4+AAD4Nt/ZXH61nTp29lwxms2rJvNqrcocc/4psp6cz6zqGX8eV3uesZPjzp6f4OjPIwAAvJODDwAA+GY7jfbvbCLv5LezZ8dOnTt73mWnzu/MDwAAcPABAMBNfEKzedUUX639dF1tXazTfbcudher2lZrX2X3uwEAwCdz8AEAAJt2msL5v0t65/86adcrGuqzOrrYK3Q5v+p/n/SunHfVOsb9Tl07ewAAAAcfAADwL17dWH51g/3V+Q2ZZ86rerCz2vcK9VBgVXuu5fxVXl3vq/N8dX4AAPBTOfgAAAAAAABuw8EHAAC38er/gv4Tna2x29/FXuns3zz4jny62MrZ/T/Rb6gRAIDfwcEHAAB8QfP9rO/O55VN8HzXK2t75buuyNq+26flAwAA38HBBwAAt/LdjfCvsFvj7r7faveQYHffT/YbagQA4Pdw8AEAACe8ukF89X1HhxpH6+/yrnre5Sjfo/WZV9fz6vcBAMCdOfgAAOB2zjaJz+7/FLO8Z/Gzrjb9v8q765zFP93ZvM/uBwCAT+fgAwAAfrBs/uf8WWea4mf2ds7kfmbvjsw95wAAwM/h4AMAgFvabYzv7vtkf/7557+M7/Kqg4LvrmGMn263ht19AADwkzj4AACAk35bs/jT6v3Ow5Hv8NvqBQCAZzn4AADgto4axkfr73Z0oPCV+R3lslpfrV2xqnu19thYf6Wjur8yl85RfkfrAADwUzn4AADg1mb/C6gu9hs8U3c2yt/5v4XqvlvOz3hXnp+uq/ud3w0AAD6Bgw8AAH6F0UjvGupX/NbG8Wia79Y/27f7DV75zX6iV9Rdv9nsewAAwJ04+AAAAAAAAG7DwQcAAFyU/yX92bEj/6bKs2Ml83vFWMncXjFWMrdnx47M7+wAAADOc/ABAAAAAADchoMPAAAAAADgNhx8AAAAAAAAt+HgAwAAAAAAuA0HHwAAAAAAwG04+AAAAAAAAG7DwQcAAAAAAHAbDj4AAAAAAIDbcPABAAAAAADchoMPAAAAAADgNhx8AAAAAAAAt+HgAwAAAAAAuA0HHwAAAAAAwG04+AAAAAAAAG7DwQcAAAAAAHAbDj4AAAAAAIDbcPABAAAAAADchoMPAAAAAADgNhx8AAAAAAAAt+HgAwAAAAAAuA0HHwAAAAAAwG04+AAAAAAAAG7DwQcAAAAAAHAbDj4AAAAAAIDbcPABAAAAAADchoMPAAAAAADgNhx8AAAAAAAAt+HgAwAAAAAAuA0HHwAAAAAAwG04+AAAAAAAAG7DwQcAAAAAAHAbDj4AAAAAAIDbcPABAAAAAADchoMPAAAAAADgNhx8AAAAAAAAt+HgAwAAAAAAuA0HHwAAAAAAwG04+AAAAAAAAG7DwQcAAAAAAHAbDj4AAAAAAIDbcPABAAAAAADchoMPAAAAAADgNhx8AAAAAAAAt+HgAwAAAAAAuA0HHwAAAAAAwG04+AAAAAAAAG7DwQcAAAAAAHAbDj4AAAAAAIDbcPABAAAAAADchoMPAAAAAADgNhx8AAAAAAAAt+HgAwAAAAAAuA0HHwAAAAAAwG04+AAAAAAAAG7DwQcAAAAAAHAbDj4AAAAAAIDbcPABAAAAAADchoMPAAAAAADgNhx8AAAAAAAAt+HgAwAAAAAAuA0HHwAAAAAAwG04+AAAAAAAAG7DwQcAAAAAAHAbDj4AAAAAAIDbcPABAAAAAADchoMPAAAAAADgNhx8AAAAAAAAt+HgAwAAAAAAuA0HHwAAAAAAwG04+AAAAAAAAG7DwQcAAAAAAHAbDj4AAAAAAIDbcPABAAAAAADchoMPAAAAAADgNhx8AAAAAAAAt+HgAwAAAAAAuA0HHwAAAAAAwG04+AAAAAAAAG7DwQcAAAAAAHAbDj4AAAAAAIDbcPABAAAAAADchoMPAAAAAADgNhx8AAAAAAAAt+HgAwAAAAAAuA0HHwAAAAAAwG04+AAAAAAAAG7DwQcAAAAAAPD/tXe3sXWW5wHHr2P7mNjBdiDgsby0SUcnKFSjLNBNjBLSIhFIi6pWq2jKa92xmNJ2SNAFqXGdqSDKhAQUUyAKL23aT6NjI+FDBVFK2QaYEmkEqMogNAmEEJQ4Kbbnt7MPXWzfj4+JDekmbv9+EtK5r/uc44dvHP56njsbwgcAAAAAAJAN4QMAAAAAAMiG8AEAAAAAAGRD+AAAAAAAALIhfAAAAAAAANkQPgAAAAAAgGwIHwAAAAAAQDaEDwAAAAAAIBvCBwAAAAAAkA3hAwAAAAAAyIbwAQAAAAAAZEP4AAAAAAAAsiF8AAAAAAAA2RA+AAAAAACAbAgfAAAAAABANoQPAAAAAAAgG8IHAAAAAACQDeEDAAAAAADIhvABAAAAAABkQ/gAAAAAAACyIXwAAAAAAADZED4AAAAAAIBsCB8AAAAAAEA2hA8AAAAAACAbwgcAAAAAAJAN4QMAAAAAAMiG8AEAAAAAAGRD+AAAAAAAALIhfAAAAAAAANkQPgAAAAAAgGwIHwAAAAAAQDaEDwAAAAAAIBvCBwAAAAAAkA3hAwAAAAAAyIbwAQAAAAAAZEP4AAAAAAAAsiF8AAAAAAAA2RA+AAAAAACAbAgfAAAAAABANoQPAAAAAAAgG8IHAAAAAACQjVJHR0elOAQAAHgvhoeHY++ePbF506Nxxc7+4nZV9y1oiGUXnB9zW1ujtra2uA0AADAtwgcAAPC+bPvlv8efPfarKEepuPWeDEYltnzmtDjrrLOKWwAAAIclfAAAANP26KOPxueefiXqjlDsmMxQVOJfP/kncf755xe3AAAAqhI+AACAKenr64ueW9fH4qE/bOyYzKt1lWi59spoaGgobgEAAIwSPgAAgHfV09MTx922Ierewy+Hxz/UEgvPOycWLFiQzHfu3Bk7fr4llv22J5lPxVAp4u1vfSWam5uLWwAAAMIHAAAwuVmdXZM+zOrBYyMuuqotWm5aV9yKAzd8LcrlcnFc1dDQUDR9757iOHpWt8XPuu6Jy3tqilsREVGJiP6O9uIYAACY4YQPAABggpduvCM+MVhbHMerMRg1qy6O1tbWGBgYmBA9nvzsX8Tpp5+ezKZq69at8ZcP/1sy2//3X42jjjoqdu/eHYvvfijZO+S5+uE4afU1xTEAADBDCR8AAMCojRs3xhe7XyuOIyJiz7WXRFNT0+i6obMr2Z/OXR6TGRwcjOYb701mfePu6jh48GC03vqjZP+Qh85cHMuXLy+OAQCAGUb4AAAAolKpROPau4rjGI6Ig/9718V4xejRu2ZVlEqTPRRreqpdy/j4ERHR398fzTevj4n3pBzZawEAAD54apcuXfrd4hAAAJg5uru748R1DxfH8dTn/yqO+9KKqKurS+a7du6MY5/79eh6x9V/HbNnz07ec8j27dtj6M4fx9zN3VHe8szoP7uffCr2fKg15syZU/xIlEqlePPjH4nmp7eNzl776LzkMPO6uroYXnpGPHtMfSx4acfoPCKivKU7nmqqiXnz5iVzAABgZnDHBwAAzGADN94dLYPDyewfa/bH1d+5IZmNN/5ujzvnDMeV36x+vkZ5bVfUHebXxlApYnBN9QPK77v9B9G+b+xg8+JdH+PVre2KcuFv9ZRro/6Gq9IhAACQvbFfEQAAwIwxMDAQDZ1dE6LH7m+tfNfo8cYbbyTratFjZGQkGjoPHz0iIuoqvw8pIyMjxa244htfT9avv/56sh5vaE17vPHNLyezlsHhaOjsioGBgWQOAADkTfgAAIAZZvv27dFy07pk9kjpnejraI+WlpZkXtR33z+Nvn5wbvWfE7P/4YfF0WFN9pkft449Zqvv/rG/Xc2cOXOir6M9Him9k8xbbloX27dvT2YAAEC+qv9SAQAAsrRhw4Y4+YFNyWzTp06OT6+5LplN5pTBsZ8QF/3NlcleRMTOdT8tjqas2mc/13bF6OtTB6sdZT7Rp9dcFxvPPimZnfzAptiwYUMyAwAA8iR8AADADLHthw9E28s9yezt6y6Pc889N5lNZmhoKFnX19cn64iIj+7aVxxNWbXPlsvlZF28hsksW7Ys3r7u8mTW9nJPbLv7wWQGAADkR/gAAIAZ4JWbu2LJm+kjoHrXrIrGxsZk9m527txZHCV27dpVHE3b4b7jcNcwXmNjY/SuWZXMluz+Xbz6/buSGQAAkBfhAwAAMvf8zT+IU/rH1m/FcPR1tEepVBr/tsMa3PP26OvupomPndrzny8UR9NW7Tu6m8fO+Rh/DVNRKpWir6M99sXYIe4f66vE89+/M3kfAACQD+EDAAAyd0Z/+p/9R3dck6yn6uDesehQN3vinSJvvvL+DxCv9h3lcX9r/DVMx6zCv/MZfdOLPgAAwAeH8AEAAJl7ZtZIsv5d5x3Jeqqajps7+nrond5kLyLijz6yqDiatmrfMTjub42/hunoL/w7P9NQSdYAAEA+hA8AAMjcqd/+erzQMHaHw/FRGw2dXVGpTO9//pdbx6LDkoNjj446pPXjHyuOpq3adyw5MHag+fhrmIpKpRINnV1xTIw9muuFhlKcev3VyfsAAIB8CB8AADADLL5+VXSfcHQya1x7V/T2TrxzYzILFy4sjhLz588vjqbtcN+xYMGC4mhSvb290bg2Pci8+4SjY/H16YHnAABAXoQPAACYIU656tJYd2JLMpt7y/2xefPmZDaZ2tr0QPOBgYFkHRHxm/nHFEdTVu2zg4ODybqubuyg83fz+OOPx9xb7k9m605siVOuujSZAQAA+RE+AABgBlm5cmW8eNkFyeyCX7wYj629JZlNZlv92HkhD9+zPtmLiFjQdnFxNGXVPvsv9943+vr58sTHa1Xz2Npb4sInXkpmL152QaxcuTKZAQAAeRI+AABghlm0aFH0rG5LZisqs6Ohsyv279+fzIsar/ji6OtL304PTT/kne/8bXF0WJN95itvjZ3v0XD5F5K9on379kVDZ1esqMxO5j2r22LRoomHpgMAAHkSPgAAYAaqr6+Pvo726Cmnj6/649t+EnVru5LZeCeccEKyXn/bHck6IqKmpib6OtpjaOw89UkNlSL6OtqjpmbiT5Pid8+bNy9Zj1e3tivm3f7TZNZTro2+jvaor69P5gAAQN5qly5d+t3iEAAAmBlqz14S/3F0KT78m11js4gob3kmnj2mfkLoiIj47Z/Oj2N/9ftHSZ3ZXxO7T10cjY2NxbfFyDlnxMuLjo/+bb+OlpG0guyoG4nXL7kwmi86L5kfsnfv3vjMEy+Orv+r7aJoam5O3hMRsXXr1lh890OR5puIX674ZCz80mcLUwAAYCYodXR0VIpDAABgZqlUKtG49q7iOIYj4sC3r4xZs2Yl84bO9K6Q3jWrolSawi0eU1DtWvo62pN1f39/NN+8fkLwiCN8LQAAwAeP8AEAAIzatGlTfOGZ7cVxRETsufaSaGpqGl0X40fP6rb3/VipwcHBaL7x3mQ2PnocPHgwWm/9UbJ/yENnLo7ly5cXxwAAwAwjfAAAABO8dNMd8YmBifdTvBqDUbPq4mhtbY2BgYFouWldsv/EhWfGkiVLktlUdXd3x9kbn05mh2LK7t27Y/HdDyV7hzxXPxwnrb6mOAYAAGYo4QMAAJjUrM6umOyhUQ8eG3HRVW0T4kdExIEbvhblcrk4rmpoaCiavndPcRw9q9vin++6Ny7bX/0KKhHRX3gEFgAAgPABAAC8q/3798fxt/8k6t7DL4fHFzbHgvPOiYULFybzHTt2xM6fb4llOw4k86kYKkW89Y0vx5w5c4pbAAAAwgcAADA1vb29ceDW9bF4uKa49X/i1bqRaP67K6OxsbG4BQAAMEr4AAAApu2RRx6Jzz/7WtRN+iCsI2MoKvGzP/9wrFixorgFAABQlfABAAC8L8//4sk4bfPWKB+hCDIYldh67mlx6qfOKm4BAAAclvABAAAcMcPDw7H3zT3x2MZN8dXX/7u4XdX6+UfFsgsviONaW6O2tra4DQAAMC3CBwAAAAAAkI3/n1MJAQAAAAAA/gCEDwAAAAAAIBvCBwAAAAAAkA3hAwAAAAAAyIbwAQAAAAAAZEP4AAAAAAAAsiF8AAAAAAAA2RA+AAAAAACAbAgfAAAAAABANoQPAAAAAAAgG8IHAAAAAACQDeEDAAAAAADIhvABAAAAAABkQ/gAAAAAAACyIXwAAAAAAADZED4AAAAAAIBsCB8AAAAAAEA2hA8AAAAAACAbwgcAAAAAAJAN4QMAAAAAAMiG8AEAAAAAAGRD+AAAAAAAALIhfAAAAAAAANkQPgAAAAAAgGwIHwAAAAAAQDaEDwAAAAAAIBvCBwAAAAAAkA3hAwAAAAAAyIbwAQAAAAAAZEP4AAAAAAAAsiF8AAAAAAAA2RA+AAAAAACAbAgfAAAAAABANoQPAAAAAAAgG8IHAAAAAACQDeEDAAAAAADIhvABAAAAAABkQ/gAAAAAAACyIXwAAAAAAADZED4AAAAAAIBsCB8AAAAAAEA2hA8AAAAAACAbwgcAAAAAAJAN4QMAAAAAAMiG8AEAAAAAAGRD+AAAAAAAALIhfAAAAAAAANkQPgAAAAAAgGwIHwAAAAAAQDaEDwAAAAAAIBvCBwAAAAAAkA3hAwAAAAAAyIbwAQAAAAAAZEP4AAAAAAAAsiF8AAAAAAAA2RA+AAAAAACAbAgfAAAAAABANoQPAAAAAAAgG8IHAAAAAACQDeEDAAAAAADIhvABAAAAAABkQ/gAAAAAAACyIXwAAAAAAADZED4AAAAAAIBsCB8AAAAAAEA2hA8AAAAAACAbwgcAAAAAAJAN4QMAAAAAAMiG8AEAAAAAAGRD+AAAAAAAALIhfAAAAAAAANkQPgAAAAAAgGwIHwAAAAAAQDaEDwAAAAAAIBvCBwAAAAAAkA3hAwAAAAAAyIbwAQAAAAAAZEP4AAAAAAAAsiF8AAAAAAAA2RA+AAAAAACAbAgfAAAAAABANoQPAAAAAAAgG8IHAAAAAACQDeEDAAAAAADIhvABAAAAAABkQ/gAAAAAAACyIXwAAAAAAADZ+B/mK+syXPiLIAAAAABJRU5ErkJggg==;" vertex="1" parent="1">
          <mxGeometry x="-44" y="-2040" width="1598" height="897" as="geometry" />
        </mxCell>
        <mxCell id="KLeHGzE6UOqmSRrc-cGL-3" value="" style="shape=image;verticalLabelPosition=bottom;labelBackgroundColor=default;verticalAlign=top;aspect=fixed;imageAspect=0;image=data:image/png,iVBORw0KGgoAAAANSUhEUgAABj4AAAOECAYAAAARzUiJAAAAAXNSR0IArs4c6QAAAARnQU1BAACxjwv8YQUAAAAJcEhZcwAADsMAAA7DAcdvqGQAAMa3SURBVHhe7P2xym3Ntyf0r+f9JyI0CF6AgddgKHgbBiYdayAcGow0bpAOFIQOjDvwLgxNTbwBAwPhgNCZ+x/0qeM4398YNWuutfaz97vezwcmVTXGqFqz5v6doKt6v/vrv/1v/9sfDwAAAAAAgA/wRwYAAAAAAAD+rFx8AAAAAAAAH8PFBwAAAAAA8DFcfAAAAAAAAB/DxQcAAAAAAPAxXHwAAAAAAAAfw8UHAAAAAADwMVx8AAAAAAAAH8PFBwAAAAAA8DFcfAAAAAAAAB/DxQcAAAAAAPAxXHwAAAAAAAAfw8UHAAAAAADwMVx8AAAAAAAAH8PFBwAAAAAA8DFcfAAAAAAAAB/DxQcAAAAAAPAxXHwAAAAAAAAfw8UHAAAAAADwMVx8AAAAAAAAH8PFBwAAAAAA8DFcfAAAAAAAAB/DxQcAAAAAAPAxXHwAAAAAAAAfw8UHAAAAAADwMVx8AAAAAAAAH8PFBwAAAAAA8DFcfAAAAAAAAB/DxQcAAAAAAPAxXHwAAAAAAAAfw8UHAAAAAADwMVx8AAAAAAAAH8PFBwAAAAAA8DFcfAAAAAAAAB/DxQcAAAAAAPAxXHwAAAAAAAAfw8UHAAAAAADwMVx8AAAAAAAAH8PFBwAAAAAA8DFcfAAAAAAAAB/DxQcAAAAAAPAxXHwAAAAAAAAfw8UHAAAAAADwMVx8AAAAAAAAH8PFBwAAAAAA8DFcfAAAAAAAAB/DxQcAAAAAAPAxXHwAAAAAAAAfw8UHAAAAAADwMVx8AAAAAAAAH8PFBwAAAAAA8DFcfAAAAAAAAB/DxQcAAAAAAPAxXHwAAAAAAAAfw8UHAAAAAADwMVx8AAAAAAAAH8PFBwAAAAAA8DFcfAAAAAAAAB/DxQcAAAAAAPAxXHwAAAAAAAAfw8UHAAAAAADwMVx8AAAAAAAAH8PFBwAAAAAA8DFcfAAAAAAAAB/DxQcAAAAAAPAxXHwAAAAAAAAfw8UHAAAAAADwMVx8AAAAAAAAH8PFBwAAAAAA8DFcfAAAAAAAAB/DxQcAAAAAAPAxXHwAAAAAAAAfw8UHAAAAAADwMVx8AAAAAAAAH8PFBwAAAAAA8DFcfAAAAAAAAB/DxQcAAAAAAPAxXHwAAAAAAAAfw8UHAAAAAADwMVx8AAAAAAAAH8PFBwAAAAAA8DFcfAAAAAAAAB/DxQcAAAAAAPAxXHwAAAAAAAAfw8UHAAAAAADwMVx8AAAAAAAAH8PFBwAAAAAA8DFcfAAAAAAAAB/DxQcAAAAAAPAxXHwAAAAAAAAfw8UHAAAAAADwMVx8AAAAAAAAH8PFBwAAAAAA8DFcfAAAAAAAAB/DxQcAAAAAAPAxXHwAAAAAAAAfw8UHAAAAAADwMVx8AAAAAAAAH8PFBwAAAAAA8DFcfAAAAAAAAB/DxQcAAAAAAPAxXHwAAAAAAAAfw8UHAAAAAADwMVx8AAAAAAAAH8PFBwAAAAAA8DFcfAAAAAAAAB/DxQcAAAAAAPAxXHwAAAAAAAAfw8UHAAAAAADwMVx8AAAAAAAAH8PFBwAAAAAA8DFcfAAAAAAAAB/DxQcAAAAAAPAxXHwAAAAAAAAfw8UHAAAAAADwMVx8AAAAAAAAH8PFBwAAAAAA8DFcfAAAAAAAAB/DxQcAAAAAAPAxXHwAAAAAAAAfw8UHAAAAAADwMVx8AAAAAAAAH8PFBwAAAAAA8DFcfAAAAAAAAB/DxQcAAAAAAPAxXHwAAAAAAAAfw8UHAAAAAADwMVx8AAAAAAAAH8PFBwAAAAAA8DFcfAAAAAAAAB/DxQcAAAAAAPAxXHwAAAAAAAAfw8UHAAAAAADwMVx8AAAAAAAAH8PFBwAAAAAA8DFcfAAAAAAAAB/DxQcAAAAAAPAxXHwAAAAAAAAfw8UHAAAAAADwMVx8AAAAAAAAH8PFBwAAAAAA8DFcfAAAAAAAAB/DxQcAAAAAAPAxXHwAAAAAAAAfw8UHAAAAAADwMVx8AAAAAAAAH8PFBwAAAAAA8DFcfAAAAAAAAB/DxQcAAAAAAPAxXHwAAAAAAAAfw8UHAAAAAADwMVx8AAAAAAAAH8PFBwAAAAAA8DFcfAAAAAAAAB/DxQcAAAAAAPAxXHwAAAAAAAAfw8UHAAAAAADwMVx8AAAAAAAAH8PFBwAAAAAA8DFcfAAAAAAAAB/DxQcAAAAAAPAxXHwAAAAAAAAfw8UHAAAAAADwMVx8AAAAAAAAH8PFBwAAAAAA8DFcfAAAAAAAAB/DxQcAAAAAAPAxXHwAAAAAAAAfw8UHAAAAAADwMVx8AAAAAAAAH8PFBwAAAAAA8DFcfAAAAAAAAB/DxQcAAAAAAPAxXHwAAAAAAAAfw8UHAAAAAADwMVx8AAAAAAAAH8PFBwAAAAAA8DFcfAAAAAAAAB/DxQcAAAAAAPAxXHwAAAAAAAAfw8UHAAAAAADwMVx8AAAAAAAAH8PFBwAAAAAA8DFcfAAAAAAAAB/DxQcAAAAAAPAxXHwAAAAAAAAfw8UHAAAAAADwMVx8AAAAAAAAH8PFBwAAAAAA8DFcfAAAAAAAAB/DxQcAAAAAAPAxXHwAAAAAAAAfw8UHAAAAAADwMVx8AAAAAAAAH8PFBwAAAAAA8DFcfAAAAAAAAB/DxQcAAAAAAPAxXHwAAAAAAAAfw8UHAAAAAADwMVx8AAAAAAAAH8PFBwAAAAAA8DFcfAAAAAAAAB/DxQcAAAAAAPAxXHwAAAAAAAAfw8UHAAAAAADwMVx8AAAAAAAAH8PFBwAAAAAA8DFcfAAAAAAAAB/DxQcAAAAAAPAxXHwAAAAAAAAfw8UHAAAAAADwMVx8AAAAAAAAH8PFBwAAAAAA8DFcfAAAAAAAAB/DxQcAAAAAAPAxXHwAAAAAAAAfw8UHAAAAAADwMVx8AAAAAAAAH8PFBwAAAAAA8DFcfAAAAAAAAB/DxQcAAAAAAPAxXHwAAAAAAAAfw8UHAAAAAADwMVx8AAAAAAAAH8PFBwAAAAAA8DFcfAAAAAAAAB/DxQcAAAAAAPAxXHwAAAAAAAAfw8UHAAAAAADwMVx8AAAAAAAAH8PFBwAAAAAA8DFcfAAAAAAAAB/DxQcAAAAAAPAxXHwAAAAAAAAfw8UHAAAAAADwMVx8AAAAAAAAH8PFBwAAAAAA8DFcfAAAAAAAAB/DxQcAAAAAAPAxXHwAAAAAAAAfw8UHAAAAAADwMVx8AAAAAAAAH8PFBwAAAAAA8DFcfAAAAAAAAB/DxQcAAAAAAPAxXHwAAAAAAAAfw8UHAAAAAADwMVx8AAAAAAAAH8PFBwAAAAAA8DFcfAAAAAAAAB/DxQcAAAAAAPAxXHwAAAAAAAAfw8UHAAAAAADwMVx8AAAAAAAAH8PFBwAAfyk/fvwYn3f7+vr6tudU7vm7nhO5p+967sh9/YwHAAB4jYsPAAD+Mq4Old99+PyudU6cHuCf1nVe+T4nc05qfoZXvsnP8Ku+AwAAfAoXHwAA/CXcPUx+9oA/vWONUz/rAL/7Fs9cgtytv+PZv8GxnM47rXvVz/pOAADwV+DiAwAANn7mYf3PcHL4f5W/6+4lyK5ul+t0+332EuS0/rTuVXe/BQAA8O+4+AAAgAN3DvbTs/NecXU4f5V/1ul32tXscnfdvQA5rT2te9Xp9wQAAP4/Lj4AAOCGP9Mh9NXh/FX+FScH9rv8LveMOxcgp7UnNe/y7u+xrL3WBwAA/uxcfAAAwE0nh/rpbv27XB1kX+VfdbXvXX6Xe9adw/3Tuu/yM75H5843AgCA35GLDwAAeNLdg+i79Uv+/8i/ezB9t/7dri6Kns09DvKT029yVXOVf7dn9/uM794bAAC8i4sPAAB4wdWhfrpT+7g4fL57CTLVTfF3232rKf64yL3qZO9XNVf5d3vn97ha687/vgAA4Hfh4gMAgL+En314e3WA/LOdHlBPNVP8cZF7xvStdhcjP9PJt3s1/27f/Z2+e38AAPAKFx8AAPAmpwf3JzWPJw+bXznEn+I/w+5bdfEutuxyd1zt/9X8u+2+4R2na5z8bwsAAH4HLj4AAPjL+K5D25OD5JOaV1wdUk+5u/FXTd+hi3exZZe749nvtlzlf4Z37f3Ur9gjAADc4eIDAAB+gpPD6Kuaq/yJ3UH+3fip9TcRTv9GwlTTxbvYz7D7Brvc4yD/M7z6Xe7O3/3vCgAAfjUXHwAA/KV852Ht6cH/d5j2fSfexVK335NLkCl/Gnts4s/aHe7vco/Db/Vur+7/mfm/Yp8AAHDFxQcAAL+NdZjcPX9muwPlXe7dpm85xTundZPpgmPpcqexn2W3513uV/jO77L8bt8AAABcfAAA8Fu4Ojx95yXIO9a4a3cg/WzuWdP+M57jK3fedXcB0sVfib3D7ltMuSn+s73yDZ6d+67/2wQAgHdw8QEAwJ/On/WQdXeovMv9DNM3zFiOp9hjE9+ZLkC6eI7vxDrrG0zfIu3q7sZ/ttNv0Hll7q/aLwAAVC4+AAD45Z49LN0dRF95dt6jHMrnc2JXt8tdyUP8fCZdLmM5/hmmb5ixHE+xK92err7VMtXcjU/yf1fP7O/x5HdZXpl7d78AAPBuLj4AAPjTOz2wTs/M2R0Inx5Un9RUV7Un+9h9oy53d/wu3V4zluMuluM71vfY7XHK3Y2fuvu/meXZea96db8AAPAKFx8AAHyMn33YeucA+eTAuct3sccmftfuQD/jd8dT7K7u22Usx52r/IndfqZv2cUem/gdJ/vufNecavo+AADws7n4AADgo9w9bL1T+4yrg+ou18XebfpOGbs7PrG+yTu+TR1nbordNX2rpct1sccmXp3UXH27zt36x5Nz0sl+AADgnVx8AADwka4Oq6vTulfsDqq7+GnsVd13yliXf1a3h/VtdrmMTePMTU7rqvwuVRfvYo9N/Bl393G3/vHknPTOPQMAwBUXHwAA/HLvOFidnB64nta9atprF+9iP0u3/9PLj12uOtlPd9Gx4qfjXe4dpv118S722MSXq3w1fbPJndrlmTnpzp4AAOAVLj4AAPh4v9uB63RQfRLL8RRLX4f/YHfmTy84drlndN8oY12+63fjKXaq+1YrnrrYYxN/1p393KldnpmT3r1nAADouPgAAOAvYTqorq7y79YdJOfh/ortxjvdvlesy9V8HZ/mdq7ynavvkfmp343fodtTfqMV60zxx0Vukt9j57Tu3Z7ZFwAA3OHiAwCA38J3HcJeHbru8rvcs6aD6ozl+J26g/oVr/0c3+m/Kve/G0/9k/Ez8tvU+G584pk5jxv7Oq1b7tZPnt0XAACccPEBAMBfztWh61X+yrrM6J5Jl8vYnQP9Z3QH+Ltx5n62/Ibd+Kr/M3XfI2Mn3/hdTvd9WrfcrZ903wIAAN7BxQcAAL+Ndx2onvhZh65Xe8jD+qrL5bja5V6R36YbZ7+LZb8bL2vv+XQyXsd3+904rf3nd+h0+ZNYjqtd7sruO1YnNdXd+p1X9gcAAB0XHwAA/KVNh65343ftDvczdnpon7lX5UH/Vb+LZf+u6Ttl7JV+N95Z32XaV5fLcRfLcbXLnTjZ30lNdbd+59X9AQBA5eIDAIDfyjsPU09Nh65T/N3yEH/FpnHmql2uqof3+aQau+p3sV3/jqvv9Er/WdM3ezT77Gqvxu90st+Tmupu/c7P3DsAAH8tLj4AAPg43QHzlam+i3exd8hD5DzoP+mnLnf1/t33q7Hs15op9k7dd1nj7NeaO/27um+24iljV+Nlit+R365zUlPdqb3yjj0CAICLDwAAblsHo9PzqmfXyMPnNc74ZKrp4l3sHbpvWMd3+6/ovlt+39XW/q4uY6/IfXbfoH7PLr/rP6Pb19V3PBkvU/yuk32e1Cx3aq+8a48AAPx1ufgAAOCWkwPOetj8rLvzTw5L1wH0rnbKd7G71nfJp5O5u/13ym9Sxxnv2qqLPTbxq2+V8at+F0sZz/GV/F41/sp4meJ3nezrpGa5U3vlXXsEAOCvycUHAAA/TR5K/06mw+mly2Usxzu777C+U1czHdRf9bvYlfVNpm+T8dWv8at2ip2avlWNZb/WnMTepdtfxu6Olyl+18m+T2qWO7VX3rVHAAD+elx8AABw7NlDze6g+sQzc+6qh/Zpiu88M6fqvlUe5HeH9Tlnij2GePfe69tkrsZqLmNTW3WxpXvPavpW2e++2VSXsWl8avp+r4zf7WRvJzU/w8/eOwAAn8nFBwAA36Y7qL5yt/5Z0wFrxq/G79J9q+5g/pnYM9YBft3v6tf43bbqYifyW9Vxxrv2KjaN78i9Td/ydDzFnpXfsHOVX07rTr1znwAA/DW4+AAA4NudHLL+CnkYXeOvjF+R36rr15psqy72jDywX+NX213/xPStdt9nqs/YO9RvVWNd/2Q8xV5xtd+r/HJad+rd+wQA4LO5+AAA4Jc5PRw9rXuXqwPqk/GpdSifT6rx7NeaXVt1sbS+w/Q9ukP7V9sTJ99q15/aq1j2U36vaU8Z777j6XiKvWK3x8dBfjmtO/XufQIA8LlcfAAA8EtNh9fppObd8qD1alztcstuT+u7ZE13CL+LTe2V7v27A/06rm0+mT9pO937d9+qjrO/a6fYs/J71fg0zjm72l3sFVd7v8ovp3Wn3r1PAAA+k4sPAACO/cxDx5MD0pOaK+tQOZ9J5rJ+6r9TPbjPcW272En7jO475Pes7S63c5VP3bfK/lXbxbrcHd0+um+Y+a7fjafYK672eZVfTutOvXufAAB8HhcfAAD8Nl45ID2ZuzswzYP5LpexZ/vP+jEc6tf41F45rUv5bVZ/157GXpHfJL9H5upT1+ja7J/Kb1XjXT/Hu9zPcrXPq/xyWndq+pYAAPBw8QEAwO8mD5/TLrdz55B0OlTN2HQonXV35CF89z1qLPtT28Vqe2V9k3wyP9WueFdb19i12T9R95ffY/ouNd7Nzdhddf81NuWn/sn4Ha72eZVfTuvu+Bn7BQDgz8/FBwAAt3zXQePukHTKTfFn5QF0F5v6XazLV7v37w7ku/6u7WJdm3bvvb7Hqsl+1mSs69f2RP029cl8179qu2/SxR6b+CT3uBtP/ZPxO0zfYtnlqtO6O37GfgEA+HNz8QEAwG9rd0i6y71bPZivsV2/i71LHt53B/ZTm7F3qt9p1570ly52qu53jbN/0mYs81WOr9R9T+Or/sn4XXb72+Wq07o7ftZ+AQD4c3LxAQDAbd95yFgPnlMX72LvkvueDqJ3h/VdbGftv/sONVbbfGq+q81Y1qd1OJ9PzU91J/Gu37Wncp+5x5M2Y1UXuyv3VMcn/ZPxu+z2u8tVp3V3/Kz9AgDw5+PiAwCAP4XpoHSK37EO2bsnZXzqZ2yXm3R7W4fwNbc7oM9Y5rP2yu6d67fJfo1lrht3/Vd1+1+x+mR+N3eZ+nfkHuv4pH8yfpfdHne56rTujp+1XwAA/lxcfAAA8JRfccB4elB6Wvc42Mc6fM+6PHxe42y7WK7VOdlDHsbngfyUm/pLxk7epcrvkc+uJnNrnP0aS2tf9cl8retiu1zGlvydTvctunwd3+mfjCfdt9rZ1e5y1WndHaf7BQDgc7n4AADg2+Xhcn2udDUnsRw/ozuUznHXVpnraibTd6qx/J6n8a5/Yn2DfGpu9Xf109wc51q13al7y/GuPY2lLtap+8r4s/2T8U5+q51d3S5XndYBAMApFx8AADztzmHqcnXIeXLo2uW72M+Sh9Vdf2qflftb36l+r+xf1eW4rt31c7zbU/1Gq1+fq5qMdfXPmPbafZOsv4rVNvtX6t5qrMtnv6s/GV85ff9d3S5XndadurtXAAA+i4sPAABe8rMOGNfh8nQg2uXujq+sA+buULrmu/4rbTp57/o96rfr4lmzG9f1T+S3mr7LyZO1dc3s19iJaa/1O5zEVr9rs38i93F37938U11t3efOrmaXq07rTnX7AQDgr8HFBwDAX0g9RM4D1e/w7MHm7vA141fjE9O3mb5bd/B8t01T/NEcxNc91nFt88l4N57W6+R3yW9Vx90z1XTx/L3VLjnOvV/tr/seGev6XZumeFX3VmO7fhfrxpk7dfLeu5pdrjqtO/XsfgEA+HNz8QEA8BfQHaQuKzflT7wy947pUDTjOa52uTvym9Xx3XaKdab3X4fw9eA9nyle81lTY13/RH6baXznqWt3/SvT/nLvGb/q79q7cj/TXle/fpucWz2bq3ud7PK7XHVad2q3JwAAPpOLDwCAD3fn0C8Ple94dt5d0+Frxuo4czt395HfLA+h65P5bs47TIfxp09XX9fu+lXuO7/JVDM9u/pu3dpe6fZc+13sqr9rs3+l7m2NT/tdbBpXu9zj4P13+V2uOq07dbUnAAA+i4sPAAD+Rh62/o66g9GMTYfNU39nfZP6dPmufyeW+cxVP5pLi/Vc5a9qpt+o8Ttyr3ef3bz6G8/Kb5Lt3X5tl1e/3zP9LjaN77h6/11+l6tO6069sl8AAP5cXHwAADDKg+UrV7VX+bvqYXONvdv03uv75OFyHjrXNufs+q/Ig/hpfPV0a9Z41nTvvfs+73y69fP3H8P+ay5rctw9taauk/1X1H10+5z6XWwaL1O8utrXLr/LVad1p072BQDAn5+LDwAALt05LLxTu5MHy7sD0MxNh853+48b+6kH0Wt81Xb1u36V75nfauW7/rNP93t1XNtH7HH189nl1vPHH388/vjjj7+Jd0/97Tvqfrp+F8v8lFv92mY/Te8/7bPGp3zGpvEyxavdHh4X+V2uOq07dbIvAAD+3Fx8AABwJA9cf5Z6WJzykLnL1fGd/l3re+Q3yQPofFY88zm31mU/Tfuo3+vdT/7OXfldpuf0wiOf+ju1vVL317X5ZLxbo1tnqf2lvnPuJ2um/mlsGi9TvOr2UNVvkKZ4Oq07dbIvAAD+vFx8AABwy8mB4a5ml7tjOkydDpWn/i7W6Q6iVywPlvPAudZ1sW5c59d+jVXru+T3yfg7n/obk9x7t998nr30qM/6jbtyj7nf03HXr+2pbg811vVPY9N4meJV3eNkyk/xdFp36mRfAAD8Obn4AADgtnqoPLnKv0t34FrH3aFz7efcKXZqfZt60JxPjWfNtM6K7XTvvfZf9/uznsn03tM3+Hri0iN1udXP+txH3cvq1/bkqbVdv2uXHC+5nxXb9U9j03iZ4ml692XKT/F0WnfqdF8AAPy5uPgAAOBpV4eGU36Kv6IeLE/j2la7XNW99zqMrk/mVn9X38UyXmNX1v7rd8hY9/y//+//+0+ezOcz/eak22fXv/vkRUn3m3fUfeSeu3iO8+nW7NoTuZc67vqnsWl819VepvwUT6d1p17dLwAAvx8XHwAAH+7dh4Tp6lB5l/sZcr91nIfMWVud1Ex7W9+kHjLnk/Ec13jmaqzTvfOP4RC+Pt1Fx+kFyI/hN6vufXO/rzx5+bGe/K3VP1H3Vtvsd0/mu7lVHWcuXe0t95m1U2waT7HJ1ftP+SmeTutO3dkbAAC/PxcfAAC8xd2Dw7v1j80hc8p4179qr5y+/3QIffeZ1rzSfauM/RguPe7ku6e+Q+r2l7H6/PHHH//kyXyty9h66m/v5PuvWLb5dPGMdevVeDXFq9xLt8/ansSWHE+xydX7T/kpnk7rTt3ZGwAAvzcXHwAAfwHvPiCcTAeHU/yO3R66g+UV3/WfbTvrADmfXT7jOZ6eqost3fvWb3X3eeby40fz3Tu5x/p0lxm7S5AuVp/6m7V9NP87qXvIfe3iVzXdb2Xs1LSv2n8m1o2n2ORqP1N+iqfTOgAA/lpcfAAA8FbToWgX72KdO4eb9WA5x9nftXfs9rEOpfNgucZfefK3JmvvJ8/u3/nIWOZ/PPn96n5yj1fP1UXH9NxR91bbfO7Ed+sutX+l7qnrPxPrxlNscrWHKT/F02ndiTv7AgDg9+XiAwDgL+Kdh4NXpoPlLpZOak7UA+U1zv7UTrETa+/57HLveibTHtY3qk93kZGXHVmXuenp5HvXvXzduNTIv/1xOu8rDvtXO8k9vfrUNVe/ttm/Ut+/6z8T68ZTbHK1hyk/xdNp3Yk7+wIA4Pfk4gMAgJ+mO0DMWI7v6g6Su3zXn9qMZT5zJ77ikP2V58pUU7/TM09egJxeePxovmMn95lP/jsfedmxarp+Pvmbk6t91PbqmepqPNd8Ru4v+8/EuvEUm1ztZ8pP8XRad+LOvgAA+P24+AAA+At59WCwHhyfHgx2dRnL8aluP3mgXOPZn9qpn2um3Ef3vTJWn91B/Z2nk+9ev9Hq56VGPpmrczK/+vkbk3zvupfcXz55ATL1uzWn35t0e8rnmVy3dteeyv3k3nLvJ7FuPMUmV/uY8lM8ndaduLMvAAB+Ly4+AAC4VA9Ou3iXq7p8F1syl+PH4QFnPUjO8a6d+svJb3fvnN+rtu94UhebvsnJ012AdO3p08k93XnqBUj2sy7n1t8/UfdQ21ee3bq1TbmHqttbbbvYVJ/xq9hk2scy5ad4Oq07cWdfAAD8Plx8AAD8xdw9FDw9+Nsdvj4O1rnKv6IeJq9xjefBcsa6udmvci/r29RvlLE7z3Rw38Umde+537zc6C488rJjavO5K/e09t893feZLj+mp/5ubSf1u6326tnV1Vxdd8lxlXuo8ezvYrtcxq9ik90+dk7nndaduLMvAAB+Dy4+AAB4q+nw9dEcIO7GmTuRh8j1ALnmp34X6+aucddP3T7WN/rZT/7eJPe/nry8yEuQ0/bq6eReTp78Wx556dFdiEzPpHv3jO3iPw6+S51bf7frd7o91PHq72K7XMavYpPdPp7NVad1J+7sCwCAX8/FBwDAX9A7DwQn3eFrF+9qnrHbU3eIXA+Ys83+NK7zsv9oDo/zmeJfw99qyHzOmdbeyfefnnrhUcfds/K1Ntf7sfnz6uT+6nfI77O79Mi6XC+f9duTupfavvrkOnX9NMXzveu421vGdrmMX8Um07s/XshVp3UAAHwWFx8AAH9R33UgWA+QM/5s/1nTQXLXZr9+ryk2md59fZt8pgP57oC/63drd7o9dk9eYnQXHLWd+rluPp3cR33yO03fZ2qz/9V8py7Wyb2s/WTszpNrr35ta00n37+OV38X2+UyfhWbTO/+eCFXndZdubMnAAB+LRcfAAB/Enko+q7DvO/SHRp2h6q7/qT7FvmtsmaNsybjXU2u08UmX80B/t1nd3Cfse53d3KvV5ce+dR49nO9+nS6d829dk+9ALlqr576u7WdrL3k/l556nr5GyemvdT+LrbLZfwqNtnt5dlcdVp35c6eAAD4df5//9l/9p/9dxkEAOD3cXpg9+yB3NW8q/wdeQC7Ylf9Xaxz8s2635rWn+KPsqdcr8ayzbquX2O53q5+Z/dddrnHQX6S75R7m2qm/XbzMpfxrK1rTrFT+V1yfo6f1b1jttlPU11dJ9fMdop14ym2s6t/Npfu1HZenQ8AwM/n4gMA4DeWh6onnjmU283Z5Z6Va3aHqrWf9VPsGdM6Gf+Kg/jOqqm12c9Yzsu61M3dtXdd/W8u8ye/171zztvlu7WzJnX5qd31O1f5x2HNXd07Zpv9lHW7+VM7xbrxFNvZ1T+bS3dqO6/OBwDg53LxAQDwoe4ezO3qd7nHP+R3TydzUz9ju9yjOZifYo/hN7v1q6t8ld+ga/Op8SpjWV/bqotN36OqNat/Mm8n3+VqDytfc/lMc7pxxqfYu3S/8arufbPNfsrcbv7UTrFuPMUmV7W7/C6X7tQCAPDn4t/4AAD4UD/Kvwnwq33FQXXmdv3dnC6Xdt+gfqPVr88ufkedM717jden+we7r/4Ni4ztnk63x7r//Hc97jzdGvl98zt377PUvZx+py7X1U3fqcYyV+V+3vXUtVe/tifyvbv9ZCzbKdaNp1jnah+7/C6X7tR2TvcDAMD38zc+AAD+Ak4P6HZ1U26KT76Gg+RdP9udWtMdbNZYrpfjd1l7rvvY9TOW63TjjFc5XrrvU3X5Glv9af2d3GeNrX7Gay6fnFNNNVf9ab2ly0//++pqX9GtXfeZNZ2pfhfLdop14yk2uard5Xe5dKc2vTIXAICfx8UHAMBfyMkh3VRzN37lazh0nfqn7aQ7xK+633zV2mPdazfO+JTv1t3VpC72GL7N1d8imOKT3SVJt5+sm3JdvK6X8a5dpnUzl3a5R5PP8bPyfbt3Pfmtrn4Xy3aKdeMpNrmq3eV3uXSnNr0yFwCAn8PFBwDAX8zJIV1X08Uem/ipPDztDlAz9upvfofuHdf+cp+512fzta4bL1N8d5nR/U2PXf0y1Uzv0O0n93oar6b81D8Z3/Xq/E7d1xrXNvuTrn4Xy3aKdeMpNrmq3eV3uXSnFgCA35uLDwCAv6jdId+U6+JdrPoqh9JTbeZWv4tVWdfVdKbD+MfhGtN/zugqlk+Nr/40Z5evua7mGXcvOn78+PE3v7Wrf1y8W7e3Kb5iu3jG6nrV1fjKVX2+47t0e+piO139LpbtFOvGU2xyVbvL73LpTm317DwAAH4OFx8AAL+xn32Ytlu/y53Gli731RxG11z2p5psq13u6jB+mdbo5mdNxrr8Y/gWGct8V7Nita21J64uN+7GT129X7fHZ+JTrqtJuX51dQn2GC6Fdu7WL917drGdrn4Xy3aKdeMpNrmq3eV3uXSntnp2HgAA7+fiAwDgL253WNflXol1voZD/dXPWMZ3sSt3D+139fm73but/vTU2sxlvtrlczzt4bTubvzR5PK3unG371qXuZx3Fc+aqos9Yr2dms+9Py7W2dWfqLXd75ys1dXvYtlOsW48xTondbuaXa5ztx4AgN+Hiw8AAB6PzSFfF89YjqfYzldzsJ3xKZ+x7He6A+Z36N6hi9Vx7jH7u1iXr2u/qn6n1c9vN8Wn2DK9a7731R5rLuOrv4t3cyeZy/Eyrb1c5dNp3aPZb9de2a3RxbKdYt14xbp4uqp5NZ9+dj0AAD+Hiw8AgN/cdx6kTb+V8avxFDtR53X9Lnban+wO55+R79q9z1dz0LtimctYrjHlOlO8s7v0yG+W486qyXfo3jlrlrrXHOf3yHUzlvnsT05qfpbT3+72lO2V3RpdLNsp1o2XKV5d1byaTz+7HgCA93PxAQDAPzEd2mX87nj5ag6n15M1Xb+2u36OM7fkgX0dT3MezbyszXed2tXvnq6u1qdpXspc7iV1FyDZ38Uem3i+b7ff1c/97fIZX/2uNtc5cWfOnfxV7eOw5jGsm+2V3RpdLNsp1o2XKb5c5R8HNVf5dLceAIBfy8UHAMCfwHcfunW/dxXLfI6nWPU1HGavftdm/2qcuWU6mO/sarvfurOPfLr5V0+u26n5rvZH/APbuz2vXLan8ve7PWS/7rWL1XHWVpmb6jrPzns03/fu/MfhnO43sr2yW6OLZTvFuvEyxZer/OOg5iqf7tTfqQUA4P1cfAAA0OoO7jK2G+9yV76Gw+ipzf4Uy/Hk7sF9yvfK951iOSfru2fKd2vV+Mp1dvvP3HTZUcdTTcr37to07StjNZ7PytX2jm5u3Wuumd8h8zneOamtNfmuJ/MfF2t0sWynWDdepvhylX8c1FzlO6dzTusAAHg/Fx8AAH8Sv+oQLX93N76Tq742B/Mrlv1a0/WrLt7FHs2h9E5XO73PtI/c027O9HQ1udZS8xnvnFxgdDXTePkx/I2HXexkr108n5T1z8h5Oa6xLvfYxK+czKs1+R4n8x8Xa3SxbKdYN16+hj+zx2ZO2tXtcjvPzgMA4Hu4+AAA+AuYDp+Xq0O8zO/GJ/0ay/iK5dw1zjb73ThN+d0BfrrKX71n7vOqf/Vkbf29qba2nas9Xn2v09iJfN/63rm3jHf9nJe5Z7wyd3n2PU7qa03+zsn8x8UaXSzbKdaNqyk3xdOubpfbOZl3UgMAwPu5+AAA+BN55hDtzkHzbv3MdQeZp/1u3PmKw+zVzzb7u1jqaq4O9FPW5Pvle+Zv1ljXz2fKdWtmvOZWv8Yz9mj2V2OZuxovNZ6/173T6nfv2MVX7CpeZbzW7uZVOX+yyy0nNdVJffd+2V7ZrVFl7mRejquv5vvneGdXu8tdeWUuAAA/h4sPAIA/me84ZJt+I+PdQeYz/Wo63Fyx7Neanat8Zzq0r05qHs3vr33kfqZxPlf5q9oVq+2uv3SXQlObddP4Sr5Hvnfusca6eNasWBfv1NrJ1RqPi9wrrtat+XzPq7nL6RoZ2+UyPvmKP69TV/VX+Z1X5gIA8H4uPgAAPtjdA+bUHeZlrDvIrP0ulv01znx9sibb7D9jmn/yHbNmWmuS+839ZW4X756Ua2SuG3eXHtWPHz/Gy48uluP83SpzV+9fcznu4tPcnVfzJ55d42pezed+r+Yup2tkbJfL+LtdrXuVv/LqfAAA3sPFBwDAn9B3Hq51v5Wxq4PMXSz7k6/mMHv1a8275AF+HtJf5ZZX3m/tM/f9zNPNX7HaLjmuuv3Wb9F9ly6WuSvdO+X7T/urua7fxbrfS1d1XW7t9zR3Wpd2ucfwG9leOV0jY936Gcvxu1yte5U/8Y41AAB4nosPAIAP9s7Dt1xrGu8OO69i1VdzSF/jq1/b7F/ZHbhP6+zm7HJXcr/5nNRcPbnGGtd20uVzvznO2NXlyOSqpttPF89xVzPFujWqLlbt8ie5k5rOLvdo9te1z9itkbnuHabxu1yte5UHAOD35uIDAOBP6lcczHW/2R1a7mLZZr8br9h66nj1a92Jq8P06uSQPg/4T99j6errnnPfzz7d+qv/rNx7upNPu1zKPU77y3hXcydXYzvTWqe5Z2KPTXyp+XyPq7mPYX7tZ9vFutw0fperda/yAAD8vlx8AAD8if2qg7n83d3hZbZdrMvtfDUH0tnudIfpXaxzVbfL73L53jlesdz73aebt2L5OyemS43c6y63TPGd3MeKZZv905qsSxnPcbpab+dkzlQzxZeaz3e8mvsY5td+tl2sy03jd7la9yoPAMDvycUHAMA3+ooD1fo865W51XToPK2f8d3h5Wnb9aen5rt5O5nv9t7Fqi6/Yl3uxLSH3Hvuu3v++OOPsWaKrXjt13G19rjy3Z4ztrv8yPEU6+Sesl/rpv1lv5riS7fuziv5k9+5G1+6tbPd6ebXfrZdrMtN43c4WfOkBgCA34uLDwCAb3J1ePbVHNS+w8maJwfM0zrdQeUudtpmP9XvVftr/KyTb7G74OgO9++8T36H3Fc+J/GuJmP5W1XGu30vmXt1vGQ836mOuz11e81xNzfHS43X2C6fdvnT3FR3N750a3exyVSba3XrdLms+zr4rnedrHdSAwDA78PFBwDAN7hzaPbMwd7d+ioPlK90v9UdVL6rXdZ3qU/Ga+077L7N7vLjsYk/hlz3/rnPms99ZyyfrqbKWJfv+o9mP1fjFctvmG2tnezeK/fexXNc26nmmbrJLn+am+ruxpdu7S42mWpzrWyvYlUXe8XJeic1AAD8Hlx8AAB8g2cOzL6aw+mdO7XvkL/XHVSetF2sttmv1vyck/U5zliXr4ftu4P3pas/mVfl+9c2YzWedbv/zNXpk3Pzt5fdHrtvUvu7y4876nt171j3sMY1nnvMWDV9i6yf+p1d/jR3WreLVd3aXexEV5trdmtnLNfJ8atO1jupAQDg13PxAQDwDV45LOsO/CZT3RR/hzyczP6uPYl1/XxO5mZ91k3yIH46wL/KZTz7+S753l2/xqbnpCafTl2rax/D3qb91zZj2d/Fuvc42UO33xx3td3vVble1+9c5Sen87q6LlZ179/FOpnbzc92ip2MX3Gy1kkNAAC/nosPAIBv8I7Dsnes8bPku+WhZdeexro2rblZt6vPfrYpD93zsD7bKZa51L3b6uceT/LvetaaXXuiu+Cobfc9ulinvkf3btM+ar7WXc2p8c5u3s5VftL9VppyU3zp3r+LdTK3m5/tFDsZv+JkrZMaAAB+LRcfAADf4F0HZV8XB66PzW9N8Z3dwXO33u7QsrZXsS5f21pXn2l+J9dKXezRfJPTi47HEK+x7r3rfjKW9V08n/Wfwar9rjZj+TtVjnOf3QXHVVt137iT75ft6p/s72pOV9/Nq232O5n/8ePH38R2drVTboov3ft3sc6U6+ZnO8VOxq84WeukBgCAX8fFBwDAN3j3IdnVelf5E7sD5ip/a3doOeVO+l2b1pyuLnOZr+NdzTJ9nzzAn9rsX6nvn3vp+ifP1dwq61IXu9pr901ynLlJvtvULhmf9py5XWyp464m60/cmbOrnXJTfOneP+fkuNOtU3Vrd7GT8StO1jqpAQDg13DxAQDwDX7GAdnVml3+NPaMXCcPK7Pt+rVm6mc7PVlXZU3NT/1qOrBfMv9j+E85PTZrnJr2nc/ub3fcedb8nV0+95vfKuPZ38VSvm++V91Txrr9TvW1rfHMdbErta6b82P4GyFdbJlyU3zp3iXn5LiLXa1zGjsZP+t0ndM6AAC+l4sPAIBv8jMOyL6ag9iqy3Wxd9odVta26+d49bv5tZ1qu7pqqunqu9hjcwDfHehPtY+Sm36nU/c87X8XO3ly3hrfkfuexlM8xxlP9f1yDzWeuYxlXZ2bbdYsXU22V7Kujr++vt52+dHFUv72VX/S1V/FMrcbZ+wZp2uc1gEA8H1cfAAAfJOfeTi2W3uXe1Y9eJ7Wz4PLbLt+N67zuv4aV93cjHfzu3VOdYfxP5q/6ZHjKXYi3y/3fPLUf/NjeqbfuKvus9vz7nvVdv1+1k7vVePZr/up7RTLXI6X7GdNtleyLtffXX508Uez5hRLWTPtJd8x3Y3t1svxFLvrdI3TOgAAvoeLDwCAb/KzD8burJ+1OZ7kQXPKdXK8XB1grmeKZb+r62qm39rVLFP80RzO7/rdeIotK5fvkHuv/WefP/7442iN/K07um8ztVPsrnznLpb7yD3v6uu4tlmza69kXa6dlx9Tfxd7bOJVvnu2WXele9fT2DSeYnfcmX+nFgCAn8vFBwDAN/rZB2NfzeHtin+n/L2rQ8vde2cuY9nWuq6+i2X/GXk4/+Mf/vZCxrP+mVj3rrmXq+fkb3rsnu7363jp3j/lN8p2qsv+Hd0eMt7t6XSc3yb7U3tXrv3jGy8/ltzDM3On/mlsGk+xO+7Mv1MLAMDP4+IDAOAbfdehWPc7Gbsap2cOmLsDyi5WxxlbVq7WZL+LdXOqLpc1nd33yAP60zb7O/muXds9u3/k/PRve6ynM8VTt88fB/+pq4xn7PT3H803q/Eaq3XZ342rLje1O11Njb2ar6b40q2b7Ylundo/jU3jKXbH6fzTOgAAfi4XHwAA3+y7Dsa638lYjqtdruoOoHPubpy5FcsnZS7rcn6ty3zOr+t0uj2nPLCvh/qrP43rvG6c75nvnv2f9XS/0b3DknuqsamdYilz9XcfTX6p75rjq/hpW2Vuane6mi5WTXvJXNrlHs26XXtXN2/3O9nvxivWxU/cmXenFgCAn8PFBwDAN/vOQ7HutzK2Ozy8Mh0mL7lejpcpXq1Dy+6p+dXv5mXdrmaSe85x1R3YZ2xqqy62dHud+tNz8p+96v6mSP7+VW7nx+Zve9R+F6u62Il859zHLn8yrrq1unanq+liVeZ377hc5R9R0+3h7hp1fLXOLp/jZYpfuTPvTi0AAO/n4gMA4Bf4zkOx7re62F13D5jzIDPfIcd3fJUD+m58UpfvlXOXKT59j+lAPw/wc5wyNr3HY7OvO8+66NhdeGQ/Y7XN/m6/U67rd7E0xdP0zrnPKudM+ZT1U7vT1XSx6irfOZlTa7o93F2j6tbpYtnvxssU37k75249AADv4+IDAOAXeOVA7Ks5pL5ar8tPh4Un/Z16yJxzrsZXcs/dU+t2c1auW7/LnZoO2etBfXdon+PM7Vy9a+49n5O/8ZHPWndqM7bkuJr2P32LqWaqP1HfPePZz31ezc18zu/qr3RrXjmpSSdzuvfoYqemuVdr5+/keJniO3fn3K0HAOA9XHwAAPwizxyI7eZ8bQ5eHyWfsav+qavD5pP1p/jjIlfV77DmZOwqt+J1zSrHne575OXHNM76aTzJ/XR72z2nFyGPx+Of/IPouXZ9n7Ri3Z7qd9nFfqbu/TOWe+7qc+7u+1zFdrq5O/kOV05ru/foYpPMX82d8lmb4+VnfYfqmTkAALzGxQcAwC9050Dsbu1UP8Und+uv5HpX4yn2KPvcPauuq59yGa/5pfbT7pA+Lzi6cddmfqd7t25/p0/+Z69yrXr5kbkVn+xy3TeYvlf2u3HGdr/9aP7sc1xruv7d+pPYTjd3cnftx43a6T2mfspcN6+L7frduNrl0p3a5Zk5AAA8z8UHAMAvdOcw7E7tMs2ZDgen/i72ODhgfjRzc7zT1WbsqzmwXzVdP2PTWiljOU55MN8d5ud41U31u7lLfa98x/wG9UKju9y4ero1a+zUbo9drPs23fjK7h3rXrLt9rcb5xpT/yq2c2fuVb5zWpt13W9lzV3TWlO/G1dfzZ9n56QmPTMHAIDnufgAAPjFTg/ETuvSdJg3HQ52/av56ergeTe309V371nVfa9+zuny+XQyN9UteaCfFxq7cZ2f8St1fzWWT43X/sklSFeTv3PXtPeMdf38Pjnemd4199GNM579rjZjV/ka28n3W7FO9747JzUp3z/XyHGn+x7P9LtxejU/eXYeAAD3ufgAAPgNnByIndTsfDUHm9PhYNZVu9zjyYPmqzUfTc30vrnPNc4nazN/lVvxKscpD/HzoL4bd7npG694fY98192erp6rvxnyyn/yaqfbd36Dq/Gp3TtmLve2xrXNWOZrLOOZz9hd3dyM5Thd5avd++c6V+OMvdLvxukr/rdbTfETr8wFAOCciw8AgN/AyWHYSc2JXGc6HFz9bDu73HQAvZsz6d6v9jM2PbvaaZx2uc502THldv3aLjl+NO/Y7evqqf++x9Wcx/DvfXTvkLr372KP5hvUupzT1XTj+k7d+y2Zm8a5364uYyvetVPsrm5uxqZ3W3a5tHv/bp0Vyz+fTrf2TtbkuNN9ixzf9ep8AACuufgAAPhNXB2GXeXvyLWuDhDzoDLbyd3DyxPdu07t6nfPae6k7kR+i25cD+mv+mucVizfq75zjnNfrzyP5vJj9aua6/Kdae/1+3TtHbv37fp13LW7eVexbKdYZ5ffvVf2c50cn8g1u/bUSX33e6fjyfoWp/VX3rUOAAA9Fx8AAL+Rq8Owq/wdeYjX9d/5e4/mILr7zSvdnKt29fOZ4tO81P1OlftNeaGR9d3h/ml/yXfr9pmx9eQFRuYylk+d262zYleu9lh1+W7+7ndrLvv53hnL/K5/Est2inVO8l1NxlZdxu+4ev87a0/zTvon4+/wK34TAOCvxMUHAMBv5Oow7Cr/iEPKfDrTAeHq32073WH0K6b3zHfp2nym+OlT19+ZvkFeeKzx1bNqa5v9E91e6rj7dz3y0iNr6jr5O1X9zdo+buyj+waZu1LrunfJfq3J+hWb9pr9XWzJ35hinSk/xZduD6+6ev9nf29aY+qfjL/Dr/hNAIC/ChcfAAC/md1h2C73OMx3NdMB4epPbWeXW/JA+mrOjx8//qYm37O+29TP+syfPFmba1/JvS8Zny4z6kF/fVIX61zt79nndJ1VV98nY0v3Hbp+jq/66ep9pvef2iXXSBmb6nP9nJem/BR/3Fj7rt0+sr+TddMaU/9k/LN99+8BAPyVuPgAAPgN7Q7Ens1VX+XQtotlv2un2JXdgXMn63e/n+899Wssc1/lbzB0dSu+dLFlij+afa1YXmZkLJ86t+tfyXfMvZ48+TdArp7u9+q46/8ol1+ne93lTqzfy7aL1bar68aZ62JTffe7O1N+ij82e3rVtFa3v2dNa+W63ThjP8t3/Q4AwF+Riw8AgG9QD21PTfVT/HGR63SHfN0hYbZXsUkeROc452e+yt/P96h768YZn3JdXfdk3VL7y9pXHuBnvMa6+imW/Sr/t5j9qycvOXL8zNO9xzO6b3KS28n3y/Yq1uW7XJWxaTy1ky6/m5uxHL8ifzfb7Hcyn+Nqt26Op9i7fcdvAAD8Vbn4AAD4RncOuna1U26KX/kqB9BrnP1sT/q797l7AN3J31n7yHfJ+FVNPndq6prVlMsD+XrZ0fW7p6ut7ZLjfO/Tva5nuvSY4vWpv1N/O/u7WN1P16/fZJL5Os53m9qrWJfvcqmrOW0nX+Wb11htd7lu/rO6tWubdSdq7W5e5nI8xd7pZ68PAPBX5uIDAOAXOD3wmuruxk9Nh4bdgWQX68ad7pC66tbIuqzpxvnciXex3bPqq5rr8im/S3eAP8Wy39V3cq+72MlzdemR607jnbWXq7rO1fdI+Rt1D5nfxbp8l8txxrvc1Ha6mux3NTmudVd2dflb2WbdXfnOU64bT7F3+ZlrAwD81bn4AAD4hU4OvqaaLt7Flq/mEHo9XV3Xr+2un+PMLaeHz7u6k99Zct+5z3x2ua6mq1+xnbq/3Gu9yMjLjczX+Rlf6rh7v+69c0/TM116/PHHH0dr1/hdudfue1z5sflP0tV4vusuN/WzzX4dZ9vFprZTa6a6XTzf4+rp5nVqbW2rLpaypo53uclJzTN+1roAALj4AAD45U4Ov7qa09hjE1++mkPJ7rAw2+xfjTNXdQfTu/oqfyPnrdj0nNTkUw/z83equv6pvLzoYjnOXP2euUYn3z33e/VcXXpkfveb7zDttfsWU23q3q3u5STW5btcN55y2Wa+82puV7PTzev22MXeZbfelJvir/gZawIA8O+4+AAA+A2cHIB1Na/EOl/NQXT2s83+FMtxlQfPP4b/n/dZ9xjeZ41zP1XN1zV2T/7NhdN5q6bT7ekxXGic9KcD/Vq3M71796zLjLzUqPlHc+lx9dyR+5nGGT+15q33yvaZWPZzvMtNpvm7uc/kcu2pbqebl+tOsVNZvxvvctUUf9a71wMA4P/j4gMA4DdydRDW5TOW4ym281UOJrNf213/buzxwuH0HXU/Xbw+68C+y3exLl/rrnT7z8uL7qKjPpmra+Raj82fxdLtKZ8u/uylR7de5/T96547V/kqf6uO63ufxLL/zLiLXf1mmnLdOlPua/PntJNzunfuYqeyPsdV5nK8TPFnvHMtAAD+KRcfAAC/md1hWJc7ieX4VHfomG32u3G1yy1Xh9GZ795pku+9e7Imx1dP1u90lxJ13F1m5IXGlOvm1nZZ4+ldc39Xz91Lj/ydafyM3HPuPWO7b5Hvlv3TWPbr+KqtMpdt9quutstNdfkbmb+S9bneVf8Vuc7VeJnid71rHQAA/paLDwCA39DuQKzLZexqvHw1h8/ryZrV79rs72JVze8OpN9pevfveDorvtrdd6i57OeTuW6NKsf1fXMfJ8/dS4/uSTXW5R+b/b3b9C6rfxrLfo1187pxlXOufucx1J6Mayx/p6udZO00zt84kXWvjpcpfsc71gAAoOfiAwDgNzYdjHXx3aFgjqdY9RWHl6s/xbM/Oal5bA6uu0P8O+o+sr373D3cz985kXvMC46TJ9fpYpP63qud9vOOp66Z63e5U92eM3byPar6+13/NDb1r/bXzalO13lEbTdvt0ZXv8YZm2Rtrplt9u/IeXfHS77zXa/MBQBgz8UHAMBvbjocy/ir40k93Mt+bWv9M6Z502H0FL+S79216+n+jY/dZceUy/WXms/cozmQ7y4yss1Y5musxnOc77V7/+npvsfuH0R//MO/CZLrd+Nsd3KP75Tvl/3TWI6neDf++vr6J3vM2hrrckuumbrYo5mXdSuW8U6utWuz7mfa/cYut/PsPAAArrn4AAD4E5gOyDLeHRqejq98bQ6dc60c35WH9dmvMl5/ezoMru992n/mqYf73bpL7Vc1nhcXOc7c7qnr5dqpe8/c5y5en/oPnq82a7p1aizfo7ap289jE0+ndfX3u/5VbI0z19XsxtW0xhR7bOJVfc8ay35XV+NdbpnW69qqi02y9mo8xZZdbvLMHAAAzrj4AAD4k5gOyTLeHRpmvxuv2PTUml1bZeyZg+THZl4e3ue8lPuo7z6NT57uAP/q6d7hSr24yPHq5yXGVbvkuo/hz7Z754ztnle+VfdbS+3n+0+6Pdc253exZXqX3bt2bcayfzJOJ2suXW2V79rV5e90NY+DXPazzX433snaq/EUW3a5zt16AADOufgAAPiT6Q7LTg8Cp343Tl9xKFv7tebd8kC6s8ulfO+1l248xdazO8Rff6sh4+upufo+qdtb/Sa7/skzrXcl95KxV566Vvbrb9V2iqXT/T2je5fa38V27/wY6nJOjju7+Uv3W9UUX7r5uzlfzZ/vimc/2+y/KtfK8RRbdrl0pxYAgHtcfAAA/AnlgdlufNLvxpOvOJDu2jvuHkRnfR7e35Hvu/ZWnyk+PbvLkHzyd6/UPeZlRTeenqv5tT2R+1p7ydjXze+zW6fm8l1+pfr7XX8Xy3fPcZW5bt2qiz0O4l1+l3s071LrpzmPIZ9rdW327ziZ19V0sWWXq07rAAC4z8UHAMCfVB6a7cZ3+zVWn8zVmoyf6A7Xu9hyeiif+TrO98s9dk/W5eF9jp99duoe8tKixneXGDkva7vYlXz/3NM7n7V+/e2MdeMq91THmXtW9461fxrb9bvxFEsnNY94t+k9Mtflu1g3b8l4zu3a7L+iW+c0tuxyy0kNAADPcfEBAPAbWQevpwdiWTeNp8PBqd+NV2w9dbz6tb3r9NC5O6jOtupij5vvWfede7966qVId0Gy1qptlbFurzWW/d1T5+/GO/X9ck8/6+l+K3WxO073P6m/3/W7WJWxXX2umfllWuOkfo27WM1lvqvJXMZWfBrX9TLXja909V2ss6ub9rbscgAAvMbFBwDAb2B3yHp1OJb57oBw6nex7E/qoV4e8J3M39l9j2WqmeKPkuv2n9ae7j7rcqO75Jie6ffyfTprT/Wyol5uTE/W1bVy3Sv5blf7evapvzW1VRf7TvX3u36+3zTO+DLFl6t8NdVO8eqqJvfxVf48syZjNd71u1j23+XZNad5UxwAgNe5+AAA+MVODpaX6aAs49MB4O6wsItVX80hdI2vfm3fofs+J4fymcvxTr5/7j2fk0uOq3/svD75u3Vcdd+h69c2+znO+tpmf71PvuOrT10nfyfrsjZN8aruaXJS05ne8yRe85nLuqtx56TmMfx+dZrv+rtxje/6XSz7z+jmn8ZSV9PFAAB4DxcfAAB/MtNhWca7A8BnYt14xdZTxzX/jOmQfTp47uK7eWs87TVjub/1XF1kXP3Njyn+1XzP1Xamy4l3PNP6neldc293n913rvHut5eM//jx429iV76+vo6/QarvuMa1zZqMV7tcF8vxzq62e7eq5rOme+cuVsddbNfvYtO4M9V08dNYypocAwDwPi4+AAD+pLpDs4x1h4HZdrEut/PVHNqezpvUQ+Y8cK4H813+TmyS+6jt6q/LixqfLjSm+MrVNdaa+btX8pKia7vY1NanquPdu077mfJ1fPVMa+Xv1FjN5Z5OnMybfi9zu9iu38W6fDqpuVLfOdfrxl3dytWa7Ne6aZ9dv4tVXeydTtbPPQMA8HO4+AAA+JPrDs+mA8A8cJvaKbbG3VNz3bwr07x60Lw7dO5yXeyxiVf5PrnH0+ePP/64/AfOu6f+Vv39lHvJi4vav/vUNes41Xfr3r2Ou+dRLpF2sZrLcf2d2k4y/6P5WyDdnr82lx85v+reaxfLfh1nPJ3mp33sTO839Tu5j5yb86d8xrOf60yxK92cLvbYxNNpHQAAz3HxAQDwAbpDtKuDwIxdtdlPX82BZM6tNTXeyfg6pL06rM381Xin7iP73bg+3aH9FJvWqe9Rx0teTtR+/V757VYsn66mW7PGOvV9c0+vPrlmjmvsjq/NhUa6u/aS75uxSVef/W6csS5/V65R3+0k/hjeKeu7cVXnZWzX38XumtaY4gAAfB8XHwAAHyQP3LrDv7vtFKu5rO3qs5/jrLnSHVLn4X2Xm8aT3E99ulj3TBceGbt6UhfLy4ra7y41MjbFu/6V+t71XWvs9Onqp9/I9tTd+hN1zXyvqa26WPXM3Cl+avebS63Juqtv0uV3uS626z9jmn83DgDA93DxAQDwi737gCzX6w7/Xm1XvxvX2synLvZofiftDt+7XMayzbol3yOfLp4XGjnOWObzb4Bkf427fpV7nC4v7j7T+tN7PIa9vPpMa3W/ecczc5b6XhnvYru2yliOqy7XxZZdbmf3vkvNrW+Q9Vkz9XOc/WndrvZZd+ffrQcA4H1cfAAAfKA8cOsO/3ZtF6tt9tNujZT509+o6oH8Gnexrr2ye4e1z/pM8a/mkuM0t9bs2qWOc4+1zX6Os5/j7N9R91PHdU9TLPv1e61crlHjd3Rzulinq+tij+adayx18RrLfI47JzU7p+885Zes675LjU/9qzb777Jbc5cDAODncfEBAPAn0h007w7WpgO/PBD8ag5ed7mu3z21rtanrMnaHFe7Q/iMdbVZ06n7ydjpk3/LIy86cpxP9x45XrG0Livy8qIbT8+qq/V1/WqNu3d5NN8uYznePbV29XP+M07mZU2Op9jSvXNtU42f1KQpN8VP1HfOdfJ9M79k3Wq775HxrMnfyXzG3+Xd6wEA8BoXHwAA3+DqUOwq/2gOlzvdOleHgNPh4Umutp1ufo1nrKs7kQfzXS7H3YF+1qTuvTOez9WFRl6CXNXns35/knvMC4v61FjO2cVqvFPfr3vvbj/veOpvPuPZeTvTe61+tp1uXvZznLnlpOZR/ny7mmmNrv918WdT67Kd5mXt1J9+647vmgMAwGtcfAAAfJPvPPzK39odAu7aqd+1ta4+0/ycU3NdzZU8mO9ydZz12Z662n8+62Kju+DIWI7rk795IvfYtdNT83W90+/VvfOKdf2MdXW7WG2zf0e31iRrprn1nTPetdVJLMfVlJvik6yv46v9rf5JzWprP/NZm7Ep341fsVtrlwMA4P1cfAAAfKPd4dcu94xcb3cI2LUn/a5Na85JXdc+ozuM38Wyzf5Ovm/db32mS4zpIiTHu6f+ftXtIS8xuuekrq6Xc2quvlf3rrmHZ55unbp+17/j6+vrb/ZSc50uXt+xc/X+u9jjiXjnTu3j4F2rbn+pW69rp/4Uy3zqYpNd7bM5AADey8UHAMCHy8O2PPzr2rv92tZ8fXJera39HF/Jw/ali+dhfsY6eeC96vI98zus2LrAqLEa754p98cff2x/bycvK7Kf36Y+NZ41Obe2Vb5nvm/dZxfLPWe/e1a+a+/KeTmeYjtZX8dX75vxq3G6yj8Oax7De0/qvrrajOV3qPO63z2NZb8b/wzf8RsAALj4AAD4druDr13uVd2B39R2/Voz9XNetWpz3ZrLePaX7mC9U+vy0D5jWd+NU+4599jFv+Jio/6Nj+7Co+Yfj8ff1NT1UxebvslqM989Oae2J+p7r7bbz0m8W6urzdw7detlrL5HjV3lsp8ytxtnbvn6h7/RkrHUxZb8nak246t2mrNiu/Y0tkz9XeyOq/lXeQAAXufiAwDgF/hVB1/dgV/Xdv0c7/pZX5+sr7Kmxpc8oJ1iSx7q50F9jdX4NE65p9xD9k+e6RLk6snfPNF9h+5bZb/7Zl2s9ut71fft2ozlHrPNfK4z5d6tW/s0VuX7d7rvkLkrV3W7fOauxkv3vpNuT7U9jdV216+m+ImruVd5AABe4+IDAOAXmQ6+pvjOdDjfrdUd+GXb9afxrt9ZNd163TpXugP2lAfz2e76u9jSvW/d0/Tkv+/RXXbscutZv5ft6tf4Mu33x3DJkfFuXtff2b1rt7fMdXU57uZl7sTdefnb2c916rtN+U43p6vt6tJX8zc/qt28aZy5jOW+U9aetF0s210/ZW73jQAA+D24+AAA+IXyQO1nyt/Kg8Bss7/Gma+x7Hd1XU1Xm/ErVwfveVhfD/KzZtfPWPfuV8/uEmPlp5opXn+/ynE17bF+m/xe+d12/e677eS75h5zr1mzi2eutqe+Nv/I+YluXveOU92ky+WaV65qTtabauqecm6NZ67mc7xru1jX7vrv8O71AAA45+IDAOA31B2YdbHHcCi/szvomw4Gu7qM13H2s6arS7vcTh6+d7muJtvT/qP5jqnuO/f+dfG3OjJXa/6If+y8e1Z+Z9p7jWfNitUn11gyV98n362+c1eX++viXX23TsZOdLV3fusql+Nlii9X+UdTk+Ml492eTsa7XJVz6pNWrJvT5a/a7HdjAAD+fFx8AAD8YtMh2xR/h5NDvy6esRqv83Jc25N5GX9GHrbX+BSbcl3/VH3/3N/07P7GR615NP/Y+XryN6903yu/S62Z+l17Jd+vvvPU1rrMdfGcl/0au+POvN1vde+Y+7iSdTk+sZuT7zfl6jjjnWdqa//VNvvd+FnvWgcAgHtcfAAAfIOrw6+r/HJad2p38LdiGV+xjHe57GdNl6/yd3K8YpM8xO9yVwf3OS/zS/ce+e6rzaf72xw1N+VzvHs6096677bi+eScnJvj1dZ3qjXVqsm95L66cY1nP8fZvkuum+3qd7/bxdKam7Wvjpev4d/8yPe/ymVNp9bu6rv1a//ZNvvdGACAPw8XHwAA32Ad5u0O0rpcF0u7mjy07Gq7g7+sy/FS95V77Ma1rbLuau60xqQ7lF/j7vA+xxlPXWzJd5722T27i41dbj3de5zq9pzfpBt3c15R33v1azvFcpz9brxi73CyTleT73RSs2Jd+zPt3jPfI/Mp67o91nyO77ZXsWn8jHesAQDAPS4+AAC+we5grepyGcvx5OrAOdfJQ8Apf+KrOYDv+vmsXLdW5k761e4gfndgn+2u38l3z/3UZ/qbHSs25XP8NayfamzaU+7/R3PZsRtP61Tdu1U1X/e22txfxqZ+N16xyY+Df9x8ytd3qO3qd/PyvbuapVs3c9N4ip3IfWQ/20lXV/fdzc/aZ9pdfxcDAOD35eIDAOAb5KFZjqtd7mfoDvyyrfn13JHz8je7XI1nrs7t+t34MRy+T7E8xO9qun7nak9XT15s1PHU7576e/luVX6Trs3+1bjOX3Kc8r1r28W69qpfZSzHVZfL31/9rrbKedlmf6ebW03xndM53ftObSfn72qXnJP903bX38VOvTIXAID7XHwAAHyD7tCriy2Zuxq/w7TmLn73qfNWf1oznca7mk4ezE/jWrvrVzWe+853nZ782x31b3xkzclTf6++V32XTl5a5Heq/d24tqs//WaV75zj2naxrN/VXsVSF89Yjlcsf2dXl++SsTStmeM7sTum319O4nWNqf7RrJW/Pa3Ztbv+LgYAwO/HxQcAwDeYDst2h3oZz3G1y90xHfq9c/36dLGrXF2ruhp3lxR5IF8P6zOe+ant5LvknuqzLjMej8f4tznyUmT1Ty9C8j3quMpvkXvN2G5cdbGdfPfs17aL5T5r7iqf8ZR1U333Gyte29Xvah9DXX2yrluni53YzTv5vXy/XW3Xv6rPcf5utlex7FdTHACA34OLDwCAb3B1SHaV7zwzZzpwzrWuDgNPfDWHsvmsuq6+5rIu67PmjjzM7/p5iN/Fcl7q3i333O0tn+5yo4vtnvobq5/v1clv0MVyXOX3uiPftXv/+t4n/WncxXa6389cxrr4o1mrtrmPbo0az3aKdeMpdip/J9us68bdnLW/9aSszf7UnvarKT65Ww8AwPNcfAAAfIOTA6+uJmO7cebSyYFzt14XuzLVfW0Ob3POymVNVz/F0/QNugP5eohfc12/m9vFq3zPaa9fzd/sqP289Mh8zeXa9T1W2+n2Ub9L18/v1H2Trm4n33XaW9Znf41znZSxHFddbvr97Oe7312re/9cK/OTr6+v4z+H6mpOlfNzP10u45Os6+ZnrMvt+mmXAwDg13DxAQDwDU4Pxrq6jOX4Z3jlN7q5X3Ewu8b1meJdbo3TLndywJ6H9xmrdRnPtlPfa9c/ebpLjbz0eMR/Liuf/M0rucf8DpmfarPmjvWeXZux7K9xN6fL19huvEzxSdbnb1/tJ/Nrfo539VWOq6+DC5GUv3O1fm2nXJevMr/b/1Us+9242uUAAPheLj4AAL7BnQOxrjZj08Hc1H/W1aFgJ/M5XrF8au0uV/NZm2ss04FtF8+D+jys755ubsY6+a7dHr+aC42aW7EpnrGv5rvV2KncV7fnLtaNM1f9aP4R9Hzf3FONLZnL/IrnuIt1/V1syXfI3DRe86b379bM+qytptj6c+nyyy63083rYo9mf7n/KuPT3nPN0343rna53f/OAQB4LxcfAADfYHcY1unqu9irpoO47tCvi3Uyl/Myv6xcV1/fIZ8qY5l/DHvO2I/mQqM+NV7bKbaTe9vF6rMuNbrLjV1uxXe/n3Ivu3H2u2+W466/fA0H8PW9p9zqd3s8bZfdeJer44wv3ft1uRrLcddexbK/i3VO66qr355M+8ink3Om2JQ/GXdOagAA+DlcfAAAfINnDsC6g7zugO6Z/mM4ZE4550TOmd5h7a97srbWd/1drLbZf1xcVGQsa/PQPuPZdvId1z7qe66LiprrnqsLj5PnrrrHqd/VZuxUfcfVr23GpnjudYpPsUcTz9+8ynXvVWu6XMZOctmmq/j6M8q6+meXuccTf7ZX6j6635t032jqd7HTMQAAvw8XHwAA3+CVA7KcOx3MZd07nRwKVlNdt84a16eLZT5rMrb6d+VhbXeYX8f1mepqv3unac81111m5EVHV3P65LtUXezR7G3Xr7E1zlha+fz97n1re5Wvsr7Ga5vxXaybO9V04zp/6tfamqv5qZ1c5X+13Mfp+2bd7lud9ncxAAB+PRcfAADfoB6uTc9O5qfDuPo7GTuRB9F35lY5L99r9361JvunsezXdXdODulXPw/uM5ZrdH6Ui5Du/ab9fd245Kh105xcu47ruyy7veU3qf2rb5PftKq/n+P6zqvt8lXW1HjX78apm3v3d7q9rLautesvu1ja1azx+rPJfLXLdZ6t7/Y+yfy017v9XQwAgF/LxQcAwDfIw7rO1QFe5p45jOtiy3TgvJzsoereb2pXv8brcxLLdTOW+cylPLTfxfLAPuu7XCf3mE+tuar/I/7B8+nSI5/uN05Me52+TTfOXMp3qeN837qHHOc6mV/jzO/G1S73uPHeuU7OO33nXU3V5brYrzbtK79H1kyxXOdOfxcDAODXcfEBAPANugO5ya424zl+NXYl5+Q4dYeFtc1YjeeT+TqvazO2TPHOdLmR/azpDvOvDvVP5DfpnrzweOXJ363jK9N+X/0++dvde+1q6jjbyZ381J9075CxXKeL19h6Mpf9bnwSq39WXe1jE3+H3E/+VvcNUq5x1c9x5qYYAAC/hosPAIBvcHUI15nqM77G3aFc1t6xO9zM8U6+S9dmrMa7/C7WrZFy7k4ezNeD+3rRkYf5U7y2tb97l/wW0/PqhUf9vdpmPPvdfjLWfYs6vuP0vbKf85asy343b5d73Mjv+jmue8g2Y/WpuvG0xpWTmlfs/m8j37Or2cn67hvs+t14igEA8P1cfAAAfIM8XDw1zetij+GQbmp3dgfSJ/Or6Z2mfjenq63jfDJX67v+lekwP/snB/zdWle6PU2x7nnmP3m1nvob9V2yP5n22cW72GT3HtP7XuWnftrl7qjvUWO7/ivv3sWv1ko1V/+8Vjz/DHdrPZr6SbdOvnv9Nleybjee+t14meIAAHwPFx8AAN8gD+ju6g70psO4rOu8+j6Pm2tkbW2nfm1rfnqypupqVn/n6sIiLzqyn3V13NVM79O9b+6je/LC412XHqtdcjzJQ+4cT7HJerfu25289xTbWb/Xmdaa4qnW1XfO98/Y1K+x7h0y1v1+1cUem3hn1U7fcJny+Vu539XPupT53XiX68bLFAcA4Odz8QEA8A26w7ln5PzpcC5/L9u78hDymXXyHb6aA9scZ+7quZpb1ZpO7rleXky5zHfxOr4j97X88ccf/yT/1Vx4ZOzkyTWXmqty/Nhc8OQ3yO+R48n0LsvuvXNO7nPFrvrd+I5p3el96vtf9bvxFFtyrc4Uf5Rc/hnu5qScm3J/td+Nu1gn4zlvynXjZYoDAPBzufgAAPgG6/DrHYdgucZ0OJe/edqm3SFkNyfrd++0+uuZxhnPfMZqPNfIts5ZTg7l6wF+V5+5rOnidbza3TtnrOa6y4/TJ9esv5Xv0Knvnvue7L7Ju+QeujbzV7HJM7XZZn71a92un+vV2JX8zc6K5/9WT0y1p3/23ftlW53sPfO7ceam2GMTBwDg53HxAQDwDa4OzO7KQ7yrfrbvdrXu9E45b8W6moxlbvdkzbT2znSAn4f1tb2Kdfmd+p75/vk84vLj2af+7hRPU/zEj3/4z1ZdfYufLfdwNX7VtF6N55/DLr76WXf1VDl3yt3x7LxO9361vftbXX33G9N4ij02cQAAfg4XHwAA32B3ePaKXDcP/yZZd1W/dIfRp3Mfw++t9851ajznTbk74yXXzn7qvkFeZkyXGvnUfNZOch91XOPrP4H17H/qaves361tyvj/9r/9b4//6r/6rx7/9X/9Xz/+7u/+7vGv/tW/+if56kf5Nzumb5Hrn6rzpj3k+ESuW98719vllvzWJ++66rraLtap89d4p+bXvq7mLKd1O927Zuz0d7q6jF2Np9hjEwcA4P1cfAAAfIM8iLvjqj7zefh31Va73JXTubUua1csn8xl/ep3sZyT8Zy/011MnMTWRUcXr/m7pn2sfr38WG3O6Z5cZ9eufuff/Jt/8/gv/ov/4vHP//k/z9Tj7/7u7x7/4l/8i8d/89/8N49/+S//Zabb7zmp77B7n2VXn+Nn/Gj+sfUrWT+9Y/4ZdP38c5nmdLU13/WrKX6im9vFTnTvmvs6WXuqyfjdcbrKAwDwOhcfAADfIA+6ctypB3erP83LeJ130ma/0x0+P3PA+7j5u4/Yf/fu9R/4rvVTv8aypsZqm/3uYD4vOLrYrs152c93TLu93r38uHryd9P/+D/+jxkaTZcfne63ll0udbUZq+PVz5q7dvPrt802+zm+6p/E6lNjWZumXBev/7teurrJVJt7mfp1T+k0fjWeYtVVHgCA17j4AAD4BnnIleO0y0+Hdxlb/at26uf6VXd4Oam13e+s/p0n50zjbPOp8Vq71HHmlu7iYte/aq++bfceua/pqRdEd581r87P2PLf/Xf3/58Y3eXH1be4Ut9zjVP3/t14ir2qW7OLPQ7ftaupsV08c7lW/m7n6+a/z5Jr5njS1eV7ZlvVPde9drpcxnI8xQAA+B4uPgAAvkF3ANbFll2u6upqLA/+sp36V7FXvbrmV3Nomc+ubuWyXf3UxWusu7hY/d3lRj0gztjJJcgyvd8zT87N8RRf4//yv/wvy1vc011+nFi/n/0aq+9Y450u3sVe0a3XxR4lnvncV9Z1e111WZP5bl5tp3yny3X/2866HHeyJt9n2tddOTfHd2IAAPx8Lj4AAL5Bd/jVxZZdLnUHenXcHQBONbv+5OQAs9O9x2TtcXpOavKZ5qRau5MXFtOlRva7+qXW1rZ7l2lPu9wzT65Tx//5f/6f/+P7PGt3+bF+bxpX9d1SvnuN/won75A1+e27fjev1u1yU6zGO7vczsn6p/Hu/TN3VzfvlRgAAD+Xiw8AgG8wHXzdje98bQ4n8wCwy532f4bd+plb+8xnlzt56vp1rRqr/TsXFauflx5Zm7E7undc/ZNn1e7+DZC6Xq7/eDwe//F//B//Y/wV//1//9//Y//rxn86qb5XjjNXY5nLeOZ3flz8uzcr1+3pZN5Vfz01l+tmTa6R8Wyzv4tVV/lHU5PjpYt375ft6nfzd7r609hjEwcA4Odw8QEA8A12h15TbopfyQO+7Ge76+c4c3l4W8dZ+2jqd2svVzVfzSHu6TPNX/2MXcmLjqntYie55cdwuD69ez673Ct1/9F/9B/947u84l/9q3+Vocej+d/XGq93qKZYxuv717azy1X1PdMut0y/k+/f9VdN7mdqq8xN7XIVf0WukeMl43Wc7/fVfL+cP5nqungXe2ziAAC8n4sPAIBvMh163Y2fmA73pjb7V+Nu/tWB7pTP36kyl+/Qjeu7nTx13Zxb5bia9paXFicXG7uaEyd76PZ/5+nW+k/+k/+k/NJr/u7v/m68/Hhc/Fk8mnx97ymf/S62U/+srurv/HlWue7aV77z1NY5mc+a2l7Fqq4u7XKdrM9xxrp+F6vjjFXP5O7GAQB4LxcfAADfaDr06uJdLO0O7DKXB4BdLvsn48462D2prbJ+Guf7ds8ul/mptqtJ9RC7O9A+udCouRxP7U73zrm33bPq63/2qlujrv8f/of/4T/8+nv8D//D//D4iv/M1fqtLpb9k9jV3M5VXb7zs6bf2b1z/XOpscxlv8am9bN+F8+aKnNrPH2z3bq7cdfvYtXXxTeYdDVd7LGJAwDwXi4+AAC+0XTodTf+aA7x8sCu5rKf7a4/xXK8nBxgZs3ut7vcFMtnimc+6+raXV2V40ezvxrr2i7WtUsX/9H8TYPu/Wu823v3dDUZ+w/+g//gH9d/h//pf/qfMvQ31nt0sZrLd66ucu+Wf5aTXV195xxnmzU1n7W1Jtfv+jne5dIu17nzO11ttqufc5ddLk11d+MAALyPiw8AgG82HXp18S722MQfw4FdHvZ1bfa78TLFXzGtmfF8766tT8auxt2z5PhKXlBM7ernk7W7w/Aq33HaZ8ZyvGK7v/mxxv/sn/2zf/i19/jX//pfZ+gfrd+dxtUu94hvU9tql7tjXU5Nf4673E59r65f2/XUca3fjVes66f87aXbX62p+W6NqZ/jrl/bLv+saf4Uf1zkAAB4nYsPAIBfYDr06uKnsdQd7nUHgLXN/i722MQfwwHnqVy3e7/aZqyrrU8Xy6fWdP0qx2m6yOhyU7/K+I/hb3vkON9/2u8U69ZZ/b//+79/2+XHf/qf/qePR+yh9idX9dO7r/FV/xXrzyj/LE+sOdN71T1lbPVz37txzl8yluOMdfm0q8lvNa19p9/Fsv+Maf4Uf1zkAAB4jYsPAIBfpDv0eiU2+RoOeKc269Ld+M7uYDPlHvK9M5b9HGfupC77qYvnHmus5rqLjox1a+1075N7qbHMnY5X7N//9//9f/iV1/ybf/NvHl8XlwTrN6dxjdVcF7uTq/2urnN66XGVX+rvT++wcl3tlMt91Xj+To6rzOW4c1Kz1No7/Wy7/p33qHbzptwUBwDgdS4+AAB+oe7g6ySW4xN5wLdrs24na3L8uHGgeyXf86s5vO3y9elqT59cu5riS36DvORY/YxnrMvv1Hfv4tPerp6u7t/79/69f/Ibz/pf/pf/5fEYvmXGTscZX3JPNd71J7Um/0y/Li49sj51v9/FHmU/q59t9qdxxvK5UtetbWeX28l3nWJdvsvVccau7Oqn3BQHAOB1Lj4AAH6x7vArYzmeYlfqgd5VW3WxTlfXHeR21gHx0q31GN4z9zWNu/hU09VnbcpYjh/DIXfGMl5jXV2N1X79/Xz/KZ776/pTzb/9t//25cuPf/7P//k/WXep/StZm+t066cu18VekX9eXb/7zS625F4z1+2/tl1NrnMq189+2uWW3ZpdrMtnm/1dbHJV2+W7GAAA7+HiAwDgN9AdgGXsarx8DYfTWVNrayz71RTvdLV5UL9M8Un3/nXc7WvKPdtf49pmf9Idcmcs49nu+pN8z9xPren2neOu/pXLj3/xL/7FP/bzvVLuJe1i+f7Zv5qbsWd0f17rz/1r8zdETn4/95B7rPHs13aKnTzTund8bb7D0q3f9a/a1c/37PaUdrmlq+liAAC8h4sPAIBvsA4zdzJ/d7x08e7wrut3sbumeVcHmHfV/dT95R7uxnLN1e9i2c/6K3lxMY27b5e1U+5E7qOL5ZO5On7m8uNf/st/maF/It8r49nPcc7PNvudq/yp7s8n/zy/mkP/7l27d8rYV/w51ZrT2OrnOpOcl7GdXV1+k9T9Vsamdsnxkvuv/RNZm2MAAN7HxQcAwDebDru6eMauxlOsqvk8xOvyr8o1rg4uaz7ndrqata/61NqMdc9Ut+uvcdff7btecOQBeJfrYnXOM7o91XFXs5t75/Ljf/6f/+cMPR7xG6dyTr7nrq11dU+Zm8ZfzWVFusovXV0X6+SfRcp9Z00Xz1j9RvWpaizb1OWn2tTNnXJX7ZLjdJXv5JwcAwDwPi4+AAB+genAq4tnrI4zN8XS13BYn232f7arg92Vz3fK/XRWTe6tex6Px+OPP/64rMs5tf7UtOfpkqOL55xX1Hfv9nin/2//7b99/D//z//z+Pu///vHP/tn/+wf1308Ho//9X/9Xx//x//xfzz+9//9f//HOZ3ufbp4tRuvNaZ1Mp71OedE92dVXeW/Li5UuveZYrmPaZz7z1jmlhXLdWub/c5Vfid/72qtaT9X8+7K9XIMAMD7uPgAAPhFpkOvLr47jLsa79SDvqnN/s50ONvNn2qXle/mPob42s/Vc1K7q6m5+ttd2+n23h1+Z13mcnzSnpj29Ux/jf/+7//+8X//3//34//6v/6vx//5f/6f/7D6387p1JpU41N/Gne/m7819XP8dXE5MeWmePVj+E9fXen22LVZN9UsU77W1HjW1nznpOYZ+Q7T72T/Z7xD9gEAeC8XHwAAv9B08JXx3XiXS9MhXj0InNbu5lV3D2WrNXf9xp21rt5rWXvLvT77XK27+nd0lxQ/hguOrn/nuz3KgXqn20Puraup4/w2Xb6T8RwvXTzft8vl+2XtVSzXfdbuzyv/POufVc7L8dLtI8ddP/e4xl0866/qanulW2M53fNpu+t342ftfgMAgPdx8QEA8ItNh18Z3413uTXO+im2+rWtNZ3pEHJZ+W7+1dwTuZeqy+X+6/jk6ebkb9X+zm7/efB9mptik3zP3EPNT3vMNvvdeOnmZO2d8dRf43zvjK34rp/rLlM+/zxyvEzxx5DrYlW+x4pN++2+S44znu3U79oTd2p38rez3fW78TN26wMA8D4uPgAAfgPTAVjGp0OzXV03rr4ODkBTje0OXne5TndBUtfo3qXKfI5XLJ8pfuepa+TvpS5W5aXGNN71a/2kvke+025fU+4qNs3v8s/0u1jms591OU7db2XuWSd/blN8J/edulz9PjWfNdnvarOfczp36zvdGpPpd3Ju3cuz7rwXAADPcfEBAPAb6Q7CMjYdyk39btypB3pTW3Wx6u4BbVffxZaam/ae75jjJfee/e6ZanPeGl/Jvea4xrLd9asuXt+t6+eeav4qdxVb8a7dxXLc1XSxGs9cV5exrJvscpPuz2Zyp3b3zt2eaixzXTv1u3Wm9kTW1vHJ98jfzDb7VRev+7ur+20AAN7LxQcAwG+mOwzbHc5Nual/pR7KPbtG5+Rw8rG50Lia371rvnPWdE/NTXWPx+Pxxx9//JM1c07OTVlb/Wj+7Y3usiNzU7+bM6m/m++Ye8k957jWdaZ41a13Ypo3vdf0/rXNms4ul6Y/l+7PLWtz/Nj89km82+9Us/r5Lbp+rck2+5O79ad275O/k+Nliu9MvwEAwPu4+AAA+A11B2Ld4dxpvxuv2Hq6+OrX9lfoDnmvdO/bfZ/6DfJbdPGuP9XkWukq/zg4/K6H5Jlf8a5fx/nb3Xvl3mo+a7K+WvVdvGu7WDe3y3WxHNf3yfoay3k7WZfjzvRnM/WzfpJ7uspl3a5mfZ/dd8r52Wa/yng390pX+2wsx0vuf+dk3wAAvM7FBwDAb6o7FJsOze72p3Ee4K1+tq86ObSdarrD+h/N35Do7PaWsXwynuPpqXWTXW7J73EyzthOvkMd132sNvM57nL5G8vd+KP5jdrPcbbZ39VP/Tq3W6fW3nX153aVf2zeOeV75/7uxrq1sj5z3Tidztt9m6w9iWU+x1Xuv7NbGwCA93HxAQDwG+sOxqaDs67fxaZxVQ/wpvbKad0du0PN5ep3cx9d+8pT1+j6u1ia9lvjWTNdeKxYl1vyHeo437PuIa1cN78bd/2sX7I2x1WuVeunuV17VVs9m3sMfzbdn2eOlyle5W/nPmv8TixlrNv71D9xtz51v93Fst+N0/om3ZN1AAD8HC4+AAB+c3k4thvfOcDLdTp1vW7td7g6rJ3yU/xK7qNr69PFpqfWdv1dbKn9zrTv6WJjii8/4m/L5O93ua4mc1fzdrGU8Rx3cv3pdzL/dfHnmvW7XNbsrD+HvOjIP7ccv2r3rlNst98az7m7fjfOWP5e9t9hWjt/J8fPeMcaAAD0XHwAAHyzPLg8OfzKmmk8HdRd5Xe+hgPOd8hvkab8FJ9Mh/u7vWVuGl/Fu5pdu+S42/PJAXnGO9P36ca7freXbq2M7ezW6uzeI8fZntTUtotNv3/i5M/qVK7VvXPXz3fOWJev/e7Z1U+5E7u1lme/w1V/jTN2xytzAQDYc/EBAPAb2R2EZW46kOv6XSz7a5xP1ma7082f5AHlo8zpcks9tK913e9N71P32rWZv4rV3LTWlE9d7HHxTZbTmq9/+JsGVf7uNM54xjKf44xN/VPdnPquuX59pnidX2t2/Wwz/4wfzX/2asWv7Gqu3nX6Drt9pzq/xnbjZfc705yfpfu9Lnbi2XkAAFxz8QEA8I12h4/L7jAsc92BYO2fxqbxitW53TrLaewV00XHqdz/NM49d8/j8Xj88ccffzP/am6tz36NVTVev8EaV9MBeVXzud6SsRwv07vn/nKc/S5WdXWd9VtdXY13bTc3413Nqrvq37H+jKY/z/wzPNXVdt8gczne1dZczq91V7Fl+o2M3TWtMfW78RS78swcAADOuPgAAPhN7Q7FpkO5rp/tFOvG1Vc5wMy2q+nkvKm2O5h9bOKPzeH9o/md/P313tO4xrp8HXexNa5r7fo1dtfuGz02h+XT98tYjpfcR9bleMW6+Klpbsbzd+p46tdxzXe57ve6cbY1P/25TfFluhSZ7GrzvZb63rtvkPvLeLdGjT8r1/8Zct0cT7Gdu/UAAJxz8QEA8JubDsemw76uP7W7/iTX6ObnOjne2R3MLlmT4ylW7d51PXWc+dXPOflM+VxrybVPXO310VxyTP3u9/Ndcnxlqp/inavazE/vn98+x5mbYjXetUuO32V34THFT9S91Vi2Gau6XLfuMsVTrte1mU9X36b7jdPxFJvcqQUA4B4XHwAA3+jZg65p3nRI1x0GZizb7K9xfTK++jXe9et4ajtXh5R3dL9T32HK515PY1Mu41nftTv1smKNM1/7Of6Kv21QY/nOVY4ztttD3fuzut/q+jnetatf59V2F+viNdfVXFl/Lvnnk7FOl1+/mbnuXbr9Zr+Ouz13ue65Y1o/Y+/yzHqnc07rAAC4z8UHAMCfSHdQNh365aFgtl0s1+/Gu/ldP8dZc5Kb5AFujk/k++WTuaqrPYnV+G6trKn7q/FJvcSYvs3dy48cp4x19VnzLrl+/k59/66tz8+ILbXmSv657GQ+x1e698nYtK+M5x6z/hX5u1PsWbv5mcvxcrLfqzwAAM9z8QEA8CfTHZZNh355KHjV7vpVPdTLA75uThd7DL/fuXuAW51cFkzxR9lft+eMdbmTuozXNvtpl3scfrvu8qNz593q3tb4Z9n9zpSr75fxmu/G3ZM13bpTrtY8Iy+2Vv/qz3PJ363vmbr4tKfc/2rvPp2T+FRzV65zNa6ezQEA8BoXHwAA3+wdh13dGtOB3+rfbbPf+WoOcqc5mc82+3fkAW+OT5z+du55Guf+rmoyVudk/8oz+19O5+a77pzWvVN+uxxnPL//Vb+Os53yXewVuwuOk1j+/tW4xnKfXa7a5a50v7Xiuzbrfqbdb0y5KQ4AwOtcfAAA/InlwVkdd4eAGTttl69yAHmybsp8tlmX8uD2VWu96T2qbu/5Dbp899S5Ga+57P9Z5B47u9wdX5u/qTL9Rn7vFau5bvxMLtfu2vS12VM6rVum+vouU7+OM565fDKfdaeytlszc1XGpu+Rcl6Op9jS5boYAADv4eIDAOAXeOeBV67VHfw92+76a1zndPNT1lytv1MPLbsDzIzluOreZ40zlvHVz71kzdRmbNc/8SP+bY4TXzcO2+/K/XXv1sVOvfKtHs175Z9Nt37mruJZk7Gdr82fTcav/m/isYk/hveZ3rfuNeOd3H+dl2vlmlXGu3Uzd9fJvK6miy25p10tAACvcfEBAPAB8gCtO1x7tc1+VQ/0su1kTdZejXcHt++w9pO/28m6Orfub/esmtru+le+mn+Y/FndO1ytW/98rmofB+/7M/68r75/5qbnTr6un/1dbDJ9lx+bf8y+2tXke9Q91Fgn951z81t0NcuU62IrftV/1ukaV3W5fwAA3s/FBwDAL/LuQ69crzv0u9Pu5k/qvJPa2mb/ZPwoh7cr1x3mdrFXrH3WJ+NrnPEul+tmv+ZPfW3+lkC6U9vJ98pxxqb87vKjOn3X3VqZm7599rOtz2ku+52rfGd9l+77dLHHJn4q95l7zH1kfrXZz3lZV2O1Pe2/y7TmFF+u8gAAvMbFBwDAh5kO+vKAsGu7WNcua06dW+u6+m7czU0nNafecdibum8wfZvTZ9V37Xc4+a2ppsZPata4/tnkpdYrujW6b53vnbl8TnLZrv4k59z53+uu9tnczrSX3EPuu+t3NRmb6mp7Gt+Zvkc3t4sBAPBrufgAAPiF7hyY5UHcbm53KFj7XdvFdm3217hbc42v4lWOlyn++IdvtPL5vWpsWqPO38mabt8Z6+rq/Gfad/i68bc9unc+dVr/ym+cmtbtvu/XwZ/nSS5rpqf+bufrxp/Xo/m/gxynq3wn333FMt/ts9bWXNbleMWyP7XZ38Xe5WeuDQDAnosPAIA/gd1h5HS4Nh345YHgVa6LZX26mpfjqd+NJ7tvtDNddnSxqnvnte/MZTxjNV7nZZv1d3XzTvf/NRy4Z12N7XLZX+N8n6x5DH/WOW+S77b7raz52vy57Z6upsaqzL9Dfq8cd7qaGqvvlvvJ9+5iy26d7E/j7E9t9t9pWneKAwDwc7n4AAD4xd51MNatMx345YFgPUy8inXtpK6xxpm/6qddbqmH4FcHuFWunePq6n3rN8raXazOq/nsd7+589VcKkxW7Su697zz2ye1j/JnuXvnq7Xqd89xbadY5qa6jGW7q7srv8WP8g+eZ+5EN6e+W333qqvJvWZtfpPs5zj7uzb73+G7fw8AABcfAADf4urg6yp/R641HfhdHRqexqpVU2trXdavWJfvajtZ1x3Q/izTe3d7qvEu1s3PNWpNF7/yFZcKp/O7ummN3M+KnYzr+02XH+/88+3WfzR7q3ta/V3s6tn9Tv5ejVdfm4uepeZPLz3qb13VPpp3q+++y6Vuv933yDW6/lW75PhVu/V2OQAA3s/FBwDAN/nOg6/ut7rDv64/xTKfbfbXOOuyZunyU+0zTg5xp8P2SfeuGcv1dnVZ38Wn9tRUf7reLn+Sy/3tXP2ZXeWfle9V3z33sWI5nnIZX7HM1zZ18RXLb/Kj/E2Pn6V739075v6zNtfLeVf9XZv9bgwAwJ+fiw8AgG+0O2B7NreT86ZDwIxn7Cq/5O8tU32aanJ84uSw96TmSr5z965r/913qLGpNuum9t1y3Xyfrs18N87cqas/r2f+hsMk/wxqm/1u/Ey8/k7273h2z3fku3Xvn3LfnW7/XTv1T9rsd+Nn7dbZ5QAAeC8XHwAA32x3+LXLPSvX7A4Bp3jX/zo4aFxqbc1nLMdZk7ndwW43r9rN7az63br5zrmfjK9Y5uo452ZNt+avkr+d73zV38Um+eeY4ytXv5X5/Obdn8M03uW68YrtZD73310Cnehq87eq7p1zLzVX+3Xfuzm7totlLuMZq7rYO/3s9QEA+HdcfAAA/ALPHH49M2fJud0h4BTPftZ0sa7f1de6q9hddW49zJ3W/HHzP3OV8p27NtfPmtW/Gmc827ty/vSbu/5VrIs/hvpXdYf3qavJd1nv3X2XjNXcH3/88Te12c85XWyZ4lfeefmR8l3qPmqse++uNuU62a/rdm0XW6Z+6nLPfJt0lQcA4HUuPgAAfjM/81CsO/DbtV1/V9O11a7+JP9uu0PMk7/pkXbfZVdTx5nv1smajJ3q1ux0a3f1Gavv94yvzT/gPR3qZ/3V+DG890m8a0+frr6LrfiStXd0e59MtfmbdXz6XlmX+835u9/INTLWtdnvxgAA/Lm5+AAA+EV2B2273Ku6w7+pverX+qu51VRf8117JQ9rc17m3y3fN9tal7na1vqsvcrX9kSuV+1yVVdzGuusuh//8Ldwnv1zy3nTenWc7zh90xrPfs6p8YxlXdZPck6XewzfIHWxE/V38n2691py3q720dS/o81+N/6ZvvO3AAD+ilx8AAD8QncPv+7WT04O/6aar+bgPfvZrv40N9+hy3U1P8Ozh8BLvm/XTrEul3Ouxtleybppfhfv+hmb4pNd7lH+fOqfU8a6P8Pp0mOye98ul3vtnl1uquvm5G9fyT3neIotXe7kPU7i3R5rLteo9VPstM1+N37Wu9YBAOA5Lj4AAH6x6YDsbny5OqTsYpmfDghz3OWyf6c+ZW6qe8Y6CF/9pfuN7pC9q1ty/7nfjC1dTc2djrO9knVX4xrLd8jYJN8/rVz3v+cutnO3fpneb7177reLT+OMZ/4qnjXv8Ox3Wrp3qu9aY9nPWM5Zsu5OexWruhgAAH8eLj4AAH4D0yHbFH9Wt153EHgSX/1pPLVVV5/xmuvWuHJyUXHHtE69SHnEO+f7d3U5nuZ3c09jk2n9mrsad79X1+ti3fgd1p/57iC/u8xKUzzff2qzv4t1ud16XZtqfNrLXbnOyW+vcd1D5mrNJHPd/jM2tbv+LgYAwJ+Diw8AgN/EdMjWxbvYqW7udABYDwu7eB13+RrPOdVu/i52JQ9pT3QH4ie/+fUP/xml7p1rP9uMdfFdTc1nvMYyV025jOdaXb6LTbnM72I700VHxn/8+NHWfN34T2A9hvdb+8tcja/YH3/80cZPxrv2Z1hr5/fJ8SvvknPrvvMbVDXWrXEnN42nGAAAvzcXHwAA32A6uEsnNe+SvzUdBu763Rr1cLH2a1vzGZvqpvyr8gD3HfL9s5/73uW6fvdNMl7tarM+a7KfsZy/TPGlm5trd77KJcW7/uy6dabfX7p3rW3dXxfP/BTLfq6Xsc7K1X1+HV72dDU11uWX3TtVuY+TeVmz+yansWm8THEAAH4/Lj4AAL5Bd9g26WpOY49NfDIdAJ7017iLdfmM72qmNbOtutjPsP6WQMo9Tf1pD1Ou6+9qc1ztcsu0xhTr4lnTtamLd7FH8zc1ajsdzNdctmmK5/6m8erns8tlfqpd8WoaZ7wz7fVKfttX5PvmfqurWK51Fct+N16mOAAAvxcXHwAA32B3wNbpak5jz5je76RfY1mT466t6pyr/BrvZL47nM2aarrg2Mn6up/u3bN+yk11XW3Nd7mTdbtxxlNXl7Hadv0lx528/EhT/FSdv9tTjU/7mmLT+CS+5Lizap75Js/MuavuIfe42/uS9dnvYrt+N067/Hd8MwAAZi4+AAC+QR6Q5fjUs/NO5NonB4Y5Z8VzXNfq1k1XNfkeU+6uq8PKlb/7G9P77vbZ5a5iV/mqq6l2+Vyzq93FpvXSFD+Rf5ZrPLVZN8l3+mouKbLd9buny3exmuvUeXfU+qvv8U75vlf7W7Kmjq/6u7ndeLLqvvN7AQAwc/EBAPANusOzq0O9Xa7q6rrYqavDwVw7xyuW8RrLtuZrrsvXcW2rri77nav8ld3FyPQeJ/t4pr6bc9qv466mrp/taayukTXTuFq57qD5R/xNnVqTFx5drpO5k3db/d2TNXVc1+pyJ2pt7df9fMXfmsm9drHuHbLmrnzX3HP3m1exu/2TMQAAvz8XHwAA32B3cHY3dxp7RXco2MWm8fLVHFjW9bp45rq2i+3s8rvLild06+Ues7+bs6vv5i1drlsr+924xmqbscxPsd3c7rcnV5cYJwfyXc1pLK33n/aZ/W48Pbs18llq/xUne6/u1j+G/41kvttjlfHpW0z9kzEAAL83Fx8AAN/g6tBsl+9yXSyd1Ox0h4JdrI4zVtV89mtbdXU117WZT1N8qfkf5W8OvHKIO8W6/m7Orn5qVz/XncY5b7V1jd3ck/k1V8dZ84zuEmTKZZt12T/V7TO/3zTuYtM44yu2XI13ntn3O9R3zD2eytpuzeznOHNTDACA35OLDwCAb3ByYLar6XIZy/GV7mAz1+gOArtY9XVxSJnzu3XTVJPxKZ/9Z3TzuwPyrMtxxrp+N+cx5DNW226djNW6bLPfxTKfv5v9q3H2c/208t2fRY6v2l3/ju7d114z18W7J3PdGlPN6tc5k6/NPxZfZc3VusvJvG5/q+3qqy6fsel77OqqKQ4AwO/DxQcAwDc4PSjb1XW5jF2NT3RzVizb7Fdfm0PKzE3r1rqck3V1nPnsZ807dL8zjTPW9XNON87YJNfMtspctl0s36WOu3aqrXXVVNPVviIP5a/Gj807TN8g49mfak5i05o1n/0q43W/NZffIec9I9fI9873n55OxnfjXa6a4gAA/B5cfAAAfIM7h2S72i6XsavxqZy3xtlmP31tDiVrPGuy3/1utcvvYl3uR/zj2Kd2c7pc7jH7OSfHS9ZnW53Ecn5t8z1z3OW6+VO7rNpcc9fPA/mUf8Pjx48ffxPLfo6ny4Ap1r1n3VvdY9fvxrlmrTlpO7vcpPt2jyfXejTz8r1z76dyzqvjZYoDAPDrufgAAPgGdw/IdvW73M9Qf687iMzczjq4zNoay7bqcl3/dG7mHjcPce9ekHS13fvXfs7paqZ+bXOdms9+He/WmObnnPpM+YzXdsl45nfyz/WueklSY0t9l+n9uvH07PJTrq67a3eyJvd8JedXu9zS7WP1c++nutqM5W+lLvbYxAEA+LVcfAAAfINnDsd2h3sZvzu+qzsUzHb1T3+rq801M79i3W/mnG7usqvpYlV3EHw1p+pqcz/ZzzldzV131v5qDp27upxz0q5+xqd8jXX9O7q/8VHbjD1jvXu+b93nNN7lctzl6u9l7K5nv8HVb3b53btnrptfTfmMX42n2LLLAQDw/Vx8AAB8g1cOxaa5GX91fCUPHKdcN975isPLOs51su4qdmd+1p54Zs5jmNe9W+2fzMnxrt3p1sl+tX47f+OkvZqX/RqrViz/FsZ0YJ/xvOSo+aztrJrcQyf3MY0z18VyXOMr1/Wv7Gq7XPfdsi7HVea698791vz0TDKX4zuxZZcDAOB7ufgAAPgGrx6ITfMzfjV+h7rm1O/GV/KgcvW7tovVeV285rM/tZ3M5fhUN697t6nfzV92uSXX6eZMsYx341y3a6/6Oc7fOdVdYnSxTtbtah8Xay3dnlZsN865XTyfKscpf+udujWvYl2/iz2jm5uxHE+x6ioPAMD3cPEBAPAN3nEYNq2R8RxXmcvxqenwMdfL8Ymv5vC35qa6dJKr/azL8c/Q/Ub3bjmearK+xrJNmZ/qlq/mcL2Os5/t1F8ylrk67uzyeZmRue5ypBs/a7en+mQu52Ztzlum+JXTOV+bv1nzaNa5Gmds2nv27+jmvBJLJzUAAPw8Lj4AAL7Buw7BpnUy3h0ano5PTb+R6329cDC55mVbvZrb9dOPm/+Y+Ul9l+/eJ9sqY11t1ixTfLnKV1+bg/gpNuXzyfqu9lV5eD9dkEz9U7mf3TjbzE+x7KecV+O1vdLV7b5Jrc+5u3H3XtnP+TtTbRc/jaWTGgAAfg4XHwAA3+CdB2DTWlP8cZHbyQPMbp2rA8ld7ERdf1rjKlfbLpfjbDu73PL1D/8/4a9qu/wu1uUem3i1W6PGpv5O1uVvfQ2H8hmb4ruarKuxJf/3vHR/w2Pq11gXfzTfodPV5F5Wm/vdxeo4c1m3ZKzO3bnKp+43sp/jrt/F6jhjaZfvcl3ssYlXJzUAALyfiw8AgG/w7sOvk/Wy5uqw8I6sX+OMp3ooufq7Z5pXZV3t55yc2+WmNvvduPP1hsuP6R2mfh1n/K7db1RZl7VTvrZTfJqT+V2sM11u5IVGXoxkPu3y+Z7Tvq9qsr6r28U7Oa/rP4b9Zc1jqHts1s416t66WNevddOzM+XvxtNpHQAA7+HiAwDgG/yMQ69uzYztxpm7K+evcbadXa76ag5xp7aLZTv9blfbtZ1dbvl68+XHSXzSzZti01pdPOd2/Tqu669+vke+QzfO/tQueRjfXWZM/S7W5Tu7d626va9+fbJ2mjP1c63laty5qjn5RnWNq34Xy/6zpjWm+OMil+7UAgDwPBcfAADf4GcddnXrZizH1TsODbs1sn3VV3NwW3PZ79qMpcxftXd9vfHyI9udO7WTOnda76rmq/kzWLFnc9mvNV1/OoCfLjLqpcidC5L8nXyPKVfH3d5znPHMZV3W15pufrYnsja/RdWt3/VPY6uf73DHbu6Um+KTu/UAANzn4gMA4Bv8zIOubu2M5cHgJHM5nnTrZ/sOu9+p8V2uiy+Zzzbr7jqdl3W7fWftFEu7mu73TsbZr0+N1dopN40zlvkqx++Wh/r1giTjqb5b9/67Pddxrc+2i3W5q3Uyt+S+Mp+yPnW/tYt1uTrO2IndnGdzAAB8PxcfAADf4GcfinWHfLvx1H/VtNYUf0bda7bVlJviS+azzbp3yfV24+6dsj5jUz/Hmasyl+9xtc5Xc3Cfc7qabKd+6mLVyu8O5PNve0x/82O3xmT3fpnLPXfj/BZdbJfv+rW+jq/2m3Ou6qurd8626y9dbOeqdpff5QAA+F4uPgAAvsF3HYjl7+zGJ/1ufGVa6+46V9Z6X5uDzVpzEl8yP+1jmv+sXC/3dtXP+T/L7re7tu4jx1lbYzkna7tY5p7VXXB8p2kva5z772LT/Ks2Y9m/cqd22c3J98l216+xLl5d5R8HNVd5AAC+h4sPAIBv8J2HYflbu/FJ/xnTWq+um+ph5rR2rcl4bVPmf/Y+dv0utuunq7outnTvMMnabs70Ll9xeF/XmJ66RrfWq6a/1TH1qy52x7T/u7HM1XjW7Nrsn8o5V98lf/e03fWrr+Z/R+s5cVV3lQcA4Hu4+AAA+AbffRiWv7cb3+3fsea9Y61HHFpmvLarn+PUzasy3603zb0r18t1135+NP9A+jRnii1TbrdetcvXNepTc1mX7TSvq6njXc1Sx6t/dSh/YroIWb4O/jNRS77zkvvp9nryHbr+1GZ/crf+FVfvmPt9l6s1r/IAAPx8Lj4AAL7Jq4dh6xDvdJ2s240z19nVrIPcrmbF7v5eyjn5LbpxxnONzHdy7vQbz8h5Oe5MNd17VRn7unEAn7q1pn7Wrvjdtq7VtV2/1nS5zF/JvwFy1X9V7in3ObW72szVfNZmLPs7J3OuvlW+S7bV7vdy/KqT9U5qAAD4eVx8AAB8o1cOw/Jg72StrMlxJ3/nSnd4mfO6A8usOdHNyW9x1e/WeGzij2buq+t289/hHWt9bS5Enl3/qzmEn+K1zViN16erz/Gurf1p70v+jY6pn1ZuV/NovnGOl9xrjec4c/lMtV2/G+/cqV12c1Yu212/G7/iZK2TGgAAfh4XHwAA3+zZA7Fu3lccXHYyPx0O3u3vYo8mvsZX6+3s6rt1s36KL1P80cydfq9b4yo29Z9xNX/Kr/iP5j+ltXPn3TO/vld+v27c5bKmjrNf59R+jZ3YXVxk7mq8dO+Q75rPlKuxrMn6Ll9jXX8XW+pvZWwyfZtlN3/6nZzT7fMZp2uc1gEA8H4uPgAAfoFnDsR2c3a5R5OfDgfv9k90c++usVzN+4oD3trWmmy7d+x0czOX/avY1bxHE89x56Rm+dr8LY/qTt2Jbv/ds3JTTZ2f/a6u5rNf1fj6mx5fzTdYud2463e695re77H5HtlmrMsvGcvxFJtkbY533yRra6zb265fY1381J25d2oBAHgfFx8AAL/AM4dhV3OuDvMyNx0OTv1X7NbM8ZWT+lWTbc3nO+V4kmtO87o1utjObr0cT7q6Lraz6tfBf43fPbRecp38nrWd+jU2PbV2yXHGdnvqLjF29UtehlzJd8xxjWUu4923yFx9qhwvUzzVutM503fq5k/rT/1qil+5M+9OLQAA7+PiAwDgF3nmQOxkzq4mc9PhYNfvYtN4Mq1xOn85qa/vPdXnO+R4kt9kmpdrXNV3pve6mvcrdO+Z/S629ph7q+301Pw0J+OdKX5lOqTPeI6rXa6+V7ef2q/5Ln6V655OF8/Ybpy5Z9xdY6rf7bNzp3Z5Zg4AAK9x8QEA8AvdPRA7rd8d5mV8OpDMuoxlPseTaY3T+Y8btfU7THPyHXI8yXWnedOaGa+6+qqLPSPXufrdZ+zW7L7FSZv9+kw1S9Zn/lX5Nzum/h35ftO429Od3Ild3ZSr8ayp43d8n6m/xhlb8tt0drkrr8wFAOA+Fx8AAL/Y3QOxO/VTbcanw8LV72LZv2Na4856z9ROczL/1RwOd7Jmald/t9ajmXdVX92pfcad9bvabk8Z63KZn/o1Vp+M1/pJ5nN8V16GvNtuX903qN+i5qa6bs6JrK+/8ax87zv9XazKPT+z9/TqfAAA7nHxAQDwG7hzKHan9rGpz/h0WLj6XSxN8c603rNrXOn2UXX5LpayZmpP7eq7d6u6WCcP4de8jN91tU73TWqsPlNdV9vN6eI5rvHJLjfJ/ed4iu1cvUfuJ/eV44zl/Gfl3G79Lj+5+5063W90sZ/tV/wmAMBflYsPAIDfxJ1DsTu1j019xus4cxl79iAzdeucrrGr+2oOcLvfqrp8F0tZM7WdzJ2Mu/fL/nf7Gv6h89071e/T1eX3W3U5zlwXz5olcxnvxnWfX8O+M5bjKTa5qp32kbmuJvtZl8+VqSZ/Z8otV3tOd9fvYj/Td/8eAMBfmYsPAIDfyOnB2GldNR1aZqw7POxiVRe74/R3OlNdXbNb92TeLpayZmo7mduNM7diGc/xkofJufbKT/Ov5PqT+l2yn/uZaqbxFM9+N2fXXvlR/pNWV+2S4+63sqaT75p7nHJTvtalnD/VdP0cZ+6u3fzM5XiK/Uzf/XsAAH9VLj4AAH4jdw7F7tRW3byMdQeTp7Hsn7pac2eqm9a6+q1dfvqtR1PTtd38Kd+NO3fjnZPar+FvN0zxtPuNKdd9m9Wv49N4F1ty3hS7kt/i7vhZubcuV/NTfe651ue6S5e7WrPK8eTqW+U6V+Mp9rN8528BAPyVufgAAPjN3DkYu1NbdfMytju0vIplv6oHl1nTrXlqmjO9U/dbXb9bt4stOS/b7O9iV76aw+Z0lX+HHz9+PL6Gy487v5/7yX7N13GNdbkunuMVq+tkv467vd7xo/nbIdmf5DstdV+rnfaWbeZrv1sjY5mr4+x3sWn8M3S/ke/9M33X7wAA/JW5+AAA+A2dHoyd1nW6uRnrDihPY6eyPtfM/E5Xm7F816t812Y/ZX22qz/Fq27czav5O+M05b+Gi410UjP9xlL3mLHcf/ZzPPVzvNR+N3637ntlbPcOmZv21eVXm9+k5mtN9us4fytrOvkuqcbzm+zkejneuVP7rO/4DQCAvzoXHwAAv6nTw7HTuk43N2PdAWbWvBp7DL8zjXe62ox9NYe3mc9+ttlPWV/bqzVqzcm8XGNX242Xk/idA+gr0+91srb7LqufT+a6ebWtuthk1Z5+o9O61L1TjWU/915rMl5ztd+1ObcbZ39qs/+z7X5rl3uHn70+AAAuPgAAfmunB2SndZ08rFyx3bjGuoPLLnYia59ZZ6rr4rv1p9zX5nA35feoc+/M62RurZ3v1tXVNvvd+NkD+jvyN1N973z3Guv63Zyudjfnyp3a6u63zd/p9rX6WVvt9n1VV+uzn+Ps79olx+/QrdnFltzTu/3MtQEAcPEBAPDbOzkgO6m5kmtM4xq/G5vGVeZ260ymui5+un7W5XhSv0ftZyx18e43767xiLnfrfvNjOW4xtZ+6753sdO5Xd07fZX/VFheduQ4Tfn6jt0eVpt7meZ1T1eXbdevNVnftdnvxnd0c09j1VX+WT9rXQAA/h0XHwAAfwInh2QnNVdyjWncHVZmbca6/M4093Sdqa6Ln65/VdfFHsO8Llbt6rr6JXM5XnKtqe18bf69jym31utyS7fXHO/iXc2Ur0/WZZvPTs13ez29/PgavuNSfyffOeOr371/7rOT60zt1D+ZmzVVF1t23+jUbv3HQf4ZP2NNAAD+Py4+AAD+JE4Oyk5qruQa07g7rMw2+9UUr6Z1TuY+NnVdPGM5Xq7iV/naz1h9qox1+ew/O+dd8kC6jjOXdu+221+N1XE+OX9qs26KdfOeMX2XKf4YfrN7t0m++9pbfa7qsz2Nde2S43eZ1p3iS93DO7xzLQAA/paLDwCAP5GTw7KTmiu5xjSu8Yztchnf6dbJ/k5X18UezXte1aU782rtVL90+TWvW7Nz9XvdOl3dZNXuLjhy/Lj4jXyP3EN9Mn417tasbRer86ba7Hd7Xrrc9DdCptjSvWvmUleTe6y6+tqvc69iXbvr/y7e9U7vWgcAgJ6LDwCAP5GTw7KTmhO5zjTuDiqznWLduNOtk/2drq6LVdP7Vl3uat70/lP9I9ZcTyfjtTZzndP3ubK7/EhTPt872079PrW+G69+1nS5Jesz342XaZ9dfHf5sexyS777yXvnHnNe1td+13axXZv9bvyqab0pnuq+nvXqfAAA9lx8AAD8yZwcmJ3UnMh18sBvd2iZbdXFrnS/kf2dqS7j3dpZ80ruMfzG6ndzuthS59Q2161yXO3mpZrPg/g7lx/VWrObk/vLceauYie5pet3c7J/otvrqW7u1btcxfJ7pIznN3i1zf4u9m53fmP3ja48Ow8AgDMuPgAA/oRODs1Oak5063QHlLtYtrv+zjTnmflVxru1s+aV3KP5jatx16/jk5ocZ3zJeI67w/ZHE8/xs57ZW46/mkuKjOU4a2o8azJ3ZdVefaOr/LvkvnL/+X1qbfbvtlexNMWrV77byfpV91127tQCAPAcFx8AAH9SJ4dnJzUnuoO97oAya7pcNy/7V67W2pnqMt6tnTWnuezX2K4m8yvW5bp+V9Otl7EV/9XWO+Qh9vRu016775G1NZ81Ga+5XX/S1eQeq8zl/Mw/o9tD7rnTzav903aKdeNlip98j2nuK+5+LwAAfh4XHwAAf2JXh2hX+btyvd2h5d1c9q9crbUz1WW8WztrrnKPG/nVn+qWLt/9RtbluMa6381xqgfMq/bk0LmT869+O9+369eaKVafjHXzam65Gp969tulXOf0fbo9r3Z6uvm1n20X2+Uy/l1e+b38RvUBAOB7uPgAAPiTuzpMu8rflevtDi3v5rJ/5Wqtnaluij9u/E5Xl23KeI6rutZ6MtfVZTz7a5z1v0J3qdLp3jX3nfutsTruYjkvncYezYXE8vX1Nebe4XTt3O9qp/1UWTOt1bVXsaqL/Szf+VsAALyXiw8AgA9wdUB3lb8r1+sOK7PtYl0u+1eu1trZ1XXr7nIZO81VGf9qDp27davuN7Kuq+nGO3cP00/rT1y959X+1nftxiex7Kcpnrq63YXPyuW3zLoqa3fqOnWfq532fBXLte7ETsY/03f+FgAA7+PiAwDgF9kdcD7jao2r/F253u4AM2uvcnd1a52uu6vrcie/9WxuF1tPyvju/abaHGd8OTlEX3O7Q/ppfs6ZTO+V8dxH3XfGuvFVrMtl3Xd59+/V9XKvNX6136zP/mlsGk+xO16dDwDA78vFBwDAb+TVg7ir+Vf5u3K9HNdYtl2sy516ZY3TuqX7rXSa6+q+NgfKqb5LzslYl1/tlLuK3dVdbkyXI+v3ujn5LtN47S332MUz1sVz7Tvy97v+Y7g0SlNNrnVX9175Ha5kTbdm7Xex7HfjKfZu3/EbAAC8l4sPAIDf0CsHbVdzr/J35Xq7w8xsu1iXO/XKGqd1S/dbnV3+ao0pXk1rdPEa6+JVN78bV7vclTzA76ya6d27fvdO+R3q9+jGXbzGpvyJu/U7p2td1eUeV5v93G+Oa/wd/W68TPGdk//NAQDw5+TiAwDgN/XMQd6ym7vLpe5ws5P5Ne4OMLPtYl3u1Ktr3Kldpjndu+xyU10XX3J+V5+xLp/xqd+NO7Xm9IA563KcunecYvWp+XwyfrVO5qa6JcdLxru9n9RUWd/pampst89ak7Eqc936p/1uXO1yr/hZ6wIA8HO4+AAA+M09e+C2m7fLVXn4uJuXuTXONbq26nJd3c6ra5zWZl2Oa+w019U9/iHePVmTdr8xrdHFarvrd+NXXB3uP5r3m9pqytV4fosa63K1pspY/nbW39V9o1wzxynzu/dd/ZzT6Wpynav+yThd5btvduVqTQAAfh8uPgAAfpE7h2h3aqvdvF2uyrocV5lb4+5Ac2qvYqdeXeO0Nn/nat6Uf/Y9q/oO68n87nd2e9jldr6+vv7mkHmtUeNdXcrf3tXn+9Zv0n2DGs9Y5rpxzstcjWdNxqrdHtNU263bxR6b99ntKWNdXZXzn8l1YwAAWFx8AAD8STxzyHc15yr/GGpODzXruDvQnNqr2KlX17hT+9j8zu498jem+ImruV/NQX6Nn9SuXG27WM658uPHj3+cMx3gT/Gq+91uDyte+7Wutl0u18u1ss3Yrn+lq52+TdZejTOW793tqdZ28ZT57vdOx1PsZ/nO3wIA4HkuPgAAfqFnDtHuzrmqv8o/NjWn8TXuDjin9ip26tU1TmqzJn8r/2bD5J3v+hUH9rt1MpfjlL/T9XemQ/rqpObRfN8q32f6Hqs/5fLp5tT67HdtxrL/M+x+azfOd81czt3pajOW66fTGAAAf10uPgAAfrFnDuzuzrmqv8o/NjWn8TXuDjWn9ip26p1rXOl+qzPlu/lTbTqZU9dfT83lvCnW9TPW5XamC4zHP6yV+Wn9q/dL3Tep+971c16umXW7dslx7ruqtad1Uz/HXb+2mc+10pTP+N3xMsXf7bt+BwCA57n4AAD4k7p7+HZV/0p+ymV8jWs8Y9lexU69c41Ot+5U/0x+qq26+q/mgDpra66rrblpXvazbo13h/On7q6R75Kmd97lcs/5dLU5p2vv2M2ZvlH3Dnf7dY+53zXunkmXy9jVeJniAAD8tbj4AAD4DTx7WHd33lX9K/kpl/E1rvGMZXsVO/WONR5PzLmq3+VP3zVzudev5oC6xjM3rTfJ+V1/UmumA/sufvqfEHts8t27Xn2TjGe+5rra2u9i32H63a7fxXb9u7q5GcvxFHts4u/0Hb8BAMDzXHwAAPwmnj1IuztvV7/LLbuar+bwd8W7cY1nLNur2Ilp3p01lqs5+a5Zn/Epn+OML128zsn8tF4Xz37OWfE74+4iY5lyUzzlb02yLr9XfaZ8xms+1djU78ZXdvVX36x7j5PYVfyObs4rsWWXAwDgs7n4AAD4EHcO+Xa1u9zjIP8YajI2HZzu2qvYiWnenTXSV/PvT6x4bWt8+tsKWVtjp3U5ru16upopXmV9zqum+M905zezdtpzxqa9T98m62pt9nex7n9j71LffYrt2pzXvX9nV9flTmPLLgcAwOdy8QEA8Bt59ZDuzvxd7S73OMg/hpqMrXEemu7aq9iJad6dNZ5xtf4uf7Ln3fhrOIzu1p3iU3/ntG75ai6R6hpdrsamC6VO5nPP65t1+665WpP5The/inX7rm32U85/DGtMuazp4l1NfVIXq7p8F3ts4o+L3Ct+1roAALzOxQcAwG/m1cO0O/N3tbvc4yD/GGoytsY1nrFsr2Inpnl31jiR7zmtf5Wvdu875er69ZnyXbya4p2pJg/jp7qU805Ma2d8+g41dze/+t2clX/VO9fItso9drFu3uPgO6Sppot3sXRSAwDAZ3DxAQDwge4c8O1qd7nHQf4x1GRsjWs8Y9lexU5M874OD2bvyt/Y6fIZO9l/1mR+qfmudopnbmfV3L24uFufch+py+f3OKm5yl/99ru8e81uP12ui79iWuNuvDqpAQDgz8/FBwDAb+gdh3N31tjV7nKPg/xjqMlYPUCdYtlexU7kvBy/Q65z9Ru7fO4325P+2md9uppqimcu13vWWuPq0uMqX3X77Ma7/XT9WrfL72pf0f1mNz75VvU9T9qrfr7PHdPcKf64yFWndQAA/Dm5+AAA+E2942Duzhq72l3ucZB/DDUZW+M8PN21u1iuP8n5uc47db8xuXqPXGuqz3y31lJr6lPzOZ76WXuqm3NyaP+IudOcfM/sZ7v6+V61ruazNuO5zrt0v7lz599DeTTfZfq9XOuZPV/V7/K7XHVaBwD8/9u7+5hNs7Iw4GdmZ1ZmYD8Q3FLYrazVRgVTtYBtqAqoiSBKjKZG8QNwLWX9rAlaSGTcbYQgDYmiiwgBRdG/irUF/MMAwY+2yqqbFASjldVdcEUIu6zsbGdmd/qH3jPnueacc5/7ee73nZnz/n7Jnfuc65znfu7rZEmc6/J9X7j8aHwAAFzC1ijMLXlGa29rLXWsp8qeGJvmpUJq7V6LleYlc8/peca2as8uvUdJ3Fd671psuuJaHOfi52trMR5ju4jPqjU45pTeN8amd497avP4bjFeem7PVdITr+3pObP8XaPSWm2cx1r55Ob2tNZbayVL9wMAcOnT+AAAOACWFPZae7ddy5X2xdg0LxVSa/darDQvmXtOzzN6xef3PHvJntJ71+7TOD4/35df+Xqcx3Htmb3i/qlY31O0nxOfncdi7vl6/FztM3FvbV+vub3x+XE8Z+6nP0rPj2ulcWl/KpxTvHq09rXWarb5DAAAlyaNDwCAS9xaxbglz2nt3XYtV9oXY9M8j8dYvMdYKd5S2l+Krann+aV3yZWeEe+l2KFGkTnuLa1N49aeuB7nUet7l+p5Rvy+eJ/GtWfF/XFvaR7v+dVS2hPnk9J3bqP02ZhDa1yar2XuuXPrNb2fW6MBBwDA3tD4AAC4DPQW4nr0Pqu1b9u1XGlfjLUKrKV7jLXGNaX9pdiu4nPivKW0t/SOS+7xmpT25GqxOG7tmZPvLRWbp/XS2hLxXWNu+RmU1uI95ljbH+MxFtXW4jvEcWmeFpxb6bO174p753LaRs/zeva0lD7fe14AAFw8Gh8AAJeJUgFuW73Pau3bdi1X2hdj07xUVI33udg0jt+Ri2tzz1tD6Tui0p7W/kn8XOneek7c31orPSu+b5yXxrlafGnxOX9O/GzpO3reLVc7i/zq3Z/vibF8rTTOxe/oFc+npPb9tXErtq2eZ/XsAQBgPIdjAACAS9daRbyewmaa2bftWlTKKcZKBdwYa63FcWk+ie8e/67E2bNnN/ZM822u2ud7lN7/UFYoP3z48AXj2n0a5/O4XrpKYi7xevjhh8/da+N4z9fztdY1vUtJKY9SznFcO49a/FDljGrxFN455lOKxXHtHp+zrfzdl47zWCm+F9bIGQCAy4/GBwDAAdVbEGzt23YtKhVBY2yal4qq8T4Xq80ntXevFZLz+bZX6fk1eW6tKxbua/e4L8bitUTM82xoXJQaHPHK9841PfLvbclzifnlVzyH/Hx6zinGpvi0lqu9f8yvNs8/V1orzaPW2hIxz5hrK762tXICAODyofEBAHCZWbNQ2FsQbO3bdi0q5RVjeTG5FmutxfE0j7EoFo7zcSwwl65Wsb722VK8ZsqhdMWmRryXxkuvkvjupStveszdS02POM+vmvjOMZe9uqJSbJK/fxzX5qX8a+PS/rjeK88j5jQ3n9TOCAAAtqXxAQBwGVqzSNhb7OzdFy35XCmvGJvmpYJrvM/FcnPF15hHqaAci8g9a6V9+b2mltfcFZsfpXHpis851Dirmpjv2UqTI97zBkepCTKNa9/RUsopxmr5916lZ8Z3KMnfPY5jvvmemHvts3uhlsuktV46m5refZO9zBkAgEuPxgcAwGVqaeGvpbcoWNtXi0/m1nOlvGIsLybXYnkRNd7jONcqvsZCciw05+Ntr9pz58Tc8isW7ks/5dFqcPReJTG/1lVqeuRrrZ/wKF3xHaLSO8ectr3y58d4rhSLYi7TvTau3eNzSmcSlfbEd47zXGmtFMvNnVcpDgAAOY0PAIDL2JoFwFKBs6S2rxafzK3nSnnF2DTP4z2xvHC6TRG1VFCe7nGcX7X4krWaWj6lXKcr/pRHPu5pgMTn599ZU8rpbKHBEe9xPV7xs/E74juUxPy2uebOrfQ98R1a8rxirLQe73E8zUvnNK1tI+YR57VYSeu8lto2HwAALj8aHwAAl7ldi4G53sJgbV8tPplbz5XyirG8mLxtLI6XiIXlvICcF5Tn4vGKz5yU9pXEInFeOM6v2PCIa6UrPiNeNa08aldsaiz9iY/SVdJ670nMc+mVP2OJ6Z3jPcbieuleGufycyqtLxHzjPNaDAAA1qDxAQAwgDULiL0Fz9q+Wnwyt54r5RVjeVF521gcz8lz6Ckwr3W1xPwOFYrvpSs2P3qaG/nn8u8qvU8UcypdseER12KstG+6SmrxtODctr1a37HElEOeS4zFe2ncOoslet6/tGeb3HexVr4AAFzaND4AAAaxZvGwtzhY21eLT+bWc6W8YiwvKG8bi+M5sYAc73HcivXE43N7TYXlJVdv8yO/4nctFfOOzY/Y2Kj9uqueqya+d8xx2yt/doyXtNZqprxa99K4NJ/Tu7eURymWGnEAANiGxgcAAEW9xc3avlp8MreeKxVFYywWmLeJTeP47B6x0Bxj+VWKxau2J8bjd6VGjrWr1Oho/XqrUiy/auL7Lr2WNjjiFZViqfLfQMyxdMV9cZ7Ha2v5ejS977b31nia185q0lrrVcuxFl/bGjkAAHBp0/gAABjI2oXD3gJhbV8tPplbz5Vyi7FpnheQ52Lxs7V5Se398+JxLDTHtblYfE7+vHx/S8yzdLWaGUv+zkfpO6L8fWOuc9dc86O2XvquHqUcYn491/S52jNrevflObbupXHpLOJZ1fbN6X3/ydL9AABQovEBADCYtQuHvcXO2r5afDK3nivlFmP5PBacS7FYmI574/OjWEQureVF41hEjoXl2nrteXPmcsuvuabG0iuKsVIO8QxKV+3XW5ViZwvnHJViqfDfTcwr5juttea1eEktnsJ/CzVxT743fi7O91ort9aZrGW/8wUAYH9pfAAADGjtomFvkbC2rxafzK3Pifnm87zI3BOL49K8JRaZ83scl664Huel+BKlovIUO7Rj8yM+v7ReEvMqxUvXNn/no/TcOfm7l/Ip5RljeTxfrz0jX8v3tOT5RaW1mH+cr6X23rX4ZG4dAABqND4AAAa1dtGwtyBa21eLT+bWJ7W8YjwWlZfE4niax9gkvnssMuf31njuis+axH35WmrkWsspX5u7So2S/BkltXiq5LLWFZ8flWK5/L1jvqVYaVzbkz9nqdJ75/mWYqV4Po+xvTKX965nAwDAwaTxAQAwsLULhr3F0Nq+WnzSW3Ct5RXj+TwvNPfE4rgVa4kF6DzH0rhnHq+l8rx3uUpNj/yqfUdNnkvMcc2r9h0leR4xNo1r+cZ5fFY8j7gvxnuU8og5z43zWCm+jdb7t9YmPXsAAGCi8QEAMLi1C4a9hdDavp5i6tx6auQV47GwvCQWx3ksL0aX9pSKyvm9NS7NYzzep/Gc0jvn+fRec02P/Foq5hLPYM2rpBZPhXPLx9M85l6Kx/V4TnHPNvI8esel3HvOq7a2pl3PAwCAg0PjAwDgAFi7WNhb5Gzta62ljvXUyCvG83lebC7FauvxmZNaPBWKyvHeGsd5XIuxOO5VyrN1HT58uKvp0XpevjbJc8hjMZ94Bkuv+Ny4PsXz7yvJ3701zvNt3eP+OXFf/p67jEvzXDyr1t4lYj4tS/YCAHAwaXwAABwQaxcLewuerX2ttdSxnhp5xXgsMNdicb0U31Wp6JwXkWNhOV5xT+mZ8crF/PM8p/FaV3x+/r25GKvlE/f0XnF/Pt9FKcfSOMbiPZ5PjOVq8V3Ec1jjbKK5955bz7XOBwAAND4AAA6QtQuFvYXR1r7WWupYb4n5xuJyLdY77pG/f8wlL8BP96XjeI/fsUTMs3S11lpX/rkl4vnlVy0ez6h1ze0pyfPJ7zEW13ti8XymWH71yN+9Z1ya12KXkiVnAgDAwaHxAQBwwKxdJOwtjLb2tdZSx3orp7iWz/OCc4zNjeNzW0rF5ta9d1yKxfGceAZ5btM4Xq210tXz3JI8hziu5d9z5c/LY7vK86vFYt5xPd+zxJL9eb4x9zifYqX4XliSR27pmS3ZCwDA5UfjAwDgAFq76NdbFG3ta62ljuJrK6eetVYRujQuzXuViu/x3jPOYzEe9/eo5TqdzdIrfjafLxFzyscxxzwWr9p6jJfU4pM8v1qs5x4/v/SsalrvH9fifFKLr22XnKczqz2jtQYAwDg0PgAADqi1i3+9RdHWvtbapGdPSSwoz62VYnE8zWOspPbeeeE93lvjGIv3/PviZ/K1VMlpusdxK9aKt/bk35vPo5785uYxPve8uBbV3jfPc8k9jqd57Wxq8Tkxp7n5ZO48Wrb93Lbyc9v2nAAAuDxpfAAAHGBrFwJ7C5utfa21Sa34uiSfuLdUeC7FpnHr8z3y95/GpXsc98biuFdv7vm+nit/Th4rzVvyfEq5zs3jWik+p7anlOfSe2mcm+K19Zb43j3zGJvEs1vb0twAACCn8QEAcMCtXWDsLYS29rXWcr37JjHX1rxUgI7F5tLnY6wlf/9pXLovicV43L9UKfdpXJrHWGk9xmvytfj+Mb983DqTUqz1ufzZ+f5t5bmX7qVx64zWVsqvFMuVzimaWy/Zz7wBABiLxgcAAKvrLXK29rXWcj1F11wsprbmS8d5rBQvKb37FMvvvbF4z58f5zWxGJ/f47g0r109z4r755RyLY3zqyeei3t6lPKN4lq+J55BnG8r5hDnS2JRPM9tzg0AANag8QEAwCoF1ai32Nna11qLlhRYY76tee84PiOP19aj/P2ncX6vxVpreWwSPxfXc9N7x3zzcb6nNI9rpfgSMa/8/Wv518bxXhq39OzJc83vpVg8j3g28fxq5tZzPTmkBfvWtCQPAACYaHwAAJDSHhUYewulrX2ttV3EfFvznnFp3ivPsTQuFeNL93iV1nc15ZgX30vj0jyP1T5X01qbxJxjrDauxfJ46exKsVzpneMZlNZK49r+2rWrWm61OAAAXEo0PgAAOGeNgmnUWyht7Wut7SLm25r3jEvzbZTybRXoe+6lca8pp9K9Nc6vufgkruf7Skq5TvcYK63nV2k9V9rfq5RDLf/SuDRfUymfUixVzmYv7WXeAACMSeMDAIANe1Fk7C2Stva11nYR823NW+PWvEfMLxbiYyyuz91L4/idPVrF+jzv1rh2X3pmPbY9s9J4LbWzi7E4nuYxtpdaubfWAADgYtL4AADgAntRWO0tkrb27UUROhXybc1r4575nFpupXgszs/dS+N8Hq9esXCfF+ZL4xhr7auprZXyjvdSrHQvjefOprWWZv7bibE4jvtLsV3V3r8WTzNra1o7VwAAxqbxAQBA0V4UGnuLpHP75ta3EfNtzeM4znNxfYlYeI+xaZ4X5PN7bS2Oe5RyrN1jLK5PsfyKe2v78vWWmHM8lxiL99J4MsXita2Yc2lcmk+xUrxmyd5cK79d8wcAgLVpfAAAULW0qNqjt0A6t29ufQ0x996idFybYqX4nDzPvBhfWotXaW9c2/Ucp5zye2+sdI/7l+rNp3Qu0z3GYnwXMc8l42keY3m8tDZprU12yXGXzwIAwJo0PgAAmNVTMF2it0A6t29ufalSnjE2V5TOx3F9ii8VC/CleylWu5fGS89yLo9pPb/n19xaHt9WzLvn3oqV5muKuefjeA5xnovnWfr8Nnry7tmzrTVyAADgYND4AACgy9pFx94C6dy+ufWlSnnGWKso3dqbx0rxpWKRvhQr3UvjfF4601JsMuWy5B6v0vok7suVYiWlcyjd52L5vHZWk9bapPX+cW1uvh96cpo7FwAA2GsaHwAAdFu70NpbHJ3bN7e+VCnPGGvNW2u5vKA/XTW1InyrSF+7t8Z5LL96TTnsep/G8Ux6z2tSevd4HvEeY6VxLp5VbV+PmFPPPMb2Wm9uvfsAAGBtGh8AACyydpG1tzg6t29ufalSnjHWmpfWYmwXeb55Yb4Wy+8xFuO9avlO413upeftqpRfPIvW+eTj0rO2FfNbOp9ipfjFtvZZAQBAD40PAAAWW7vA2lsYndu3dpG1lGeMtealYnScLxFzi8X4uVhtLcbj9/Qq5TbFltxjLI+XvmOJubPoieXzGFtLzHNuPqnF17Y07708KwAAiDQ+AADYyn4VWKOe4mnPnl3E3LeZx1ivmFupMN+K5QXo0r58HmNRa72U3xSbu8dYfNYUi/FpLaq9ZyleOpN4ZvFzpdhSpfeeU/tM7WzWtk3Ou5zVtp8DAODg0fgAAGBraxZXlxQ1e/b27OlRyzHGl85rsV3lBfreWGmc7yvFe0z55XnGWOkeYzGem+K19ZLaOcRY7ziPzZ1Vay2K+cR5LTZZcib7be6cAABgFxofAADsZM3C6pJCaM/enj09ajnG+NL5FCvFW2JecT4pFepLsdK49MwpXltPlRxTJT7F4j3GYrz0rDXEM+gZ184hnlVr7xKl3OfOZFpv7Zn07MntmlPvufTsAQCAicYHAAA7W1osbVlS4OzZ27OnRy3HGO+Zx9gU30UsyLfGebG5tF6bbyPPaxq3Yvn5lPbl8xjbVu0MesbTPMbWUsqxFEuNeG46t3h+cb7EGrlPZ1i7AABgCY0PAABWsW3RtGRJobOnMNqzp0ctxxifm7dipXivPMcl4/x84lnF+Vpi0b0VK43zfTEWldZbOcX8a+P4jDhfS+n9S7HUiNf0nB8AAFxuND4AAFjNmgXUpUXknv09e7YVcy/NS7GS0t5txEL9tuNpHmO98lzmxqVYa5zHalePVm5z5xLnMbZXarnV4ntpv3IGAIAeGh8AAKxqzaLr0mJqz/6ePS2t/OJanJdireL80uJ9KuRXK9r3jkvPK8WXyPMpjUux0njJufSIuW+zlsd2PadcLdelcQAAOAg0PgAAWN2aRdelheOe/bsWpFv5xbU4XxLLTYX+noJ/zK1WtO8Zl+aTvLifXyXxnfN5aVyKTePWfE21XFJhrZV7a20yt76NvTybkr3IAQAAtqHxAQDAnliz6Lq0oNq7v3ffUjHv0lnEeS22F/K8W+PWfD/EBkdtbZrH2DZijvEMamut2GQ6w9K1i7m859YBAGA0Gh8AAOyptYquS4vDvft790Xb5BU/E+dTrBRfKubVmtfGPfNd1BobrXGcR3HP2mL+cT7FSvFdtfJqraWO9bXsRd4AALCUxgcAAHtuv4quUW8RdttCdSuv2lqM1wr1pdiuYo61hkc8j9LnYqzHXE61pkY8ozguPXeKl9ZLsZaYa2keY1N8P83ltDRvAAC4XGl8AACwL9YouG5TSF7ymSV7e9RyLsVrsVK8VymfGJtrcOTj0nqMLRXzy+dL12IsN6239kxKOcVYnLdipfjF1HMGAABwOdP4AABg36xRcN2miLzkM0sL1XM51dZL8VIsNeLbivnFBkdtrTSfYqV4VNsT85trcJTGrdheKeVTiqVGfG29+ffu28Z+5QoAADUaHwAA7Ks1Cq7bFFaXfmbp/pZazqV4KZb+MV5ba+nNY2nzI8byeG1tWzHv2PworcfYGko59MZS49zW1pv7Xp0TAABcbBofAADsuzWKrdsUkJd+prdQ3ZNPbU8pXopN1ipWl/LKY3E9zmuxyXR2vWcYxRyXzqdYKb62Un6l2GTbM1liSd77dU4AALBfND4AALgo1ii2blM83vYz23wuquVbis+dT2ut11xOMe84r8W2UconxpbOJ3NnuUQt11K8FMstPbsle7ex1hkBAMDFpvEBAMBFdTGKrUsLzpNtP5er5bs0nrKCfmvPnJhPnJdicV6LrSHm1jOPsUlrLTe3Z0muPf/NTHta+1prNXN5lPSeEQAAXMo0PgAAuOh2KbRuUxCebPvZvFA9V7AuqeW7NJ6rFaxLsTmlfGIszqdYKb62mFOc12KT6axq17ZaubfWcvG/q13PdNt8djmLbT8HAABr0fgAAOCSsEuxdJfC8C6f3UUt31a8tpbbpohfOoOeWK0oX4vPqb1vKR5jcT7FSvG91Mq7tXapuhhnCAAAu9L4AADgkrFLkXWXovIun91FLddaPM2s7aJ0BrvE0hYNkCV7U+Es4nxSi++i9a7bru2VNfKf/rc596y5dQAA2A8aHwAAXHIuRvH0YhSkW1pn0FpbW+lcemOTpQ2Qkt6ca8X5WnyvtPJtrV0O8iZIvAAA4FKg8QEAwCVpmyLqrgXlXT+/jVaerWJya21btfxL8VqsFJ9M66U9pVhUyrcUS1vE91vtHPbKpZI3AADsB40PAAAuWdsU93ctJu/6+W3M5dhab62tqXQupVhqxHN5E6Rnf0vtDFrx2toSc+89t5469wAAAMtofAAAcMlbo0i9xMUoRs/l2Fpfq5CfZnIvrZViqRHfVS3PpfG08rnV9JxDz5417HWuAABwqdD4AADgsrCkSL1GIXmNn0RYai6/Xdd7tfIurZVi6SKcYS3/Wnyy5L+tXO9nes5gv88KAABGpvEBAMBlpbfYvJb9LkbP5dezPrdnL7QK97X4tlr51dZq8dzFOrvc2mcVXez8AABgP2h8AABw2ekpUK9ZQF7zWT3mcptbT517ttU6j9paqzGytlrutXg0/ffV2t9aK1mS+36eFQAAjEjjAwCAy9bS4vMu9rsQPZfb3HrqbBDVzOXbWp9ba63vtaVnkjdBehoiLUvzXrofAAD4BxofAABc1nYpRC91qRWie/PeqzNqnUdrLXWs72ou37n1vbI074vdKAIAgMuRxgcAAEOI/x/5e1XY3s8idE8OS3JdsrdX6zxaa2kfivpzuc6tX0r28pwAAGA0Gh8AALDQXhfsc73F+d59aQ8aIK2zaK1N9vI85/KcW98L2+a6l+cEAAAj0fgAAIAt7VcRurc437tvMjVA4udKsTmts2it5abCfu/+XnO5bJPvxbQXZwQAACPR+AAAgB3sVwG6tzDfuy+qNUHWsrRYX2uClGJr2avcS9bIYZuzWLofAAAuRxofAACwo0utmLyfBfxczzn07IlqTZAles+kd98adskn13s+c+sAADAKjQ8AAFhBT+F5V0uK8kv2rqnnDHr27IXeM9nLn3zZa3kTJF4AAHBQaHwAAMCKYrF57WuJ/NdX7efVI+a1X9cSMa+9uAAAgPVpfAAAAAAAAMPQ+AAAAAAAAIah8QEAAAAAAAxD4wMAAAAAABiGxgcAAAAAADAMjQ8AAAAAAGAYGh8AAAAAAMAwND4AAAAAAIBhaHwAAAAAAADD0PgAAAAAAACGofEBAAAAAAAMQ+MDAAAAAAAYhsYHAAAAAAAwDI0PAAAAAABgGBofAAAAAADAMDQ+AAAAAACAYWh8AAAAAAAAw9D4AAAAAAAAhqHxAQAAAAAADEPjAwAAAAAAGIbGBwAAAAAAMAyNDwAAAAAAYBgaHwAAAAAAwDA0PgAAAAAAgGFofAAAAAAAAMPQ+AAAAAAAAIah8QEAAAAAAAxD4wMAAAAAABiGxgcAAAAAADAMjQ8AAAAAAGAYGh8AAAAAAMAwND4AAAAAAIBhaHwAAAAAAADD0PgAAAAAAACGofEBAAAAAAAMQ+MDAAAAAAAYhsYHAAAAAAAwDI0PAAAAAABgGBofAAAAAADAMDQ+AAAAAACAYWh8AAAAAAAAw9D4AAAAAAAAhqHxAQAAAAAADEPjAwAAAAAAGIbGBwAAAAAAMAyNDwAAAAAAYBgaHwAAAAAAwDA0PgAAAAAAgGFofAAAAAAAAMPQ+AAAAAAAAIah8QEAAAAAAAxD4wMAAAAAABiGxgcAAAAAADAMjQ8AAAAAAGAYGh8AAAAAAMAwND4AAAAAAIBhaHwAAAAAAADD0PgAAAAAAACGofEBAAAAAAAMQ+MDAAAAAAAYhsYHAAAAAAAwDI0PAAAAAABgGBofAAAAAADAMDQ+AAAAAACAYWh8AAAAAAAAw9D4AAAAAAAAhqHxAQAAAAAADEPjAwAAAAAAGIbGBwAAAAAAMAyNDwAAAAAAYBgaHwAAAAAAwDA0PgAAAAAAgGFofAAAAAAAAMPQ+AAAAAAAAIah8QEAAAAAAAxD4wMAAAAAABiGxgcAAAAAADAMjQ8AAAAAAGAYGh8AAAAAAMAwND4AAAAAAIBhaHwAAAAAAADD0PgAAAAAAACGofEBAAAAAAAMQ+MDAAAAAAAYhsYHAAAAAAAwDI0PAAAAAABgGBofAAAAAADAMDQ+AAAAAACAYWh8AAAAAAAAw9D4AAAAAAAAhqHxAQAAAAAADEPjAwAAAAAAGIbGBwAAAAAAMAyNDwAAAAAAYBgaHwAAAAAAwDA0PgAAAAAAgGFofAAAAAAAAMPQ+AAAAAAAAIah8QEAAAAAAAxD4wMAAAAAABiGxgcAAAAAADAMjQ8AAAAAAGAYGh8AAAAAAMAwND4AAAAAAIBhaHwAAAAAAADD0PgAAAAAAACGofEBAAAAAAAMQ+MDAAAAAAAYhsYHAAAAAAAwDI0PAAAAAABgGBofAAAAAADAMDQ+AAAAAACAYWh8AAAAAAAAw9D4AAAAAAAAhqHxAQAAAAAADEPjAwAAAAAAGIbGBwAAAAAAMAyNDwAAAAAAYBgaHwAAAAAAwDA0PgAAAAAAgGFofAAAAAAAAMPQ+AAAAAAAAIah8QEAAAAAAAxD4wMAAAAAABiGxgcAAAAAADAMjQ8AAAAAAGAYGh8AAAAAAMAwND4AAAAAAIBhHDpx4sTZGAQAANjGQw89lD7x8Y+n977rt9IL734wLhe95fpj6VnP+fr0mOuuS1dccUVcBgAAWETjAwAA2MkHf+9/pX/57j9OR9OhuLSV0+lset/Xfml6+tOfHpcAAABmaXwAAACL/dZv/Vb6pj/8y3RkpWZHzZl0Nv2Pr/jn6eu//uvjEgAAQJHGBwAA0OXkyZPpvte+Od14Zm+bHTUfOXI2XfOjL0rHjh2LSwAAAOdofAAAAE333XdfeuzPvC0d2eJfDu/5Z9ekG77uq9P111+/Eb/77rvTXb/9vvSsv75vI97jzKGUPvkj35muvvrquAQAAKDxAQAA1D3iltuqv8zqrZ+d0vNefFO65lVvikvp0y//vnT06NEYLjpz5ky66qd+MYbTfS+7Kf3Gbb+YXnDf4biUUkrpbErpwRM3xzAAAHDAaXwAAAAX+PArX5e+7PQVMZw+kk6nwy/59nTdddelU6dOXdD0+P1v/Nfpy7/8yzdive644470b37zf27E7v1P35s+67M+K91zzz3pxje8fWNt8idXPpS+8GU/GMMAAMABpfEBAACc8853vjN96+1/FcMppZQ+/qPfla666qpz82O33LaxvuSnPGpOnz6drn7lGzdiJ7Of6rj//vvTda/9lY31ydufdmN69rOfHcMAAMABo/EBAACks2fPpuO3vj6G00Mppfv/8acucrHp8cArXpIOHar9UqxlSu+SNz9SSunBBx9MV7/6zenCn0lZ910AAIDLzxXPeMYzfjIGAQCAg+P2229Pn/+m34zh9Aff/G/TY7/tuenIkSMb8Y/efXf67D/5s3Pzu77/36VHPvKRG3smd955Zzrz87+aHvPe29PR973/3HXP7/9B+vg/uy5de+218SPp0KFD6W+/5PPS1X/4wXOxv/qCx2/8MfMjR46kh57x1PRHj74yXf/hu87FU0rp6PtuT39w1eH0+Mc/fiMOAAAcDH7iAwAADrBTr3xDuub0Qxux/3L43vT9P/HyjVgu/2mPn7/2ofSiHy7/fY2jt96Wjsz8a+PMoZROv6L8B8rf8rM/l27+1Pk/bB5/6iN35Nbb0tHwXfcdvSJd+fIXbwYBAIDhnf9XBAAAcGCcOnUqHbvltguaHvf8yPObTY+/+Zu/2ZiXmh4PP/xwOnbLfNMjpZSOnP2HRsrDDz8cl9ILf+gHNuYf+9jHNua5M6+4Of3ND3/HRuya0w+lY7fclk6dOrURBwAAxqbxAQAAB8ydd96ZrnnVmzZi7zj0mXTyxM3pmmuu2YhHJ9/yX8+N3/qY8j8nHvmffyGGZtU+86vXnf81Wyd/6fx3l1x77bXp5Imb0zsOfWYjfs2r3pTuvPPOjRgAADCu8r9UAACAIb3tbW9LX/TL79qIveurvih9zSteuhGredLp8/+EeN6/f9HGWkop3f2mX4+hbqXPftNNLzw3fvLp0p8yv9DXvOKl6Z1f+YUbsS/65Xelt73tbRsxAABgTBofAABwQHzwF3453fQX923EPvnSF6RnPvOZG7GaM2fObMyvvPLKjXlKKX3BRz8VQ91Knz169OjGPL5DzbOe9az0yZe+YCN201/clz74hrduxAAAgPFofAAAwAHwl6++LT3lbzd/BdQDr3hJOn78+Eas5e67746hDR/96EdjaLG5Z8y9Q+748ePpgVe8ZCP2lHv+Pn3kp1+/EQMAAMai8QEAAIP7wKt/Lj3pwfPzv0sPpZMnbk6HDh3Kt806/fFPnhvfftWFv3bq4//nT2NosdIzbr/6/N/5yN+hx6FDh9LJEzenT6Xzf8T9i0+eTR/46Z/f2AcAAIxD4wMAAAb31Ac3/8/+R534wY15r/s/cb7pcOSRF/6kyN/+5e5/QLz0jKPZd+XvsMQjQs5PPbms6QMAAFw+ND4AAGBw73/Ewxvzv7/ldRvzXlc99jHnxmc+88DGWkop/ZPPe2IMLVZ6xunsu/J3WOLBkPP7j53dmAMAAOPQ+AAAgME9+cd/IP3psfM/4fA56Yp07Jbb0tmzy4r/R68733R4yv3nf3XU5Lov+eIYWqz0jKd8+vwfNM/focfZs2fTsVtuS49O5381158eO5Se/GPfv7EPAAAYh8YHAAAcADf+2EvS7Y971Ebs+K2vTw88cOFPbtTccMMNMbThCU94QgwtNveM66+/PoaqHnjggXT81s0/ZH774x6VbvyxzT94DgAAjEXjAwAADognvfi705s+/5qN2GNe80vpve9970as5oorNv+g+alTpzbmKaX05094dAx1K3329OnTG/MjR87/ofOW97znPekxr/mljdibPv+a9KQXf/dGDAAAGI/GBwAAHCDPf/7z04e+5zkbsef8zofSu299zUas5oNXnv97Ib/5i2/eWEsppetv+vYY6lb67H9/41vOjT9w9MJfr1Xy7ltfk77hdz+8EfvQ9zwnPf/5z9+IAQAAY9L4AACAA+aJT3xiuu9lN23Ennv2kenYLbele++9dyMeHX/ht54bf/cnN/9o+uQzP/EfYmhW7TPf+Xfn/77HsRd8y8Za9KlPfSodu+W29Nyzj9yI3/eym9ITn3jhH00HAADGpPEBAAAH0JVXXplOnrg53Xd089dX/dOf+bV05NbbNmK5xz3ucRvzN//M6zbmKaV0+PDhdPLEzenM+b+nXnXmUEonT9ycDh++8J8m8dmPf/zjN+a5I7felh7/s7++Ebvv6BXp5Imb05VXXrkRBwAAxnbFM57xjJ+MQQAA4GC44iufkv73ow6lz/3zj56PpZSOvu/96Y8efeUFjY6UUvrrf/GE9Nl//A+/SuppDx5O9zz5xnT8+PG4LT381U9Nf/HEz0kPfvDP0jUPb3ZB7jrycPrYd31Duvp5X7cRn3ziE59IX/u7Hzo3/783PS9ddfXVG3tSSumOO+5IN77h7WmzfZPS7z33K9IN3/aNIQoAABwEh06cOHE2BgEAgIPl7Nmz6fitr4/h9FBK6dM//qL0iEc8YiN+7JbNnwp54BUvSYcOdfyIR4fSu5w8cfPG/MEHH0xXv/rNFzQ80srvAgAAXH40PgAAgHPe9a53pW95/50xnFJK6eM/+l3pqquuOjePzY/7XnbTzr9W6vTp0+nqV75xI5Y3Pe6///503Wt/ZWN98van3Zie/exnxzAAAHDAaHwAAAAX+PCrXpe+7NSFP0/xkXQ6HX7Jt6frrrsunTp1Kl3zqjdtrP/uNzwtPeUpT9mI9br99tvTV77zDzdiUzPlnnvuSTe+4e0ba5M/ufKh9IUv+8EYBgAADiiNDwAAoOoRt9yWar806q2fndLzXnzTBc2PlFL69Mu/Lx09ejSGi86cOZOu+qlfjOF038tuSv/t9W9M33Nv+Q3OppQeDL8CCwAAQOMDAABouvfee9Pn/OyvpSNb/MvhPTdcna7/uq9ON9xww0b8rrvuSnf/9vvSs+769Ea8x5lDKf3dD31Huvbaa+MSAACAxgcAANDngQceSJ9+7ZvTjQ8djkv74iNHHk5X/8cXpePHj8clAACAczQ+AACAxd7xjnekb/6jv0pHqr8Iax1n0tn0G//qc9Nzn/vcuAQAAFCk8QEAAOzkA7/z++lL33tHOrpSE+R0OpvueOaXpid/1dPjEgAAwCyNDwAAYDUPPfRQ+sTffjy9+53vSt/7sf8Xl4ve/ITPSs/6huekx153XbriiiviMgAAwCIaHwAAAAAAwDAuzl8lBAAAAAAA2AMaHwAAAAAAwDA0PgAAAAAAgGFofAAAAAAAAMPQ+AAAAAAAAIah8QEAAAAAAAxD4wMAAAAAABiGxgcAAAAAADAMjQ8AAAAAAGAYGh8AAAAAAMAwND4AAAAAAIBhaHwAAAAAAADD0PgAAAAAAACGofEBAAAAAAAMQ+MDAAAAAAAYhsYHAAAAAAAwDI0PAAAAAABgGBofAAAAAADAMDQ+AAAAAACAYWh8AAAAAAAAw9D4AAAAAAAAhqHxAQAAAAAADEPjAwAAAAAAGIbGBwAAAAAAMAyNDwAAAAAAYBgaHwAAAAAAwDA0PgAAAAAAgGFofAAAAAAAAMPQ+AAAAAAAAIah8QEAAAAAAAxD4wMAAAAAABiGxgcAAAAAADAMjQ8AAAAAAGAYGh8AAAAAAMAwND4AAAAAAIBhaHwAAAAAAADD0PgAAAAAAACGofEBAAAAAAAMQ+MDAAAAAAAYhsYHAAAAAAAwDI0PAAAAAABgGBofAAAAAADAMDQ+AAAAAACAYWh8AAAAAAAAw9D4AAAAAAAAhqHxAQAAAAAADEPjAwAAAAAAGIbGBwAAAAAAMAyNDwAAAAAAYBgaHwAAAAAAwDA0PgAAAAAAgGFofAAAAAAAAMPQ+AAAAAAAAIah8QEAAAAAAAxD4wMAAAAAABiGxgcAAAAAADAMjQ8AAAAAAGAYGh8AAAAAAMAwND4AAAAAAIBhaHwAAAAAAADD0PgAAAAAAACGofEBAAAAAAAMQ+MDAAAAAAAYhsYHAAAAAAAwDI0PAAAAAABgGBofAAAAAADAMDQ+AAAAAACAYWh8AAAAAAAAw9D4AAAAAAAAhqHxAQAAAAAADEPjAwAAAAAAGIbGBwAAAAAAMAyNDwAAAAAAYBgaHwAAAAAAwDA0PgAAAAAAgGFofAAAAAAAAMPQ+AAAAAAAAIah8QEAAAAAAAxD4wMAAAAAABiGxgcAAAAAADAMjQ8AAAAAAGAYGh8AAAAAAMAwND4AAAAAAIBhaHwAAAAAAADD0PgAAAAAAACGofEBAAAAAAAMQ+MDAAAAAAAYhsYHAAAAAAAwDI0PAAAAAABgGBofAAAAAADAMP4/og1hbKAotdsAAAAASUVORK5CYII=;" vertex="1" parent="1">
          <mxGeometry x="-1630" y="-760" width="1598" height="900" as="geometry" />
        </mxCell>
        <mxCell id="KLeHGzE6UOqmSRrc-cGL-4" value="" style="shape=image;verticalLabelPosition=bottom;labelBackgroundColor=default;verticalAlign=top;aspect=fixed;imageAspect=0;image=data:image/png,iVBORw0KGgoAAAANSUhEUgAABi4AAAOKCAYAAAAMaagRAAAAAXNSR0IArs4c6QAAAARnQU1BAACxjwv8YQUAAAAJcEhZcwAADsMAAA7DAcdvqGQAAB7VSURBVHhe7dxBihNBFIDhxL0LVx5AZrbC4P0quZ8Isx3xLHEhgmkYMN3l+Kf5vl09uuoCP/2OY4zLAQAAAAAAIODdcgAAAAAAAPC/CBcAAAAAAECGcAEAAAAAAGQIFwAAAAAAQIZwAQAAAAAAZAgXAAAAAABAhnABAAAAAABkCBcAAAAAAECGcAEAAAAAAGQIFwAAAAAAQIZwAQAAAAAAZAgXAAAAAABAhnABAAAAAABkCBcAAAAAAECGcAEAAAAAAGQIFwAAAAAAQIZwAQAAAAAAZAgXAAAAAABAhnABAAAAAABkCBcAAAAAAECGcAEAAAAAAGQIFwAAAAAAQIZwAQAAAAAAZAgXAAAAAABAhnABAAAAAABkCBcAAAAAAECGcAEAAAAAAGQIFwAAAAAAQIZwAQAAAAAAZAgXAAAAAABAhnABAAAAAABkCBcAAAAAAECGcAEAAAAAAGQIFwAAAAAAQIZwAQAAAAAAZAgXAAAAAABAhnABAAAAAABkCBcAAAAAAECGcAEAAAAAAGQIFwAAAAAAQIZwAQAAAAAAZAgXAAAAAABAhnABAAAAAABkCBcAAAAAAECGcAEAAAAAAGQIFwAAAAAAQIZwAQAAAAAAZAgXAAAAAABAhnABAAAAAABkCBcAAAAAAECGcAEAAAAAAGQIFwAAAAAAQIZwAQAAAAAAZAgXAAAAAABAhnABAAAAAABkCBcAAAAAAECGcAEAAAAAAGQIFwAAAAAAQIZwAQAAAAAAZAgXAAAAAABAhnABAAAAAABkCBcAAAAAAECGcAEAAAAAAGQIFwAAAAAAQIZwAQAAAAAAZAgXAAAAAABAhnABAAAAAABkCBcAAAAAAECGcAEAAAAAAGQIFwAAAAAAQIZwAQAAAAAAZAgXAAAAAABAhnABAAAAAABkCBcAAAAAAECGcAEAAAAAAGQIFwAAAAAAQIZwAQAAAAAAZAgXAAAAAABAhnABAAAAAABkCBcAAAAAAECGcAEAAAAAAGQIFwAAAAAAQIZwAQAAAAAAZAgXAAAAAABAhnABAAAAAABkCBcAAAAAAECGcAEAAAAAAGQIFwAAAAAAQIZwAQAAAAAAZAgXAAAAAABAhnABAAAAAABkCBcAAAAAAECGcAEAAAAAAGQIFwAAAAAAQIZwAQAAAAAAZAgXAAAAAABAhnABAAAAAABkCBcAAAAAAECGcAEAAAAAAGQIFwAAAAAAQIZwAQAAAAAAZAgXAAAAAABAhnABAAAAAABkCBcAAAAAAECGcAEAAAAAAGQIFwAAAAAAQIZwAQAAAAAAZAgXAAAAAABAhnABAAAAAABkCBcAAAAAAECGcAEAAAAAAGQIFwAAAAAAQIZwAQAAAAAAZAgXAAAAAABAhnABAAAAAABkCBcAAAAAAECGcAEAAAAAAGQIFwAAAAAAQIZwAQAAAAAAZAgXAAAAAABAhnABAAAAAABkCBcAAAAAAECGcAEAAAAAAGQIFwAAAAAAQIZwAQAAAAAAZAgXAAAAAABAhnABAAAAAABkCBcAAAAAAECGcAEAAAAAAGQIFwAAAAAAQIZwAQAAAAAAZAgXAAAAAABAhnABAAAAAABkCBcAAAAAAECGcAEAAAAAAGQIFwAAAAAAQIZwAQAAAAAAZAgXAAAAAABAhnABAAAAAABkCBcAAAAAAECGcAEAAAAAAGQIFwAAAAAAQIZwAQAAAAAAZAgXAAAAAABAhnABAAAAAABkCBcAAAAAAECGcAEAAAAAAGQIFwAAAAAAQIZwAQAAAAAAZAgXAAAAAABAhnABAAAAAABkCBcAAAAAAECGcAEAAAAAAGQIFwAAAAAAQIZwAQAAAAAAZAgXAAAAAABAhnABAAAAAABkCBcAAAAAAECGcAEAAAAAAGQIFwAAAAAAQIZwAQAAAAAAZAgXAAAAAABAhnABAAAAAABkCBcAAAAAAECGcAEAAAAAAGQIFwAAAAAAQIZwAQAAAAAAZAgXAAAAAABAhnABAAAAAABkCBcAAAAAAECGcAEAAAAAAGQIFwAAAAAAQIZwAQAAAAAAZAgXAAAAAABAhnABAAAAAABkCBcAAAAAAECGcAEAAAAAAGQIFwAAAAAAQIZwAQAAAAAAZAgXAAAAAABAhnABAAAAAABkCBcAAAAAAECGcAEAAAAAAGQIFwAAAAAAQIZwAQAAAAAAZAgXAAAAAABAhnABAAAAAABkCBcAAAAAAECGcAEAAAAAAGQIFwAAAAAAQIZwAQAAAAAAZAgXAAAAAABAhnABAAAAAABkCBcAAAAAAECGcAEAAAAAAGQIFwAAAAAAQIZwAQAAAAAAZAgXAAAAAABAhnABAAAAAABkCBcAAAAAAECGcAEAAAAAAGQIFwAAAAAAQIZwAQAAAAAAZAgXAAAAAABAhnABAAAAAABkCBcAAAAAAECGcAEAAAAAAGQIFwAAAAAAQIZwAQAAAAAAZAgXAAAAAABAhnABAAAAAABkCBcAAAAAAECGcAEAAAAAAGQIFwAAAAAAQIZwAQAAAAAAZAgXAAAAAABAhnABAAAAAABkCBcAAAAAAECGcAEAAAAAAGQIFwAAAAAAQIZwAQAAAAAAZAgXAAAAAABAhnABAAAAAABkCBcAAAAAAECGcAEAAAAAAGQIFwAAAAAAQIZwAQAAAAAAZAgXAAAAAABAhnABAAAAAABkCBcAAAAAAECGcAEAAAAAAGQIFwAAAAAAQIZwAQAAAAAAZAgXAAAAAABAhnABAAAAAABkCBcAAAAAAECGcAEAAAAAAGQIFwAAAAAAQIZwAQAAAAAAZAgXAAAAAABAhnABAAAAAABkCBcAAAAAAECGcAEAAAAAAGQIFwAAAAAAQIZwAQAAAAAAZAgXAAAAAABAhnABAAAAAABkCBcAAAAAAECGcAEAAAAAAGQIFwAAAAAAQIZwAQAAAAAAZAgXAAAAAABAhnABAAAAAABkCBcAAAAAAECGcAEAAAAAAGQIFwAAAAAAQIZwAQAAAAAAZAgXAAAAAABAhnABAAAAAABkCBcAAAAAAECGcAEAAAAAAGQIFwAAAAAAQIZwAQAAAAAAZAgXAAAAAABAhnABAAAAAABkCBcAAAAAAECGcAEAAAAAAGQIFwAAAAAAQIZwAQAAAAAAZAgXAAAAAABAhnABAAAAAABkCBcAAAAAAECGcAEAAAAAAGQIFwAAAAAAQIZwAQAAAAAAZAgXAAAAAABAhnABAAAAAABkCBcAAAAAAECGcAEAAAAAAGQIFwAAAAAAQIZwAQAAAAAAZAgXAAAAAABAhnABAAAAAABkCBcAAAAAAECGcAEAAAAAAGQIFwAAAAAAQIZwAQAAAAAAZAgXAAAAAABAhnABAAAAAABkCBcAAAAAAECGcAEAAAAAAGQIFwAAAAAAQIZwAQAAAAAAZAgXAAAAAABAhnABAAAAAABkCBcAAAAAAECGcAEAAAAAAGQIFwAAAAAAQIZwAQAAAAAAZAgXAAAAAABAhnABAAAAAABkCBcAAAAAAECGcAEAAAAAAGQIFwAAAAAAQIZwAQAAAAAAZAgXAAAAAABAhnABAAAAAABkCBcAAAAAAECGcAEAAAAAAGQIFwAAAAAAQIZwAQAAAAAAZAgXAAAAAABAhnABAAAAAABkCBcAAAAAAECGcAEAAAAAAGQIFwAAAAAAQIZwAQAAAAAAZAgXAAAAAABAhnABAAAAAABkCBcAAAAAAECGcAEAAAAAAGQIFwAAAAAAQIZwAQAAAAAAZAgXAAAAAABAhnABAAAAAABkCBcAAAAAAECGcAEAAAAAAGQIFwAAAAAAQIZwAQAAAAAAZAgXAAAAAABAhnABAAAAAABkCBcAAAAAAECGcAEAAAAAAGQIFwAAAAAAQIZwAQAAAAAAZAgXAAAAAABAhnABAAAAAABkCBcAAAAAAECGcAEAAAAAAGQIFwAAAAAAQIZwAQAAAAAAZAgXAAAAAABAhnABAAAAAABkCBcAAAAAAECGcAEAAAAAAGQIFwAAAAAAQIZwAQAAAAAAZAgXAAAAAABAhnABAAAAAABkCBcAAAAAAECGcAEAAAAAAGQIFwAAAAAAQIZwAQAAAAAAZAgXAAAAAABAhnABAAAAAABkCBcAAAAAAECGcAEAAAAAAGQIFwAAAAAAQIZwAQAAAAAAZAgXAAAAAABAhnABAAAAAABkCBcAAAAAAECGcAEAAAAAAGQIFwAAAAAAQIZwAQAAAAAAZAgXAAAAAABAhnABAAAAAABkCBcAAAAAAECGcAEAAAAAAGQIFwAAAAAAQIZwAQAAAAAAZAgXAAAAAABAhnABAAAAAABkCBcAAAAAAECGcAEAAAAAAGQIFwAAAAAAQIZwAQAAAAAAZAgXAAAAAABAhnABAAAAAABkCBcAAAAAAECGcAEAAAAAAGQIFwAAAAAAQIZwAQAAAAAAZAgXAAAAAABAhnABAAAAAABkCBcAAAAAAECGcAEAAAAAAGQIFwAAAAAAQIZwAQAAAAAAZAgXAAAAAABAhnABAAAAAABkCBcAAAAAAECGcAEAAAAAAGQIFwAAAAAAQIZwAQAAAAAAZAgXAAAAAABAhnABAAAAAABkCBcAAAAAAECGcAEAAAAAAGQIFwAAAAAAQIZwAQAAAAAAZAgXAAAAAABAhnABAAAAAABkCBcAAAAAAECGcAEAAAAAAGQIFwAAAAAAQIZwAQAAAAAAZAgXAAAAAABAhnABAAAAAABkCBcAAAAAAECGcAEAAAAAAGQIFwAAAAAAQIZwAQAAAAAAZAgXAAAAAABAhnABAAAAAABkCBcAAAAAAECGcAEAAAAAAGQIFwAAAAAAQIZwAQAAAAAAZAgXAAAAAABAhnABAAAAAABkCBcAAAAAAECGcAEAAAAAAGQIFwAAAAAAQIZwAQAAAAAAZAgXAAAAAABAhnABAAAAAABkCBcAAAAAAECGcAEAAAAAAGQIFwAAAAAAQIZwAQAAAAAAZAgXAAAAAABAhnABAAAAAABkCBcAAAAAAECGcAEAAAAAAGQIFwAAAAAAQIZwAQAAAAAAZAgXAAAAAABAhnABAAAAAABkHMcYl+UQAABgpvPpfHUep3F1BgAA+E24AAAA/ollrHiNiAEAAPzJqigAAGC6v40Whxu/BQAA9k+4AAAAploTItbcAQAA9km4AAAAptkSILbcBQAA9kO4AAAAppgRHma8AQAA3DfhAgAAAAAAyBAuAAAAAACADOECAADYbOaKp5lvAQAA90e4AAAAAAAAMoQLAAAAAAAgQ7gAAAAAAAAyhAsAAGCzcRrL0Woz3wIAAO6PcAEAAAAAAGQIFwAAAAAAQIZwAQAATDFjxdOMNwAAgPsmXAAAANNsCQ9b7gIAAPshXAAAAFOtCRBr7gAAAPskXAAAANPdEiJu+RYAANi/4xjjshwCAADMdD6dr85iBQAA8BrhAgAAAAAAyLAqCgAAAAAAyBAuAAAAAACADOECAAAAAADIEC4AAAAAAIAM4QIAAAAAAMgQLgAAAAAAgAzhAgAAAAAAyBAuAAAAAACADOECAAAAAADIEC4AAAAAAIAM4QIAAAAAAMgQLgAAAAAAgAzhAgAAAAAAyBAuAAAAAACADOECAAAAAADIEC4AAAAAAIAM4QIAAAAAAMgQLgAAAAAAgAzhAgAAAAAAyBAuAAAAAACADOECAAAAAADIEC4AAAAAAIAM4QIAAAAAAMgQLgAAAAAAgAzhAgAAAAAAyBAuAAAAAACADOECAAAAAADIEC4AAAAAAIAM4QIAAAAAAMgQLgAAAAAAgAzhAgAAAAAAyBAuAAAAAACADOECAAAAAADIEC4AAAAAAIAM4QIAAAAAAMgQLgAAAAAAgAzhAgAAAAAAyBAuAAAAAACADOECAAAAAADIEC4AAAAAAIAM4QIAAAAAAMgQLgAAAAAAgAzhAgAAAAAAyBAuAAAAAACADOECAAAAAADIEC4AAAAAAIAM4QIAAAAAAMgQLgAAAAAAgAzhAgAAAAAAyBAuAAAAAACADOECAAAAAADIEC4AAAAAAIAM4QIAAAAAAMgQLgAAAAAAgAzhAgAAAAAAyBAuAAAAAACADOECAAAAAADIEC4AAAAAAIAM4QIAAAAAAMgQLgAAAAAAgAzhAgAAAAAAyBAuAAAAAACADOECAAAAAADIEC4AAAAAAIAM4QIAAAAAAMgQLgAAAAAAgAzhAgAAAAAAyBAuAAAAAACADOECAAAAAADIEC4AAAAAAIAM4QIAAAAAAMgQLgAAAAAAgAzhAgAAAAAAyBAuAAAAAACADOECAAAAAADIEC4AAAAAAIAM4QIAAAAAAMgQLgAAAAAAgAzhAgAAAAAAyBAuAAAAAACADOECAAAAAADIEC4AAAAAAIAM4QIAAAAAAMgQLgAAAAAAgAzhAgAAAAAAyBAuAAAAAACADOECAAAAAADIEC4AAAAAAIAM4QIAAAAAAMgQLgAAAAAAgAzhAgAAAAAAyBAuAAAAAACADOECAAAAAADIEC4AAAAAAIAM4QIAAAAAAMgQLgAAAAAAgAzhAgAAAAAAyBAuAAAAAACADOECAAAAAADIEC4AAAAAAIAM4QIAAAAAAMgQLgAAAAAAgAzhAgAAAAAAyBAuAAAAAACADOECAAAAAADIEC4AAAAAAIAM4QIAAAAAAMgQLgAAAAAAgAzhAgAAAAAAyBAuAAAAAACADOECAAAAAADIEC4AAAAAAIAM4QIAAAAAAMgQLgAAAAAAgAzhAgAAAAAAyBAuAAAAAACADOECAAAAAADIEC4AAAAAAIAM4QIAAAAAAMgQLgAAAAAAgAzhAgAAAAAAyBAuAAAAAACADOECAAAAAADIEC4AAAAAAIAM4QIAAAAAAMgQLgAAAAAAgAzhAgAAAAAAyBAuAAAAAACADOECAAAAAADIEC4AAAAAAIAM4QIAAAAAAMgQLgAAAAAAgAzhAgAAAAAAyBAuAAAAAACADOECAAAAAADIEC4AAAAAAIAM4QIAAAAAAMgQLgAAAAAAgAzhAgAAAAAAyBAuAAAAAACADOECAAAAAADIEC4AAAAAAIAM4QIAAAAAAMgQLgAAAAAAgAzhAgAAAAAAyBAuAAAAAACADOECAAAAAADIEC4AAAAAAIAM4QIAAAAAAMgQLgAAAAAAgAzhAgAAAAAAyBAuAAAAAACADOECAAAAAADIEC4AAAAAAIAM4QIAAAAAAMgQLgAAAAAAgAzhAgAAAAAAyBAuAAAAAACADOECAAAAAADIEC4AAAAAAIAM4QIAAAAAAMgQLgAAAAAAgAzhAgAAAAAAyBAuAAAAAACADOECAAAAAADIEC4AAAAAAIAM4QIAAAAAAMgQLgAAAAAAgAzhAgAAAAAAyBAuAAAAAACADOECAAAAAADIEC4AAAAAAIAM4QIAAAAAAMgQLgAAAAAAgAzhAgAAAAAAyBAuAAAAAACADOECAAAAAADIEC4AAAAAAIAM4QIAAAAAAMgQLgAAAAAAgAzhAgAAAAAAyBAuAAAAAACADOECAAAAAADIEC4AAAAAAIAM4QIAAAAAAMgQLgAAAAAAgAzhAgAAAAAAyBAuAAAAAACADOECAAAAAADIEC4AAAAAAIAM4QIAAAAAAMgQLgAAAAAAgAzhAgAAAAAAyBAuAAAAAACADOECAAAAAADIEC4AAAAAAIAM4QIAAAAAAMgQLgAAAAAAgAzhAgAAAAAAyBAuAAAAAACADOECAAAAAADIEC4AAAAAAIAM4QIAAAAAAMgQLgAAAAAAgAzhAgAAAAAAyBAuAAAAAACADOECAAAAAADIEC4AAAAAAIAM4QIAAAAAAMgQLgAAAAAAgAzhAgAAAAAAyBAuAAAAAACADOECAAAAAADIEC4AAAAAAIAM4QIAAAAAAMgQLgAAAAAAgAzhAgAAAAAAyBAuAAAAAACADOECAAAAAADIEC4AAAAAAIAM4QIAAAAAAMgQLgAAAAAAgAzhAgAAAAAAyBAuAAAAAACADOECAAAAAADIEC4AAAAAAIAM4QIAAAAAAMgQLgAAAAAAgAzhAgAAAAAAyBAuAAAAAACADOECAAAAAADIEC4AAAAAAIAM4QIAAAAAAMgQLgAAAAAAgAzhAgAAAAAAyBAuAAAAAACADOECAAAAAADIEC4AAAAAAIAM4QIAAAAAAMgQLgAAAAAAgAzhAgAAAAAAyBAuAAAAAACADOECAAAAAADIEC4AAAAAAIAM4QIAAAAAAMgQLgAAAAAAgAzhAgAAAAAAyBAuAAAAAACADOECAAAAAADIEC4AAAAAAIAM4QIAAAAAAMgQLgAAAAAAgAzhAgAAAAAAyBAuAAAAAACADOECAAAAAADIEC4AAAAAAIAM4QIAAAAAAMgQLgAAAAAAgAzhAgAAAAAAyBAuAAAAAACADOECAAAAAADIEC4AAAAAAIAM4QIAAAAAAMgQLgAAAAAAgAzhAgAAAAAAyBAuAAAAAACADOECAAAAAADIEC4AAAAAAIAM4QIAAAAAAMgQLgAAAAAAgAzhAgAAAAAAyBAuAAAAAACADOECAAAAAADIEC4AAAAAAIAM4QIAAAAAAMgQLgAAAAAAgAzhAgAAAAAAyBAuAAAAAACADOECAAAAAADIEC4AAAAAAIAM4QIAAAAAAMgQLgAAAAAAgAzhAgAAAAAAyBAuAAAAAACADOECAAAAAADIEC4AAAAAAIAM4QIAAAAAAMgQLgAAAAAAgAzhAgAAAAAAyBAuAAAAAACADOECAAAAAADIEC4AAAAAAIAM4QIAAAAAAMgQLgAAAAAAgAzhAgAAAAAAyBAuAAAAAACADOECAAAAAADIEC4AAAAAAIAM4QIAAAAAAMgQLgAAAAAAgAzhAgAAAAAAyBAuAAAAAACADOECAAAAAADIEC4AAAAAAIAM4QIAAAAAAMgQLgAAAAAAgAzhAgAAAAAAyBAuAAAAAACADOECAAAAAADIEC4AAAAAAIAM4QIAAAAAAMgQLgAAAAAAgAzhAgAAAAAAyBAuAAAAAACADOECAAAAAADIEC4AAAAAAIAM4QIAAAAAAMgQLgAAAAAAgAzhAgAAAAAAyBAuAAAAAACADOECAAAAAADIEC4AAAAAAIAM4QIAAAAAAMgQLgAAAAAAgAzhAgAAAAAAyBAuAAAAAACADOECAAAAAADIEC4AAAAAAIAM4QIAAAAAAMgQLgAAAAAAgAzhAgAAAAAAyBAuAAAAAACADOECAAAAAADIEC4AAAAAAIAM4QIAAAAAAMgQLgAAAAAAgAzhAgAAAAAAyBAuAAAAAACADOECAAAAAADIEC4AAAAAAIAM4QIAAAAAAMgQLgAAAAAAgAzhAgAAAAAAyBAuAAAAAACADOECAAAAAADIEC4AAAAAAIAM4QIAAAAAAMgQLgAAAAAAgAzhAgAAAAAAyBAuAAAAAACADOECAAAAAADIEC4AAAAAAIAM4QIAAAAAAMgQLgAAAAAAgAzhAgAAAAAAyBAuAAAAAACADOECAAAAAADIEC4AAAAAAIAM4QIAAAAAAMgQLgAAAAAAgAzhAgAAAAAAyBAuAAAAAACADOECAAAAAADIEC4AAAAAAIAM4QIAAAAAAMgQLgAAAAAAgAzhAgAAAAAAyBAuAAAAAACADOECAAAAAADIEC4AAAAAAIAM4QIAAAAAAMgQLgAAAAAAgAzhAgAAAAAAyBAuAAAAAACADOECAAAAAADIEC4AAAAAAIAM4QIAAAAAAMgQLgAAAAAAgAzhAgAAAAAAyBAuAAAAAACADOECAAAAAADIEC4AAAAAAIAM4QIAAAAAAMgQLgAAAAAAgAzhAgAAAAAAyBAuAAAAAACADOECAAAAAADIEC4AAAAAAIAM4QIAAAAAAMgQLgAAAAAAgAzhAgAAAAAAyBAuAAAAAACADOECAAAAAADIEC4AAAAAAIAM4QIAAAAAAMgQLgAAAAAAgAzhAgAAAAAAyBAuAAAAAACADOECAAAAAADIEC4AAAAAAIAM4QIAAAAAAMgQLgAAAAAAgAzhAgAAAAAAyBAuAAAAAACADOECAAAAAADIEC4AAAAAAIAM4QIAAAAAAMgQLgAAAAAAgAzhAgAAAAAAyBAuAAAAAACADOECAAAAAADIEC4AAAAAAIAM4QIAAAAAAMgQLgAAAAAAgAzhAgAAAAAAyBAuAAAAAACADOECAAAAAADIEC4AAAAAAIAM4QIAAAAAAMgQLgAAAAAAgAzhAgAAAAAAyBAuAAAAAACADOECAAAAAADIEC4AAAAAAIAM4QIAAAAAAMgQLgAAAAAAgAzhAgAAAAAAyBAuAAAAAACADOECAAAAAADIEC4AAAAAAIAM4QIAAAAAAMgQLgAAAAAAgAzhAgAAAAAAyBAuAAAAAACADOECAAAAAADIEC4AAAAAAIAM4QIAAAAAAMgQLgAAAAAAgAzhAgAAAAAAyDi+//Dxshzyy6eHx8Pzt6/LMbBzn5++HH58f1mOAQAAAIA34I8LAAAAAAAgQ7gAAAAAAAAyhAsAAAAAACBDuAAAAAAAADKECwAAAAAAIOMnvGpBrwn0pAQAAAAASUVORK5CYII=;" vertex="1" parent="1">
          <mxGeometry x="1554" y="-110" width="1582" height="906" as="geometry" />
        </mxCell>
        <mxCell id="KLeHGzE6UOqmSRrc-cGL-5" value="" style="shape=image;verticalLabelPosition=bottom;labelBackgroundColor=default;verticalAlign=top;aspect=fixed;imageAspect=0;image=data:image/png,iVBORw0KGgoAAAANSUhEUgAABjwAAAOBCAYAAABF9QkHAAAAAXNSR0IArs4c6QAAAARnQU1BAACxjwv8YQUAAAAJcEhZcwAADsMAAA7DAcdvqGQAACguSURBVHhe7d1rkF91fcfx7ya7gV3IhYtbGpJKrHZUcKo2YDtUBdQZbso4OnUUL4CxlHitM2hhxixJRxik44yiQSADiqKPirWF8MABBi9tlaiZKQiOVqIJECIMWSLZdC/ZPrDJ7jnZJbvJ2vaz+3rNMPP/fX//c/bwjD/vOed09PX1jRYAAAAAAECwee0BAAAAAABAGsEDAAAAAACIJ3gAAAAAAADxBA8AAAAAACCe4AEAAAAAAMQTPAAAAAAAgHiCBwAAAAAAEE/wAAAAAAAA4gkeAAAAAABAPMEDAAAAAACIJ3gAAAAAAADxBA8AAAAAACCe4AEAAAAAAMQTPAAAAAAAgHiCBwAAAAAAEE/wAAAAAAAA4gkeAAAAAABAPMEDAAAAAACIJ3gAAAAAAADxBA8AAAAAACCe4AEAAAAAAMQTPAAAAAAAgHiCBwAAAAAAEE/wAAAAAAAA4gkeAAAAAABAPMEDAAAAAACIJ3gAAAAAAADxBA8AAAAAACCe4AEAAAAAAMQTPAAAAAAAgHiCBwAAAAAAEE/wAAAAAAAA4gkeAAAAAABAPMEDAAAAAACIJ3gAAAAAAADxBA8AAAAAACCe4AEAAAAAAMQTPAAAAAAAgHiCBwAAAAAAEE/wAAAAAAAA4gkeAAAAAABAPMEDAAAAAACIJ3gAAAAAAADxBA8AAAAAACCe4AEAAAAAAMQTPAAAAAAAgHiCBwAAAAAAEE/wAAAAAAAA4gkeAAAAAABAPMEDAAAAAACIJ3gAAAAAAADxBA8AAAAAACCe4AEAAAAAAMQTPAAAAAAAgHiCBwAAAAAAEE/wAAAAAAAA4gkeAAAAAABAPMEDAAAAAACIJ3gAAAAAAADxBA8AAAAAACCe4AEAAAAAAMQTPAAAAAAAgHiCBwAAAAAAEE/wAAAAAAAA4gkeAAAAAABAPMEDAAAAAACIJ3gAAAAAAADxBA8AAAAAACCe4AEAAAAAAMQTPAAAAAAAgHiCBwAAAAAAEE/wAAAAAAAA4gkeAAAAAABAPMEDAAAAAACIJ3gAAAAAAADxBA8AAAAAACCe4AEAAAAAAMQTPAAAAAAAgHiCBwAAAAAAEE/wAAAAAAAA4gkeAAAAAABAPMEDAAAAAACIJ3gAAAAAAADxBA8AAAAAACCe4AEAAAAAAMQTPAAAAAAAgHiCBwAAAAAAEE/wAAAAAAAA4gkeAAAAAABAPMEDAAAAAACIJ3gAAAAAAADxBA8AAAAAACCe4AEAAAAAAMQTPAAAAAAAgHiCBwAAAAAAEE/wAAAAAAAA4gkeAAAAAABAPMEDAAAAAACIJ3gAAAAAAADxBA8AAAAAACCe4AEAAAAAAMQTPAAAAAAAgHiCBwAAAAAAEE/wAAAAAAAA4gkeAAAAAABAPMEDAAAAAACIJ3gAAAAAAADxBA8AAAAAACCe4AEAAAAAAMQTPAAAAAAAgHiCBwAAAAAAEE/wAAAAAAAA4gkeAAAAAABAPMEDAAAAAACIJ3gAAAAAAADxBA8AAAAAACCe4AEAAAAAAMQTPAAAAAAAgHiCBwAAAAAAEE/wAAAAAAAA4gkeAAAAAABAPMEDAAAAAACIJ3gAAAAAAADxBA8AAAAAACCe4AEAAAAAAMQTPAAAAAAAgHiCBwAAAAAAEE/wAAAAAAAA4gkeAAAAAABAPMEDAAAAAACIJ3gAAAAAAADxBA8AAAAAACCe4AEAAAAAAMQTPAAAAAAAgHiCBwAAAAAAEE/wAAAAAAAA4gkeAAAAAABAPMEDAAAAAACIJ3gAAAAAAADxBA8AAAAAACCe4AEAAAAAAMQTPAAAAAAAgHiCBwAAAAAAEE/wAAAAAAAA4gkeAAAAAABAPMEDAAAAAACIJ3gAAAAAAADxBA8AAAAAACCe4AEAAAAAAMQTPAAAAAAAgHiCBwAAAAAAEE/wAAAAAAAA4gkeAAAAAABAPMEDAAAAAACIJ3gAAAAAAADxBA8AAAAAACCe4AEAAAAAAMQTPAAAAAAAgHiCBwAAAAAAEE/wAAAAAAAA4gkeAAAAAABAPMEDAAAAAACIJ3gAAAAAAADxBA8AAAAAACCe4AEAAAAAAMQTPAAAAAAAgHiCBwAAAAAAEE/wAAAAAAAA4gkeAAAAAABAPMEDAAAAAACIJ3gAAAAAAADxBA8AAAAAACCe4AEAAAAAAMQTPAAAAAAAgHiCBwAAAAAAEE/wAAAAAAAA4gkeAAAAAABAPMEDAAAAAACIJ3gAAAAAAADxBA8AAAAAACCe4AEAAAAAAMQTPAAAAAAAgHiCBwAAAAAAEE/wAAAAAAAA4gkeAAAAAABAPMEDAAAAAACIJ3gAAAAAAADxBA8AAAAAACCe4AEAAAAAAMQTPAAAAAAAgHiCBwAAAAAAEE/wAAAAAAAA4gkeAAAAAABAPMEDAAAAAACIJ3gAAAAAAADxBA8AAAAAACCe4AEAAAAAAMQTPAAAAAAAgHiCBwAAAAAAEE/wAAAAAAAA4gkeAAAAAABAPMEDAAAAAACIJ3gAAAAAAADxBA8AAAAAACCe4AEAAAAAAMQTPAAAAAAAgHiCBwAAAAAAEE/wAAAAAAAA4gkeAAAAAABAPMEDAAAAAACIJ3gAAAAAAADxBA8AAAAAACCe4AEAAAAAAMQTPAAAAAAAgHiCBwAAAAAAEE/wAAAAAAAA4gkeAAAAAABAPMEDAAAAAACIJ3gAAAAAAADxBA8AAAAAACCe4AEAAAAAAMQTPAAAAAAAgHiCBwAAAAAAEE/wAAAAAAAA4gkeAAAAAABAPMEDAAAAAACIJ3gAAAAAAADxBA8AAAAAACCe4AEAAAAAAMQTPAAAAAAAgHiCBwAAAAAAEE/wAAAAAAAA4gkeAAAAAABAPMEDAAAAAACIJ3gAAAAAAADxBA8AAAAAACCe4AEAAAAAAMQTPAAAAAAAgHiCBwAAAAAAEE/wAAAAAAAA4gkeAAAAAABAPMEDAAAAAACIJ3gAAAAAAADxBA8AAAAAACCe4AEAAAAAAMQTPAAAAAAAgHiCBwAAAAAAEE/wAAAAAAAA4gkeAAAAAABAPMEDAAAAAACIJ3gAAAAAAADxBA8AAAAAACCe4AEAAAAAAMQTPAAAAAAAgHiCBwAAAAAAEE/wAAAAAAAA4gkeAAAAAABAPMEDAAAAAACIJ3gAAAAAAADxBA8AAAAAACCe4AEAAAAAAMQTPAAAAAAAgHiCBwAAAAAAEE/wAAAAAAAA4gkeAAAAAABAPMEDAAAAAACIJ3gAAAAAAADxBA8AAAAAACCe4AEAAAAAAMQTPAAAAAAAgHiCBwAAAAAAEE/wAAAAAAAA4gkeAAAAAABAPMEDAAAAAACIJ3gAAAAAAADxBA8AAAAAACCe4AEAAAAAAMQTPAAAAAAAgHiCBwAAAAAAEE/wAAAAAAAA4gkeAAAAAABAPMEDAAAAAACIJ3gAAAAAAADxBA8AAAAAACCe4AEAAAAAAMQTPAAAAAAAgHiCBwAAAAAAEE/wAAAAAAAA4gkeAAAAAABAPMEDAAAAAACIJ3gAAAAAAADxBA8AAAAAACCe4AEAAAAAAMQTPAAAAAAAgHiCBwAAAAAAEE/wAAAAAAAA4gkeAAAAAABAPMEDAAAAAACIJ3gAAAAAAADxBA8AAAAAACCe4AEAAAAAAMQTPAAAAAAAgHiCBwAAAAAAEE/wAAAAAAAA4gkeAAAAAABAPMEDAAAAAACIJ3gAAAAAAADxBA8AAAAAACCe4AEAAAAAAMQTPAAAAAAAgHiCBwAAAAAAEE/wAAAAAAAA4gkeAAAAAABAPMEDAAAAAACIJ3gAAAAAAADxBA8AAAAAACCe4AEAAAAAAMQTPAAAAAAAgHiCBwAAAAAAEE/wAAAAAAAA4gkeAAAAAABAPMEDAAAAAACIJ3gAAAAAAADxBA8AAAAAACCe4AEAAAAAAMQTPAAAAAAAgHiCBwAAAAAAEE/wAAAAAAAA4gkeAAAAAABAPMEDAAAAAACIJ3gAAAAAAADxBA8AAAAAACCe4AEAAAAAAMQTPAAAAAAAgHiCBwAAAAAAEE/wAAAAAAAA4gkeAAAAAABAPMEDAAAAAACIJ3gAAAAAAADxBA8AAAAAACCe4AEAAAAAAMQTPAAAAAAAgHiCBwAAAAAAEE/wAAAAAAAA4gkeAAAAAABAPMEDAAAAAACIJ3gAAAAAAADxBA8AAAAAACCe4AEAAAAAAMQTPAAAAAAAgHiCBwAAAAAAEE/wAAAAAAAA4gkeAAAAAABAPMEDAAAAAACIJ3gAAAAAAADxBA8AAAAAACCe4AEAAAAAAMQTPAAAAAAAgHiCBwAAAAAAEE/wAAAAAAAA4gkeAAAAAABAPMEDAAAAAACIJ3gAAAAAAADxBA8AAAAAACCe4AEAAAAAAMQTPAAAAAAAgHiCBwAAAAAAEE/wAAAAAAAA4gkeAAAAAABAPMEDAAAAAACIJ3gAAAAAAADxBA8AAAAAACCe4AEAAAAAAMQTPAAAAAAAgHiCBwAAAAAAEE/wAAAAAAAA4gkeAAAAAABAPMEDAAAAAACIJ3gAAAAAAADxBA8AAAAAACCe4AEAAAAAAMQTPAAAAAAAgHiCBwAAAAAAEE/wAAAAAAAA4gkeAAAAAABAPMEDAAAAAACIJ3gAAAAAAADxBA8AAAAAACCe4AEAAAAAAMQTPAAAAAAAgHiCBwAAAAAAEE/wAAAAAAAA4gkeAAAAAABAPMEDAAAAAACIJ3gAAAAAAADxBA8AAAAAACCe4AEAAAAAAMQTPAAAAAAAgHiCBwAAAAAAEE/wAAAAAAAA4gkeAAAAAABAPMEDAAAAAACIJ3gAAAAAAADxBA8AAAAAACCe4AEAAAAAAMQTPAAAAAAAgHiCBwAAAAAAEE/wAAAAAAAA4gkeAAAAAABAPMEDAAAAAACIJ3gAAAAAAADxBA8AAAAAACCe4AEAAAAAAMQTPAAAAAAAgHiCBwAAAAAAEE/wAAAAAAAA4gkeAAAAAABAPMEDAAAAAACIJ3gAAAAAAADxBA8AAAAAACCe4AEAAAAAAMQTPAAAAAAAgHiCBwAAAAAAEE/wAAAAAAAA4gkeAAAAAABAPMEDAAAAAACIJ3gAAAAAAADxBA8AAAAAACCe4AEAAAAAAMQTPAAAAAAAgHiCBwAAAAAAEE/wAAAAAAAA4gkeAAAAAABAPMEDAAAAAACIJ3gAAAAAAADxBA8AAAAAACCe4AEAAAAAAMQTPAAAAAAAgHiCBwAAAAAAEK+jr69vtD0EAACYSVddddXzrgEAAA6X4AEAAPxeTDVqTPV7AAAAz8cjrQAAgBk3nYgxne8CAABMRvAAAABm1KEEjEM5BgAAYDzBAwAAmDGHEy4O51gAAADBAwAAmBEzESxm4hwAAMDcJHgAAAAAAADxBA8AAAAAACCe4AEAABy2mXwU1UyeCwAAmDsEDwAAAAAAIJ7gAQAAAAAAxBM8AAAAAACAeIIHAABw2GbyvRszeS4AAGDuEDwAAAAAAIB4ggcAAAAAABBP8AAAAGbETDyKaibOAQAAzE2CBwAAMGMOJ1gczrEAAACCBwAAMKMOJVwcyjEAAADjCR4AAMCMm07AmM53AQAAJtPR19c32h4CAADMpHbUaK8BAAAOl+ABAAAAAADE80grAAAAAAAgnuABAAAAAADEEzwAAAAAAIB4ggcAAAAAABBP8AAAAAAAAOIJHgAAAAAAQDzBAwAAAAAAiCd4AAAAAAAA8QQPAAAAAAAgnuABAAAAAADEEzwAAAAAAIB4ggcAAAAAABBP8AAAAAAAAOIJHgAAAAAAQDzBAwAAAAAAiCd4AAAAAAAA8QQPAAAAAAAgnuABAAAAAADEEzwAAAAAAIB4ggcAAAAAABBP8AAAAAAAAOIJHgAAAAAAQDzBAwAAAAAAiCd4AAAAAAAA8QQPAAAAAAAgnuABAAAAAADEEzwAAAAAAIB4ggcAAAAAABBP8AAAAAAAAOIJHgAAAAAAQDzBAwAAAAAAiCd4AAAAAAAA8QQPAAAAAAAgnuABAAAAAADEEzwAAAAAAIB4ggcAAAAAABBP8AAAAAAAAOIJHgAAAAAAQDzBAwAAAAAAiCd4AAAAAAAA8QQPAAAAAAAgnuABAAAAAADEEzwAAAAAAIB4ggcAAAAAABBP8AAAAAAAAOIJHgAAAAAAQDzBAwAAAAAAiCd4AAAAAAAA8QQPAAAAAAAgnuABAAAAAADEEzwAAAAAAIB4ggcAAAAAABBP8AAAAAAAAOIJHgAAAAAAQDzBAwAAAAAAiCd4AAAAAAAA8QQPAAAAAAAgnuABAAAAAADEEzwAAAAAAIB4ggcAAAAAABBP8AAAAAAAAOIJHgAAAAAAQDzBAwAAAAAAiCd4AAAAAAAA8QQPAAAAAAAgnuABAAAAAADEEzwAAAAAAIB4ggcAAAAAABBP8AAAAAAAAOIJHgAAAAAAQDzBAwAAAAAAiCd4AAAAAAAA8QQPAAAAAAAgnuABAAAAAADEEzwAAAAAAIB4ggcAAAAAABBP8AAAAAAAAOIJHgAAAAAAQDzBAwAAAAAAiCd4AAAAAAAA8QQPAAAAAAAgnuABAAAAAADEEzwAAAAAAIB4ggcAAAAAABBP8AAAAAAAAOIJHgAAAAAAQDzBAwAAAAAAiCd4AAAAAAAA8QQPAAAAAAAgnuABAAAAAADEEzwAAAAAAIB4ggcAAAAAABBP8AAAAAAAAOIJHgAAAAAAQDzBAwAAAAAAiCd4AAAAAAAA8QQPAAAAAAAgnuABAAAAAADEEzwAAAAAAIB4ggcAAAAAABBP8AAAAAAAAOIJHgAAAAAAQDzBAwAAAAAAiCd4AAAAAAAA8QQPAAAAAAAgnuABAAAAAADEEzwAAAAAAIB4ggcAAAAAABBP8AAAAAAAAOIJHgAAAAAAQDzBAwAAAAAAiCd4AAAAAAAA8QQPAAAAAAAgnuABAAAAAADEEzwAAAAAAIB4ggcAAAAAABBP8AAAAAAAAOIJHgAAAAAAQDzBAwAAAAAAiCd4AAAAAAAA8QQPAAAAAAAgnuABAAAAAADEEzwAAAAAAIB4ggcAAAAAABBP8AAAAAAAAOIJHgAAAAAAQDzBAwAAAAAAiCd4AAAAAAAA8QQPAAAAAAAgnuABAAAAAADEEzwAAAAAAIB4ggcAAAAAABBP8AAAAAAAAOIJHgAAAAAAQDzBAwAAAAAAiCd4AAAAAAAA8QQPAAAAAAAgnuABAAAAAADEEzwAAAAAAIB4ggcAAAAAABBP8AAAAAAAAOIJHgAAAAAAQDzBAwAAAAAAiCd4AAAAAAAA8QQPAAAAAAAgnuABAAAAAADEEzwAAAAAAIB4ggcAAAAAABBP8AAAAAAAAOIJHgAAAAAAQDzBAwAAAAAAiCd4AAAAAAAA8QQPAAAAAAAgnuABAAAAAADEEzwAAAAAAIB4ggcAAAAAABBP8AAAAAAAAOIJHgAAAAAAQDzBAwAAAAAAiCd4AAAAAAAA8QQPAAAAAAAgnuABAAAAAADEEzwAAAAAAIB4ggcAAAAAABBP8AAAAAAAAOIJHgAAAAAAQDzBAwAAAAAAiCd4AAAAAAAA8QQPAAAAAAAgnuABAAAAAADEEzwAAAAAAIB4ggcAAAAAABBP8AAAAAAAAOIJHgAAAAAAQDzBAwAAAAAAiCd4AAAAAAAA8QQPAAAAAAAgnuABAAAAAADEEzwAAAAAAIB4ggcAAAAAABBP8AAAAAAAAOIJHgAAAAAAQDzBAwAAAAAAiCd4AAAAAAAA8QQPAAAAAAAgnuABAAAAAADEEzwAAAAAAIB4ggcAAAAAABBP8AAAAAAAAOIJHgAAAAAAQDzBAwAAAAAAiCd4AAAAAAAA8QQPAAAAAAAgnuABAAAAAADEEzwAAAAAAIB4ggcAAAAAABBP8AAAAAAAAOIJHgAAAAAAQDzBAwAAAAAAiCd4AAAAAAAA8QQPAAAAAAAgnuABAAAAAADEEzwAAAAAAIB4ggcAAAAAABBP8AAAAAAAAOIJHgAAAAAAQDzBAwAAAAAAiCd4AAAAAAAA8QQPAAAAAAAgnuABAAAAAADEEzwAAAAAAIB4ggcAAAAAABBP8AAAAAAAAOIJHgAAAAAAQDzBAwAAAAAAiCd4AAAAAAAA8QQPAAAAAAAgnuABAAAAAADEEzwAAAAAAIB4ggcAAAAAABBP8AAAAAAAAOIJHgAAAAAAQDzBAwAAAAAAiCd4AAAAAAAA8QQPAAAAAAAgnuABAAAAAADEEzwAAAAAAIB4ggcAAAAAABBP8AAAAAAAAOIJHgAAAAAAQDzBAwAAAAAAiCd4AAAAAAAA8QQPAAAAAAAgnuABAAAAAADEEzwAAAAAAIB4ggcAAAAAABBP8AAAAAAAAOIJHgAAAAAAQDzBAwAAAAAAiCd4AAAAAAAA8QQPAAAAAAAgnuABAAAAAADEEzwAAAAAAIB4ggcAAAAAABBP8AAAAAAAAOIJHgAAAAAAQDzBAwAAAAAAiCd4AAAAAAAA8QQPAAAAAAAgnuABAAAAAADEEzwAAAAAAIB4ggcAAAAAABBP8AAAAAAAAOIJHgAAAAAAQDzBAwAAAAAAiCd4AAAAAAAA8QQPAAAAAAAgnuABAAAAAADEEzwAAAAAAIB4ggcAAAAAABBP8AAAAAAAAOIJHgAAAAAAQDzBAwAAAAAAiCd4AAAAAAAA8QQPAAAAAAAgnuABAAAAAADEEzwAAAAAAIB4ggcAAAAAABBP8AAAAAAAAOIJHgAAAAAAQDzBAwAAAAAAiCd4AAAAAAAA8QQPAAAAAAAgnuABAAAAAADEEzwAAAAAAIB4ggcAAAAAABBP8AAAAAAAAOIJHgAAAAAAQDzBAwAAAAAAiCd4AAAAAAAA8QQPAAAAAAAgnuABAAAAAADEEzwAAAAAAIB4ggcAAAAAABBP8AAAAAAAAOIJHgAAAAAAQDzBAwAAAAAAiCd4AAAAAAAA8QQPAAAAAAAgnuABAAAAAADEEzwAAAAAAIB4ggcAAAAAABBP8AAAAAAAAOIJHgAAAAAAQDzBAwAAAAAAiCd4AAAAAAAA8QQPAAAAAAAgnuABAAAAAADEEzwAAAAAAIB4ggcAAAAAABBP8AAAAAAAAOIJHgAAAAAAQDzBAwAAAAAAiCd4AAAAAAAA8QQPAAAAAAAgnuABAAAAAADEEzwAAAAAAIB4ggcAAAAAABBP8AAAAAAAAOIJHgAAAAAAQDzBAwAAAAAAiCd4AAAAAAAA8QQPAAAAAAAgXkdfX99oewgAAHAoRkZG6qkdO+q+jXfXxdv2tLcndOuy7jrr3LPruN7emj9/fnsbAABgSgQPAADgsDz0vX+rP73nx9VVHe2tQzJUo3X/G19Zp59+ensLAABgUoIHAAAwbXfffXe95Ye/rM4ZihyTGa7R+pfX/HGdffbZ7S0AAIAGwQMAAJiSgYGB6v/sLbVi+PcbOSbzaOdoLf74JdXd3d3eAgAAEDwAAIDn19/fX8d/7vbqPIRfDvf+0eJa/qbX17Jlyxrzbdu21dZv319n/bq/MZ+K4Y6qpz/27lq0aFF7CwAAmMMEDwAAYFJHrl0/6UOrbju26oJLV9Xiaza0t+rZKz9QXV1d7fGEhoeHa+Gnb2qPq/+KVfXN9TfVRf3z2ltVVTVaVXv6VrfHAADAHCV4AAAAB3jk6uvrVUPz2+N6tIZq3mXvrN7e3hocHDwgdnz/zX9er371qxuzqdq8eXP9xbf+tTHb+XfvryOOOKK2b99eK268o7G3z08WjNRLr/hwewwAAMwxggcAALDfXXfdVW/f9Kv2uKqqdnz8PbVw4cL96+616xv707mrYzJDQ0O16OqbG7OBcXdx7Nq1q3o/+9XG/j53nLaizjnnnPYYAACYIwQPAACgRkdHq2fdDe1xjVTVrv+5y2K8duzYveay6uiY7OFX0zPRtYyPHlVVe/bsqUXX3lIH3oMys9cCAADkmH/GGWdc1R4CAABzx6ZNm+rFG77VHtcP3vqXdfw7zq/Ozs7G/LFt2+rYn/xs/3rrB/+qjjrqqMZ39tmyZUsNf/Frddx9m6rr/gf2/7P9+z+oHX/UW0uWLGkfUh0dHfXkK15Ui3740P7Zr16ytPGS8s7Ozho549T60TELatkjW/fPq6q67t9UP1g4r5YuXdqYAwAAs5s7PAAAYA4bvPrGWjw00pj9w7yd9cFPXdmYjTf+7o4vLhmpSz468fszutatr86D/NoY7qgaWjPxi8dv/fwXavUzYy8sb9/lMV7nuvXV1fpb/V3za8GVlzaHAADArDX26wEAAJgzBgcHq3vt+gNix/aPXfi8seOJJ55orCeKHXv37q3utQePHVVVnaO/Cyh79+5tb9XFH/lQY/3444831uMNr1ldT3z0XY3Z4qGR6l67vgYHBxtzAABgdhI8AABgjtmyZUstvmZDY3Znx3M10Le6Fi9e3Ji3Ddz6j/s/33bcxD8njvr7L7VHBzXZMV/rHXuc1sCXx/72RJYsWVIDfavrzo7nGvPF12yoLVu2NGYAAMDsM/EvFAAAYFa6/fbb62Vf2diYbXzdy+oNay5vzCZz8tDYT4gL/vqSxl5V1bYN32iPpmyiY9+y6uL9n08ZmugV5Qd6w5rL667XvrQxe9lXNtbtt9/emAEAALOL4AEAAHPEQ1/6Sq36RX9j9vTlF9WZZ57ZmE1meHi4sV6wYEFjXVX1kseeaY+mbKJju7q6Guv2NUzmrLPOqqcvv6gxW/WL/nroxtsaMwAAYPYQPAAAYA745bXra+WTzUc97V5zWfX09DRmz2fbtm3tUcNjjz3WHk3bwc5xsGsYr6enp3avuawxW7n9t/XoZ25ozAAAgNlB8AAAgFnuwWu/UCfvGVv/pkZqoG91dXR0jP/aQQ3teHr/500LD3y81I7/+Gl7NG0TnWPTorH3eIy/hqno6Oiogb7V9UyNvZz95QOj9eBnvtj4HgAAkE/wAACAWe7UPc3/7D+678ON9VTtemosNnQedeCdIU/+8vBfDD7RObrG/a3x1zAdR7b+nU8dmF7sAQAA/v8TPAAAYJZ74Mi9jfVv117fWE/VwuOP2/95+Lndjb2qqj940Unt0bRNdI6hcX9r/DVMx57Wv/MD3aONNQAAkE/wAACAWe6UT36ofto9dkfDC2p+da9dX6Oj0/uf/l29Y7Fh5a6xR0Tt0/uKl7dH0zbROVY+O/ai8vHXMBWjo6PVvXZ9HVNjj+D6aXdHnfKJDza+BwAA5BM8AABgDljxictq0wlHN2Y9626o3bsPvFNjMsuXL2+PGk488cT2aNoOdo5ly5a1R5PavXt39axrvqB80wlH14pPNF9kDgAAzA6CBwAAzBEnX/re2vDixY3Zcdd9ue67777GbDLz5zdfVD44ONhYV1X9/MRj2qMpm+jYoaGhxrqzc+wF5s/n3nvvreOu+3JjtuHFi+vkS9/bmAEAALOH4AEAAHPIhRdeWA+/79zG7NzvPFz3rLuuMZvMQwvG3gfyrZtuaexVVS1b9c72aMomOvafb751/+cHuw58jNZE7ll3XZ333Ucas4ffd25deOGFjRkAADC7CB4AADDHnHTSSdV/xarG7PzRo6p77frauXNnY97Wc/Hb939+79PNl6Hv89yn/qY9OqjJjnn3b8be39F90dsae23PPPNMda9dX+ePHtWY91+xqk466cCXoQMAALOL4AEAAHPQggULaqBvdfV3NR9T9Yef+3p1rlvfmI13wgknNNa3fO76xrqqat68eTXQt7qGx96TPqnhjqqBvtU1b96BP03a5166dGljPV7nuvW19PPfaMz6u+bXQN/qWrBgQWMOAADMTvPPOOOMq9pDAABgbpj/2pX170d31At//tjYrKq67n+gfnTMggMCR1XVr//kxDr2x797ZNRpe+bV9lNWVE9PT/trtff1p9YvTnpB7XnoZ7V4b7N+bO3cW4+/57xadMGbGvN9nnrqqXrjdx/ev/7PVRfUwkWLGt+pqtq8eXOtuPGOamabqu+d/5pa/o43t6YAAMBs1tHX1zfaHgIAAHPL6Oho9ay7oT2ukap69pOX1JFHHtmYd69t3gWye81l1dExhVs6pmCiaxnoW91Y79mzpxZde8sBoaNm+FoAAIAcggcAALDfxo0b620PbGmPq6pqx8ffUwsXLty/bkeP/itWHfbjo4aGhmrR1Tc3ZuNjx65du6r3s19t7O9zx2kr6pxzzmmPAQCAOULwAAAADvDINdfXqwYPvH/i0RqqeZe9s3p7e2twcLAWX7Ohsf/d806rlStXNmZTtWnTpnrtXT9szPZFlO3bt9eKG+9o7O3zkwUj9dIrPtweAwAAc4zgAQAATOrItetrsodD3XZs1QWXrjogelRVPXvlB6qrq6s9ntDw8HAt/PRN7XH1X7Gq/umGm+t9Oye+gtGq2tN61BUAADB3CR4AAMDz2rlzZ73g81+vzkP45XDv8kW17E2vr+XLlzfmW7durW3fvr/O2vpsYz4Vwx1Vv/nIu2rJkiXtLQAAYA4TPAAAgCnZvXt3PfvZW2rFyLz21v+KRzv31qK/vaR6enraWwAAAIIHAAAwfXfeeWe99Ue/qs5JH3g1M4ZrtL75Zy+s888/v70FAADQIHgAAACH5cHvfL9eed/m6pqh+DFUo7X5zFfWKa87vb0FAAAwKcEDAACYMSMjI/XUkzvqnrs21vsf/6/29oRuOfGIOuu8c+v43t6aP39+exsAAGBKBA8AAAAAACDe/83bBgEAAAAAAGaQ4AEAAAAAAMQTPAAAAAAAgHiCBwAAAAAAEE/wAAAAAAAA4gkeAAAAAABAPMEDAAAAAACIJ3gAAAAAAADxBA8AAAAAACCe4AEAAAAAAMQTPAAAAAAAgHiCBwAAAAAAEE/wAAAAAAAA4gkeAAAAAABAPMEDAAAAAACIJ3gAAAAAAADxBA8AAAAAACCe4AEAAAAAAMQTPAAAAAAAgHiCBwAAAAAAEE/wAAAAAAAA4gkeAAAAAABAPMEDAAAAAACIJ3gAAAAAAADxBA8AAAAAACCe4AEAAAAAAMQTPAAAAAAAgHiCBwAAAAAAEE/wAAAAAAAA4gkeAAAAAABAPMEDAAAAAACIJ3gAAAAAAADxBA8AAAAAACCe4AEAAAAAAMQTPAAAAAAAgHiCBwAAAAAAEE/wAAAAAAAA4gkeAAAAAABAPMEDAAAAAACIJ3gAAAAAAADxBA8AAAAAACCe4AEAAAAAAMQTPAAAAAAAgHiCBwAAAAAAEE/wAAAAAAAA4gkeAAAAAABAPMEDAAAAAACIJ3gAAAAAAADxBA8AAAAAACCe4AEAAAAAAMQTPAAAAAAAgHiCBwAAAAAAEE/wAAAAAAAA4gkeAAAAAABAPMEDAAAAAACIJ3gAAAAAAADxBA8AAAAAACCe4AEAAAAAAMQTPAAAAAAAgHiCBwAAAAAAEE/wAAAAAAAA4gkeAAAAAABAPMEDAAAAAACIJ3gAAAAAAADxBA8AAAAAACCe4AEAAAAAAMQTPAAAAAAAgHiCBwAAAAAAEE/wAAAAAAAA4gkeAAAAAABAPMEDAAAAAACIJ3gAAAAAAADxBA8AAAAAACCe4AEAAAAAAMQTPAAAAAAAgHiCBwAAAAAAEE/wAAAAAAAA4gkeAAAAAABAPMEDAAAAAACIJ3gAAAAAAADxBA8AAAAAACCe4AEAAAAAAMQTPAAAAAAAgHiCBwAAAAAAEE/wAAAAAAAA4gkeAAAAAABAPMEDAAAAAACI998gaBQn9GVR4gAAAABJRU5ErkJggg==;" vertex="1" parent="1">
          <mxGeometry x="1547" y="-1720" width="1596" height="897" as="geometry" />
        </mxCell>
      </root>
    </mxGraphModel>
  </diagram>
</mxfile>
